<svg id="Layer_1" data-name="Layer 1" xmlns="http://www.w3.org/2000/svg" viewBox="0 0 841.9 595.3"><rect x="286.48" y="132.25" width="201" height="116.89" fill="#fff"/><rect x="374.13" y="19.72" width="26.06" height="201" transform="translate(265.78 507.02) rotate(-89.83)" fill="#0E7490"/><path d="M487.38,251.56,286.27,251a1.06,1.06,0,0,1-1.12-1.12l.09-30a1.12,1.12,0,0,1,2.24,0l-.09,28.86,198.76.6.35-114.65-198.77-.6-.16,54a1.12,1.12,0,0,1-2.24,0L285.5,133a1.06,1.06,0,0,1,1.12-1.12l201,.6a1.06,1.06,0,0,1,1.12,1.12l-.35,116.89A1,1,0,0,1,487.38,251.56Z"/><line x1="286.4" y1="206.77" x2="286.47" y2="183.84" fill="none"/><path d="M286.39,207.89a1.05,1.05,0,0,1-1.11-1.12l.07-23a1.06,1.06,0,0,1,1.12-1.12,1,1,0,0,1,1.11,1.12l-.06,23.05A1.06,1.06,0,0,1,286.39,207.89Z"/><path d="M499.47,134.7,274.87,134a1.12,1.12,0,1,1,0-2.23l224.71.67a1.06,1.06,0,0,1,1.12,1.12A1.15,1.15,0,0,1,499.47,134.7Z"/><path d="M446.59,126.16a1,1,0,0,1-.78-.34,1.08,1.08,0,0,1,0-1.57l9.31-9.25a1.11,1.11,0,0,1,1.57,1.57l-9.32,9.25A1,1,0,0,1,446.59,126.16Z"/><path d="M455.87,126.19a1.08,1.08,0,0,1-.78-.34l-9.25-9.31a1.11,1.11,0,1,1,1.57-1.57l9.25,9.32a1.07,1.07,0,0,1,0,1.56A1,1,0,0,1,455.87,126.19Z"/><path d="M469.18,126.23a5.71,5.71,0,1,1,5.73-5.69A5.73,5.73,0,0,1,469.18,126.23Zm0-9.29a3.47,3.47,0,1,0,3.46,3.48A3.5,3.5,0,0,0,469.21,116.94Z"/><path d="M321.59,219.74h-.22a1.06,1.06,0,0,1-.78-1.34c.11-.34,10-38.68,54.24-33l2.23.34c42,5.5,54.79,7.1,66.81-10.31l7.75-11.28a1.13,1.13,0,1,1,1.9,1.24l-7.75,11.27c-12.81,18.53-26.9,16.7-68.94,11.32l-2.23-.34c-42.27-5.5-51.66,30.82-51.77,31.27A1.7,1.7,0,0,1,321.59,219.74Z"/><path d="M455.51,174.17a1.09,1.09,0,0,1-1.12-.9l-1.65-8.73L444,166.19a1.14,1.14,0,1,1-.44-2.23l9.85-1.88a1.13,1.13,0,0,1,1.34.9l1.87,9.85a1.13,1.13,0,0,1-.9,1.34Z"/><path d="M356.35,229.46a1,1,0,0,1-1.11-1.12V225a1.12,1.12,0,1,1,2.23,0v3.36A1.11,1.11,0,0,1,356.35,229.46Zm0-8.94a1.07,1.07,0,0,1-1.12-1.13V216a1.12,1.12,0,1,1,2.24,0v3.35A1.12,1.12,0,0,1,356.38,220.52Zm0-9a1.05,1.05,0,0,1-1.11-1.12v-3.36a1,1,0,0,1,1.12-1.11,1.06,1.06,0,0,1,1.12,1.12v3.35A1.14,1.14,0,0,1,356.4,211.57Zm0-8.95a1,1,0,0,1-1.11-1.12v-3.36a1.12,1.12,0,1,1,2.23,0v3.35A1.12,1.12,0,0,1,356.43,202.62Zm0-9a1.06,1.06,0,0,1-1.12-1.12v-3.36a1.12,1.12,0,0,1,2.24,0v3.36A1.12,1.12,0,0,1,356.46,193.67Zm0-8.95a1.05,1.05,0,0,1-1.11-1.12v-3.35a1.12,1.12,0,0,1,2.24,0v3.36A1.12,1.12,0,0,1,356.48,184.72Zm0-8.94a1.06,1.06,0,0,1-1.11-1.13V171.3a1.12,1.12,0,1,1,2.23,0v3.36A1.12,1.12,0,0,1,356.51,175.78Zm0-8.95a1.07,1.07,0,0,1-1.12-1.13v-3.35a1.12,1.12,0,1,1,2.24,0v3.35A1.12,1.12,0,0,1,356.54,166.83Zm0-9a1.05,1.05,0,0,1-1.11-1.12V153.4a1,1,0,0,1,1.12-1.11,1.06,1.06,0,0,1,1.12,1.12v3.35A1.13,1.13,0,0,1,356.56,157.88Z"/><path d="M417.31,229.65a1,1,0,0,1-1.11-1.12v-3.36a1.12,1.12,0,1,1,2.23,0v3.35A1.12,1.12,0,0,1,417.31,229.65Zm0-9a1.06,1.06,0,0,1-1.12-1.12v-3.36a1,1,0,0,1,1.12-1.11,1.06,1.06,0,0,1,1.12,1.12v3.35A1.12,1.12,0,0,1,417.34,220.7Zm0-8.95a1.05,1.05,0,0,1-1.11-1.12v-3.36a1.12,1.12,0,0,1,2.24,0v3.36A1.14,1.14,0,0,1,417.36,211.75Zm0-8.95a1,1,0,0,1-1.11-1.12v-3.36a1.12,1.12,0,0,1,2.23,0v3.36A1.12,1.12,0,0,1,417.39,202.8Zm0-9a1.06,1.06,0,0,1-1.12-1.12v-3.35a1.12,1.12,0,1,1,2.24,0v3.36A1.11,1.11,0,0,1,417.42,193.85Zm0-8.94a1.07,1.07,0,0,1-1.11-1.13v-3.35a1.12,1.12,0,0,1,2.24,0v3.36A1.13,1.13,0,0,1,417.44,184.91Zm0-8.95a1,1,0,0,1-1.11-1.12v-3.36a1.12,1.12,0,1,1,2.23,0v3.35A1.12,1.12,0,0,1,417.47,176Zm0-9a1.06,1.06,0,0,1-1.12-1.12v-3.36a1.12,1.12,0,0,1,2.24,0v3.35A1.12,1.12,0,0,1,417.5,167Zm0-8.95a1.05,1.05,0,0,1-1.11-1.12v-3.36a1.12,1.12,0,0,1,2.24,0V157A1.12,1.12,0,0,1,417.52,158.06Z"/><circle cx="356.48" cy="187.07" r="7.61" transform="translate(113.76 508.26) rotate(-80.61)" fill="#0E7490"/><circle cx="417.43" cy="190.95" r="7.61" transform="translate(225.23 607.8) rotate(-89.83)" fill="#0E7490"/><path d="M427.2,236.2s-4.69-6.82-10.62-2.69-5.59,19-5.59,19l22.81-3.13Z" fill="#fff"/><path d="M442.86,353.87s-2.23-3.58-1.79-5.71c.56-2.34,3.81-2.34,6.38,1,2,2.57,8.28,6.49,8.28,6.49a7.66,7.66,0,0,1-7.39,2.91C443.31,358,442.86,353.87,442.86,353.87Z" fill="#fff"/><path d="M449.46,359.69a4.32,4.32,0,0,1-1.23-.12c-4.47-.56-6.15-3.58-6.48-5.36-.56-.9-2.35-4.14-1.79-6.38a3.41,3.41,0,0,1,2.46-2.46c1.9-.45,4.13.78,5.92,3s8,6.15,8.06,6.15a1.67,1.67,0,0,1,.56.67,1.3,1.3,0,0,1-.11.9A9.15,9.15,0,0,1,449.46,359.69ZM444,353.76c0,.11.56,3.24,4.59,3.69a7.28,7.28,0,0,0,5.59-1.57c-1.9-1.23-5.93-4-7.49-6-1.35-1.79-2.8-2.35-3.69-2.12a.94.94,0,0,0-.79.78c-.33,1.23,1,3.8,1.57,4.81C443.87,353.42,443.87,353.53,444,353.76Z"/><path d="M437.94,379.15c-.67,1.56-2.12,2.79-4.14,2a4.61,4.61,0,0,1-2.9-3.58l-.23.45c-.89,1.57-3.58,2.68-5,.11-4.59-7.27,5.14-22.26,13.53-24.05s21.59,2.69,21.59,2.69-10.18,19.12-11.52,21.81c-2.35-.78-4-4.48-4-4.48s-.44,5.49-1.34,6.94-2.46,2.46-3.91,1.23-1.68-3.91-1.68-3.91Z" fill="#fff"/><path d="M477,331.16,433.8,313.83a24.55,24.55,0,0,1-14-14.32l-17.34-45.86,38.59-5.37,6.38,41.83,42.17,11.3h14.43s21.14,1.34,36.57,30.31c13.76,25.84,30,53.69,29,78.08L467.25,391.23l5.93-36.91c2.12-5.15,3.35-13.76,4.13-21.93Z" fill="#fff"/><path d="M503.38,296.38s-.56,8.72-1.12,12.08a15,15,0,0,1-11.41-.67L489,297.72v-.34c-17.68-2.57-17.12-15.32-16.78-20.35.22-5.26-2.46-7-2.46-7s-9.06-4.14-7.61-7.83,7.61-3.47,7.61-3.47l2.68-.11,33.89-.67Z" fill="#fff"/><path d="M494.32,236s-14.88-10.74-25.73-5.37S470,252.53,470,252.53s15.1,23.27,59.06,17.11c1.68-10.4,2.35-24.72-10.62-32.88-5.6-3.58-14.1-2.8-21.93-.9Z" fill="#fff"/><path d="M544.43,475.9l10.4,5.48-3.13,15.44s-13.43,4.14-18.57,6.37c-3.58,1.46-3.69,3.92,4.92,3.92h25.84l21.48-51.45-30.65-4Z" fill="#fff"/><path d="M564,508.23H538.16c-5.25,0-7.94-.9-8.27-2.69-.12-.78,0-2.23,2.9-3.46,4.59-1.91,15.33-5.37,18-6.16l2.91-14-9.73-5a1.12,1.12,0,0,1-.56-1.46l10.29-24.27a1.06,1.06,0,0,1,1.12-.67l30.65,4a.84.84,0,0,1,.78.56,1.09,1.09,0,0,1,.11,1L564.9,507.56C564.9,507.89,564.45,508.23,564,508.23Zm-31.88-3.13c.34.22,1.68.89,6,.89h25.17l20.58-49.33L555.5,453,546,475.57l9.51,4.92a1.12,1.12,0,0,1,.56,1.23l-3.13,15.43a1.25,1.25,0,0,1-.79.9c-.11,0-13.42,4.14-18.45,6.26C532.68,504.54,532.23,504.87,532.12,505.1Z"/><path d="M466.8,478.92l1,28.19H392.75c-5.48,0-9.28-1.34-9.73-3.69s5.37-3.13,5.37-3.13l44.29-7.72,1.57-15.1Z" fill="#fff"/><path d="M467.81,508.23H392.75c-6.26,0-10.18-1.68-10.85-4.59a2.34,2.34,0,0,1,.45-1.9c1.23-1.79,5.15-2.46,5.93-2.68l43.4-7.61,1.45-14.21a1.18,1.18,0,0,1,1.12-1l32.66,1.56a1.2,1.2,0,0,1,1.12,1.12l1,28.19a1,1,0,0,1-.34.78C468.37,508,468.14,508.23,467.81,508.23Zm-32.66-29.76-1.46,14a1.19,1.19,0,0,1-.89,1l-44.3,7.72c-1.45.22-3.91.9-4.47,1.68-.11.11,0,.11,0,.11.33,1.34,3.13,2.8,8.61,2.8h73.94l-.9-25.95Z"/><path d="M487.16,416.62l81.09,22.82-26,50.78-86.46-41.39,4.92-35.57Z" fill="#0E7490"/><path d="M569.48,404.76,470,375.46a30,30,0,0,0-37.36,20.69l-24.6,89.15H477l1.9-61.52,42.06,17.89a33.35,33.35,0,0,0,45.63-23.48Z" fill="#0E7490"/><path d="M534.14,445.81A34.66,34.66,0,0,1,520.49,443l-54.14-23.49a1.11,1.11,0,0,1,.9-2l54,23.38a32,32,0,0,0,39.93-12.53,1.14,1.14,0,0,1,1.91,1.23A33.86,33.86,0,0,1,534.14,445.81Z"/><path d="M405.5,221.43s-4.13,2.69-2.23,4.7,7.16,0,7.16,0,5.37-1.68,6.6-4S410.76,217.63,405.5,221.43Z" fill="#fff"/><path d="M406,228.15a4.6,4.6,0,0,1-3.47-1.23,3,3,0,0,1-.78-2.24c.23-2,2.69-3.8,3.13-4.14,4.48-3.24,10.41-2.68,12.42-.9a2.31,2.31,0,0,1,.67,2.91c-1.45,2.8-6.71,4.48-7.27,4.59A11.67,11.67,0,0,1,406,228.15Zm6.27-7.72a10.65,10.65,0,0,0-6,1.9h0a5.34,5.34,0,0,0-2.24,2.57c0,.11,0,.23.22.45.9,1,4,.45,5.93-.34,1.9-.56,5.26-2,6-3.58,0-.11-.22-.44-1.23-.78A18.84,18.84,0,0,0,412.22,220.43Zm-6.72,1Z"/><path d="M433.8,249.29s-3.46-12.08,1.68-29c.56-3.47,2.13-9.85-9.84-11.52s-19.8,7.6-20.58,9.28c-1.12,2.24.22,4.92,4.69,4.47" fill="#fff"/><path d="M433.8,250.4a1.36,1.36,0,0,1-1.12-.78c-.11-.56-3.46-12.53,1.68-29.64v-.34c.34-1.9.79-4.25-.67-6.26-1.34-1.79-4.14-3-8.28-3.69-11.4-1.57-18.9,7.38-19.46,8.72a1.94,1.94,0,0,0,0,1.91c.56.78,1.9,1.11,3.58.89a1.06,1.06,0,0,1,1.23,1,1.11,1.11,0,0,1-1,1.23c-3.46.33-5-1-5.59-1.79a4.39,4.39,0,0,1-.22-4.25c1.23-2.57,9.73-11.63,21.81-10,4.81.67,8.05,2.13,9.73,4.59,2,2.68,1.46,5.93,1,7.94l-.11.34v.11c-5,16.44-1.79,28.3-1.68,28.41a1.07,1.07,0,0,1-.78,1.34C434,250.4,433.92,250.4,433.8,250.4Z"/><path d="M439.28,232.62l-59.17-21.36a3.53,3.53,0,0,1-2.12-4.59h0a3.52,3.52,0,0,1,4.58-2.13L441.75,226a3.53,3.53,0,0,1,2.12,4.59h0A3.56,3.56,0,0,1,439.28,232.62Z" fill="#fff"/><path d="M440.51,234a3.63,3.63,0,0,1-1.56-.33l-59.17-21.48a4.5,4.5,0,0,1-2.69-2.46,4.44,4.44,0,0,1-.11-3.58,4.84,4.84,0,0,1,2.46-2.68,4.47,4.47,0,0,1,3.58-.12l59.17,21.48a4.69,4.69,0,0,1,2.8,6A4.77,4.77,0,0,1,440.51,234Zm-59.17-28.52a3.27,3.27,0,0,0-1,.22,2.44,2.44,0,0,0-1.23,1.35,2.23,2.23,0,0,0,.11,1.9,2.38,2.38,0,0,0,1.34,1.23l59.17,21.47h0a2.44,2.44,0,0,0,1.68-4.58l-59.17-21.48A2.53,2.53,0,0,0,381.34,205.44Z"/><path d="M529.1,269.64s-2.35,25.17-17,25.84c-6.37.34-11.74,1.9-18.12-8.16,2.8-.12,6.26-.23,6.15-5.15s-3.91-6.93-8.16-5.26c-.45-1.11.33-9.39.33-9.39S506.4,272.55,529.1,269.64Z" fill="#0E7490"/><path d="M492.08,299.17h0c-22-1.56-21.25-16.78-21-21.81.22-4-1.57-5.7-1.9-6-1.9-.89-9.84-4.81-8-9.17s8.38-4.14,8.72-4.14a1.12,1.12,0,0,1,1.12,1.12,1.06,1.06,0,0,1-1.12,1.12c-1.45-.11-5.59.33-6.49,2.68-.78,1.79,3.81,4.81,7.05,6.38.11,0,.11,0,.11.11s3.25,2.24,2.91,8.05c-.22,4.92-1,18,18.79,19.47a1,1,0,0,1,1,1.23A1.18,1.18,0,0,1,492.08,299.17Z"/><path d="M497.56,310.81a17.31,17.31,0,0,1-7.16-1.68c-.33-.11-.45-.45-.56-.79l-1.9-10.06a1.14,1.14,0,0,1,2.24-.45l1.79,9.51a13.7,13.7,0,0,0,9.39.67c.56-3.69,1-11.19,1-11.3a1.13,1.13,0,0,1,2.24.23c0,.33-.56,8.72-1.12,12.19a1.75,1.75,0,0,1-.67.89A18.72,18.72,0,0,1,497.56,310.81Z"/><path d="M495.32,288.44a11.13,11.13,0,0,1-3.13-.56,1.17,1.17,0,0,1-.67-1.46,1.16,1.16,0,0,1,1.45-.67c1.68.56,3.14.67,4.14.11a3.87,3.87,0,0,0,1.79-2.46v-.11a5.45,5.45,0,0,0-1.23-4.92c-1.9-2.13-4.92-.67-5.14-.56a1.12,1.12,0,0,1-1.46-.56,1.17,1.17,0,0,1,.45-1.45c.22-.12,4.59-2.24,7.72,1a7.68,7.68,0,0,1,1.79,7.05,6.23,6.23,0,0,1-2.8,3.91A6.16,6.16,0,0,1,495.32,288.44Z"/><path d="M514.67,271.77c-33,0-45-17.79-45.52-18.68-.22-.34-7.61-10.29-5.82-17.67a8.85,8.85,0,0,1,4.81-5.82C479.44,224,494.2,234.52,495,235c8.39-2.24,17.89-3.24,24.16.67,13.64,8.5,12.86,23.49,11.18,34-.11.45-.44.9-.89.9A90,90,0,0,1,514.67,271.77Zm-39.26-41.5a15.59,15.59,0,0,0-6.37,1.34,6.08,6.08,0,0,0-3.58,4.37c-1.57,6.37,5.48,15.77,5.48,15.88.22.33,15.1,22.37,57.16,16.78,1.56-9.85,1.9-23.38-10.29-31s-39.82,6.16-40,6.27a1.07,1.07,0,0,1-1.45-.45,1,1,0,0,1,.45-1.45A92.46,92.46,0,0,1,492,236C489.06,234,482.12,230.27,475.41,230.27Z"/><path d="M569.59,410.91h0a1.11,1.11,0,0,1-1.11-1.11c.89-22.26-12.53-47.32-25.62-71.48-1.12-2-2.12-4-3.24-6-15-28.07-35.46-29.64-35.68-29.64a1.13,1.13,0,1,1,.22-2.24c.89,0,21.92,1.68,37.47,30.87,1.12,2,2.13,4,3.24,6.05,13.2,24.49,26.74,49.77,25.84,72.59A1.1,1.1,0,0,1,569.59,410.91Z"/><path d="M477,332.28a.69.69,0,0,1-.45-.11l-43.17-17.34A25.69,25.69,0,0,1,418.82,300L401.48,254.1a1.11,1.11,0,0,1,.11-1,1.27,1.27,0,0,1,.78-.56L441,247.16a1.11,1.11,0,0,1,1.23.9l6.27,41.16,41.38,11.07a1.15,1.15,0,0,1,.79,1.34,1.08,1.08,0,0,1-1.35.79l-42-11.19a1,1,0,0,1-.79-.89l-6.15-40.72-36.13,5,16.78,44.51a23.87,23.87,0,0,0,13.31,13.65L477.43,330a1.17,1.17,0,0,1,.67,1.46A1.35,1.35,0,0,1,477,332.28Z"/><path d="M522.62,330.38l13.31,49.44a19.61,19.61,0,0,1-24,22.93l-66.11-17.23,18.46-34.78L506,367.63" fill="#fff"/><path d="M516.8,404.43a21.55,21.55,0,0,1-5.26-.67l-66.1-17.23a1.49,1.49,0,0,1-.79-.67,1.09,1.09,0,0,1,0-1l18.46-34.78a1.1,1.1,0,0,1,1.45-.56l41.72,16.89a1.16,1.16,0,0,1,.68,1.45,1,1,0,0,1-1.46.56l-40.71-16.55-17.34,32.66,64.65,17.11A18.45,18.45,0,0,0,534.81,380L521.5,330.72a1.1,1.1,0,1,1,2.12-.56l13.31,49.44a20.46,20.46,0,0,1-6,19.23A20.77,20.77,0,0,1,516.8,404.43Z"/><path d="M441.19,384.07a3.83,3.83,0,0,1-2.13-.78c-1.79-1.46-2-4.37-2.12-4.7a1.21,1.21,0,0,1,1-1.23,1.31,1.31,0,0,1,1.23,1h0a4.91,4.91,0,0,0,1.23,3.13c.34.33.67.33.79.22a2.69,2.69,0,0,0,1.45-1.34c.56-.78,1-4.25,1.23-6.38a1.11,1.11,0,0,1,2.13-.33,10.42,10.42,0,0,0,2.57,3.46L459,357.56c-3.47-1-13.2-3.58-19.69-2.24-4.47.9-9.84,6.27-12.41,12.42-1.68,4-1.79,7.61-.45,9.95a1.38,1.38,0,0,0,1.79.9,2,2,0,0,0,1.45-1.57c-.33-4,2.24-9.5,4.48-11.29a1.08,1.08,0,0,1,1.56.22,1.09,1.09,0,0,1-.22,1.57c-1.68,1.34-3.91,6-3.58,9.39a4.13,4.13,0,0,1-3,3.92,3.64,3.64,0,0,1-4.36-1.91c-1.79-2.9-1.79-7.15.22-12,2.46-5.93,8.17-12.53,14-13.76,8.62-1.79,21.59,2.57,22.15,2.79a1,1,0,0,1,.67.68,1.23,1.23,0,0,1,0,.89l-11.41,21.7a1.27,1.27,0,0,1-1.34.56,8.16,8.16,0,0,1-2.91-2.24,12.64,12.64,0,0,1-1.23,4.25,4.33,4.33,0,0,1-3,2.24Z"/><path d="M473.18,355.44a.63.63,0,0,1-.45-.12,1,1,0,0,1-.56-1.45c4.7-11.52,5-41.95,5-42.28a1.2,1.2,0,0,1,1.12-1.12h0a1.12,1.12,0,0,1,1.12,1.12c0,1.23-.34,31.21-5.26,43.06A1,1,0,0,1,473.18,355.44Z"/><path d="M410.87,252.53c.23-.78-4.69-9.84-3.46-14.09S411.1,224,412,220.88s3.92-2.13,4.81-.56,3.25,14.76,3.25,14.76" fill="#fff"/><path d="M410.87,253.65h-.22a1.09,1.09,0,0,1-.9-1.12,15.77,15.77,0,0,0-.78-1.9c-1.34-3.36-3.69-9.06-2.57-12.42.78-2.46,1.9-7,2.91-11,.67-2.8,1.34-5.26,1.68-6.49a3.66,3.66,0,0,1,3-2.9,4,4,0,0,1,3.8,2c.89,1.68,2.91,12.86,3.35,15.1a1.14,1.14,0,1,1-2.23.45c-1.12-6.38-2.69-13.54-3.13-14.43a1.8,1.8,0,0,0-1.57-.9c-.45,0-.9.45-1.12,1.23-.34,1.23-1,3.69-1.68,6.38-1,4-2.12,8.61-2.91,11.07-.78,2.69,1.35,8.06,2.58,11,.78,2,1,2.58.89,3A1.09,1.09,0,0,1,410.87,253.65Z"/><path d="M435,382.62a5.66,5.66,0,0,1-1.67-.34,6.22,6.22,0,0,1-3.7-4.36,1.13,1.13,0,0,1,2.24-.23,3.85,3.85,0,0,0,2.24,2.69,2,2,0,0,0,1.57,0,3.62,3.62,0,0,0,1.34-2.57c.11-1.12,1.23-7.61,3.58-9.06a1.09,1.09,0,0,1,1.56.33,1.1,1.1,0,0,1-.33,1.57c-1,.67-2.35,5.14-2.58,7.49a5.66,5.66,0,0,1-2.46,4.25C436.49,382.28,435.82,382.62,435,382.62Z"/><path d="M477,486.42h0a1.12,1.12,0,0,1-1.12-1.12l1.9-61.52a1.12,1.12,0,0,1,2.24,0l-1.9,61.52A1.06,1.06,0,0,1,477,486.42Z"/><path d="M265.4,370.52c-6.82-12.31-28.86-15.44-37.8-25.95-5.37-6.15-2.91-10.07,5-7.83,12.53,3.58,22.71,18.34,22.71,18.34S260.37,362,265.4,370.52Z" fill="#cbcbca"/><path d="M245.72,384.72c-2.8,0-4.81-3.58-1.68-5,20.36-7.05,29,11.52,29,11.52C263.72,381.82,248.51,384.61,245.72,384.72Z" fill="#cbcbca"/><path d="M276.36,424.32c1.57-4.7,8.84-16.89,13.65-23.6s8.5-16.89,3.8-17.34c-16.1-.78-17.45,32.22-17.45,32.22Z" fill="#cbcbca"/><polygon points="239.56 452.28 305.56 452.28 295.27 507.54 249.85 507.54 239.56 452.28" fill="#cbcbca"/><path d="M237.1,471.08a1.06,1.06,0,0,1,1.12-1.12h68.57a1.12,1.12,0,1,1,0,2.23H238.33A1.14,1.14,0,0,1,237.1,471.08Z"/><path d="M228.86,509.3a1.29,1.29,0,0,1,1.36-1.36h83a1.36,1.36,0,1,1,0,2.71h-82.9A1.4,1.4,0,0,1,228.86,509.3Z"/><path d="M272.34,453.4a1.06,1.06,0,0,1-.79-1.34c.12-.56,15.89-57.16-18.23-97.65A1.11,1.11,0,0,1,255,353c34.79,41.38,18.79,99.1,18.68,99.66a1.33,1.33,0,0,1-1.12.78Z"/><path d="M609.1,510.41H326.38a1.32,1.32,0,1,1,0-2.63H609.1a1.32,1.32,0,1,1,0,2.63Z"/></svg>