<svg xmlns="http://www.w3.org/2000/svg" viewBox="0 0 841.9 595.3"><g id="Layer_2" data-name="Layer 2"><rect x="365.44" y="152.37" width="153.1" height="182" fill="#fff"/><path d="M518.44,335.37h-153a.94.94,0,0,1-1-1v-182a.94.94,0,0,1,1-1h153.1a.94.94,0,0,1,1,1v182A1.09,1.09,0,0,1,518.44,335.37Zm-152-2h151.1v-180H366.44Z"/><rect x="383.44" y="176.87" width="20.4" height="14.3" fill="#cbcbca"/><rect x="415.64" y="176.87" width="20.4" height="14.3" fill="#cbcbca"/><rect x="447.84" y="176.87" width="20.4" height="14.3" fill="#cbcbca"/><rect x="479.94" y="176.87" width="20.4" height="14.3" fill="#cbcbca"/><rect x="383.44" y="202.27" width="20.4" height="14.3" fill="#cbcbca"/><rect x="415.64" y="202.27" width="20.4" height="14.3" fill="#cbcbca"/><rect x="447.84" y="202.27" width="20.4" height="14.3" fill="#cbcbca"/><rect x="479.94" y="202.27" width="20.4" height="14.3" fill="#cbcbca"/><rect x="383.44" y="227.67" width="20.4" height="14.3" fill="#cbcbca"/><rect x="415.64" y="227.67" width="20.4" height="14.3" fill="#cbcbca"/><rect x="447.84" y="227.67" width="20.4" height="14.3" fill="#cbcbca"/><rect x="479.94" y="227.67" width="20.4" height="14.3" fill="#cbcbca"/><path d="M477.44,279.37h-112a1,1,0,1,1,0-2h112a.94.94,0,0,1,1,1A1,1,0,0,1,477.44,279.37Z"/><path d="M518.44,279.37h-32.3a1,1,0,0,1,0-2h32.3a1,1,0,0,1,0,2Z"/><line x1="447.84" y1="202.27" x2="468.24" y2="216.57" fill="none"/><path d="M468.24,217.57a1.42,1.42,0,0,1-.6-.2l-20.4-14.3a1,1,0,1,1,1.2-1.6l20.4,14.3a.9.9,0,0,1,.2,1.4A.91.91,0,0,1,468.24,217.57Z"/><line x1="447.84" y1="216.57" x2="468.24" y2="202.27" fill="none"/><path d="M447.84,217.57a.91.91,0,0,1-.8-.4,1.06,1.06,0,0,1,.2-1.4l20.4-14.3a1,1,0,1,1,1.2,1.6l-20.4,14.3A.73.73,0,0,1,447.84,217.57Z"/><path d="M383.44,160.77a.94.94,0,0,1-1-1v-13.9a1,1,0,1,1,2,0v13.9A.94.94,0,0,1,383.44,160.77Z"/><path d="M412.74,160.77a.94.94,0,0,1-1-1v-13.9a1,1,0,0,1,2,0v13.9A1,1,0,0,1,412.74,160.77Z"/><path d="M441.94,160.77a.94.94,0,0,1-1-1v-13.9a1,1,0,1,1,2,0v13.9A.94.94,0,0,1,441.94,160.77Z"/><path d="M471.14,160.77a.94.94,0,0,1-1-1v-13.9a1,1,0,0,1,2,0v13.9A.94.94,0,0,1,471.14,160.77Z"/><path d="M500.44,160.77a.94.94,0,0,1-1-1v-13.9a1,1,0,1,1,2,0v13.9A1,1,0,0,1,500.44,160.77Z"/><path d="M305.33,244.57l-4.3-36,36.9,1.1,1.4,3.2s7,.4,7.5,4.1-6.2,4.3-7.4,5.4c-2.3,2-2.9,5.8-3.1,9.1a11.54,11.54,0,0,1-14.5,9.5l-.4-.1-.7,5.7s-6.8.7-10.9-.9Z" fill="#fff"/><path d="M267.33,333.57c.3-5.4,4.4-26.6,4.4-26.6l.4-2.2a16.3,16.3,0,0,1-8.4-20.2c4.4-12.4,10.1-28.3,11.6-31.5,2.6-5.4,9.1-7.3,9.1-7.3l36.6-1.1,4.8.6c6.3.8,9.6,5.9,11.4,10.9l4.2,11.6-5.4,21.1c.6,5.2,5.4,48.4,5.4,48.4Z" fill="#fff"/><path d="M374.13,222c-12.2-1.8-13.5,11.1-13.5,11.1l18.3,5S388.23,224.17,374.13,222Z" fill="#fff"/><rect x="234.33" y="367.32" width="185" height="135.58" fill="#fff"/><path d="M233.43,502.9V367.32c0-.45.4-.75,1-.75h185c.6,0,1,.3,1,.75V502.9c0,.45-.4.75-1,.75h-185C233.83,503.65,233.43,503.28,233.43,502.9Zm184.9-134.83h-183V502.15h183Z"/><path d="M363,454.77l-.7,11.2s29.1,16.9,29,20.7-5,2.5-5,2.5l-54.2-15.9,7-24.6Z" fill="#fff"/><path d="M386.23,490.07,332,474.17a1,1,0,0,1-.7-1.2l7-24.6a1,1,0,0,1,1.2-.7l24,6.2a1,1,0,0,1,.7,1l-.7,10.6c9.1,5.4,29,17.4,28.9,21.3a3.61,3.61,0,0,1-1.4,2.9,4.79,4.79,0,0,1-2.8.8A4.2,4.2,0,0,1,386.23,490.07ZM339.73,450l-6.4,22.7,53.3,15.6a4.51,4.51,0,0,0,3.2-.2c.2-.1.6-.4.6-1.3-.4-2.3-14.8-11.8-28.5-19.8a1.05,1.05,0,0,1-.5-.9l.7-10.4Z"/><path d="M369.63,344a27,27,0,0,1,17.9,27.6l-7.1,90.1-53.5-11.2,16.6-76.9-71.4-6.1v-34h68Z" fill="#0E7490"/><path d="M322.73,376.77l10.2,4.8s.8,33.6,4.2,35.3,4.6-3.2,4.6-3.2l12.1-55.2-24.9-5.7Z" fill="#fff"/><path d="M336.63,417.87c-3.5-1.8-4.4-25-4.7-35.6l-9.6-4.5a1.15,1.15,0,0,1-.5-1.2l6.1-24.1a1,1,0,0,1,1.2-.7l24.9,5.7a1,1,0,0,1,.8,1.2l-12.1,55.2c-.1.4-.8,3.2-2.8,4.1a2.9,2.9,0,0,1-1.4.3A5.37,5.37,0,0,1,336.63,417.87Zm-6.8-63.9-5.7,22.3,9.4,4.4a1,1,0,0,1,.6.9c.3,15.9,1.8,33.1,3.6,34.5.8.4,1.3.2,1.4.1a4.55,4.55,0,0,0,1.7-2.7l11.9-54.2Z"/><path d="M340.43,337.37c-.1-.7-7.8-69.8-8.4-75a1,1,0,1,1,2-.2c.6,5.2,8.3,74.3,8.4,75a1.17,1.17,0,0,1-.9,1.1h-.1A1,1,0,0,1,340.43,337.37Z"/><path d="M380,227.77s.8,5.5,1.1,6.5.9,4.5,3.1,3.6,1.6-7.6.8-9.6-2.1-1.8-2.1-1.8C382,226.17,380,227.77,380,227.77Z" fill="#fff"/><path d="M382.43,238.77c-1.4-.7-1.9-2.8-2.2-3.9l-.1-.3c-.3-1-1.1-6-1.2-6.6a1.09,1.09,0,0,1,.4-.9c.7-.5,2.4-1.8,3.7-1.6.8,0,2.1.5,2.9,2.5.6,1.7,1.9,9.5-1.4,10.9a5.16,5.16,0,0,1-1.1.2A1.49,1.49,0,0,1,382.43,238.77Zm.2-11.5a5.56,5.56,0,0,0-1.7.9c.3,2.2.8,5.2,1,5.8l.1.4c.2.6.6,2.3,1.2,2.6.1.1.2.1.5,0,1.3-.5,1.1-6.1.3-8.3-.4-.9-.8-1.2-1-1.2S382.83,227.47,382.63,227.27Z"/><path d="M379.83,231.27c1.7.9,3.6-2.9,4.1-4.2s1.4-5.2,0-6.2-4.3,0-4.3,0C377.13,222.07,378.13,230.37,379.83,231.27Z" fill="#fff"/><path d="M379.43,232.17c-1.6-.9-2.3-5-2.2-7.6.1-2.4.8-3.9,2-4.5h.1c.3-.1,3.3-1.2,5.2.1,2.5,1.6.5,7.1.4,7.3s-1.6,4-3.7,4.8a2.2,2.2,0,0,1-.8.1A3.55,3.55,0,0,1,379.43,232.17Zm.6-10.3c-.3.2-.7.8-.8,2.2-.3,2.8.7,6,1.2,6.4h.1c.8-.3,2-2.4,2.5-3.7.7-1.9,1.1-4.6.4-5a2.13,2.13,0,0,0-1.2-.3A6.65,6.65,0,0,0,380,221.87Z"/><path d="M373.73,226c.3,1.2.9,3.7,3.2,3.9s3-2.7,3-6.1-1.3-8-3.2-7.5a6.54,6.54,0,0,0-3.2,2.4S373.33,224.87,373.73,226Z" fill="#fff"/><path d="M376.93,230.87c-2.7-.3-3.6-3-4-4.3l-.1-.3c-.4-1.3-.3-6.2-.3-7.7,0-.2.1-.3.2-.5a7.55,7.55,0,0,1,3.8-2.8,2.25,2.25,0,0,1,1.9.5c1.6,1.4,2.5,5.1,2.5,8q0,4.65-1.8,6.3a3.18,3.18,0,0,1-2,.8Zm0-13.5a3.6,3.6,0,0,0-2.4,1.8,51.2,51.2,0,0,0,.2,6.6l.1.3c.5,1.4,1,2.8,2.3,2.9a.62.62,0,0,0,.7-.2c.3-.3,1.1-1.4,1.1-4.9,0-2.6-.9-5.6-1.8-6.4a.31.31,0,0,0-.2-.1Z"/><path d="M362.93,219.57c-.2-2.4,1.4-4.6,2.7-5,3.3-1,6.9,1,8,4.9s2,9.2,0,9.9-4.1-.4-4.8-3.4-1.8-7.9-1.8-7.9" fill="#fff"/><path d="M370.23,230a5.25,5.25,0,0,1-2.5-3.8c-.7-3-1.8-7.9-1.8-7.9l2-.4s1.1,4.9,1.8,7.9a3.49,3.49,0,0,0,1.5,2.5,2.74,2.74,0,0,0,2,.1c.8-.2.9-3.3-.6-8.6a6.42,6.42,0,0,0-3-3.8,5.08,5.08,0,0,0-3.8-.4c-.7.2-2.1,2-2,4a1,1,0,0,1-2,.2c-.1-2.9,1.7-5.6,3.5-6.1a7,7,0,0,1,5.3.6,8.27,8.27,0,0,1,3.9,5c1.1,3.7,2.5,10.1-.6,11.1a4,4,0,0,1-1.5.3A3.6,3.6,0,0,1,370.23,230Z"/><path d="M352.23,224.57h0a2.27,2.27,0,0,1,1.7-2.7l41.1-10a2.27,2.27,0,0,1,2.7,1.7h0a2.27,2.27,0,0,1-1.7,2.7l-41.1,10A2.19,2.19,0,0,1,352.23,224.57Z" fill="#fff"/><path d="M351.23,224.87a3.27,3.27,0,0,1,2.4-4l41.1-10a3.09,3.09,0,0,1,2.5.4,3,3,0,0,1,1.5,2,3.27,3.27,0,0,1-2.4,4l-41.1,10h0a2.2,2.2,0,0,1-.8.1A3.3,3.3,0,0,1,351.23,224.87Zm3.5.5,41.1-10.1a1.21,1.21,0,0,0,.9-1.5,1.56,1.56,0,0,0-.6-.8,1.73,1.73,0,0,0-1-.1l-41.1,10c-.3.1-.7.3-.8.6a1.73,1.73,0,0,0-.1,1,1.56,1.56,0,0,0,.6.8,1.73,1.73,0,0,0,1,.1Z"/><polygon points="338.43 267.67 378.93 267.67 362.93 324.77 322.43 324.77 338.43 267.67" fill="#fff"/><path d="M321.63,325.37a1,1,0,0,1-.2-.9l16-57a1.2,1.2,0,0,1,1-.7h40.5a1.23,1.23,0,0,1,.8.4,1,1,0,0,1,.2.9l-16,57a1.2,1.2,0,0,1-1,.7h-40.5A1.23,1.23,0,0,1,321.63,325.37Zm55.9-56.6h-38.4l-15.4,55h38.4Z"/><circle cx="329.43" cy="217.27" r="1.3"/><circle cx="323.93" cy="217.87" r="1.3"/><path d="M309.53,246.57a1,1,0,1,1,.7-1.9c3.1,1.2,7.8,1,9.7.9l.6-4.9a1,1,0,1,1,2,.2l-.7,5.7c-.1.5-.4.9-.9.9a18.74,18.74,0,0,1-3.6.2A23,23,0,0,1,309.53,246.57Z"/><path d="M336.13,194.37c-6.5-7.5-16.7-7.1-20.5-5.5s-6.8,1.4-10.4.6c-6.8-1.5-8.1,2.1-9.9,6.5-5.1-2.8-10.4-1.9-12.9,2.2-3.6,6,2.7,9.3-3.1,14.6s-1.2,9.1-.7,14.9-8.7,15.5-8.7,15.5l35.8,11.7s-1.5-5.6.7-9.3a14.21,14.21,0,0,0,.3-15c-2-3.5.6-7.5,2.5-11.5s-1.8-9.4-1.8-9.4h32S341.33,200.07,336.13,194.37Z" fill="#0E7490"/><path d="M294.43,196.17c0-.1-1.4-6-7.1-7.3a1,1,0,0,1-.8-1.2,1,1,0,0,1,1.2-.8c6.9,1.6,8.5,8.5,8.6,8.8a1.1,1.1,0,0,1-.8,1.2h-.2C294.93,196.87,294.43,196.57,294.43,196.17Z"/><path d="M317.33,240.47a1,1,0,0,1,.8-1.8c4.5,2.1,8.7,2.2,11.9.3a10.52,10.52,0,0,0,5-7.5c.2-3.3.7-7.5,3.4-9.8a10.1,10.1,0,0,1,2.5-1.1c2.7-.9,4.8-1.8,4.6-3.4-.3-2.3-4.9-3.1-6.5-3.2a1.09,1.09,0,0,1-.9-1.1,1.17,1.17,0,0,1,1.1-.9c.8,0,7.8.5,8.4,4.9.4,3.4-3.4,4.6-5.9,5.5a6.67,6.67,0,0,0-1.8.7c-2.1,1.8-2.5,5.7-2.7,8.4a12.68,12.68,0,0,1-6,9.1,11.72,11.72,0,0,1-6.2,1.7A20,20,0,0,1,317.33,240.47Z"/><path d="M312.63,320.47l-39.5-14.3a17.38,17.38,0,0,1-10.4-22.1c4.5-12.6,10.2-28.4,11.7-31.6,2.7-5.7,9.4-7.7,9.7-7.8a1,1,0,0,1,.5,1.9c-.1,0-6.2,1.9-8.5,6.8-1.2,2.5-5.2,13.4-11.6,31.5a15.34,15.34,0,0,0,9.2,19.5l38.5,13.9,7.5-24.5-34-6.7a1,1,0,0,1-.8-1.2,1,1,0,0,1,1.2-.8l35.1,7a1.28,1.28,0,0,1,.7.5,1.06,1.06,0,0,1,.1.8l-8.1,26.5a1,1,0,0,1-.5.6c-.1.1-.2.1-.4.1A.76.76,0,0,1,312.63,320.47Z"/><circle cx="352.63" cy="296.17" r="6.2" fill="#0E7490"/><path d="M314.93,313.07s11.3,5.1,18.8,6.9c5.5,1.3,9.7,1.8,11.1-.7,1.3-2.3-3.3-4.5-3.3-4.5s9.4,1.2,9.4-2.8c0-1.1-.2-2.4-2.9-4,3.2.2,4.3-1.9,4.5-3.4s-1.6-3.4-3.8-3.6c3.8-1.8,3.4-4.6,3.4-4.6s-.4-3.7-5.7-2.1-15.6.4-15.6.4,2.5-8.5,3.5-12.5c-2.1-1.9-4.5,4-7.5,5.5s-5.7,5.4-5.7,5.4Z" fill="#fff"/><path d="M333.73,320.77c-7.5-1.9-18.5-6.8-19-7a1.08,1.08,0,0,1-.5-1.2l6.1-19.9a.37.37,0,0,1,.1-.3c.1-.1,2.9-4.1,6.1-5.7a12.52,12.52,0,0,0,3.1-3c1.3-1.6,2.4-2.9,3.8-3a2.38,2.38,0,0,1,1.7.7,1,1,0,0,1,.3,1c-.8,3.1-2.5,8.9-3.2,11.4,2.9.3,10.1.7,14.1-.5,2.2-.7,4-.6,5.3.3a3.8,3.8,0,0,1,1.7,2.6,5,5,0,0,1-2,4.5,6.39,6.39,0,0,1,1.5,1.3,3.56,3.56,0,0,1,.9,2.7,4.78,4.78,0,0,1-3,3.9,4.17,4.17,0,0,1,1.4,3.3,3,3,0,0,1-1.1,2.4c-1.4,1.2-3.9,1.6-6,1.6a5.37,5.37,0,0,1,1,1.6,2.83,2.83,0,0,1-.2,2.2c-1,1.7-2.8,2.3-5.1,2.3A25.72,25.72,0,0,1,333.73,320.77Zm7.8-7.3c2.3.3,6.5.3,7.9-.9a1.09,1.09,0,0,0,.4-.9c0-.8,0-1.7-2.4-3.1a1.22,1.22,0,0,1-.5-1.2,1,1,0,0,1,1-.7c3,.2,3.4-1.9,3.5-2.5a1.73,1.73,0,0,0-.5-1.2,3.83,3.83,0,0,0-2.4-1.3,1.06,1.06,0,0,1-.9-.8,1.15,1.15,0,0,1,.6-1.1c3-1.5,2.8-3.5,2.8-3.6a1.74,1.74,0,0,0-.8-1.2c-.7-.5-2-.5-3.6,0-5.4,1.7-15.6.5-16,.5a1,1,0,0,1-.7-.4,1.06,1.06,0,0,1-.1-.8c0-.1,2.1-7.3,3.2-11.5a15,15,0,0,0-2.1,2.2,13.58,13.58,0,0,1-3.7,3.5,18.4,18.4,0,0,0-5.3,5l-5.8,18.9c2.7,1.2,11.6,5,17.8,6.5,4.3,1,8.9,1.8,10-.2a.47.47,0,0,0,.1-.6c-.3-1-1.9-2-2.9-2.5a1.08,1.08,0,0,1-.5-1.2,1.2,1.2,0,0,1,1-.7S341.73,313.67,341.53,313.47Z"/><path d="M336.43,302.57a.94.94,0,0,1-1-1,1,1,0,0,1,1-1c4.7.1,12.2-.7,12.3-.7a1,1,0,0,1,1.1.9,1.17,1.17,0,0,1-.9,1.1c-.2,0-6.4.7-11.2.7Z"/><path d="M334.43,308.07a1,1,0,0,1,.5-1.9c4.5,1.1,13.1.8,13.2.8a1,1,0,0,1,0,2h-2.9A49.77,49.77,0,0,1,334.43,308.07Z"/><path d="M341.53,315.77c-.3,0-7.9-.8-11.1-2.7a1,1,0,1,1,1-1.8c2.8,1.6,10.2,2.4,10.3,2.4a1,1,0,0,1,.9,1.1,1.06,1.06,0,0,1-1,.9A.1.1,0,0,0,341.53,315.77Z"/><path d="M340.43,268l-4.2-11.6c-2.2-6.2-5.8-9.6-10.5-10.2l-4.8-.6a1,1,0,1,1,.2-2l4.8.6c5.6.7,9.7,4.6,12.2,11.5l4.2,11.6a1,1,0,0,1-.6,1.3.37.37,0,0,1-.3.1A1,1,0,0,1,340.43,268Z"/><polygon points="370.63 267.67 377.93 246.67 353.23 241.57 346.33 267.67 370.63 267.67" fill="#fff"/><path d="M345.43,268.27a1,1,0,0,1-.2-.9l6.9-26.2a1.09,1.09,0,0,1,1.2-.7l24.7,5.1c.3.1.6.2.7.5a.75.75,0,0,1,.1.8l-7.3,21.1a1,1,0,0,1-.9.7h-24.3A1.09,1.09,0,0,1,345.43,268.27Zm31.2-20.9-22.7-4.7-6.3,24h22.3Z"/><path d="M369.23,231.47c-.2-1.4-1.3-3.1-3.6-5.1,3.6-1.8,4-7.3,2.1-8.2s-5.3,3.8-8.6,5.5-2.2,3.8-1.7,7.8-.9,10.8-.9,10.8,14.7,3.1,16.9,3.5,4.1-3.6,4.7-5.5a45.71,45.71,0,0,1,2.9-5.9" fill="#fff"/><path d="M373,246.87l-16.9-3.5a1,1,0,0,1-.8-1.2c0-.1,1.3-6.7.9-10.5-.1-.7-.2-1.4-.3-2-.4-2.7-.8-5,2.5-6.7a18,18,0,0,0,3.7-2.8c2.2-1.9,4.1-3.5,5.8-2.7a3.53,3.53,0,0,1,1.7,3.3,7.44,7.44,0,0,1-2.6,5.9q2.7,2.55,3,4.8a1,1,0,0,1-2,.2c-.1-.9-.7-2.3-3.2-4.5a1.22,1.22,0,0,1-.3-.9.89.89,0,0,1,.5-.8,5.8,5.8,0,0,0,2.7-4.9c0-.9-.3-1.4-.5-1.5-.5-.3-2.4,1.3-3.6,2.4a19.25,19.25,0,0,1-4.1,3.1c-1.9,1-1.9,1.9-1.4,4.7q.15.9.3,2.1a43.5,43.5,0,0,1-.8,10.1l16,3.3c1,.2,2.7-2.3,3.5-4.8a57.64,57.64,0,0,1,3-6.1,1,1,0,0,1,1.8,1,50.15,50.15,0,0,0-2.8,5.7c-.1.2-2.1,6.2-5.3,6.2A2.81,2.81,0,0,0,373,246.87Z"/><path d="M267.33,334.47a1.18,1.18,0,0,1-1.1-1.1c.4-5.4,4.6-27.9,4.8-28.9a1,1,0,0,1,2,.4c0,.3-4.4,23.4-4.7,28.7a1,1,0,0,1-1,.9Z"/><path d="M321.13,396.87l-84.8-37.7a18.53,18.53,0,0,1-10.8-23.1h0a18.48,18.48,0,0,1,21.4-12.2l88.6,19Z" fill="#0E7490"/><path d="M335.33,343.87l-85.5-18.3a1,1,0,1,1,.4-2l85.5,18.3a1,1,0,0,1,.8,1.2,1,1,0,0,1-1,.8Z"/><path d="M591,504.69H231.52a.95.95,0,0,1,0-1.9H591.1a.9.9,0,0,1,.95.95A1,1,0,0,1,591,504.69Z"/><path d="M566.09,340.24s3.74-21.9,18.49-22.78c9.91-.66,9.36,7.7,4.07,11.11S567.52,338,566,348.06C566.09,344.09,566.09,340.24,566.09,340.24Z" fill="#cbcbca"/><path d="M566.09,297.75S556.18,266.5,543,274.42c-4.3,2.86-3.09,11.45,7.15,14.42,9.91,2.86,16,12.11,16,20.58Z" fill="#cbcbca"/><path d="M566.09,262.42s3.52-23.55,32-32c12.22-3.08,17.72-.88,20.47,1.76s2.87,13.21-15.19,19.16S566,266.94,566,280.69C566.09,273.65,566.09,262.42,566.09,262.42Z" fill="#cbcbca"/><path d="M566.09,259.45s0-38.19-28-43c-9.24-.88-14.64,5.51-8.14,12.88S566.09,244.48,566.09,259.45Z" fill="#cbcbca"/><polygon points="594.38 502.99 537.8 502.99 529 409.76 603.18 409.76 594.38 502.99" fill="#cbcbca"/><path d="M604.39,437.61H527.68a1.1,1.1,0,0,1,0-2.2h76.71a1.1,1.1,0,1,1,0,2.2Z"/><path d="M566.09,412.18a1,1,0,0,1-1.1-1.1V253.84a1.1,1.1,0,0,1,2.2,0V411.08A1.1,1.1,0,0,1,566.09,412.18Z"/></g></svg>