<svg xmlns="http://www.w3.org/2000/svg" viewBox="0 0 841.9 595.3"><g id="Layer_3" data-name="Layer 3"><rect x="472.61" y="289.28" width="18.37" height="212.53" fill="#cbcbca"/><rect x="554.25" y="289.28" width="18.37" height="212.53" fill="#cbcbca"/><polygon points="430.37 252.9 430.37 284.37 622.37 284.37 622.37 172.29 430.37 172.29 430.37 206.05 430.37 252.9" fill="#fff"/><path d="M563.11,321.11V298.38a1.15,1.15,0,0,1,2.3,0v22.73a1.09,1.09,0,0,1-1.15,1.15A1.15,1.15,0,0,1,563.11,321.11Z"/><path d="M487.32,321.11V298.38a1.15,1.15,0,0,1,2.3,0v22.73a1.09,1.09,0,0,1-1.15,1.15A1.15,1.15,0,0,1,487.32,321.11Z"/><path d="M563.11,172.29V149.55a1.15,1.15,0,0,1,2.3,0v22.74a1.15,1.15,0,0,1-2.3,0Z"/><path d="M487.32,172.29V149.55a1.15,1.15,0,1,1,2.3,0v22.74a1.15,1.15,0,1,1-2.3,0Z"/><rect x="430.36" y="284.37" width="192" height="14.12" fill="#cbcbca"/><path d="M424.28,284.37a1.09,1.09,0,0,1,1.15-1.15H627.19a1.15,1.15,0,1,1,0,2.29H425.43A1.15,1.15,0,0,1,424.28,284.37Z"/><path d="M429.22,284.37V253a1.15,1.15,0,1,1,2.29,0v30.2H621.22V173.44H431.51v32.61a1.15,1.15,0,1,1-2.29,0V172.29a1.08,1.08,0,0,1,1.14-1.15h192a1.09,1.09,0,0,1,1.15,1.15V284.37a1.08,1.08,0,0,1-1.15,1.14h-192A1.15,1.15,0,0,1,429.22,284.37Z"/><path d="M500.3,235.68c-5.05-4.14-5.05-11-5.05-11.37.11-2.07-.46-8-3.1-8.27a8.38,8.38,0,0,1-6-2.64,4.69,4.69,0,0,1-1.26-3.79c.35-3.68,6.66-5.17,7.35-5.28a1.17,1.17,0,1,1,.46,2.29c-2.07.46-5.4,1.84-5.51,3.22a2.4,2.4,0,0,0,.69,2.07,6.38,6.38,0,0,0,4.36,1.83c5.28.35,5.28,9.53,5.28,10.57,0,0,0,6.08,4.25,9.53,3.1,2.41,7.7,3,13.67,1.61a1.17,1.17,0,1,1,.46,2.29,25.53,25.53,0,0,1-6.32.81A15.51,15.51,0,0,1,500.3,235.68Z"/><circle cx="507.53" cy="211.68" r="1.49"/><circle cx="501.22" cy="211.79" r="1.49"/><path d="M511.67,248.77a1.43,1.43,0,0,1-.46-.92l-.46-10.22a1.09,1.09,0,1,1,2.18-.12l.46,9.53c1.49.69,6.78,2.76,13.21-1.72.23-4.94,0-11.94,0-12.06a1.11,1.11,0,0,1,.46-1,1.06,1.06,0,0,1,1-.11,2.81,2.81,0,0,0,2.18-.12c1-.57,1.26-2.18,1.38-3.33.11-1.38-.12-2.41-.81-2.87a4.11,4.11,0,0,0-3.44-.23,1.15,1.15,0,0,1-1-.23,1.23,1.23,0,0,1-.46-1l1.38-14.59a1.08,1.08,0,0,1,1.26-1,1.13,1.13,0,0,1,1,1.26l-1.26,13a5.59,5.59,0,0,1,3.9.92c1.27.92,1.84,2.64,1.73,4.82a6.13,6.13,0,0,1-2.42,5.05,4.55,4.55,0,0,1-2.64.58c.12,2.52.12,7.69,0,11.37a1.43,1.43,0,0,1-.46.92,16.84,16.84,0,0,1-10,3.56C514.42,250.15,511.9,248.54,511.67,248.77Z"/><path d="M519,186.76C497.31,185.38,496.28,203,496.28,203L541,207.31C541,199.62,534.06,187.33,519,186.76Z" fill="#0E7490"/><path d="M531.65,230.74a1.26,1.26,0,0,1,.46-1.61c6.54-3.79,6.43-17.91,6.43-18a1.16,1.16,0,0,1,1.15-1.15h0a1.24,1.24,0,0,1,1.15,1.15c0,.58.11,15.62-7.58,20a1,1,0,0,1-.58.12A1.71,1.71,0,0,1,531.65,230.74Z"/><path d="M531.07,191.24a3.25,3.25,0,0,1,.92-2.3c.81-.92,2.3-1.26,4.14-1.15a1.16,1.16,0,0,1-.23,2.3c-1.61-.12-2.18.23-2.41.46s-.23.46-.23.46a1.18,1.18,0,0,1-1.15,1.26h0C531.53,192.27,531,191.81,531.07,191.24Z"/><path d="M560.7,284.83l-6.2-23.09a24.87,24.87,0,0,0-19.29-17.8l-7.58-1.37a1.28,1.28,0,0,1-.92-1.38,1.19,1.19,0,0,1,1.38-.92l7.58,1.38a26.73,26.73,0,0,1,21,19.4l6.2,23.09a1.08,1.08,0,0,1-.8,1.37h-.34A1.18,1.18,0,0,1,560.7,284.83Z"/><path d="M453.91,284.94l-15.16-22.16a1.13,1.13,0,0,1,.34-1.61l22.51-15.5a1.22,1.22,0,0,1,.92-.12c.23.12.57.23.69.58l13.89,27.21,8.16-17.11a27.5,27.5,0,0,1,20.67-15.39l6-.92a1.11,1.11,0,0,1,.34,2.19l-6,.92a25.1,25.1,0,0,0-18.95,14.12l-9.18,19.18a1.11,1.11,0,0,1-1,.69,1.19,1.19,0,0,1-1-.58l-14.36-28.13-20.44,14.12,14.59,21.25a1.12,1.12,0,0,1-.35,1.6,1.57,1.57,0,0,1-.69.23A1.17,1.17,0,0,1,453.91,284.94Z"/><path d="M488.36,285.4a1.07,1.07,0,0,1-.92-1.26l3.79-25.5a1.1,1.1,0,1,1,2.18.35l-3.79,25.49a1.22,1.22,0,0,1-1.15,1C488.36,285.51,488.36,285.51,488.36,285.4Z"/><path d="M443.8,259.33s-2.3-3.79-3.67-6.08-4.71-4.71-5.63-5.63c-3,1.72-6.32-5.86-7.35-7.58s-2.18-5.28-1.61-6.43,1.84-1,3.45-.35c-1.38-2.41-.81-3.67-.12-4.47s1.84-.81,3,.11c-.81-2.41-.58-4.59,1.26-5.4s4,1.84,4,1.84l-3.1-9.76a2.86,2.86,0,0,1,1.61-3.56h0a2.92,2.92,0,0,1,3.79,1.61L446.56,231s5.28-1.5,7.35.92.57,6.77-.12,9.87,3,8.61,3,8.61Z" fill="#fff"/><path d="M443.8,260.48a1.67,1.67,0,0,1-.69-.57s-2.3-3.79-3.67-6.09a25.53,25.53,0,0,0-4.25-4.36,3.22,3.22,0,0,0-.69-.58,3.65,3.65,0,0,1-1.61,0c-2.53-.8-4.48-4.25-6.2-7.46a7.82,7.82,0,0,1-.46-.81c-.8-1.37-2.64-5.74-1.61-7.58a2.63,2.63,0,0,1,2.53-1.49,3.74,3.74,0,0,1,1-3.56,2.72,2.72,0,0,1,2.18-.92c-.11-2.18.69-3.79,2.42-4.59a3.21,3.21,0,0,1,2.29-.11L433,215.81a4,4,0,0,1,2.29-4.94,3.65,3.65,0,0,1,3.1,0,3.74,3.74,0,0,1,2.19,2.18l6.77,16.54c1.84-.34,5.63-.69,7.58,1.49,2.18,2.53,1.26,6.43.46,9.53-.12.46-.23.81-.35,1.27-.46,2,1.5,5.85,2.76,7.81a1.23,1.23,0,0,1-.34,1.6l-13,9a1.57,1.57,0,0,1-.69.23Zm9.3-19.29.35-1.38c.69-2.64,1.49-5.86.11-7.46s-5.05-.92-6.2-.58a1.17,1.17,0,0,1-1.38-.69l-7.12-17.34a1.78,1.78,0,0,0-.92-.92,1.45,1.45,0,0,0-1.37,0,1.77,1.77,0,0,0-1,2.19l3.1,9.76a1.22,1.22,0,0,1-.57,1.37,1.07,1.07,0,0,1-1.49-.22c-.58-.58-2-1.84-2.76-1.5-1.49.69-.92,3-.57,4a1.15,1.15,0,0,1-.46,1.26,1,1,0,0,1-1.38,0c-.46-.34-1-.68-1.49-.22-.35.22-.92.91.23,3.1A1,1,0,0,1,430,234a1.21,1.21,0,0,1-1.38.23c-1.61-.69-1.84-.23-1.95-.11-.34.69.46,3.56,1.49,5.4a7.06,7.06,0,0,0,.46.91c.92,1.61,3.1,5.86,4.83,6.32a1.08,1.08,0,0,0,.57-.11,1.23,1.23,0,0,1,1.38.22,8.79,8.79,0,0,0,1,.92,27.82,27.82,0,0,1,4.71,4.94c.92,1.61,2.18,3.79,3,5.05l11-7.69C454.14,248.19,452.07,244.17,453.1,241.19Z"/><path d="M438.52,242.34c0,.92-1,3-3.45,1.26-1.26-.92-6.08-10.34-6.08-10.34" fill="#fff"/><path d="M434.5,244.63c-1.26-1-4.94-7.92-6.43-10.79a1.1,1.1,0,0,1,1.95-1c2.18,4.24,5.05,9.3,5.74,9.87s1,.58,1.27.46.34-.57.34-.69a1.16,1.16,0,0,1,2.3-.23,3.29,3.29,0,0,1-1.61,2.87,1.84,1.84,0,0,1-1.26.35A4.54,4.54,0,0,1,434.5,244.63Z"/><line x1="440.24" y1="233.61" x2="437.25" y2="225.34" fill="none"/><path d="M439.09,234l-3.1-8.26a1.16,1.16,0,1,1,2.18-.81l3.1,8.27a1.19,1.19,0,0,1-.68,1.49.42.42,0,0,1-.35.12A1.39,1.39,0,0,1,439.09,234Z"/><path d="M442.19,238.55c1.15,3,0,3.67-.57,4a2.52,2.52,0,0,1-3.45-.81C436.8,240,432,228.9,432,228.9" fill="#fff"/><path d="M437.14,242.68c-1.38-1.84-5.86-12.06-6.32-13.21a1.13,1.13,0,1,1,2.07-.91c1.84,4.36,5.05,11.48,6,12.63a1.35,1.35,0,0,0,1.95.46c.23-.12.81-.46,0-2.53a1.17,1.17,0,0,1,2.19-.8c1,2.64.69,4.48-1,5.39a4.32,4.32,0,0,1-1.83.46A4.17,4.17,0,0,1,437.14,242.68Z"/><path d="M447.13,237.63l-7.81,1.49a2.3,2.3,0,0,1-2.64-1.61h0a2.21,2.21,0,0,1,1.26-2.87,86.59,86.59,0,0,1,8.62-3.67" fill="#fff"/><path d="M435.53,237.86a3.48,3.48,0,0,1,2-4.25c.92-.35,1.73-.8,2.53-1.15,1.84-.8,3.56-1.61,6.2-2.53a1.17,1.17,0,0,1,.81,2.19,51.62,51.62,0,0,0-6,2.41c-.8.34-1.72.69-2.64,1.15a1.15,1.15,0,0,0-.69,1.49,1.25,1.25,0,0,0,1.38.8l7.81-1.49a1.12,1.12,0,0,1,1.38.92,1.2,1.2,0,0,1-.92,1.38l-7.81,1.49a1.52,1.52,0,0,1-.69.11A3.55,3.55,0,0,1,435.53,237.86Z"/><path d="M435.88,244.06c.46,2.64-1.27,3.56-1.27,3.56" fill="#fff"/><path d="M433.58,248.19a1.16,1.16,0,0,1,.46-1.6,2,2,0,0,0,.69-2.3,1.19,1.19,0,0,1,.92-1.38,1.2,1.2,0,0,1,1.38.92c.68,3.44-1.73,4.82-1.84,4.82a1,1,0,0,1-.58.12A1.19,1.19,0,0,1,433.58,248.19Z"/><path d="M412,501.79H208.28s-40.4,1.54-36.1-47.33S211.25,398,211.25,398s-25.1-21.14-12.22-61.31,34.68-73.2,64.39-68.25c0,0,24.88,2.1,47.66,17.4a240.33,240.33,0,0,1,24.55,18.38,143.15,143.15,0,0,1,14.42,14c38.74,43.8,54.59,115.24,54.59,115.24s24.44,10.35,34.57,31C447.9,482.42,437.77,501.79,412,501.79Z" fill="#fff"/><path d="M412,501.79H208.28s-40.4,1.54-36.1-47.33S211.25,398,211.25,398s-25.1-21.14-12.22-61.31,34.68-73.2,64.39-68.25" fill="#fff"/><path d="M207.73,502.89c-3,0-16.73-.55-26.75-11.11-8-8.48-11.45-21.14-10-37.54,3.74-42.49,30.59-54.37,38.08-56.79-5.17-5.4-22.23-26.42-11.12-61.09,6.94-21.8,16-39.52,26.09-51.41,12-14,25.32-19.92,39.62-17.61a1.06,1.06,0,1,1-.33,2.09c-25.09-4.18-48.1,20.48-63.18,67.48-12.43,39,11.67,59.88,11.89,60.1a1,1,0,0,1,.33,1.1.93.93,0,0,1-.88.77c-.33.11-34.12,7.92-38.19,55.47-1.43,15.74,1.76,27.74,9.35,35.77,10.35,10.79,25.43,10.35,25.65,10.46H412.13a1.1,1.1,0,0,1,0,2.2H208.28A.82.82,0,0,1,207.73,502.89Z"/><path d="M350.05,319.3a1,1,0,0,1-.88-.44c-8.7-11.56-38.42-31.92-38.75-32a1.12,1.12,0,0,1,1.21-1.88c1.22.89,30.38,20.7,39.19,32.59a1.18,1.18,0,0,1-.22,1.54C350.49,319.3,350.27,319.3,350.05,319.3Z"/><path d="M304.7,279s7.7-1.54,8.7,1.21-3.75,6.61-4,8.37c-.33,3.52,5.4,25.75-14.31,28l-.66.11.88,8.15s-5.94,4.84-13.09,3c-1.88-3.3-6.72-12.44-6.72-12.44s-7,7.71-10.79-2.53c-1.43-4.07.78-9.68,6.28-8.69l-5.95-16.4L303.6,275.6Z" fill="#fff"/><path d="M436,371.14s0,3.3-3,3.63c0,0-3.08,1-5.72-2.75s-20.26-11.12-25-10.35,0-16.4,0-16.4A25,25,0,0,0,414,343.4c5.39-2.53,19.37-4.07,26.31,4.84s9.35,20.48,6.71,22.35a3.39,3.39,0,0,1-4.84-.44l-.55-.66s.22,4.4-3.42,3.3a2.67,2.67,0,0,1-1.54-1Z" fill="#fff"/><path d="M296.22,438.06c-2.09-4.84-7.92-21.9-7.92-21.9l-.77-2.64a16.47,16.47,0,0,1-11.89-11.34l-12-40.95a27.75,27.75,0,0,1,9.8-29.83l7.49-5.72,14-4.18,14.09-.77a26.64,26.64,0,0,1,21.91,9.68l12,14.75,11.78,16.73,31.15-13.76L401.67,341l2.86,24.77Z" fill="#fff"/><path d="M432.93,376a1.17,1.17,0,0,1-1.1-1,1.09,1.09,0,0,1,1-1.21c1.87-.22,2-2.31,2-2.53a1.18,1.18,0,0,1,1.1-1.1h0a1.18,1.18,0,0,1,1.1,1.1,4.55,4.55,0,0,1-4,4.62C433,376,433,376,432.93,376Z"/><path d="M412.35,474.49,412,501.9h83.54s7.6.11,7.49-5.5-45.9-13.87-55.92-14.86c-3.63-6.16-7.37-13.87-7.37-13.87Z" fill="#fff"/><path d="M495.67,502.89H412a1.13,1.13,0,0,1-1.1-1.1l.33-27.41a1.16,1.16,0,0,1,.88-1.1l27.41-6.82a1,1,0,0,1,1.21.55c0,.11,3.52,7.37,7,13.32,5.28.55,18.6,2.75,31.26,5.61,25,5.62,25.1,8.81,25.1,10.24a5.72,5.72,0,0,1-1.65,4.18C500.29,502.78,496.33,502.89,495.67,502.89Zm-82.55-2.2h82.44s3.63,0,5.39-1.76a3.57,3.57,0,0,0,1-2.64c0-.11-.66-3-23.66-8.15A312.89,312.89,0,0,0,447,482.53a1.12,1.12,0,0,1-.88-.55c-3-5-5.94-11-7-13.21l-25.76,6.39Z"/><path d="M400.57,389l2.64,95.65,64-12.22-15.74-73.85c-3-13.87-15.74-22-27.73-17.72Z" fill="#0E7490"/><path d="M431.06,476.15l6.16,25.75h83.55s7.59.11,7.48-5.5-45.9-13.87-55.91-14.86c-3.64-6.16-7.38-13.87-7.38-13.87Z" fill="#fff"/><path d="M521,502.89H437.33a1.07,1.07,0,0,1-1.1-.88l-6.16-25.75a1.15,1.15,0,0,1,.77-1.33l33.9-8.47A1,1,0,0,1,466,467c0,.11,3.52,7.37,7.05,13.32,5.28.55,18.6,2.75,31.26,5.61,25,5.62,25.09,8.81,25.09,10.24a5.72,5.72,0,0,1-1.65,4.18C525.5,502.78,521.54,502.89,521,502.89Zm-82.78-2.2h82.67s3.63,0,5.39-1.76a3.57,3.57,0,0,0,1-2.64c0-.11-.66-3-23.66-8.15a312.89,312.89,0,0,0-31.26-5.61,1.12,1.12,0,0,1-.88-.55c-3-5-5.95-11-7-13.21l-32,7.93Z"/><path d="M291.6,422.87,399.14,368a27.66,27.66,0,0,1,35.11,8.47l49.09,91-60,17.39L403.1,414l-64.5,41.71a27,27,0,0,1-41.71-14.53Z" fill="#0E7490"/><path d="M307.89,274.39l-42.82,13.43,5.84,16.51s-4.84-.88-6.39,3.85c-.55,1.87.67,7.7,3.53,9.58s7.37-2.21,7.37-2.21l3.52,6.5s-18.27,5.28-26.3-10.24c-2.86-7-4.74-23.88,4.18-28.62.88-10.12,5.5-16.73,16.84-20.25C291.82,257.44,307.89,274.39,307.89,274.39Z" fill="#0E7490"/><path d="M291.71,318.09h-1.32a1.11,1.11,0,0,1,0-2.21c6.39.22,11.23-1.32,14.2-4.51,5.17-5.5,4.29-14.75,3.74-19.7-.11-1.32-.22-2.31-.22-2.86a8.27,8.27,0,0,1,1.87-3.42c1.1-1.54,2.54-3.41,2.09-4.51s-4.18-1.21-7.37-.55a1.12,1.12,0,1,1-.44-2.2c1.43-.33,8.81-1.54,9.91,2,.77,2.2-1,4.62-2.43,6.61a8.22,8.22,0,0,0-1.43,2.31c0,.44.11,1.43.22,2.53.55,5.28,1.54,15.19-4.4,21.35C303.05,316.32,298.1,318.09,291.71,318.09Z"/><path d="M285.55,329.53a13.66,13.66,0,0,1-3.63-.44c-.33-.11-.55-.22-.66-.55-1.44-2.53-4.63-8.58-6.06-11.11-1.32,1.1-3.63,2.53-6.05,2s-4.19-2.43-5.51-6a8.56,8.56,0,0,1,1.32-8.14,6.54,6.54,0,0,1,6.28-2.09,1.12,1.12,0,0,1-.44,2.2,4.08,4.08,0,0,0-4.18,1.32,6.24,6.24,0,0,0-.88,5.94c1,2.64,2.31,4.18,3.85,4.52,2.53.44,5.17-2.32,5.17-2.32a1,1,0,0,1,1-.33,1.12,1.12,0,0,1,.88.55c0,.11,4.41,8.37,6.39,12,5.17,1.21,9.79-1.54,11.22-2.53l-.77-7.48a1.11,1.11,0,1,1,2.2-.23l.88,8.15a1.19,1.19,0,0,1-.44,1C295.78,326,291.38,329.53,285.55,329.53Z"/><circle cx="289.95" cy="288.26" r="1.54"/><circle cx="296.78" cy="287.16" r="1.54"/><path d="M291.49,415.17a18,18,0,0,1-5.83-1,17.19,17.19,0,0,1-11-11.67l-12-40.95a29,29,0,0,1,10.13-30.93l7.48-5.72a1.09,1.09,0,0,1,1.55.22,1.08,1.08,0,0,1-.22,1.54l-7.49,5.72A26.73,26.73,0,0,0,264.74,361l12,40.95a15.32,15.32,0,0,0,23.56,8.14L349.83,375l-15.74-30.05L297,377.19a1.08,1.08,0,0,1-1.55-.11,1.07,1.07,0,0,1,.11-1.54l38.09-33.13a.86.86,0,0,1,.88-.22c.33.11.66.22.77.55l16.84,32.14a1.2,1.2,0,0,1-.33,1.43L301.51,412A17.48,17.48,0,0,1,291.49,415.17Z"/><polygon points="358.74 320.18 385.93 321.17 378.01 371.36 350.05 370.59 358.74 320.18" fill="#fff"/><path d="M378,372.46h0l-28-.77a.74.74,0,0,1-.77-.44.86.86,0,0,1-.22-.88L357.75,320a1,1,0,0,1,1.1-.88l27.3,1a.74.74,0,0,1,.77.44.86.86,0,0,1,.22.88l-7.92,50.19A1.46,1.46,0,0,1,378,372.46Zm-26.64-2.86,25.76.66,7.59-48-25.1-.88Z"/><path d="M337.5,349.13s6.27-3.64,8.92-7.05c3.41-4.4,8.25-6.6,9.68-6.6-.33,2.09-1,5.72-1,5.72s20.14-3.85,27.52-1.76c2.2.66,2.2,4.07.33,5.17,4.18.11,3.85,5.62.77,6.72a3.66,3.66,0,0,1-1.87,6.93c3,2.09,2.75,6.94-2.53,6.28s-26.53,2.31-31.26,4.95C346.31,366.08,337.5,349.13,337.5,349.13Z" fill="#fff"/><path d="M348.07,370.48h-.33a1.13,1.13,0,0,1-.66-.55l-10.57-20.25a1.06,1.06,0,0,1,.44-1.44c.11,0,6.16-3.63,8.59-6.82,3.63-4.73,8.8-7,10.56-7a1,1,0,0,1,.88.44.86.86,0,0,1,.22.88l-.66,4.07c5-.88,20-3.3,26.42-1.43a3.3,3.3,0,0,1,2.42,3.08,4.94,4.94,0,0,1-.44,2.53A4,4,0,0,1,387,347a4.94,4.94,0,0,1-1.43,4.3,5,5,0,0,1,1.1,4.29,4.63,4.63,0,0,1-2.64,3.3,4.44,4.44,0,0,1,.55,4.18c-.77,1.88-2.75,2.76-5.5,2.43-5.29-.66-26.2,2.42-30.6,4.84C348.4,370.48,348.29,370.48,348.07,370.48Zm-9.14-20.91L348.62,368c6.49-2.75,25.86-5.29,30.93-4.63,1.65.22,2.75-.22,3.19-1.1a3,3,0,0,0-1.32-3.19,1.08,1.08,0,0,1,.66-2,2.33,2.33,0,0,0,2.64-2,2.45,2.45,0,0,0-1.32-2.86,1.1,1.1,0,0,1-.66-1.1,1,1,0,0,1,.77-1,2.67,2.67,0,0,0,1.54-2.87,1.79,1.79,0,0,0-2-1.65,1,1,0,0,1-1-.88,1.11,1.11,0,0,1,.55-1.21,2.2,2.2,0,0,0,.88-1.87,1.34,1.34,0,0,0-.88-1.21c-7.05-2-26.75,1.76-27,1.87a.89.89,0,0,1-1-.33,1.54,1.54,0,0,1-.33-1l.66-4a19,19,0,0,0-7.48,5.83A50.6,50.6,0,0,1,338.93,349.57Z"/><path d="M364.58,347.36a1.17,1.17,0,0,1-1.1-1,1,1,0,0,1,1-1.21c3.85-.55,17.83-1.65,18.38-1.76a1.11,1.11,0,1,1,.22,2.2c-.11,0-14.42,1.21-18.27,1.65A.34.34,0,0,1,364.58,347.36Z"/><path d="M364,354.08a1.17,1.17,0,0,1-1.1-1,1.09,1.09,0,0,1,1-1.21c5.83-.66,19.59-1.87,19.7-1.87.55-.11,1.1.44,1.21,1a1.2,1.2,0,0,1-1,1.21c-.11,0-13.87,1.21-19.59,1.87Z"/><path d="M361.94,360.79a1.07,1.07,0,0,1-1.1-.88,1.21,1.21,0,0,1,.88-1.32c4.4-.77,19.37-1.54,20-1.54a1.09,1.09,0,0,1,1.1,1,1.2,1.2,0,0,1-1,1.21c-.11,0-15.52.77-19.81,1.54Z"/><path d="M294.9,321.72,309,321a26.64,26.64,0,0,1,21.91,9.68l12,14.75" fill="#fff"/><path d="M343,346.48a1,1,0,0,1-.88-.44l-12-14.75a25.34,25.34,0,0,0-21-9.24l-14.09.77a1.11,1.11,0,0,1-.22-2.2l14.09-.77A27.49,27.49,0,0,1,331.67,330l12,14.75a1.17,1.17,0,0,1-.11,1.54A.84.84,0,0,1,343,346.48Z"/><path d="M287.31,413.52s6.71,19.7,8.91,24.54" fill="#fff"/><path d="M296.22,439.16a1.06,1.06,0,0,1-1-.66c-2.09-4.84-8.69-23.88-8.91-24.65a1.11,1.11,0,1,1,2.09-.77c.11.22,6.82,19.81,8.92,24.54a1.09,1.09,0,0,1-.55,1.43A1,1,0,0,1,296.22,439.16Z"/><path d="M423.36,486.05a1.33,1.33,0,0,1-1.11-.77l-19.92-69.45-18.05,11.66a1.07,1.07,0,0,1-1.54-.33,1.08,1.08,0,0,1,.33-1.54l19.26-12.43a1.07,1.07,0,0,1,1-.11,1.16,1.16,0,0,1,.66.77l20.26,70.88a1,1,0,0,1-.77,1.32Z"/><path d="M403,415.17a1,1,0,0,1-.88-.55,1.08,1.08,0,0,1,.33-1.54l8.48-5.4a1.11,1.11,0,0,1,1.21,1.87l-8.48,5.4A.81.81,0,0,1,403,415.17Z"/><path d="M457.92,421.44a1.16,1.16,0,0,1-1-.55L435,380.16a1.13,1.13,0,0,1,2-1.1l21.91,40.73a1.11,1.11,0,0,1-.44,1.54A1,1,0,0,1,457.92,421.44Z"/><path d="M404.64,367.07a1.17,1.17,0,0,1-1.1-1l-2.64-23.23-14.42,6.61a1.09,1.09,0,0,1-.88-2l15.85-7.15a1.53,1.53,0,0,1,1,0,.87.87,0,0,1,.55.88L405.85,366a1.09,1.09,0,0,1-1,1.21Z"/><path d="M404.2,362s3.09.55,7.93,4c6.71,4.73,11.56,6.71,16,6,2.53-.55,3.08-4.51.55-5.83a67.37,67.37,0,0,1-9.14-7.27" fill="#fff"/><path d="M426.44,373.23c-4.08,0-8.7-2-15.08-6.38-4.52-3.2-7.49-3.75-7.49-3.75a1.14,1.14,0,0,1-.88-1.32,1.09,1.09,0,0,1,1.21-.88c.11,0,3.42.55,8.37,4.08,6.6,4.62,11.12,6.38,15.08,5.94a1.75,1.75,0,0,0,1.21-1.65,2.05,2.05,0,0,0-1.1-2.2,70.08,70.08,0,0,1-9.36-7.49,1.09,1.09,0,1,1,1.54-1.54c3.2,3.3,8.92,7,8.92,7.16a4.32,4.32,0,0,1,2.09,4.29,4.15,4.15,0,0,1-3,3.52h-.11A3.82,3.82,0,0,1,426.44,373.23Z"/><path d="M444.71,372.57a4.73,4.73,0,0,1-1.32-.22c-2.31-.77-4.07-3.52-5.73-8.48a24.16,24.16,0,0,0-6.49-10.45c-3.08,5.39-9.91,7.7-10.13,7.81a1.11,1.11,0,0,1-.77-2.09c.11,0,7.27-2.53,9.47-7.92a1,1,0,0,1,.66-.66,1.17,1.17,0,0,1,.88.11c.22.11,5.61,4,8.37,12.43,1.76,5.51,3.41,6.83,4.29,7a2.49,2.49,0,0,0,2.2-.55,2.1,2.1,0,0,0,.44-1.1c.55-3.52-1.76-12.22-7.48-19.59-6.39-8.26-19.6-7.05-25-4.52a26.16,26.16,0,0,1-12.22,2,1.11,1.11,0,1,1,.22-2.2,25,25,0,0,0,11.12-1.76c5.83-2.75,20.47-4.07,27.63,5.17,5.72,7.38,8.58,16.84,7.92,21.25a4.31,4.31,0,0,1-1.32,2.64A4,4,0,0,1,444.71,372.57Z"/><path d="M439.21,374.11a5.52,5.52,0,0,1-1.33-.22c-3.08-.88-4.73-5.17-6.05-8.58a23.25,23.25,0,0,0-1.43-3.2,10,10,0,0,0-4.62-3.85,1.19,1.19,0,0,1-.77-1.32,1.13,1.13,0,0,1,1.32-.77,11.84,11.84,0,0,1,5.83,4.73,23.56,23.56,0,0,1,1.65,3.64c1.1,2.86,2.53,6.71,4.62,7.26a1.55,1.55,0,0,0,1.44-.11,3.25,3.25,0,0,0,.66-2.2,1.09,1.09,0,0,1,1-1.1,1,1,0,0,1,1.1,1c0,.33.11,2.75-1.43,4A2.73,2.73,0,0,1,439.21,374.11Z"/><path d="M272.67,412.64s18.93,48.43,109,25.86c0,0-8,32.8-37.76,40.18C307.12,487.81,277.84,467.67,272.67,412.64Z" fill="#fff"/><path d="M337.94,445.55c-21.35,0-35.77-5.07-45.24-10.57-16.18-9.36-21-21.46-21.13-21.9a1.11,1.11,0,1,1,2.09-.77c0,.11,4.84,12,20.36,20.91,14.42,8.36,41.28,15.85,87.29,4.29a1.08,1.08,0,0,1,.55,2.09C364.8,443.79,350.16,445.55,337.94,445.55Z"/><path d="M256.82,284.51a1.56,1.56,0,0,1-.66-.22,6.73,6.73,0,0,0-6.16-.77,1.12,1.12,0,1,1-.78-2.09,9.25,9.25,0,0,1,8.26,1.21,1.18,1.18,0,0,1,.22,1.54A2.1,2.1,0,0,1,256.82,284.51Z"/><path d="M653.94,502.55H237.55a1.1,1.1,0,1,1,0-2.2h416.5a1,1,0,0,1,1.1,1.1A1.13,1.13,0,0,1,653.94,502.55Z"/></g></svg>