<svg xmlns="http://www.w3.org/2000/svg" viewBox="0 0 841.9 595.3"><g id="Layer_14" data-name="Layer 14"><path d="M584.66,350.23s-1.1-29.1-5.4-41.3c-2-5.1-10-21.5-23.2-21.7-9.1.1-19.5,7.7-26.2,15.5s-36.1,65.5-75.2,71.8c-11.9,1.9-19.5,14-18,24.5s17.2,20.3,21.3,22.6,22.4,11.1,42.6,11.1c4.9-.1,32.6,1.5,54.4-10.6A58.45,58.45,0,0,0,581,384C581.76,380.13,584.66,363.33,584.66,350.23Z" fill="#fff"/><path d="M499.36,253.13l-36.6-5.4s-6.5-.9-7.5,2.2.7,4.9,6.2,8.4c1.8,1.3,3.6,2.1,3.7,6s-1.1,7.7-.1,11.6,3.3,8.2,8.7,9.6c2.5.8,9.2,0,11.4-.4.1,1.6.3,6.6.3,6.6s7.2,1.5,13.7-.9C499.76,283.83,499.76,257.53,499.36,253.13Z" fill="#fff"/><path d="M461.26,331.93l-39.6-3.7,14.8,38.3L551,383.13l-3.1-19s10.5-4.3,11.6-14-6.8-30.4-6.8-30.4-9.4-23.1-19.7-33.4c-16.4-5.3-28.9,7.4-47.9,5.5-14.2-1.4-17.3,12.7-17.3,12.7Z" fill="#fff"/><path d="M467.66,466.43l12.7,38.8h-83.8s-8.1-.6-4.4-5.9,36.1-9.8,45.6-8.5c-.9-4-3.7-17-3.7-17Z" fill="#fff"/><path d="M480.36,506.23h-83.8c-.6,0-4.9-.5-6.1-3-.6-1.3-.3-2.8.9-4.4,4-5.6,34.1-9.8,45.2-9.1-1.1-4.9-3.4-15.5-3.4-15.6a1,1,0,0,1,.8-1.2l33.5-7.4a1.09,1.09,0,0,1,1.2.7l12.7,38.8a1.41,1.41,0,0,1-.1.9A1.61,1.61,0,0,1,480.36,506.23Zm-46.6-14.6c-12.2,0-37.8,4.1-40.8,8.3-.7,1-1,1.8-.7,2.4.6,1.3,3.4,1.8,4.3,1.9h82.3l-12-36.6-31.7,7c.7,3.1,2.8,12.7,3.5,16a1,1,0,0,1-.2.9.92.92,0,0,1-.9.3A20.08,20.08,0,0,0,433.76,491.63Z"/><path d="M393.26,470l-15,35.2-83.6-23s-5.3-1.2-3.5-4.9,39.4-3.3,57.9,2.1c2.8-3.9,10.7-19,10.7-19Z" fill="#fff"/><path d="M378.16,506.23h-.3l-83.6-23c-.3-.1-3.2-.8-4.3-2.9a4,4,0,0,1,.1-3.4c2.4-5,41.3-3.3,58.4,1.4,3-4.5,10.2-18.2,10.2-18.3a1.08,1.08,0,0,1,1.2-.5l33.5,9.7a1,1,0,0,1,.6.5,1.1,1.1,0,0,1,0,.8l-15,35.2C379,506,378.56,506.23,378.16,506.23Zm-69-30.4c-9.3,0-16.3.7-17.2,1.9a1.83,1.83,0,0,0-.1,1.6c.5,1.1,2.3,1.7,3,1.8l82.8,22.8,14.2-33.3-31.6-9.2c-1.6,3.1-7.9,14.9-10.4,18.4a1.11,1.11,0,0,1-1.1.4C337.56,477.13,321.36,475.83,309.16,475.83Z"/><path d="M393.26,362l39.6,4.8L483.36,468l-66.5,11.5-37.3-100.2A13,13,0,0,1,393.26,362Z" fill="#0E7490"/><path d="M452.76,370.23a.75.75,0,0,1-.5-.1,1,1,0,0,1-.3-1.4c.2-.3,20-32.8,21.8-59.4,0-.6.5-.9,1.1-.9a.9.9,0,0,1,.9,1.1c-1.8,27.1-21.9,60-22.1,60.3A1.27,1.27,0,0,1,452.76,370.23Z"/><circle cx="474.46" cy="256.73" r="1.5"/><circle cx="480.96" cy="258.23" r="1.5"/><path d="M499.36,253.13s.5,31-1.1,41.9c12.4-1.4,36.2-7.2,36.2-7.2s-8-48.2-21.3-53.6c-6.2-2-10.9,2.5-10.9,2.5s-6.7-14.3-23.6-9.2-15.9,20.2-15.9,20.2Z" fill="#0E7490"/><path d="M490.46,292.93a24.79,24.79,0,0,1-5.3-.4,1,1,0,0,1-.8-1l-.1-6.8a.94.94,0,0,1,1-1,1,1,0,0,1,1,1l.1,5.9a33.31,33.31,0,0,0,11.7-.7,1,1,0,0,1,1.2.7.89.89,0,0,1-.7,1.2A26.68,26.68,0,0,1,490.46,292.93Z"/><path d="M477.66,286.83a13.59,13.59,0,0,1-9.2-3c-6.1-5.2-4.6-15.2-4.5-15.6.3-1.9.5-7.1-1.7-8.6a23.92,23.92,0,0,0-2.1-1.3c-3.5-2.1-6.8-4.2-5.8-8.4a3.55,3.55,0,0,1,1.7-2.3c3.3-2,10.1-.4,10.9-.3a1,1,0,1,1-.5,1.9c-1.9-.4-7.2-1.3-9.3,0a1.89,1.89,0,0,0-.8,1c-.6,2.7,1.2,4,4.9,6.3.7.4,1.4.9,2.2,1.4,3.7,2.5,2.7,9.8,2.6,10.6,0,.1-1.4,9.3,3.8,13.8,3.6,3.1,9.5,3.3,17.6.7a1,1,0,1,1,.7,1.9A34.94,34.94,0,0,1,477.66,286.83Z"/><path d="M502.26,237.63h-.2a1,1,0,0,1-.7-1.2c.1-.3,1.7-6.4,5.7-6.7a1,1,0,0,1,.2,2c-2.1.2-3.5,3.8-3.9,5.2A1.51,1.51,0,0,1,502.26,237.63Z"/><path d="M541.56,366.23a10.87,10.87,0,0,1-1.8-.1c-26.9-2.4-64.8-8.9-65.2-8.9a.94.94,0,0,1-.8-1.1l2.7-34.5a.84.84,0,0,1,.4-.7.78.78,0,0,1,.8-.1l53.3,14.3a1,1,0,1,1-.5,1.9l-52.2-14-2.5,32.4c5.9,1,39.7,6.5,64.2,8.7a17.19,17.19,0,0,0,18.5-19.9c-5.9-34.2-24.6-55.6-24.7-55.8a1,1,0,0,1,1.5-1.3c.2.2,19.3,22.1,25.2,56.8a18.69,18.69,0,0,1-4.8,16.1A19.17,19.17,0,0,1,541.56,366.23Z"/><path d="M461.16,333.13h0l-44.3-4.4a1,1,0,0,1-.9-1.1,1.09,1.09,0,0,1,1.1-.9l43.3,4.3,6.3-27.1a17.59,17.59,0,0,1,18.6-13.4,1,1,0,0,1-.2,2,15.47,15.47,0,0,0-16.5,11.8l-6.5,27.9A.9.9,0,0,1,461.16,333.13Z"/><path d="M453.66,321.73s-10.3-.4-13.7-3-5.4-2.1-6.3.4c-.4,1.2,1.1,6.3,9.5,8.6C443.16,327.73,450.46,323.53,453.66,321.73Z" fill="#fff"/><path d="M443.16,328.73h-.3c-6.2-1.6-8.7-4.8-9.6-6.5a4.51,4.51,0,0,1-.6-3.4,3.56,3.56,0,0,1,2.5-2.6q2.25-.6,5.4,1.8c2.5,1.9,10.3,2.7,13.1,2.8a1,1,0,0,1,.9.8,1,1,0,0,1-.5,1.1c-3.2,1.8-10.4,5.9-10.4,6C443.56,328.63,443.36,328.73,443.16,328.73Zm-7-10.7c-.2,0-.3,0-.4.1-.5.1-.9.6-1.1,1.4-.1.6.8,5,8.4,7.2,1.1-.6,4.4-2.5,7.2-4.1-3.4-.4-8.6-1.2-10.9-2.9A5.86,5.86,0,0,0,436.16,318Z"/><path d="M476.86,328.23s-17.8-6.9-23.3-6.5-15.7,8.8-19.7,19.7c-.9,2.7.1,6.5,4.4,4.9,2.2-1.4,5.8-11.1,9.2-12.5-2.1,3.3-3.8,10.9-.9,14.7a4,4,0,0,0,5.3.7c2.2,2,4.6,3.2,7.2.7.6,1.8,1.8,4.5,3.8,4.6a2.73,2.73,0,0,0,2.7-3.8,12,12,0,0,1,.1-5s3.4,5.1,9.3,5.2C475.36,347.53,476.86,328.23,476.86,328.23Z" fill="#fff"/><path d="M463.16,355.63h-.3c-2.1-.1-3.4-2.1-4.2-4-2.9,1.8-5.5.1-6.8-1.1a5.19,5.19,0,0,1-2.8.4,4.31,4.31,0,0,1-3.2-1.8c-2.1-2.8-2-7.1-1.1-10.7-.7,1.1-1.4,2.4-2.1,3.5-1.6,2.8-2.7,4.6-3.7,5.3-.1,0-.1.1-.2.1-2.5,1-4,.2-4.8-.5-1.5-1.4-1.5-3.8-.9-5.6,3.9-10.9,14.2-19.9,20.5-20.4,5.7-.5,23,6.2,23.7,6.5a1,1,0,0,1,.6,1l-1.8,22.9a1,1,0,0,1-1,.9,12.64,12.64,0,0,1-8.6-3.9,6.35,6.35,0,0,0,.2,2.4,4,4,0,0,1-.6,3.7A3.93,3.93,0,0,1,463.16,355.63Zm-4.1-6.6h.2a1.06,1.06,0,0,1,.7.6c.9,2.6,1.9,3.9,3,4a2,2,0,0,0,1.5-.6,2.09,2.09,0,0,0,.3-1.9,12.59,12.59,0,0,1,.1-5.5.85.85,0,0,1,.8-.7,1,1,0,0,1,1,.4s2.9,4.1,7.6,4.7l1.6-21.2c-3.3-1.3-17.5-6.5-22.1-6.1-4.9.4-14.9,8.2-18.8,19.1-.4,1.3-.3,2.9.4,3.5s1.7.4,2.6.1c.7-.5,1.9-2.7,3-4.5,2-3.5,4-7,6.3-8a.91.91,0,0,1,1.1.3,1,1,0,0,1,.1,1.2c-2,3.2-3.5,10.3-1,13.6a2.69,2.69,0,0,0,1.8,1,3,3,0,0,0,2-.4,1,1,0,0,1,1.4,0c2.4,2.2,4,2.4,5.8.7A.71.71,0,0,1,459.06,349Z"/><path d="M452,350.23a1.2,1.2,0,0,1-1-.7c-.1-.3-1.9-6.7.9-12.5a1,1,0,0,1,1.8.8c-2.5,5.1-.8,11-.8,11.1a.89.89,0,0,1-.7,1.2C452.16,350.23,452.06,350.23,452,350.23Z"/><path d="M459.06,351a1,1,0,0,1-1-.8c-.3-1.4-1.4-8.3,1.2-10.2a1,1,0,1,1,1.2,1.6c-1,.8-1,4.9-.4,8.2a1.1,1.1,0,0,1-.8,1.2Z"/><path d="M418.76,363.53,550.46,383l-.3,11.8a29.77,29.77,0,0,1-35.3,28.4l-82.8-15.9-26.7,72-73.8-22.4,52.5-78.2A35.23,35.23,0,0,1,418.76,363.53Z" fill="#0E7490"/><path d="M491.56,419.73h-.2l-75.6-14.5a1,1,0,0,1,.4-2l75.6,14.5a1,1,0,0,1,.8,1.2A1,1,0,0,1,491.56,419.73Z"/><path d="M405.36,480.33a.37.37,0,0,1-.3-.1,1,1,0,0,1-.6-1.3l26.7-72a1,1,0,0,1,1.9.7l-26.7,72A1.2,1.2,0,0,1,405.36,480.33Z"/><path d="M374.16,394.43a1.42,1.42,0,0,1-.6-.2,1,1,0,0,1-.3-1.4l9.9-14.7a36.43,36.43,0,0,1,35.7-15.7l33.3,4.9a1,1,0,1,1-.3,1.9l-33.3-4.9a34.63,34.63,0,0,0-33.8,14.8l-9.9,14.7C374.86,394.33,374.46,394.43,374.16,394.43Z"/><polygon points="469.86 364.43 468.56 371.33 351.96 357.33 352.16 349.93 469.86 364.43" fill="#fff"/><path d="M468.56,372.33h-.1l-116.6-14a1.06,1.06,0,0,1-.9-1l.1-7.5a.89.89,0,0,1,1.1-.9l117.7,14.6a1,1,0,0,1,.7.4,1.08,1.08,0,0,1,.2.8l-1.2,6.9A1,1,0,0,1,468.56,372.33Zm-115.5-15.8,114.7,13.7.9-4.9L353.16,351Z"/><polygon points="352.16 349.93 329.46 293.73 412.26 304.13 433.96 360.03 352.16 349.93" fill="#fff"/><path d="M434,361h-.1L352,350.93a.87.87,0,0,1-.8-.6l-22.7-56.2a1.18,1.18,0,0,1,.1-1,1.09,1.09,0,0,1,.9-.4l82.9,10.4a.87.87,0,0,1,.8.6l21.7,55.9a1.18,1.18,0,0,1-.1,1A.91.91,0,0,1,434,361Zm-81.1-12,79.6,9.8L411.56,305,331,294.93Z"/><path d="M550.46,384a.94.94,0,0,1-1-1c0-4.2-2.5-18.6-2.5-18.8a1.1,1.1,0,0,1,.8-1.2,1,1,0,0,1,1.2.8c.1.6,2.6,14.7,2.6,19.1A1.18,1.18,0,0,1,550.46,384Z"/><rect x="374.35" y="319.88" width="13.3" height="13.3" transform="translate(-119.3 365.05) rotate(-45)" fill="#0E7490"/><path d="M495.16,432.53s15.8,1.9,18.4-16,10.5-36.5,44.4-44.6c10.9-3,9.7-13.2,9.7-13.2l17-3.1s-3.4,32.4-11.3,47.2-22.7,24.4-42.3,27.6S511.56,433.73,495.16,432.53Z" fill="#fff"/><path d="M496.36,433.53a7.31,7.31,0,0,1-1.3-.1,1,1,0,0,1,.2-2c.6.1,14.8,1.6,17.2-15.1s9.7-36.9,45.2-45.4c9.9-2.8,9-11.7,8.9-12.1a1,1,0,0,1,.9-1.1.94.94,0,0,1,1.1.9,13.42,13.42,0,0,1-10.4,14.2c-34.2,8.1-41.3,26.7-43.7,43.7C512.26,432.23,500.36,433.53,496.36,433.53Z"/><path d="M507,434c-30.3,0-49.7-11.8-49.9-12a1,1,0,1,1,1.1-1.7c.3.2,35.4,21.6,85.4,5.9,21.4-6.7,34.4-24.9,38.7-53.9,4.1-27.7-1.5-54.1-2.1-57-4.4-19.9-17-27.1-24.4-27.1h-.1c-8.2.1-15.5,6.6-15.6,6.7a1,1,0,0,1-1.3-1.5c.3-.3,7.9-7.1,16.9-7.2h.1c10,0,22.2,9.8,26.4,28.6.7,3,6.3,29.7,2.2,57.8-4.4,29.9-17.9,48.6-40.1,55.5A124.92,124.92,0,0,1,507,434Z"/><path d="M522.26,506.23a1.06,1.06,0,0,1-1-.9l-8.9-72.1a1,1,0,0,1,2-.2l8.9,72.1a1,1,0,0,1-.9,1.1Z"/><path d="M590.26,506.23a1,1,0,0,1-.9-.7L559.06,419a1,1,0,1,1,1.9-.7l30.3,86.5a1,1,0,0,1-.6,1.3A.6.6,0,0,1,590.26,506.23Z"/><polygon points="333.24 196.96 333.24 212.25 370.54 178.66 333.24 196.96" fill="#0E7490"/><polygon points="312.94 193.75 333.24 196.96 370.54 178.66 312.94 193.75" fill="#fff"/><path d="M333.24,198H333l-20.3-3.1a1,1,0,0,1-.8-.9,1,1,0,0,1,.7-1l57.6-15.1a1,1,0,0,1,1.2.6.88.88,0,0,1-.5,1.2l-37.2,18.2C333.54,197.86,333.44,198,333.24,198Zm-15.4-4.4,15.2,2.3,28-13.7Z"/><polygon points="370.54 178.66 350.04 208.85 333.24 196.96 370.54 178.66" fill="#fff"/><path d="M350,209.86a1.42,1.42,0,0,1-.6-.2l-16.8-12a1,1,0,0,1-.4-.9.76.76,0,0,1,.6-.8l37.3-18.3a1.06,1.06,0,0,1,1.2.2,1,1,0,0,1,.1,1.2l-20.5,30.2a1,1,0,0,1-.7.4C350.14,209.86,350.14,209.86,350,209.86Zm-14.8-12.8,14.6,10.4,17.8-26.3Z"/><path d="M664,505.65H247.55a1.1,1.1,0,0,1,0-2.2H664.06a1,1,0,0,1,1.1,1.1A1.13,1.13,0,0,1,664,505.65Z"/><path d="M331,341h-1.77a1.5,1.5,0,0,1,0-3h0c2,0,4,0,5.95,0a1.5,1.5,0,1,1,.06,3C333.89,341,332.46,341,331,341Z"/><path d="M316.66,340.58h-.1c-4.3-.27-8.55-.65-12.64-1.14a1.5,1.5,0,1,1,.36-3c4,.48,8.22.86,12.47,1.12a1.5,1.5,0,0,1-.09,3Zm-25-3a1.27,1.27,0,0,1-.28,0c-4.37-.82-8.55-1.8-12.41-2.9a1.5,1.5,0,0,1,.82-2.88c3.78,1.07,7.86,2,12.14,2.84a1.5,1.5,0,0,1-.27,3Zm-24.17-7a1.59,1.59,0,0,1-.59-.12,65,65,0,0,1-11.31-6.16,1.5,1.5,0,1,1,1.71-2.46,62.06,62.06,0,0,0,10.79,5.86,1.5,1.5,0,0,1-.6,2.88Zm-20.17-14.6a1.5,1.5,0,0,1-1.2-.61,30.61,30.61,0,0,1-5.47-11.91,1.5,1.5,0,0,1,2.93-.63,27.76,27.76,0,0,0,4.94,10.75,1.5,1.5,0,0,1-1.2,2.4Zm-5.41-23.84-.23,0a1.5,1.5,0,0,1-1.25-1.71A55.4,55.4,0,0,1,244,277.93a1.5,1.5,0,1,1,2.78,1.14,52.21,52.21,0,0,0-3.41,11.73A1.5,1.5,0,0,1,241.89,292.07Zm9.17-23.31a1.57,1.57,0,0,1-.77-.21,1.51,1.51,0,0,1-.52-2.06A104.59,104.59,0,0,1,257,255.94a1.5,1.5,0,1,1,2.37,1.85,102.82,102.82,0,0,0-7,10.23A1.49,1.49,0,0,1,251.06,268.76Zm15.37-19.91a1.5,1.5,0,0,1-1.08-2.54c2.85-3,5.95-5.92,9.22-8.77a1.5,1.5,0,1,1,2,2.26c-3.2,2.79-6.24,5.68-9,8.59A1.52,1.52,0,0,1,266.43,248.85Zm18.94-16.59a1.5,1.5,0,0,1-.9-2.7c3.36-2.5,6.87-4.93,10.46-7.23a1.5,1.5,0,1,1,1.61,2.53c-3.52,2.26-7,4.65-10.27,7.1A1.45,1.45,0,0,1,285.37,232.26Z"/><path d="M306.61,218.66a1.48,1.48,0,0,1-1.32-.79,1.49,1.49,0,0,1,.6-2c3.34-1.81,5.34-2.74,5.42-2.77a1.5,1.5,0,1,1,1.26,2.72s-2,.93-5.25,2.69A1.53,1.53,0,0,1,306.61,218.66Z"/><circle cx="476.01" cy="142.38" r="45.27" fill="#cbcbca"/><path d="M476,110.69a.78.78,0,0,1-.82-.82v-6.25a.82.82,0,1,1,1.64,0v6.25A.78.78,0,0,1,476,110.69Z"/><path d="M476,182a.78.78,0,0,1-.82-.82v-6.26a.82.82,0,0,1,1.64,0v6.26A.78.78,0,0,1,476,182Z"/><path d="M499.63,119.58a.75.75,0,0,1-.57-.24.8.8,0,0,1,0-1.16l3.78-3.78a.81.81,0,0,1,1.15,1.15l-3.78,3.79A.77.77,0,0,1,499.63,119.58Z"/><path d="M448.6,170.61a.75.75,0,0,1-.57-.24.8.8,0,0,1,0-1.16l3.78-3.78a.81.81,0,1,1,1.15,1.15l-3.78,3.79A.77.77,0,0,1,448.6,170.61Z"/><path d="M514.78,143.2h-6.26a.82.82,0,0,1,0-1.64h6.26a.78.78,0,0,1,.82.82A.82.82,0,0,1,514.78,143.2Z"/><path d="M443.5,143.2h-6.26a.82.82,0,0,1,0-1.64h6.26a.82.82,0,0,1,0,1.64Z"/><path d="M503.42,170.61a.77.77,0,0,1-.58-.24l-3.78-3.79a.81.81,0,1,1,1.15-1.15l3.78,3.78a.8.8,0,0,1,0,1.16A.73.73,0,0,1,503.42,170.61Z"/><path d="M452.39,119.58a.77.77,0,0,1-.58-.24L448,115.55a.81.81,0,0,1,1.15-1.15l3.78,3.78a.8.8,0,0,1,0,1.16A.73.73,0,0,1,452.39,119.58Z"/><path d="M464,131.87l11.53,9,6.85-8.74a.82.82,0,0,1,1.3,1l-7.37,9.39a.77.77,0,0,1-1.15.14L463,133.16a.82.82,0,1,1,1-1.29Z"/><polygon points="312.2 113.89 316.34 126.03 328.68 129.69 318.32 137.29 318.71 150.22 308.25 142.72 296.1 147.06 300.05 134.82 292.06 124.65 304.99 124.55 312.2 113.89" fill="#0E7490"/><circle cx="370.41" cy="253.79" r="9.28" fill="#0E7490"/></g></svg>