<svg xmlns="http://www.w3.org/2000/svg" viewBox="0 0 841.9 595.3"><g id="Layer_20" data-name="Layer 20"><circle cx="281.69" cy="351.31" r="25.2" fill="#0E7490"/><path d="M221.39,388.65H330s-8.3-23.2-25.7-23.2-24.9,10.4-24.9,10.4-4.7-35.5-33.6-35.5-32,27.1-32,48.3Z" fill="#cbcbca"/><path d="M191.59,175.65h142.7s-.3-33.4-21.6-33.4c-13.7,0-17.3,9.8-17.3,9.8s-.6-26.6-27.5-26.6c-13.6,0-26.3,11.4-30,28.5-10.2-8.5-15.9-10.7-21.7-10.7S192.79,153.05,191.59,175.65Z" fill="#fff"/><path d="M334.29,176.65H191.59a.91.91,0,0,1-.7-.3,1.08,1.08,0,0,1-.3-.7c1.2-23.1,19.1-33.3,25.7-33.3,5.5,0,11,1.7,21.1,9.9,4.1-16.4,16.5-27.7,30.6-27.7,21.8,0,26.9,17.2,28.1,24.4,2.2-3.1,7.1-7.6,16.6-7.6,22,0,22.5,34,22.6,34.4a.91.91,0,0,1-.3.7A1.17,1.17,0,0,1,334.29,176.65Zm-141.6-2h140.6c-.3-5.5-2.5-31.4-20.5-31.4-12.8,0-16.2,8.8-16.3,9.1a1,1,0,0,1-1.1.6,1,1,0,0,1-.8-1c0-1-.9-25.6-26.5-25.6-13.6,0-25.5,11.4-29,27.7a1,1,0,0,1-.7.7,1.23,1.23,0,0,1-1-.2c-10.5-8.8-15.9-10.5-21.1-10.5S194.29,153.45,192.69,174.65Z"/><path d="M682,279.65H494.59s-1.9-43.8,32.9-43.8c16.7,0,30,14.6,30,14.6s3.2-37.4,32.9-37.4c21.9,0,41.9,23.2,44.2,43,8.1-12.3,15.8-14,22.3-14C667.29,242,684.39,254.75,682,279.65Z" fill="#fff"/><path d="M682,280.65H494.59a1,1,0,0,1-1-1c0-.9-.9-23,11.5-35.9,5.7-5.9,13.2-8.9,22.4-8.9,13.9,0,25.3,9.6,29.3,13.4,1.2-8,7.5-36.3,33.6-36.3,21.6,0,41.1,21.7,44.8,41.3,8-10.9,15.7-12.4,21.7-12.4,5.7,0,12.3,3.4,17.3,8.8,6.8,7.5,10,18.2,8.9,30A1.25,1.25,0,0,1,682,280.65Zm-186.5-2H681c.8-10.9-2.1-20.6-8.4-27.6-4.6-5-10.6-8.2-15.8-8.2-6.2,0-13.6,1.6-21.5,13.6a1,1,0,0,1-1.1.4,1.08,1.08,0,0,1-.8-.9c-2.3-19.5-21.6-42.1-43.2-42.1-28.4,0-31.9,36.1-31.9,36.5a1.07,1.07,0,0,1-.7.9,1.13,1.13,0,0,1-1.1-.3c-.1-.1-13.2-14.3-29.3-14.3-8.6,0-15.7,2.8-21,8.3C496.09,256.05,495.49,274.35,495.49,278.65Z"/><path d="M312.35,145.11V420.48H530.18V145.11a10.92,10.92,0,0,0-10.92-10.92H323.37a11,11,0,0,0-11,10.92" fill="#fff"/><path d="M312.35,145.11a10.93,10.93,0,0,1,10.93-10.92H519.16a10.93,10.93,0,0,1,10.93,10.92V105.65H312.35v39.46Z" fill="#cbcbca"/><rect x="312.35" y="420.48" width="217.83" height="70.16" fill="#cbcbca"/><path d="M530.18,421.42a.89.89,0,0,1-.94-.94V156.41a.95.95,0,0,1,1.89,0V420.48A1,1,0,0,1,530.18,421.42Z"/><path d="M312.35,421.42a.89.89,0,0,1-.94-.94V145.11a.94.94,0,0,1,1.88,0V420.48A.88.88,0,0,1,312.35,421.42Z"/><path d="M530.18,146.05a.89.89,0,0,1-.94-.94,10,10,0,0,0-10-10H323.37a10,10,0,0,0-10,10,.94.94,0,1,1-1.88,0,11.88,11.88,0,0,1,11.86-11.87H519.26a11.88,11.88,0,0,1,11.87,11.87A1,1,0,0,1,530.18,146.05Z"/><path d="M440.62,120.53H402a.94.94,0,1,1,0-1.88h38.61a.88.88,0,0,1,.94.94A.94.94,0,0,1,440.62,120.53Z"/><path d="M537.72,421.42H506.64a.94.94,0,0,1,0-1.88h31.08a.89.89,0,0,1,.94.94A.94.94,0,0,1,537.72,421.42Z"/><path d="M492.89,421.42H304.82a.94.94,0,0,1,0-1.88H492.89a.94.94,0,0,1,0,1.88Z"/><path d="M421.32,472.56a17,17,0,1,1,17-17A17,17,0,0,1,421.32,472.56Zm0-32.21a15.17,15.17,0,1,0,15.16,15.17A15.15,15.15,0,0,0,421.32,440.35Z"/><path d="M466.61,318.11a64.06,64.06,0,1,0-45.29,18.74v-64Z" fill="#0E7490"/><path d="M485.36,349.57h-16.2a.85.85,0,0,1-.66-.29l-20.34-20.34a.93.93,0,0,1,1.31-1.32l20.06,20.06h15.83a.89.89,0,0,1,.94.95A.94.94,0,0,1,485.36,349.57Z"/><path d="M485.36,362.56h-16.2a.94.94,0,0,1,0-1.88h16.2a.89.89,0,0,1,.94.94A.94.94,0,0,1,485.36,362.56Z"/><path d="M485.36,375.47h-16.2a.95.95,0,0,1,0-1.89h16.2a.89.89,0,0,1,.94.94A1,1,0,0,1,485.36,375.47Z"/><circle cx="490.63" cy="348.63" r="5.27" fill="#fff"/><path d="M490.63,354.84a6.22,6.22,0,1,1,6.21-6.21A6.27,6.27,0,0,1,490.63,354.84Zm0-10.55a4.34,4.34,0,1,0,4.33,4.34A4.38,4.38,0,0,0,490.63,344.29Z"/><path d="M508.19,165.19H328.51a.94.94,0,1,1,0-1.88H508.29a.89.89,0,0,1,.94.94A1,1,0,0,1,508.19,165.19Z"/><path d="M508.19,185H328.51a.94.94,0,1,1,0-1.88H508.29a.89.89,0,0,1,.94.94A1,1,0,0,1,508.19,185Z"/><path d="M508.19,397.81H328.51a.94.94,0,1,1,0-1.88H508.29a.89.89,0,0,1,.94.94A1,1,0,0,1,508.19,397.81Z"/><path d="M617.45,495.51H239.15a1,1,0,1,1,0-2h378.4a.94.94,0,0,1,1,1A1,1,0,0,1,617.45,495.51Z"/></g></svg>