<svg xmlns="http://www.w3.org/2000/svg" viewBox="0 0 841.9 595.3"><g id="Layer_32" data-name="Layer 32"><rect x="541.1" y="74.47" width="106.9" height="447.3" fill="#d7d7d7"/><rect x="368" y="220.27" width="106.9" height="301.5" fill="#d7d7d7"/><rect x="194.9" y="305.77" width="106.9" height="216" fill="#d7d7d7"/><path d="M699.27,522.35H508.47a1,1,0,0,1,0-2h190.9a.94.94,0,0,1,1,1A1,1,0,0,1,699.27,522.35Z"/><path d="M488.27,522.35H110a1,1,0,0,1,0-2h378.4a.94.94,0,0,1,1,1A1,1,0,0,1,488.27,522.35Z"/><path d="M451.79,339.29H312.16c-22.4,0-97.33-6.82-116.4,139.17,30-17.14,70.59-44.43,70.59-44.43l56.41,77.7s24-93.73,28.84-107.92C358,385.56,367.46,339.29,451.79,339.29Z" fill="#fff"/><path d="M322.76,512.65a1.1,1.1,0,0,1-.74-.37l-55.85-77c-5.62,3.78-42.49,28.3-70,44a1,1,0,0,1-1,0,.88.88,0,0,1-.37-.92c7.84-60.18,26.18-101.56,54.47-122.85,23.14-17.51,47.1-17.24,59.91-17.05H451.69a.92.92,0,1,1,0,1.84c-78.61,0-91.79,40.74-98.06,60.28-.46,1.29-.83,2.58-1.2,3.68-4.79,14-28.57,106.91-28.84,107.83a.79.79,0,0,1-.74.65Zm-56.41-79.54a.85.85,0,0,1,.74.37l55.21,76.13c3.41-13.37,24-93.18,28.38-106.08.37-1.11.74-2.31,1.2-3.6,5.62-17.51,16.68-51.42,72.72-59.72H309.21c-12.63-.18-36.13-.37-58.8,16.68C222.85,377.72,204.88,418,197,476.71c29.4-17,68.48-43.23,68.94-43.5A1,1,0,0,1,266.35,433.11Z"/><path d="M691.23,165.38h-34l-19.63,96.95s-11.06,77-97.7,77c-65.8,0-107-.09-107-.09s57.14,4.61,72.35-74.75c4.79-29,18.43-99.07,18.43-99.07H490l108.48-82.3,92.72,82.3" fill="#fff"/><path d="M434.74,340.21c-1.11,0-1.85-.09-1.94-.09a.91.91,0,0,1-.83-.92,1,1,0,0,1,.92-.92h3.41a61.7,61.7,0,0,0,26.64-7.56c14.56-7.93,33.55-25.9,41.29-66.45,4.42-26.73,16.49-88.94,18.25-98H489.94a.89.89,0,0,1-.83-.64,1,1,0,0,1,.28-1l108.48-82.3a1,1,0,0,1,1.19,0l92.72,82.3a1.05,1.05,0,0,1,.28,1,.82.82,0,0,1-.83.55H658l-19.54,96.22a99.63,99.63,0,0,1-16.5,38.8c-12.53,17.69-37,38.89-82,38.89h-103A19.05,19.05,0,0,1,434.74,340.21Zm14-1.84h91.15c44.33,0,68.21-20.65,80.56-38.06a97,97,0,0,0,16.22-38.16l19.72-97a.89.89,0,0,1,.92-.73h31.61L598.51,84.27,492.8,164.46h30.87a.83.83,0,0,1,.74.37.7.7,0,0,1,.19.73c-.1.74-13.74,70.32-18.44,99.08-7.92,41.38-27.37,59.72-42.3,67.83A72.35,72.35,0,0,1,448.74,338.37Z"/><path d="M394.28,190.17l.46-.09s8.2-13.27-2.21-16.59c-6.09-2-9.77,4.61-9.77,4.61s-2.49-8.94-11.34-6.73c-9.86,2.4-7.83,12.07-7.83,12.07s-4-4.79-11-1.75-5.35,10.69-3.5,13.73c-4.43.19-8.21,4.89-7.28,9.31,1.29,6.45,9,5.44,11.61,4.79-4.06,2.59-6.64,8.94-3.14,13.18,5.17,6.27,16,.74,16,.74l-.37-3.5-2.85-24.33Z" fill="#0E7490"/><path d="M405.06,194.32a5.84,5.84,0,0,0-6.27-4.61l-4.42.37-.09.18v-.09L363,195.61l.46,4.15-.09-.28.37,2.58.65,5.25c-1.29-.27-7.93-1.38-6.27,6.64a4.73,4.73,0,0,0,7.46,3l.37,2.86h0l.19.18c.46,6.27,1.1,14.66,1.1,14.66s7.93,2.76,13.18-.56c-.09-2-.27-4.24-.27-4.24l-.1-.27a49.2,49.2,0,0,0,5.63-1.2c14.56-5.35,11.7-25.53,11.7-25.53l4.61-2.12A6,6,0,0,0,405.06,194.32Z" fill="#fff"/><path d="M519.16,395.88,541,424.82l68.2-44s18.71-12.17-4.7-9.31C581.37,374.31,557.59,390,557.59,390l-10.32-11Z" fill="#fff"/><path d="M541,425.74a.84.84,0,0,1-.74-.37l-21.84-28.94a1,1,0,0,1-.18-.74,1,1,0,0,1,.46-.64l28.2-17a.85.85,0,0,1,1.1.19l9.77,10.41c4-2.49,25.72-15.58,46.64-18.16,7.92-.92,11.89-.36,12.72,1.94,1.2,3.23-5.35,7.74-7.38,9.12l-68.2,44A1.32,1.32,0,0,1,541,425.74Zm-20.55-29.68,20.73,27.47L608.65,380c3.59-2.31,7.09-5.63,6.63-6.92-.09-.27-1.19-1.84-10.69-.73-22.67,2.76-46.26,18.06-46.54,18.25a.89.89,0,0,1-1.2-.19L547.08,380Z"/><path d="M446.53,410.16,454.09,449s82.58-19.82,87.37-20.65c12.44-2.12,17.24-8.66-1.93-11.24s-57,2.58-57,2.58L480,399.47Z" fill="#fff"/><path d="M454.09,449.79a.72.72,0,0,1-.46-.18.78.78,0,0,1-.37-.64l-7.56-38.81a.85.85,0,0,1,.65-1l33.36-10.69a.71.71,0,0,1,.74.09,1.06,1.06,0,0,1,.46.65l2.49,19.26c5.9-.74,39-4.79,56.31-2.49,8.94,1.2,13.55,3.32,13.64,6.36.09,3.5-6,5.71-11.7,6.73-4.7.83-86.45,20.37-87.28,20.64C454.18,449.79,454.18,449.79,454.09,449.79Zm-6.45-39,7.19,37.05c9.58-2.3,81.93-19.63,86.45-20.37,6.36-1.1,10.13-3.32,10.13-4.88,0-1.39-3.22-3.32-12-4.52-18.8-2.58-56.4,2.58-56.77,2.58a.77.77,0,0,1-.64-.18.93.93,0,0,1-.37-.65l-2.49-19.08Z"/><path d="M346.07,322.61,438.15,292a17.44,17.44,0,0,1,22.12,10.51l37.87,102.67L435.2,422.61l-11.43-81-41,15c-19.73,7.55-28.48-6.91-32.17-18.9Z" fill="#0E7490"/><path d="M457.5,311.37l13.36-2.68a42.21,42.21,0,0,1,39.08,12.63L564.41,374l-51.06,30.69-35.48-54.66Z" fill="#0E7490"/><path d="M443.77,291.09l-31.06-46.17A26.45,26.45,0,0,0,391.79,233l-11.52-.56H367v.65c-1.2,0-18.25.55-21.85,14.47-2.21,8.66-18,86.82-18,86.82l34.47,2.85,1.94-20.36Z" fill="#fff"/><path d="M361.56,338.09h0L327,335.24a1,1,0,0,1-.65-.37,1,1,0,0,1-.18-.74c.18-.74,15.76-78.25,18-86.91C348,232.29,366.81,232.1,367,232.1a.93.93,0,0,1,0,1.85c-.19,0-17.61.18-21.11,13.73-2,8-15.94,76.59-17.79,85.8l32.54,2.68,6.17-64.79a1,1,0,0,1,1-.83.91.91,0,0,1,.82,1l-6.26,65.71A.83.83,0,0,1,361.56,338.09Z"/><path d="M297.78,353.12s-5.25-.37-5.07-4.8a2.64,2.64,0,0,1,.09-.83v-.09s-2.76-2-1.56-4.61,3-3.31,6.36-3.13c1.29,0,4.14,0,6.82-.09l-.28-.09c-1.2-.37-5.62-2-6.08-4.89-.56-3.32,1.93-4.52,3.22-4.24s8.21,5,14,4.24a58.91,58.91,0,0,1,11.89-.28l27.56,2.31s.46,13.36,4.61,16.68,9.21,4.42,8.66,6.82c-1.84,7.83-20,1.29-22.49-9.49-2,1.1-26.17,6.26-39.08,6-5.43-.09-7.74-1.57-8.47-3.32Z" fill="#fff"/><path d="M362.48,364.45h0c-6.64,0-15.39-5.53-17.7-12.72-5.25,1.57-26.54,5.9-38.43,5.72-4.88-.1-7.92-1.29-9.12-3.51-2.21-.36-5.53-1.84-5.44-5.71v-.55c-1.11-1-2.49-3.14-1.47-5.35,1.56-3.41,4.42-3.78,7.18-3.68h2.68a6.59,6.59,0,0,1-3.23-4,5,5,0,0,1,1.2-4.33,3.45,3.45,0,0,1,3.13-.92,17.73,17.73,0,0,1,1.85.83c2.67,1.38,7.55,3.87,11.79,3.32A61.22,61.22,0,0,1,327,333.3l27.46,2.3a.92.92,0,0,1,.83.93c.09,3.59,1.11,13.45,4.24,15.94a38.73,38.73,0,0,0,4.61,2.95c2.58,1.47,4.88,2.67,4.33,4.88C368.1,363,365.8,364.45,362.48,364.45Zm-17.14-14.74a.58.58,0,0,1,.37.09,1,1,0,0,1,.55.64c1.57,6.73,10.14,12.26,16.22,12.26h0c1.75,0,4-.46,4.42-2.76.19-.83-1.56-1.76-3.41-2.77a27.41,27.41,0,0,1-4.88-3.13c-3.87-3-4.79-13.46-5-16.5l-26.72-2.21a57,57,0,0,0-11.71.27c-4.88.65-10.14-2-12.9-3.5l-1.48-.74a1.55,1.55,0,0,0-1.38.47,2.77,2.77,0,0,0-.64,2.67c.27,1.84,3.13,3.41,5.52,4.15l.28.09a.85.85,0,0,1,.65,1,1,1,0,0,1-.93.83c-2.67.09-5.52.09-6.91.09-3-.09-4.51.56-5.43,2.68-.83,1.84,1.29,3.41,1.29,3.41a.86.86,0,0,1,.36.92,2.58,2.58,0,0,0-.09.83c-.09,3.5,4.06,3.87,4.24,3.87a.8.8,0,0,1,.74.55l.09.19c.74,1.75,3.41,2.67,7.65,2.76,12.9.28,37-5.07,38.62-5.9A.5.5,0,0,1,345.34,349.71Z"/><path d="M323.77,344.73c-11.8,4.42-25.34,3.59-25.34,3.59s-1.48,2.4-.74,4.61" fill="#fff"/><path d="M297.69,353.76a1.11,1.11,0,0,1-.92-.64c-.83-2.59.83-5.26.83-5.35a1.08,1.08,0,0,1,.83-.46c.09,0,13.54.83,25-3.5a.93.93,0,0,1,.65,1.75c-10.6,4-22.4,3.78-25.16,3.68a4.83,4.83,0,0,0-.46,3.32,1,1,0,0,1-.56,1.2Z"/><path d="M313.91,338.55c-1.38.56-5.35.83-9.12,1" fill="#fff"/><path d="M304.79,340.49a.93.93,0,0,1-.93-.92.87.87,0,0,1,.93-.92,45.29,45.29,0,0,0,8.84-.93,1,1,0,0,1,1.2.56,1,1,0,0,1-.55,1.2c-1.66.55-6,.82-9.49,1Z"/><path d="M373.72,236.71a22.29,22.29,0,0,1-6.91-1.1,1,1,0,0,1-.64-.83s-.74-10-1.2-16.32a5.33,5.33,0,0,1-4,.19,6,6,0,0,1-3.78-4.42c-.65-3-.19-5.26,1.29-6.64a6.33,6.33,0,0,1,5.07-1.29l-1-6.64a.89.89,0,1,1,1.75-.27l1.29,7.92a.91.91,0,0,1-.27.83.94.94,0,0,1-.83.19s-3.14-.83-4.7.64c-.92.92-1.2,2.58-.74,4.89a4.39,4.39,0,0,0,2.67,3.13,3.78,3.78,0,0,0,3.6-.74.86.86,0,0,1,.92-.09.9.9,0,0,1,.55.74c.37,5.25,1.11,14.65,1.29,17.14,1.75.46,7.38,1.84,11.34-.37l-.19-3.68a1,1,0,0,1,.83-1,1.1,1.1,0,0,1,1,.83s.18,2.21.27,4.24a1,1,0,0,1-.46.83A12.93,12.93,0,0,1,373.72,236.71Z"/><path d="M376.21,230.91a4.19,4.19,0,0,1-1.2-.1,1.08,1.08,0,0,1-.83-1c0-.46.56-.83,1-.83a30.14,30.14,0,0,0,10-1.38c13.64-5,11.06-24.33,11.06-24.52a.82.82,0,0,1,.56-.92l4.61-2.12a5,5,0,0,0,2.76-5.53,4.83,4.83,0,0,0-5.25-3.87l-4.43.37a.92.92,0,1,1-.18-1.84l4.42-.37a6.91,6.91,0,0,1,7.28,5.34,6.8,6.8,0,0,1-3.78,7.56l-4,1.84c.37,3.69,1.2,20.93-12.35,25.81A37.42,37.42,0,0,1,376.21,230.91Z"/><circle cx="380.45" cy="200.31" r="1.38"/><circle cx="386.44" cy="198.83" r="1.38"/><path d="M443.77,292a1.12,1.12,0,0,1-.74-.37L412,245.47A25.78,25.78,0,0,0,391.7,234l-11.52-.55a.88.88,0,0,1,.09-1.76l11.52.56a27.77,27.77,0,0,1,21.66,12.35l31.06,46.17a.91.91,0,0,1-.28,1.29A.78.78,0,0,0,443.77,292Z"/><path d="M418.61,302.52a1.1,1.1,0,0,1-.92-.65L412,280.49a1,1,0,0,1,.65-1.11,1,1,0,0,1,1.1.65l5.72,21.38a1,1,0,0,1-.65,1.11Z"/><path d="M411.33,275.51a1.12,1.12,0,0,1-.93-.64L406.72,261a.94.94,0,0,1,.64-1.1,1,1,0,0,1,1.11.64l3.69,13.83a1,1,0,0,1-.65,1.1Z"/><line x1="486.72" y1="374.22" x2="460.27" y2="302.52" fill="none"/><path d="M486.72,375.14a.88.88,0,0,1-.83-.64l-26.45-71.71a.94.94,0,0,1,.55-1.19,1,1,0,0,1,1.2.55l26.45,71.7a1,1,0,0,1-.56,1.2C487,375.14,486.9,375.14,486.72,375.14Z"/><line x1="406.35" y1="347.95" x2="439.62" y2="335.79" fill="none"/><path d="M406.35,348.88a.89.89,0,0,1-.83-.65,1,1,0,0,1,.55-1.2l33.37-12.26a.94.94,0,0,1,.64,1.76l-33.36,12.25A.67.67,0,0,1,406.35,348.88Z"/><path d="M292.8,347.86h-.18a.86.86,0,0,1-.64-1.1c.92-3.41,4-3.87,5.71-4.06l.37-.09c.55-.09,1.84-.19,3.68-.28,4.52-.27,12-.64,15.12-1.56a.82.82,0,0,1,1.11.64.83.83,0,0,1-.65,1.11c-3.32,1-10.69,1.38-15.58,1.66-1.65.09-3.13.18-3.5.27l-.46.09c-2,.28-3.69.65-4.15,2.68C293.63,347.59,293.27,347.86,292.8,347.86Z"/><path d="M349,196.35a1.13,1.13,0,0,1-.92-.65c-.09-.18-1.1-3.13-6.36-3.13a.93.93,0,0,1,0-1.85c6.73,0,8.11,4.24,8.11,4.43a.81.81,0,0,1-.64,1.1C349.21,196.35,349.12,196.35,349,196.35Z"/></g></svg>