<svg xmlns="http://www.w3.org/2000/svg" viewBox="0 0 841.9 595.3"><g id="Layer_31" data-name="Layer 31"><path d="M268,397.27a58.42,58.42,0,0,0,26,38.1c21.8,12.1,49.5,10.5,54.4,10.6,20.2,0,38.5-8.8,42.6-11.1s19.8-12.1,21.3-22.6-6.1-22.6-18-24.5c-39.1-6.3-68.6-64-75.2-71.8s-17.1-15.39-26.2-15.5c-13.2.21-21.2,16.61-23.2,21.71-4.3,12.19-5.4,41.29-5.4,41.29C264.31,376.58,267.21,393.37,268,397.27Z" fill="#fff"/><path d="M381.21,317.78s-3.1-14.1-17.3-12.7c-19,1.89-31.5-10.8-47.9-5.5-10.3,10.29-19.7,33.39-19.7,33.39s-7.8,20.7-6.8,30.4,11.6,14,11.6,14l-3.1,19,114.5-16.6,14.8-38.3-39.6,3.71Z" fill="#fff"/><path d="M414.91,487.07s-2.8,13-3.7,17c9.5-1.3,41.9,3.3,45.6,8.5s-4.4,5.9-4.4,5.9h-83.8l12.7-38.79Z" fill="#fff"/><path d="M367.71,519.18a1.45,1.45,0,0,1-.1-.91l12.7-38.8a1.09,1.09,0,0,1,1.2-.7l33.5,7.4a1,1,0,0,1,.8,1.2c0,.1-2.3,10.7-3.4,15.6,11.1-.7,41.2,3.5,45.2,9.1,1.2,1.61,1.5,3.11.9,4.4-1.2,2.5-5.5,3-6.1,3h-83.8A1.6,1.6,0,0,1,367.71,519.18Zm43.7-14.1a.92.92,0,0,1-.9-.3,1,1,0,0,1-.2-.9c.7-3.3,2.8-12.9,3.5-16l-31.7-7-12,36.6h82.3c.9-.1,3.7-.6,4.3-1.9.3-.61,0-1.4-.7-2.4-3-4.21-28.6-8.3-40.8-8.3A20.08,20.08,0,0,0,411.41,505.08Z"/><path d="M489.21,473.68s7.9,15.1,10.7,19c18.5-5.4,56.1-5.81,57.9-2.1s-3.5,4.89-3.5,4.89l-83.6,23-15-35.2Z" fill="#fff"/><path d="M470,519l-15-35.19a1.1,1.1,0,0,1,0-.8,1,1,0,0,1,.6-.5l33.5-9.7a1.08,1.08,0,0,1,1.2.5c0,.09,7.2,13.8,10.2,18.3,17.1-4.7,56-6.4,58.4-1.4a4,4,0,0,1,.1,3.4c-1.1,2.1-4,2.79-4.3,2.89l-83.6,23h-.3C470.41,519.47,470,519.27,470,519Zm30.2-25.5a1.11,1.11,0,0,1-1.1-.39c-2.5-3.5-8.8-15.3-10.4-18.4l-31.6,9.2,14.2,33.3,82.8-22.81c.7-.09,2.5-.69,3-1.79A1.86,1.86,0,0,0,557,491c-.9-1.19-7.9-1.89-17.2-1.89C527.61,489.08,511.41,490.37,500.21,493.47Z"/><path d="M469.41,392.57l-37.3,100.2-66.5-11.5,50.5-101.2,39.6-4.8A13.05,13.05,0,0,1,469.41,392.57Z" fill="#0E7490"/><path d="M395.31,383.08c-.2-.3-20.3-33.2-22.1-60.3a.9.9,0,0,1,.9-1.1c.6,0,1.1.29,1.1.9,1.8,26.6,21.6,59.1,21.8,59.39a1,1,0,0,1-.3,1.4.75.75,0,0,1-.5.1A1.3,1.3,0,0,1,395.31,383.08Z"/><path d="M293.31,373.28a18.69,18.69,0,0,1-4.8-16.1c5.9-34.7,25-56.6,25.2-56.8a1,1,0,1,1,1.5,1.3c-.1.19-18.8,21.59-24.7,55.79a17.19,17.19,0,0,0,18.5,19.9c24.5-2.2,58.3-7.7,64.2-8.7l-2.5-32.4-52.2,14a1,1,0,1,1-.5-1.9l53.3-14.3a.78.78,0,0,1,.8.1.86.86,0,0,1,.4.7l2.7,34.5a.94.94,0,0,1-.8,1.1c-.4,0-38.3,6.5-65.2,8.9a10.87,10.87,0,0,1-1.8.1A19.2,19.2,0,0,1,293.31,373.28Z"/><path d="M386.91,345.47l-6.5-27.9a15.47,15.47,0,0,0-16.5-11.8,1,1,0,1,1-.2-2,17.59,17.59,0,0,1,18.6,13.4l6.3,27.1,43.3-4.3a1.09,1.09,0,0,1,1.1.9,1,1,0,0,1-.9,1.1l-44.3,4.4h0A.9.9,0,0,1,386.91,345.47Z"/><path d="M405.81,341c8.4-2.3,9.9-7.39,9.5-8.6-.9-2.5-2.9-3-6.3-.4s-13.7,3-13.7,3C398.51,336.77,405.81,341,405.81,341Z" fill="#fff"/><path d="M405.31,342c0-.1-7.2-4.2-10.4-6a1,1,0,0,1-.5-1.1,1,1,0,0,1,.9-.8c2.8-.1,10.6-.9,13.1-2.8q3.15-2.38,5.4-1.8a3.6,3.6,0,0,1,2.5,2.61,4.48,4.48,0,0,1-.6,3.39c-.9,1.71-3.4,4.9-9.6,6.5h-.3C405.61,342,405.41,341.87,405.31,342Zm4.3-9c-2.3,1.7-7.5,2.5-10.9,2.9,2.8,1.6,6.1,3.5,7.2,4.1,7.6-2.2,8.5-6.6,8.4-7.2-.2-.8-.6-1.3-1.1-1.4-.1-.1-.2-.1-.4-.1A5.86,5.86,0,0,0,409.61,333Z"/><path d="M374,364.18c5.9-.1,9.3-5.2,9.3-5.2a12,12,0,0,1,.1,5,2.73,2.73,0,0,0,2.7,3.8c2-.1,3.2-2.8,3.8-4.6,2.6,2.5,5,1.3,7.2-.7a4,4,0,0,0,5.3-.7c2.9-3.81,1.2-11.41-.9-14.7,3.4,1.39,7,11.1,9.2,12.5,4.3,1.6,5.3-2.2,4.4-4.9-4-10.91-14.2-19.21-19.7-19.71s-23.3,6.5-23.3,6.5S373.61,360.77,374,364.18Z" fill="#fff"/><path d="M382.91,367.57a4,4,0,0,1-.6-3.7,6.35,6.35,0,0,0,.2-2.4,12.64,12.64,0,0,1-8.6,3.9,1,1,0,0,1-1-.9l-1.8-22.9a1,1,0,0,1,.6-1c.7-.3,18-7,23.7-6.5,6.3.5,16.6,9.5,20.5,20.4.6,1.8.6,4.2-.9,5.6-.8.7-2.3,1.5-4.8.5-.1,0-.1-.1-.2-.1-1-.7-2.1-2.5-3.7-5.3-.7-1.1-1.4-2.4-2.1-3.5.9,3.6,1,7.91-1.1,10.7a4.31,4.31,0,0,1-3.2,1.8,5.19,5.19,0,0,1-2.8-.4c-1.3,1.2-3.9,2.9-6.8,1.1-.8,1.9-2.1,3.9-4.2,4h-.3A3.93,3.93,0,0,1,382.91,367.57Zm7.6-5c1.8,1.69,3.4,1.5,5.8-.71a1,1,0,0,1,1.4,0,3,3,0,0,0,2,.4,2.69,2.69,0,0,0,1.8-1c2.5-3.3,1-10.4-1-13.6a1,1,0,0,1,.1-1.2.91.91,0,0,1,1.1-.3c2.3,1,4.3,4.5,6.3,8,1.1,1.8,2.3,4,3,4.5.9.3,2,.5,2.6-.1s.8-2.2.4-3.5c-3.9-10.9-13.9-18.7-18.8-19.1-4.6-.4-18.8,4.8-22.1,6.1l1.6,21.2c4.7-.6,7.6-4.7,7.6-4.7a1,1,0,0,1,1-.4.85.85,0,0,1,.8.7,12.6,12.6,0,0,1,.1,5.5,2.09,2.09,0,0,0,.3,1.9,2,2,0,0,0,1.5.6c1.1-.1,2.1-1.4,3-4a1.06,1.06,0,0,1,.7-.6h.2A.7.7,0,0,1,390.51,362.58Z"/><path d="M396.81,363.37a.89.89,0,0,1-.7-1.2c0-.1,1.7-6-.8-11.1a1,1,0,1,1,1.8-.8c2.8,5.8,1,12.2.9,12.5a1.18,1.18,0,0,1-1,.7C396.91,363.47,396.81,363.47,396.81,363.37Z"/><path d="M389.71,364.28a1.1,1.1,0,0,1-.8-1.2c.6-3.31.6-7.41-.4-8.21a1,1,0,0,1,1.2-1.6c2.6,1.91,1.5,8.81,1.2,10.2a1,1,0,0,1-1,.8Z"/><path d="M464.91,392l42.24,81.68-63.54,18.92-26.7-72-82.8,15.9a29.77,29.77,0,0,1-35.3-28.4l-.3-11.8,131.7-19.5A35.27,35.27,0,0,1,464.91,392Z" fill="#0E7490"/><path d="M356.41,432.18a1.05,1.05,0,0,1,.8-1.21l75.6-14.5a1,1,0,1,1,.4,2L357.61,433h-.2A1,1,0,0,1,356.41,432.18Z"/><path d="M442.61,492.87l-26.7-72a1,1,0,0,1,.6-1.29,1,1,0,0,1,1.3.6l26.7,72a1,1,0,0,1-.6,1.29.35.35,0,0,1-.3.11A1.22,1.22,0,0,1,442.61,492.87Z"/><path d="M474.11,407.07l-9.9-14.7a34.63,34.63,0,0,0-33.8-14.8l-33.3,4.9a1,1,0,0,1-.3-1.9l33.3-4.9a36.45,36.45,0,0,1,35.7,15.7l9.9,14.71a1,1,0,0,1-.3,1.39,1.31,1.31,0,0,1-.6.21C474.51,407.68,474.11,407.58,474.11,407.07Z"/><polygon points="496.81 363.18 497.01 370.57 380.41 384.57 379.11 377.68 496.81 363.18" fill="#fff"/><path d="M379.41,384.87l-1.2-6.9a1.08,1.08,0,0,1,.2-.8,1,1,0,0,1,.7-.4l117.7-14.6a.89.89,0,0,1,1.1.91l.1,7.5a1.07,1.07,0,0,1-.9,1l-116.6,14h-.1A1,1,0,0,1,379.41,384.87Zm116.4-20.59-115.5,14.3.9,4.89,114.7-13.7Z"/><polygon points="415.01 373.27 436.71 317.38 519.51 306.98 496.81 363.18 415.01 373.27" fill="#fff"/><path d="M414.21,373.87a1.18,1.18,0,0,1-.1-1l21.7-55.9a.87.87,0,0,1,.8-.6l82.9-10.4a1.09,1.09,0,0,1,.9.4,1.18,1.18,0,0,1,.1,1l-22.7,56.2a.87.87,0,0,1-.8.6l-81.9,10.1H415A.89.89,0,0,1,414.21,373.87ZM518,308.17l-80.6,10.1-20.9,53.8,79.6-9.8Z"/><path d="M297.41,396.17c0-4.4,2.5-18.5,2.6-19.1a1,1,0,0,1,1.2-.8,1.1,1.1,0,0,1,.8,1.2c0,.2-2.5,14.6-2.5,18.8a.94.94,0,0,1-1,1A1.18,1.18,0,0,1,297.41,396.17Z"/><rect x="461.31" y="333.12" width="13.3" height="13.3" transform="translate(-103.19 430.42) rotate(-45)" fill="#0E7490"/><path d="M317.91,443.67c-19.6-3.2-34.4-12.8-42.3-27.6s-11.3-47.2-11.3-47.2l17,3.1s-1.2,10.2,9.7,13.2c33.9,8.1,41.8,26.7,44.4,44.6s18.4,16,18.4,16C337.41,447,337.51,446.87,317.91,443.67Z" fill="#fff"/><path d="M334.51,429.77c-2.4-17-9.5-35.6-43.7-43.7a13.42,13.42,0,0,1-10.4-14.2.94.94,0,0,1,1.1-.9,1,1,0,0,1,.9,1.1c-.1.4-1,9.3,8.9,12.1,35.5,8.5,42.8,28.7,45.2,45.4s16.6,15.2,17.2,15.1a1,1,0,0,1,.2,2,7.31,7.31,0,0,1-1.3.1C348.61,446.77,336.71,445.47,334.51,429.77Z"/><path d="M304.71,441.37c-22.2-6.9-35.7-25.6-40.1-55.5-4.1-28.09,1.5-54.79,2.2-57.79,4.2-18.81,16.4-28.61,26.4-28.61h.1c9,.11,16.6,6.91,16.9,7.21a1,1,0,0,1-1.3,1.5c-.1-.1-7.4-6.6-15.6-6.71h-.1c-7.4,0-20,7.21-24.4,27.11-.6,2.89-6.2,29.29-2.1,57,4.3,29,17.3,47.19,38.7,53.89,50,15.71,85.1-5.69,85.4-5.89a1,1,0,0,1,1.4.29,1,1,0,0,1-.3,1.4c-.2.2-19.6,12-49.9,12A124.6,124.6,0,0,1,304.71,441.37Z"/><path d="M326.61,519.47a1,1,0,0,1-.9-1.1l8.9-72.1a1,1,0,1,1,2,.2l-8.9,72.1a1.06,1.06,0,0,1-1,.9Z"/><path d="M258.31,519.37a1,1,0,0,1-.6-1.3L288,431.58a1,1,0,1,1,1.9.69l-30.3,86.5a1,1,0,0,1-.9.7A.6.6,0,0,1,258.31,519.37Z"/><path d="M372.6,255.4s6.4-24.4-20.5-20.9c-13.7,2-30,11.8-26.6,21.7-4.3,2.6-12,14.6-9.1,26.4,2.8,11.6,10.6,15.3,20.5,14.1-.2-4-3.6-36.6-3.6-36.6Z" fill="#0E7490"/><path d="M353.2,297.3V303s-5.6,3.8-15.8.1c-.3-3.3-.7-13.5-.7-13.5a4.75,4.75,0,0,1-5.5,2.4c-4.1-.8-5.1-4.3-5.4-7.3s1.8-8.5,9.3-3.6l-1.7-21,37.1-4.5s9.2-1.4,9.4,3.2-2.7,6.1-8.8,7.5c-.1,2.8,2.4,32.6-14.4,31.4Z" fill="#fff"/><circle cx="352.7" cy="267.3" r="1.5"/><circle cx="359.3" cy="266.9" r="1.5"/><path d="M345.8,305.8a24.59,24.59,0,0,1-8.8-1.7,1.11,1.11,0,0,1-.7-.9c-.2-2.3-.5-7.9-.6-11.1a6,6,0,0,1-4.8.9c-3.7-.7-5.8-3.5-6.2-8.2a6.54,6.54,0,0,1,2.6-6c2.1-1.2,4.8-.8,8.2,1.4a1,1,0,1,1-1.1,1.7c-2.7-1.7-4.8-2.2-6.1-1.4s-1.7,2.9-1.6,4.1c.3,3.9,1.8,5.9,4.5,6.4,3.3.6,4.4-1.8,4.4-1.8a1,1,0,0,1,1.1-.6,1,1,0,0,1,.8.9c0,.1.4,9.1.7,12.8,7.7,2.6,12.4.7,13.9,0v-5a1,1,0,0,1,2,0V303a1.23,1.23,0,0,1-.4.8C353.5,304,350.8,305.8,345.8,305.8Z"/><path d="M357.5,298.7h-1.1l-6.8-.7a1.17,1.17,0,0,1-.9-1.1,1.09,1.09,0,0,1,1.1-.9l6.8.7a9.23,9.23,0,0,0,7.4-2.5c6.4-6.1,6-21.3,5.9-26.3v-1.6a1,1,0,0,1,.8-.9c6.3-1.4,8.1-2.9,8-6.5a1.49,1.49,0,0,0-.6-1.3c-1.7-1.4-6-1.1-7.6-.9a1,1,0,1,1-.3-1.9c.7-.1,6.5-.9,9.1,1.3a3.82,3.82,0,0,1,1.4,2.8c.2,5.6-3.8,7.2-8.8,8.4v.7c.1,5.2.5,21.2-6.5,27.8A11.66,11.66,0,0,1,357.5,298.7Z"/><path d="M325.5,257.2a1.05,1.05,0,0,1-.9-.5c-.1-.3-3.4-6.1-9.2-4a1,1,0,1,1-.7-1.9c5.9-2.2,10.2,2.2,11.6,4.9a1,1,0,0,1-.4,1.4C325.8,257.1,325.7,257.2,325.5,257.2Z"/><rect x="410.12" y="229.22" width="48.47" height="48.47" transform="translate(-50.52 120.04) rotate(-14.88)" fill="#fff"/><circle cx="520.93" cy="282.78" r="9.28" fill="#0E7490"/><polygon points="520.76 209.89 524.91 222.03 537.25 225.69 526.88 233.29 527.28 246.22 516.81 238.72 504.67 243.06 508.62 230.82 500.62 220.65 513.56 220.55 520.76 209.89" fill="#0E7490"/><path d="M416.41,285.22a.87.87,0,0,1-.49-.1,1.51,1.51,0,0,1-.5-.59l-12.93-48.77a1,1,0,0,1,.69-1.19L452,221.64a1,1,0,0,1,1.18.69l12.94,48.77a1,1,0,0,1-.69,1.18l-48.77,12.94Zm-11.75-49L417.1,283l46.79-12.43-12.43-46.8Z"/><rect x="422.06" y="248.1" width="6.71" height="20.73" transform="translate(-52.11 117.91) rotate(-14.88)" fill="#0E7490"/><rect x="432.42" y="252.05" width="6.71" height="14.12" transform="translate(-51.92 120.59) rotate(-14.88)" fill="#0E7490"/><rect x="440.5" y="237.91" width="6.71" height="25.87" transform="translate(-49.53 122.39) rotate(-14.88)" fill="#0E7490"/><path d="M423.72,270.61a1.2,1.2,0,0,1-1-.69,1,1,0,0,1,.69-1.19l27.74-7.4a1,1,0,0,1,.49,1.87L424,270.61Z"/><circle cx="463.55" cy="273.37" r="20.04" fill="#fff"/><path d="M463.55,294.39a21,21,0,1,1,21-21A21,21,0,0,1,463.55,294.39Zm0-40.17a19,19,0,1,0,19.05,19A19.06,19.06,0,0,0,463.55,254.22Z"/><path d="M454.07,279.49a.89.89,0,0,1-.69-.3.94.94,0,0,1,0-1.38L459.2,272a1,1,0,0,1,1.39,0l3.65,3.66,8.19-8.2a1,1,0,0,1,1.38,1.39l-8.88,8.88a1,1,0,0,1-1.38,0l-3.66-3.65-5.13,5.13A1.06,1.06,0,0,1,454.07,279.49Z"/><path d="M473,273.66a.92.92,0,0,1-1-1v-3.56h-3.56a1,1,0,0,1,0-2H473a.93.93,0,0,1,1,1v4.55A.93.93,0,0,1,473,273.66Z"/><path d="M608.71,520.24H230.41a1,1,0,1,1,0-2h378.4a.94.94,0,0,1,1,1A1,1,0,0,1,608.71,520.24Z"/></g></svg>