<svg xmlns="http://www.w3.org/2000/svg" viewBox="0 0 841.9 595.3"><g id="Layer_21" data-name="Layer 21"><path d="M622,240.84c-4.17,1.4-10.93.38-10.93.38l-.43-5.72-.4.08a11.55,11.55,0,0,1-14-10.18c0-3.3-.46-7.13-2.66-9.23-1.15-1.16-7.72-2.07-7.14-5.75s7.68-3.74,7.68-3.74l1.55-3.13,36.91.65-6,35.75Z" fill="#fff"/><path d="M586.08,330.84s6.83-42.92,7.68-48.09l-4.4-21.33L594.1,250c2-4.91,5.58-9.85,11.91-10.35l4.82-.37,36.51,2.83s6.4,2.2,8.74,7.72c1.35,3.27,6.29,19.42,10.1,32a16.31,16.31,0,0,1-9.35,19.79l.3,2.21s3.09,21.37,3.14,26.78Z" fill="#fff"/><path d="M553.31,230l18.51-4.13s-.69-12.95-13-11.72C544.67,215.66,553.31,230,553.31,230Z" fill="#fff"/><path d="M586,331.84h-.1a1.18,1.18,0,0,1-.85-1.14c.13-.7,11.09-69.36,11.94-74.52a1,1,0,1,1,2,.29c-.85,5.17-11.81,73.83-11.94,74.52A1,1,0,0,1,586,331.84Z"/><path d="M549.86,218.2s-1.29-.26-2.18,1.7-1.81,8.63.34,9.63,2.92-2.46,3.27-3.45,1.41-6.44,1.41-6.44S550.77,218,549.86,218.2Z" fill="#fff"/><path d="M548.76,230.77a5.55,5.55,0,0,1-1.08-.26c-3.23-1.55-1.57-9.28-.89-10.95.9-2,2.22-2.4,3-2.36,1.31-.14,2.94,1.24,3.62,1.77a1.07,1.07,0,0,1,.35.92c-.12.6-1.16,5.55-1.51,6.54l-.11.29c-.35,1.09-.95,3.16-2.38,3.79A1.51,1.51,0,0,1,548.76,230.77Zm1-11.57c-.2,0-.61.27-1.05,1.15-.91,2.16-1.37,7.74-.1,8.3.3.12.4.12.5,0,.62-.27,1.1-2,1.33-2.54l.11-.4c.23-.59.87-3.56,1.28-5.74a5.47,5.47,0,0,0-1.66-1A.5.5,0,0,1,549.71,219.2Z"/><path d="M553.42,212.77s-2.85-1.14-4.29-.21-.73,4.77-.3,6.2,2.16,5.2,3.9,4.39S555.86,214.08,553.42,212.77Z" fill="#fff"/><path d="M552.08,224.22a2.5,2.5,0,0,1-.8-.14c-2.06-.9-3.37-4.87-3.47-5s-1.82-5.79.75-7.27c2-1.21,4.9,0,5.2.14h.1c1.17.65,1.8,2.18,1.78,4.59,0,2.6-.91,6.66-2.55,7.48A3.6,3.6,0,0,1,552.08,224.22Zm-1.28-11a2.15,2.15,0,0,0-1.22.25c-.72.36-.44,3.08.17,5,.43,1.32,1.53,3.48,2.32,3.81h.1c.52-.38,1.67-3.53,1.5-6.34,0-1.4-.41-2-.7-2.23A6.53,6.53,0,0,0,550.8,213.24Z"/><path d="M559.62,210.86a6.56,6.56,0,0,0-3.08-2.55c-1.88-.59-3.49,3.94-3.56,7.34s.41,6.33,2.71,6.23,3-2.56,3.38-3.74S559.62,210.86,559.62,210.86Z" fill="#fff"/><path d="M555.45,222.87a3.13,3.13,0,0,1-2-.89c-1.15-1.16-1.65-3.28-1.5-6.38.13-2.89,1.21-6.55,2.87-7.87a2.25,2.25,0,0,1,1.92-.41,7.58,7.58,0,0,1,3.67,3,1,1,0,0,1,.17.5c-.07,1.5-.2,6.4-.66,7.68l-.12.3c-.46,1.28-1.48,3.93-4.19,4.1Zm.83-13.47a.27.27,0,0,0-.2.09c-.94.76-2,3.71-2.1,6.31-.17,3.49.58,4.63.87,4.94a.63.63,0,0,0,.69.24c1.3,0,1.86-1.42,2.43-2.79l.11-.3a51.67,51.67,0,0,0,.52-6.58,3.63,3.63,0,0,0-2.32-1.91Z"/><path d="M566.14,210.57s-1.33,4.84-2.17,7.8-3,4-5,3.17-.81-6,.47-9.89,5-5.67,8.22-4.51c1.28.46,2.78,2.73,2.46,5.12" fill="#fff"/><path d="M560.15,222.9a4.19,4.19,0,0,1-1.48-.37c-3-1.15-1.35-7.48-.08-11.12a8.29,8.29,0,0,1,4.13-4.81,7.06,7.06,0,0,1,5.33-.35c1.77.59,3.44,3.37,3.2,6.26a1,1,0,0,1-2-.29c.2-2-1.11-3.86-1.8-4.1a5.13,5.13,0,0,0-3.82.22,6.45,6.45,0,0,0-3.17,3.66c-1.75,5.22-1.8,8.32-1,8.56a2.76,2.76,0,0,0,2,0,3.51,3.51,0,0,0,1.62-2.43c.84-3,2.17-7.81,2.17-7.81l2,.5s-1.33,4.84-2.17,7.8a5.26,5.26,0,0,1-2.68,3.68A3.62,3.62,0,0,1,560.15,222.9Z"/><path d="M577.84,219.33,537.26,207.4a2.27,2.27,0,0,1-1.57-2.78h0a2.25,2.25,0,0,1,2.77-1.57L579.05,215a2.28,2.28,0,0,1,1.57,2.78h0A2.21,2.21,0,0,1,577.84,219.33Z" fill="#fff"/><path d="M578.29,220.45a2,2,0,0,1-.8-.14h0l-40.58-11.93a3.27,3.27,0,0,1-2.21-4.11,3,3,0,0,1,1.59-1.92,3.1,3.1,0,0,1,2.52-.29L579.39,214a3.27,3.27,0,0,1,2.21,4.1A3.31,3.31,0,0,1,578.29,220.45Zm-.21-2a1.8,1.8,0,0,0,1-.05,1.57,1.57,0,0,0,.64-.77,1.75,1.75,0,0,0-.05-1c-.09-.3-.48-.52-.77-.64L538.32,204a1.75,1.75,0,0,0-1,.06,1.47,1.47,0,0,0-.63.77,1.2,1.2,0,0,0,.82,1.54l40.58,12Z"/><polygon points="605.64 319.25 565.19 317.34 551.91 259.55 592.36 261.46 605.64 319.25" fill="#fff"/><path d="M605.6,320.25l-40.46-1.91a1.2,1.2,0,0,1-1-.75L550.89,259.9a1,1,0,0,1,.24-.89,1.21,1.21,0,0,1,.82-.36l40.45,1.91a1.21,1.21,0,0,1,1,.75L606.66,319a1,1,0,0,1-.24.89A1.21,1.21,0,0,1,605.6,320.25ZM566,316.38l38.35,1.81-12.78-55.66-38.36-1.82Z"/><circle cx="603.74" cy="211.54" r="1.3" transform="translate(363.88 804.6) rotate(-87.29)"/><circle cx="609.2" cy="212.4" r="1.3" transform="translate(368.23 810.88) rotate(-87.29)"/><path d="M614.38,242.48a18.19,18.19,0,0,1-3.58-.37c-.5,0-.78-.44-.86-.94l-.43-5.73a1,1,0,0,1,1-1.05,1,1,0,0,1,1.06,1l.37,4.92c1.89.19,6.57.61,9.73-.44a1,1,0,0,1,.61,1.93A22.9,22.9,0,0,1,614.38,242.48Z"/><path d="M594.11,203.48l32,1.51s-4,5.22-2.24,9.31,4.11,8.2,1.95,11.6a14.23,14.23,0,0,0-.41,15c2,3.8.26,9.32.26,9.32l36.31-10s-8.73-10.13-8-15.9,5.54-9.34,0-14.91.91-8.57-2.4-14.73c-2.31-4.22-7.56-5.37-12.79-2.81-1.59-4.48-2.71-8.14-9.58-7-3.63.63-6.64.69-10.36-1.09s-13.89-2.66-20.73,4.52C592.66,193.8,594.11,203.48,594.11,203.48Z" fill="#0E7490"/><path d="M638.76,192.78h-.2a1.1,1.1,0,0,1-.74-1.24c.11-.29,2-7.11,9-8.38A1,1,0,0,1,648,184a1,1,0,0,1-.86,1.16c-5.75,1-7.43,6.85-7.44,7C639.67,192.52,639.16,192.8,638.76,192.78Z"/><path d="M607,236.72a11.61,11.61,0,0,1-6.11-2,12.66,12.66,0,0,1-5.57-9.37c-.07-2.71-.28-6.62-2.3-8.52a6.52,6.52,0,0,0-1.76-.78c-2.46-1-6.2-2.4-5.64-5.78.81-4.36,7.83-4.53,8.63-4.49a1.15,1.15,0,0,1,1,1,1.07,1.07,0,0,1-1,1c-1.6,0-6.23.61-6.64,2.89-.28,1.59,1.78,2.59,4.43,3.62a10.23,10.23,0,0,1,2.45,1.21c2.59,2.43,2.89,6.65,2.93,10a10.5,10.5,0,0,0,4.64,7.73c3.11,2.05,7.31,2.15,11.9.26a1,1,0,1,1,.71,1.84A19.93,19.93,0,0,1,607,236.72Z"/><path d="M615.23,315.5c-.2,0-.3,0-.39-.11a1,1,0,0,1-.47-.63l-6.84-26.85a1.05,1.05,0,0,1,.14-.8,1.28,1.28,0,0,1,.72-.46l35.39-5.33a1,1,0,0,1,1.16.85,1,1,0,0,1-.85,1.16l-34.28,5.09,6.33,24.82,39.11-12.06a15.34,15.34,0,0,0,10.12-19c-5.54-18.39-9-29.46-10.1-32-2.07-5-8.07-7.19-8.17-7.19a1,1,0,1,1,.59-1.87c.29.11,6.89,2.42,9.32,8.25,1.35,3.26,6.29,19.31,10.19,32.11A17.38,17.38,0,0,1,655.77,303l-40.13,12.41A.73.73,0,0,1,615.23,315.5Z"/><circle cx="576.83" cy="289.26" r="6.2" fill="#0E7490"/><path d="M608.44,287.65s-2.51-4-5.44-5.66-5-7.65-7.23-5.85c.81,4,2.91,12.65,2.91,12.65s-10.35.71-15.57-1.14-5.79,1.83-5.79,1.83-.53,2.78,3.18,4.76c-2.21.09-4.1,1.91-4,3.41s1.13,3.66,4.34,3.61c-2.77,1.47-3,2.76-3.09,3.86-.19,4,9.26,3.24,9.26,3.24s-4.7,2-3.51,4.34c1.28,2.57,5.5,2.26,11.05,1.23,7.58-1.45,19.11-6,19.11-6Z" fill="#fff"/><path d="M587.5,315.59c-2.3-.11-4.07-.79-5-2.54a2.81,2.81,0,0,1-.09-2.2,5.25,5.25,0,0,1,1.07-1.55c-2.1-.1-4.58-.62-5.92-1.89a3,3,0,0,1-1-2.45,4.2,4.2,0,0,1,1.55-3.23,4.76,4.76,0,0,1-2.81-4,3.55,3.55,0,0,1,1-2.66,6.26,6.26,0,0,1,1.56-1.22,5,5,0,0,1-1.79-4.59,3.84,3.84,0,0,1,1.82-2.52c1.34-.84,3.15-.85,5.31,0,3.94,1.39,11.15,1.33,14.06,1.17-.58-2.53-2-8.41-2.66-11.54a1,1,0,0,1,.35-1,2.43,2.43,0,0,1,1.73-.62c1.4.17,2.43,1.52,3.66,3.18a12.38,12.38,0,0,0,3,3.14c3.12,1.75,5.73,5.88,5.82,6a.36.36,0,0,1,.09.3l5.15,20.17a1.07,1.07,0,0,1-.55,1.17c-.51.18-11.73,4.55-19.31,6.09A25.33,25.33,0,0,1,587.5,315.59Zm-.51-8.33a1.21,1.21,0,0,1,1,.75,1.09,1.09,0,0,1-.56,1.17c-1,.45-2.67,1.38-3,2.36a.48.48,0,0,0,.07.61c1,2,5.63,1.46,10,.67,6.26-1.21,15.33-4.58,18.08-5.65L607.62,288a18.41,18.41,0,0,0-5-5.24A13.47,13.47,0,0,1,599,279.1a15.83,15.83,0,0,0-2-2.3c.9,4.25,2.66,11.54,2.66,11.64a1.07,1.07,0,0,1-.14.79,1,1,0,0,1-.72.37c-.4,0-10.65.7-16-1.26-1.57-.57-2.87-.63-3.6-.17a1.76,1.76,0,0,0-.85,1.16c0,.1-.3,2.09,2.63,3.73a1.14,1.14,0,0,1,.54,1.13,1.06,1.06,0,0,1-.93.76,3.78,3.78,0,0,0-2.46,1.18,1.77,1.77,0,0,0-.56,1.18c.07.6.37,2.72,3.38,2.66a1,1,0,0,1,1,.75,1.2,1.2,0,0,1-.55,1.17c-2.46,1.29-2.51,2.18-2.55,3a1.13,1.13,0,0,0,.36.92c1.34,1.27,5.54,1.47,7.85,1.27C586.89,307.25,587,307.26,587,307.26Z"/><path d="M591.41,296.36c-4.79-.23-10.95-1.22-11.15-1.23a1.18,1.18,0,0,1-.85-1.14,1,1,0,0,1,1.14-.85c.1,0,7.56,1.16,12.25,1.28a1,1,0,0,1,1,1.05,1,1,0,0,1-1,.95Z"/><path d="M583.62,302.39l-2.9-.13a1,1,0,0,1,.1-2c.09,0,8.67.71,13.22-.18a1,1,0,0,1,.41,1.93A49.43,49.43,0,0,1,583.62,302.39Z"/><path d="M586.9,309.26a1.07,1.07,0,0,1-1-.95,1,1,0,0,1,.95-1.06c.1,0,7.53-.44,10.4-1.91a1,1,0,0,1,.92,1.85c-3.29,1.75-10.92,2.19-11.22,2.17A.09.09,0,0,0,586.9,309.26Z"/><path d="M589.32,262.32a.42.42,0,0,1-.3-.11,1,1,0,0,1-.53-1.33l4.74-11.39c2.82-6.77,7.1-10.48,12.73-10.91l4.82-.37a1,1,0,0,1,1.06.95,1,1,0,0,1-1,1.05l-4.83.38c-4.72.37-8.48,3.6-11,9.69l-4.74,11.39A1,1,0,0,1,589.32,262.32Z"/><polygon points="584.47 261.09 578.81 234.69 553.9 238.62 560.2 259.94 584.47 261.09" fill="#fff"/><path d="M584.42,262.09l-24.27-1.15a1,1,0,0,1-.86-.74L553,238.78a.77.77,0,0,1,.14-.8c.11-.29.42-.38.72-.47l24.92-3.92a1.09,1.09,0,0,1,1.16.75l5.65,26.5a1,1,0,0,1-.24.89A1.1,1.1,0,0,1,584.42,262.09ZM560.94,259,583.22,260l-5.16-24.27-22.9,3.62Z"/><path d="M551.38,226.19a45.45,45.45,0,0,1,2.62,6c.51,1.92,2.22,6,4.44,5.71s17-2.7,17-2.7-1.07-6.85-.38-10.83,1.88-6-1.33-7.87-6.4-6.61-8.33-5.9-1.81,6.32,1.71,8.29c-2.4,1.89-3.58,3.54-3.84,4.93" fill="#fff"/><path d="M558,238.91c-3.2-.15-4.91-6.24-5-6.44a50.93,50.93,0,0,0-2.53-5.83,1,1,0,1,1,1.85-.91A58.2,58.2,0,0,1,555,232c.68,2.54,2.26,5.12,3.26,5l16.14-2.54a43.51,43.51,0,0,1-.32-10.12c.14-.8.27-1.49.4-2.09.63-2.77.67-3.67-1.18-4.76a19.44,19.44,0,0,1-4-3.29c-1.14-1.15-3-2.84-3.48-2.57-.2.1-.53.58-.57,1.48a5.8,5.8,0,0,0,2.47,5,.89.89,0,0,1,.46.82,1.23,1.23,0,0,1-.34.89c-2.6,2.08-3.27,3.45-3.41,4.34a1,1,0,0,1-2-.29q.4-2.24,3.22-4.65a7.5,7.5,0,0,1-2.32-6,3.56,3.56,0,0,1,1.86-3.22c1.73-.72,3.56,1,5.66,3a18.2,18.2,0,0,0,3.57,3c3.21,1.85,2.71,4.13,2.18,6.81-.13.59-.26,1.29-.4,2-.57,3.78.41,10.43.41,10.53a1,1,0,0,1-.86,1.16l-17.05,2.7A2.76,2.76,0,0,0,558,238.91Z"/><path d="M660.22,331.55a1,1,0,0,1-1-.95c0-5.31-3.35-28.59-3.34-28.89a1,1,0,1,1,2-.3c.15,1,3.28,23.68,3.43,29.09a1.19,1.19,0,0,1-1.16,1.05Z"/><path d="M593.46,484a172.24,172.24,0,0,1,.19,17.32c-15.08-.37-51.61,8.62-52.45,12.83s4.12,4.31,4.12,4.31l80.45.19-1.5-35.4Z" fill="#fff"/><path d="M625.77,519.56l-80.36-.28c-.09,0-2.9-.1-4.3-1.88a4.18,4.18,0,0,1-.75-3.56c1.12-5.34,38.49-13.58,52.54-13.58.37-6.55-.28-16.2-.28-16.29a1,1,0,0,1,.28-.66.82.82,0,0,1,.65-.28l30.72-.75h0a1,1,0,0,1,.94.94l1.5,35.4a1,1,0,0,1-.29.66.85.85,0,0,1-.65.28Zm-31.28-34.75a150.48,150.48,0,0,1,.19,16.48.93.93,0,0,1-.94.85c-15.92-.47-50.48,8.89-51.51,12.08a2.79,2.79,0,0,0,.37,2.06,4,4,0,0,0,2.81,1.22l79.42.18-1.4-33.52Z"/><path d="M621.93,493.33s.65,1.31.19,8c-15.08-.37-51.61,8.62-52.45,12.83s4.12,4.31,4.12,4.31l80.45.19-1.5-26Z" fill="#fff"/><path d="M654.24,519.56l-80.36-.19c-.09,0-2.9-.09-4.3-1.87a4.2,4.2,0,0,1-.75-3.56c1.12-5.34,38.49-13.58,52.54-13.58.28-5.25-.19-6.56-.19-6.56a.85.85,0,0,1,0-.94.73.73,0,0,1,.75-.46l30.81-.66h0a.93.93,0,0,1,.94.84l1.5,26a1,1,0,0,1-.29.66.85.85,0,0,1-.65.28Zm-31.09-25.38a34.12,34.12,0,0,1,0,7.11.93.93,0,0,1-.94.85c-15.92-.47-50.48,8.89-51.51,12.08a2.74,2.74,0,0,0,.38,2.06,3.92,3.92,0,0,0,2.8,1.22l79.42.18-1.4-24.16Z"/><path d="M636.26,489.77h-62L586.62,332l44-.56C630.64,346.58,636.26,489.68,636.26,489.77Z" fill="#0E7490"/><path d="M666.41,495.11h-62L609.29,332l51.6-.56C660.89,347.05,666.51,495.11,666.41,495.11Z" fill="#0E7490"/><line x1="607.32" y1="400.15" x2="604.51" y2="495.11" fill="none"/><path d="M604.51,496.05a.94.94,0,0,1-.94-.94l2.81-95a.94.94,0,0,1,.94-.94.89.89,0,0,1,.94.94l-2.81,95a.94.94,0,0,1-.94.94Z"/><path d="M685.06,520.9H479a1.08,1.08,0,0,1,0-2.16H685.17a1,1,0,0,1,1.08,1.08A1.11,1.11,0,0,1,685.06,520.9Z"/><path d="M216.9,482.27l-1.6,37.8,85.9-.2s5.3-.1,4.4-4.6-39.9-14.1-56-13.7a181.6,181.6,0,0,1,.2-18.5Z" fill="#fff"/><path d="M215.3,521.07a.91.91,0,0,1-.7-.3,1.08,1.08,0,0,1-.3-.7l1.6-37.8a1.08,1.08,0,0,1,1-1h0l32.8.8a.91.91,0,0,1,.7.3,1.08,1.08,0,0,1,.3.7c0,.1-.7,10.4-.3,17.4,15,0,54.9,8.8,56.1,14.5a4.47,4.47,0,0,1-.8,3.8c-1.5,1.9-4.5,2-4.6,2l-85.8.3Zm2.5-37.8-1.5,35.8,84.8-.2a4.18,4.18,0,0,0,3-1.3,2.93,2.93,0,0,0,.4-2.2c-1.1-3.4-38-13.4-55-12.9a1,1,0,0,1-1-.9,160.34,160.34,0,0,1,.2-17.6Z"/><path d="M186.5,492.27l-1.6,27.8,85.9-.2s5.3-.1,4.4-4.6-39.9-14.1-56-13.7c-.5-7.1.2-8.5.2-8.5Z" fill="#fff"/><path d="M184.9,521.07a.91.91,0,0,1-.7-.3,1.08,1.08,0,0,1-.3-.7l1.6-27.8a1,1,0,0,1,1-.9h0l32.9.7a.79.79,0,0,1,.8.5.91.91,0,0,1,0,1s-.5,1.4-.2,7c15,0,54.9,8.8,56.1,14.5a4.47,4.47,0,0,1-.8,3.8c-1.5,1.9-4.5,2-4.6,2l-85.8.2Zm2.5-27.8-1.5,25.8,84.8-.2a4.18,4.18,0,0,0,3-1.3,2.93,2.93,0,0,0,.4-2.2c-1.1-3.4-38-13.4-55-12.9a1,1,0,0,1-1-.9,35.88,35.88,0,0,1,0-7.6Z"/><path d="M210.1,320.17l47,.6,13.2,168.5H204.1C204.1,489.17,210.1,336.37,210.1,320.17Z" fill="#0E7490"/><path d="M177.8,320.17l55.1.6L238.1,495H171.9C171.8,495,177.8,336.87,177.8,320.17Z" fill="#0E7490"/><path d="M350.9,216.27c2.8-.2,5,4.4,0,6.1s-9.1-.4-12,2.6l-4.1.4.4-4.9,6.1-4.5Z" fill="#fff"/><path d="M334.8,226.27a.91.91,0,0,1-.7-.3,1.14,1.14,0,0,1-.3-.8l.4-4.9a.84.84,0,0,1,.4-.7l6.1-4.5a1.42,1.42,0,0,1,.6-.2l9.6.3a4,4,0,0,1,3.9,3.1c.3,1.6-.4,3.8-3.6,4.9a17.9,17.9,0,0,1-6.2.8c-2.3,0-4.1.1-5.4,1.5a.86.86,0,0,1-.6.3l-4.1.4C334.9,226.27,334.9,226.27,334.8,226.27Zm1.4-5.4-.3,3.3,2.6-.3c1.9-1.7,4.2-1.8,6.6-1.8a18.69,18.69,0,0,0,5.6-.7c1.7-.6,2.5-1.5,2.3-2.6a1.83,1.83,0,0,0-1.9-1.5H351l-9.3-.3Z"/><path d="M333.6,225.57s5.5-1.5,7.5-.4c2.3,1.2,2.6,2.1,1.7,5.7l-6.9,4.9L332,230Z" fill="#fff"/><path d="M335.8,236.77h-.2a1,1,0,0,1-.7-.4l-3.9-5.8a1,1,0,0,1-.1-.9l1.6-4.4a1.06,1.06,0,0,1,.7-.6c1-.3,6-1.5,8.3-.3,3,1.6,3.1,3.2,2.1,6.8a2.09,2.09,0,0,1-.4.6l-6.9,4.9A4.33,4.33,0,0,1,335.8,236.77Zm-2.7-6.9,3,4.5,5.8-4.1c.8-3.1.4-3.3-1.3-4.2-1-.6-4.1-.1-6.3.4Z"/><path d="M282.3,273.77l43.4-17-10.9-26.6-48.2,22.1-15.5-26.2a28.17,28.17,0,0,0-18.5-13.2l-6.8-1.4-16.7-.3-15.6,4.3s-10.7,4.5-12.6,12.8-8.6,37.7-8.6,37.7-2.9,10,3.7,18.6c1.6,2,4.8,5.1,4.8,5.1l-3,30.5h79.4l-1.2-37.8Z" fill="#fff"/><path d="M282.3,274.77a.87.87,0,0,1-.9-.6,1,1,0,0,1,.6-1.3l42.5-16.6-10.1-24.7-47.3,21.7a1.09,1.09,0,0,1-1.3-.4l-15.5-26.2A26.89,26.89,0,0,0,232.4,214l-6.8-1.4a1,1,0,1,1,.4-2l6.8,1.4a29,29,0,0,1,19.2,13.7l15,25.4,47.4-21.7a1.1,1.1,0,0,1,.8,0,.9.9,0,0,1,.6.6l10.9,26.6a1.1,1.1,0,0,1,0,.8,1,1,0,0,1-.6.5l-43.4,17A.76.76,0,0,0,282.3,274.77Z"/><polygon points="286.8 276.07 226.9 245.57 183.3 330.77 243 362.37 286.8 276.07" fill="#fff"/><path d="M243,363.37a.9.9,0,0,1-.5-.1l-59.6-31.6a.92.92,0,0,1-.4-1.3l43.6-85.2a.92.92,0,0,1,1.3-.4l59.9,30.5a.92.92,0,0,1,.4,1.3l-43.9,86.3a1,1,0,0,1-.6.5Zm-58.3-33,57.9,30.7,43-84.5L227.5,247Z"/><polygon points="198.7 259.57 246.3 280.37 231.6 312.57 188.9 293.97 198.7 259.57" fill="#fff"/><path d="M245.2,165.17s6.4-24.4-20.5-20.9c-13.7,2-30,11.8-26.6,21.7-4.3,2.6-12,14.6-9.1,26.4,2.8,11.6,10.6,15.3,20.5,14.1-.2-4-3.6-36.6-3.6-36.6Z" fill="#0E7490"/><path d="M225.8,207.07v5.7s-5.6,3.8-15.8.1c-.3-3.3-.7-13.5-.7-13.5a4.75,4.75,0,0,1-5.5,2.4c-4.1-.8-5.1-4.3-5.4-7.3s1.8-8.5,9.3-3.6l-1.7-21,37.1-4.5s9.2-1.4,9.4,3.2-2.7,6.1-8.8,7.5c-.1,2.8,2.4,32.6-14.4,31.4Z" fill="#fff"/><circle cx="225.3" cy="177.07" r="1.5"/><circle cx="231.9" cy="176.67" r="1.5"/><path d="M218.4,215.57a24.59,24.59,0,0,1-8.8-1.7,1.11,1.11,0,0,1-.7-.9c-.2-2.3-.5-7.9-.6-11.1a6,6,0,0,1-4.8.9c-3.7-.7-5.8-3.5-6.2-8.2a6.54,6.54,0,0,1,2.6-6c2.1-1.2,4.8-.8,8.2,1.4a1,1,0,0,1-1.1,1.7c-2.7-1.7-4.8-2.2-6.1-1.4s-1.7,2.9-1.6,4.1c.3,3.9,1.8,5.9,4.5,6.4,3.3.6,4.4-1.8,4.4-1.8a1,1,0,0,1,1.1-.6,1,1,0,0,1,.8.9c0,.1.4,9.1.7,12.8,7.7,2.6,12.4.7,13.9,0v-5a1,1,0,0,1,2,0v5.7a1.23,1.23,0,0,1-.4.8C226.1,213.77,223.4,215.57,218.4,215.57Z"/><path d="M230.1,208.47H229l-6.8-.7a1.17,1.17,0,0,1-.9-1.1,1.09,1.09,0,0,1,1.1-.9l6.8.7a9.23,9.23,0,0,0,7.4-2.5c6.4-6.1,6-21.3,5.9-26.3v-1.6a1,1,0,0,1,.8-.9c6.3-1.4,8.1-2.9,8-6.5a1.49,1.49,0,0,0-.6-1.3c-1.7-1.4-6-1.1-7.6-.9a1,1,0,1,1-.3-1.9c.7-.1,6.5-.9,9.1,1.3a3.82,3.82,0,0,1,1.4,2.8c.2,5.6-3.8,7.2-8.8,8.4v.7c.1,5.2.5,21.2-6.5,27.8A11.66,11.66,0,0,1,230.1,208.47Z"/><path d="M198.1,167a1.05,1.05,0,0,1-.9-.5c-.1-.3-3.4-6.1-9.2-4a1,1,0,1,1-.7-1.9c5.9-2.2,10.2,2.2,11.6,4.9a1,1,0,0,1-.4,1.4C198.4,166.87,198.3,167,198.1,167Z"/><path d="M231.6,313.57a.6.6,0,0,1-.4-.1l-44-19.1a24.55,24.55,0,0,1-15.9-28.3l7.6-35.1a22.81,22.81,0,0,1,16.7-17.4l13.9-3.6a1,1,0,0,1,.5,1.9l-13.9,3.6a20.74,20.74,0,0,0-15.2,15.9l-7.6,35.1a22.49,22.49,0,0,0,14.7,26l43.1,18.8,13.8-30.4-46.6-20.4a1,1,0,0,1,.8-1.8l47.6,20.8a1,1,0,0,1,.5.6,1.1,1.1,0,0,1,0,.8l-14.6,32.2A1.23,1.23,0,0,1,231.6,313.57Z"/><path d="M243.2,287.17s9.4,4,15.2,4.8c6.9,1,23.5-4.4,25.8-.9,1.3,2-1.7,3.8-3.2,4.9a78.51,78.51,0,0,1-7.8,3.9s5.5.3,5.9,4.1c.1,1.5.1,5-4.5,4.4,1.8,2,3.2,3.4,2,5.4s-5.7,1-5.7,1,4.1,2.8,2.3,5.3c-1.2,1.6-2.6,2.3-5.6,1.1.9,1.8.5,3.2-.2,3.9-3.3,3.7-14.2-2.3-17.4-4.7-2.6-2-13.2-13.2-15.9-13.2Z" fill="#fff"/><path d="M264.2,327.17c-5.4,0-13.2-4.8-14.8-6-.8-.6-2.3-2.1-4.3-3.9-3.1-2.9-9.6-9.1-11.1-9.1a.89.89,0,0,1-.8-.5,1.15,1.15,0,0,1-.1-1l9.1-20a1,1,0,0,1,1.3-.5c.1,0,9.3,3.9,14.9,4.7,2.8.4,7.4-.3,11.8-1,7-1.1,13-2,14.7.5s-1.4,4.8-3.1,5.9l-.4.3a40.55,40.55,0,0,1-5.2,2.7c1.7.7,3.6,1.9,3.8,4.4.2,2-.2,3.5-1.3,4.4a4.21,4.21,0,0,1-2,1c1.1,1.5,1.8,3,.7,4.9a4.52,4.52,0,0,1-3.8,1.8,5.12,5.12,0,0,1,1,2.1,3.5,3.5,0,0,1-.6,2.6,4.57,4.57,0,0,1-5,2,3.6,3.6,0,0,1-.9,3A4.37,4.37,0,0,1,264.2,327.17Zm-28.7-20.6c2.4,1.1,6.2,4.6,11.1,9.2a44,44,0,0,0,4.1,3.7c3.6,2.7,13.4,7.7,16,4.8.2-.2.8-1.1,0-2.8a1,1,0,0,1,1.3-1.3c2.8,1.1,3.6.3,4.4-.7a1.93,1.93,0,0,0,.3-1,5.1,5.1,0,0,0-2.3-2.8,1.15,1.15,0,0,1-.4-1.2,1.08,1.08,0,0,1,1.1-.6c1.5.3,4,.4,4.6-.6.7-1.2.2-2-1.6-3.9l-.3-.4a.91.91,0,0,1-.1-1.1.88.88,0,0,1,1-.5,3.08,3.08,0,0,0,2.7-.5,3.29,3.29,0,0,0,.6-2.8c-.3-2.9-4.9-3.2-4.9-3.2a1,1,0,0,1-.9-.8,1,1,0,0,1,.6-1.1,67.3,67.3,0,0,0,7.6-3.8l.5-.3c2-1.4,3.1-2.4,2.5-3.2-1-1.5-7.8-.4-12.7.3-4.6.7-9.3,1.4-12.4,1-4.9-.7-12-3.5-14.6-4.5Z"/><path d="M274.6,308.37a23,23,0,0,1-5.3-.8" fill="#fff"/><path d="M274.6,309.37h0a24.12,24.12,0,0,1-5.6-.8,1,1,0,0,1,.7-1.9,23.57,23.57,0,0,0,5,.7,1,1,0,0,1,1,1A1.16,1.16,0,0,1,274.6,309.37Z"/><path d="M270.9,314.77s-2.9-.4-4.1-.7" fill="#fff"/><path d="M270.9,315.77h-.1c-.1,0-3-.4-4.2-.7a1,1,0,0,1,.5-1.9c1.1.3,3.9.7,3.9.7a1.17,1.17,0,0,1,.9,1.1A1,1,0,0,1,270.9,315.77Z"/><path d="M267.6,321.17a26.35,26.35,0,0,1-3.9-1.9" fill="#fff"/><path d="M267.6,322.17a.6.6,0,0,1-.4-.1A20.59,20.59,0,0,1,263,320a1,1,0,1,1,1.4-1.4,20.82,20.82,0,0,0,3.6,1.7,1,1,0,0,1,.6,1.3A1.79,1.79,0,0,1,267.6,322.17Z"/><path d="M273.2,299.87a43.35,43.35,0,0,1-5.5-.8" fill="#fff"/><path d="M273.2,300.87h0a40.49,40.49,0,0,1-5.7-.8,1,1,0,0,1,.5-1.9c1.8.4,5.3.7,5.3.7a.9.9,0,0,1,.9,1.1A1.06,1.06,0,0,1,273.2,300.87Z"/><path d="M330,236.67c1.2-3.6,9.4-6.2,13.8-8.4s6,.8,5.7,2.9c-.4,1.9-3.7,2.9-6.8,5.7s-1.4,8.8-5,12.6-14,2.4-14,2.4l-7.2-17.6s7.9-3.1,10.9-8.6,6.3-9.9,11.1-12.2c4.1-1.9,12-3.1,14.9-2.3,2.1.6,4,4.2-3.2,5.7s-9.5,2-11.4,4.4-2.7,7.9-2.3,10.3" fill="#fff"/><path d="M327.9,253.07a21.54,21.54,0,0,1-4.4-.3.87.87,0,0,1-.8-.6l-7.2-17.6a1.1,1.1,0,0,1,0-.8,1,1,0,0,1,.6-.5c.1,0,7.6-3.1,10.3-8.2,3.5-6.6,7.1-10.5,11.6-12.6,4.3-2,12.4-3.3,15.6-2.4a3.44,3.44,0,0,1,2.6,3.3c0,1.2-.8,3.3-5.9,4.4-7.2,1.5-9.2,2-10.8,4-1.3,1.7-2.2,5.7-2.2,8.3.9-.4,1.8-.8,2.6-1.1,1.2-.5,2.4-1,3.4-1.5,2.9-1.4,4.7-.8,5.6-.1a4.48,4.48,0,0,1,1.5,4.1c-.3,1.6-1.8,2.6-3.7,3.8a33.12,33.12,0,0,0-3.5,2.5c-1.3,1.1-1.6,3-2,5.1-.4,2.4-.9,5.2-3,7.3C336.1,252.57,331.4,253.07,327.9,253.07Zm-3.6-2.2c3.1.3,10.1.5,12.6-2.1,1.6-1.7,2-4.1,2.4-6.3s.8-4.7,2.7-6.3c1.3-1.1,2.6-1.9,3.7-2.7,1.4-.9,2.6-1.7,2.8-2.4a2.14,2.14,0,0,0-.7-2.1c-.7-.6-2-.5-3.5.3-1,.5-2.2,1-3.5,1.5-3.8,1.6-9.1,3.9-9.9,6.2a1,1,0,0,1-1.9-.7c.7-2.2,3.3-3.9,6.3-5.4-.2-2.9.7-8.1,2.6-10.4,2.1-2.7,4.8-3.2,11.9-4.7,3.1-.7,4.3-1.7,4.3-2.5,0-.6-.6-1.1-1.2-1.3-2.5-.7-10.1.3-14.2,2.3s-7.4,5.6-10.7,11.8c-2.5,4.7-8.2,7.6-10.4,8.7Z"/><line x1="180.8" y1="289.67" x2="177.8" y2="320.17" fill="none"/><path d="M177.8,321.17h0c-.6-.1-1.1-.5-1-1.1l3-30.5a1,1,0,1,1,2,.2l-3,30.5A1.06,1.06,0,0,1,177.8,321.17Z"/><line x1="238" y1="494.97" x2="235" y2="393.57" fill="none"/><path d="M238,496a1,1,0,0,1-1-1l-3-101.4a.94.94,0,0,1,1-1,1,1,0,0,1,1,1L239,495a1,1,0,0,1-1,1Z"/><path d="M545.68,520.74H167.38a1,1,0,0,1,0-2h378.4a.94.94,0,0,1,1,1A1,1,0,0,1,545.68,520.74Z"/><path d="M361.19,291.58c9.08-70.6,32.26-118.18,32.26-118.18l29.47.13,45.36.26s34.25,72.84,33.7,171.26c-.22,37.82-4.34,66.05-9.45,86.56-8.8,35.68-20.62,48.53-20.62,48.53h0l-72.49-.42h-5.31l-8.18-.08S374.31,466.65,366,431c-1.29-5.42-2.52-11.47-3.62-18.07Z" fill="#fff"/><polygon points="431.1 123.01 393.45 173.4 430.79 173.59 468.19 173.86 431.1 123.01" fill="#cbcbca"/><polygon points="465.71 517.34 391.7 516.87 385.93 479.65 471.91 480.14 465.71 517.34" fill="#cbcbca"/><path d="M366,431h0l-37.46,30.17-.21,28.49,57.6-10h0S374.31,466.65,366,431Z" fill="#cbcbca"/><path d="M492.51,431.76h0c-8.78,35.53-20.6,48.38-20.6,48.38h0l57.45,10.64.2-28.49Z" fill="#cbcbca"/><path d="M472.64,481a1.19,1.19,0,0,1-1.52-.05,1.07,1.07,0,0,1,0-1.61c.17-.14,11.69-13.18,20.33-48,6-24.37,9.16-53.41,9.35-86.32.58-97-33.25-170-33.59-170.78a1.11,1.11,0,0,1,2-.94c.33.75,34.37,74.21,33.82,171.76-.21,33.07-3.37,62.27-9.49,86.87-8.78,35.52-20.37,48.47-20.82,49Z"/><path d="M386.65,480.51a1.12,1.12,0,0,1-1.59-.14c-.43-.52-11.88-13.66-20.21-49.18-1.33-5.82-2.56-11.88-3.53-18.15a1.17,1.17,0,0,1,2.29-.44c1.06,6.2,2.2,12.33,3.54,18,8.14,34.94,19.59,48.08,19.73,48.26a1.3,1.3,0,0,1-.23,1.66Z"/><path d="M361.91,292.45a1,1,0,0,1-.82.25,1,1,0,0,1-.93-1.29c9-70,32.09-118,32.38-118.57a1.11,1.11,0,1,1,2,1c-.2.47-23.17,48.31-32.08,117.88A3,3,0,0,1,361.91,292.45Z"/><path d="M466.85,308.36a1.08,1.08,0,0,1-1.29,0,1.16,1.16,0,0,1-.42-1.56,40.38,40.38,0,0,0-34.8-60.44,37.94,37.94,0,0,0-10.56,1.31,1.11,1.11,0,0,1-.61-2.14,42.7,42.7,0,0,1,11.21-1.42,42.1,42.1,0,0,1,30,12.63A42.7,42.7,0,0,1,472.76,287,41.71,41.71,0,0,1,467.12,308,.91.91,0,0,1,466.85,308.36Z"/><path d="M457.41,319.65A42.52,42.52,0,0,1,395.68,312a1.14,1.14,0,1,1,1.88-1.28,40.63,40.63,0,0,0,32.34,16.61,40,40,0,0,0,28.94-12,1.13,1.13,0,0,1,1.6,0,1.22,1.22,0,0,1,0,1.61C459.42,317.82,458.45,318.78,457.41,319.65Z"/><path d="M431.83,123.88a1.13,1.13,0,0,1-.67.26,1.09,1.09,0,0,1-1.1-1.14l.26-48.17a1.13,1.13,0,0,1,2.25,0L432.3,123A1.24,1.24,0,0,1,431.83,123.88Z"/><circle cx="428.02" cy="286.15" r="38.5" fill="#0E7490"/></g></svg>