<svg xmlns="http://www.w3.org/2000/svg" viewBox="0 0 841.9 595.3"><g id="Layer_23" data-name="Layer 23"><path d="M472.55,235.11,474.33,223s7.33-.72,3.47-7.52-4.22-.84-4.22-.84l-.8-10.48-27.54-3.78s1.71,2.3-3.29,2.3-5.94,3.55-3,5.77,5.52,3.75,5.74,8,0,11.39,5.6,11.81l12.35.94-2,5.15S464.15,239.57,472.55,235.11Z" fill="#fff"/><path d="M491,503H320.84a.9.9,0,0,1,0-1.79H491.1a.85.85,0,0,1,.89.89A.92.92,0,0,1,491,503Z"/><rect x="360.25" y="330.12" width="185" height="171.91" fill="#fff"/><path d="M359.25,502V330.12c0-.36.4-.61,1-.61h185c.6,0,1,.25,1,.61V502c0,.36-.4.61-1,.61H360.35A1.11,1.11,0,0,1,359.25,502Zm185-171.3h-183V501.42h183Z"/><path d="M460.1,235.65h-6.4a26.24,26.24,0,0,0-19,8.1l-16.6,17.4-6.9-24.8-23.1,2.1,11.6,37.9,73.6,46.8c6.2-7.9,9.6-34.5,9.6-34.5l.3,2.2,4.8,30.9,29.3-4.6L495.6,254a25.5,25.5,0,0,0-19.8-17l-3.9-.7Z" fill="#fff"/><path d="M531.65,325.51c5.7-.1,4.9-2.1,4.9-2.1s-.1-1.8-3.9-2-13.8,3.3-13.8,3.3C522.85,327.91,531.65,325.61,531.65,325.51Z" fill="#fff"/><path d="M518.35,325.51a1,1,0,0,1-.4-1,1.14,1.14,0,0,1,.7-.8c.4-.1,10.2-3.5,14.1-3.3s4.7,2.2,4.8,2.8a2,2,0,0,1-.3,1.6c-.7,1.1-2.5,1.7-5.5,1.8a26.24,26.24,0,0,1-6.5.8C522.75,327.41,520.05,327,518.35,325.51Zm17.2-1.8s-.3-1.1-3-1.2c-2.4-.1-7.7,1.4-11.2,2.5,4,1.2,9.9-.3,10-.3h.2c3.2-.1,3.9-.8,4-.9Z"/><path d="M393.05,212.81c2.1-1.3.7-10.5.6-11.9s-2.1-3.5-3.8-2-3.1,14-3.1,14C388.15,214.21,391,214.31,393.05,212.81Z" fill="#fff"/><path d="M386.05,213.71a1.61,1.61,0,0,1-.3-.9c.4-3,1.6-13,3.5-14.6a2.75,2.75,0,0,1,3.1-.5,4,4,0,0,1,2.4,3.2,6.25,6.25,0,0,0,.1,1.2c.7,6.2.7,10.5-1.2,11.7a7.94,7.94,0,0,1-3.9,1.1A5.86,5.86,0,0,1,386.05,213.71Zm4.5-13.9c-.8.8-2,7.2-2.7,12.8a5,5,0,0,0,4.7-.4c.5-.3,1.1-2,.3-9.8,0-.6-.1-1.1-.1-1.3a2.48,2.48,0,0,0-1.2-1.5.6.6,0,0,0-.4-.1A.86.86,0,0,0,390.55,199.81Z"/><polygon points="388.65 189.01 412.95 189.01 417.95 229.41 393.65 229.41 388.65 189.01" fill="#d7d7d7"/><circle cx="407.35" cy="194.61" r="1.3"/><path d="M350.25,383l-2.5,10.9s-32.7,8-33.6,11.7,4.1,3.8,4.1,3.8h56.5l.2-25.6Z" fill="#fff"/><path d="M313.55,408.41a3.59,3.59,0,0,1-.5-3.1c.9-3.7,23.4-9.7,33.7-12.2l2.3-10.3a1,1,0,0,1,1-.8l24.8.8a1,1,0,0,1,1,1l-.2,25.6a1,1,0,0,1-1,1h-56.5C317.85,410.41,315,410.31,313.55,408.41Zm60.3-23.7-23-.7-2.3,10.1a.85.85,0,0,1-.7.8c-15.4,3.8-31.9,9-32.9,11a1.47,1.47,0,0,0,.2,1.4,4.32,4.32,0,0,0,3,1.1h55.5Z"/><polygon points="416.85 291.71 352.45 298.51 338.35 386.11 385.65 391.61 380.85 325.31 432.45 333.11 416.85 291.71" fill="#0E7490"/><path d="M325.35,315.81l-9.7,5.6s-27.9-18.7-31.3-16.9,0,5.6,0,5.6l38.1,41.7,19.1-17.1Z" fill="#fff"/><path d="M321.65,352.41l-38.1-41.7c-.2-.2-2.1-2.4-1.7-4.6a3.72,3.72,0,0,1,2-2.5c3.4-1.9,23,10.7,31.8,16.6l9.2-5.3a.93.93,0,0,1,1.3.2l16.2,18.9a1.07,1.07,0,0,1-.1,1.4l-19,17.1a1.08,1.08,0,0,1-.7.3A1.22,1.22,0,0,1,321.65,352.41Zm3.5-35.4-9,5.2a1.08,1.08,0,0,1-1.1,0c-13.2-8.9-28.1-17.6-30.3-16.9-.8.4-.9.9-.9,1.1a4.37,4.37,0,0,0,1.2,3l37.5,41,17.6-15.8Z"/><path d="M488,322.41a1,1,0,0,1-.4-.7l-7.2-46.9a1,1,0,0,1,1.9-.3l7.1,45.9,27.1-4.2-21.3-62.1a24.85,24.85,0,0,0-19.1-16.3l-3.9-.7a1,1,0,0,1,.4-2l3.9.7a26.52,26.52,0,0,1,20.6,17.6l21.7,63.2a.8.8,0,0,1-.1.8c-.2.3-.4.5-.7.5l-29.3,4.6h-.2A4.33,4.33,0,0,1,488,322.41Z"/><path d="M511.65,317.71a26.52,26.52,0,0,0,7.2,6.9c12.2-1.6,18.2,3.7,18.2,3.7s2.7,2.1,2.4,3.6c-.5,2.3-2.9,2.3-4.3,1.4a3.16,3.16,0,0,1-1.7,4.9c-2.3.5-3.9-2.5-3.9-2.5s1.5,4.5-1.5,4.9-3.5-2.6-3.5-2.6a8.53,8.53,0,0,0-3.7-4.7c-2.9-1.7-15.4-1.2-15.4-1.2,1.7,2.5,10.4,6.8,7.1,9.1-2.6,1.7-8.7-2.1-8.7-2.1-4-1.8-6.2-8.3-6.2-8.3l-3.5-10.2S508.55,318.31,511.65,317.71Z" fill="#fff"/><path d="M503.45,339.91c-4.4-2-6.6-8.6-6.7-8.9l-3.5-10.2a.8.8,0,0,1,.1-.8c.2-.3.4-.5.7-.5l17.5-2.7a.88.88,0,0,1,1,.5c.8,1.6,4.1,4.7,6.5,6.3,12.3-1.5,18.4,3.7,18.6,3.9.5.4,3.2,2.6,2.7,4.6a3.14,3.14,0,0,1-1.9,2.4,3.81,3.81,0,0,1-1.8.3,4.4,4.4,0,0,1-.2,1.6,4,4,0,0,1-2.9,2.7,3.36,3.36,0,0,1-2.8-.5,4.28,4.28,0,0,1-.5,1.6,2.8,2.8,0,0,1-2.2,1.4,4.08,4.08,0,0,1-4.6-3.4,7.22,7.22,0,0,0-3.2-4.1c-1.7-.9-7.9-1.2-12.6-1.1.5.4,1.1.9,1.7,1.3,2.6,1.9,5,3.8,4.9,5.7a2.23,2.23,0,0,1-1.2,2,4.38,4.38,0,0,1-2.3.6C507.75,342.61,504.05,340.41,503.45,339.91Zm17.8-7.6a9.62,9.62,0,0,1,4.1,5.4,2.11,2.11,0,0,0,2.4,1.8.78.78,0,0,0,.8-.4,4.73,4.73,0,0,0-.1-3.1.88.88,0,0,1,.5-1.2,1,1,0,0,1,1.3.4c0,.1,1.3,2.3,2.8,2a1.84,1.84,0,0,0,1.4-1.3,1.8,1.8,0,0,0-.2-1.9,1.05,1.05,0,0,1,0-1.3,1,1,0,0,1,1.3-.2,3.12,3.12,0,0,0,2.1.2,1.37,1.37,0,0,0,.8-1c.1-.4-.8-1.7-2-2.6,0,0-5.8-4.9-17.4-3.4a.82.82,0,0,1-.7-.1,30.1,30.1,0,0,1-7.1-6.7l-15.7,2.5,3.1,9.1c0,.1,2,6.1,5.6,7.7a.1.1,0,0,0,.1.1c1.8,1.1,6.1,3.1,7.6,2.1.2-.2.3-.3.3-.4,0-.9-2.6-2.9-4.1-4.1a20,20,0,0,1-3.6-3.3.92.92,0,0,1-.1-1,1.05,1.05,0,0,1,.9-.5c.5,0,2-.1,4-.1C513.35,331,519.25,331.21,521.25,332.31Z"/><path d="M528.55,336.11c-.5-1.2-2.2-4.5-4.4-5.3a1,1,0,0,1,.7-1.9c3.4,1.3,5.4,6.2,5.5,6.4a.92.92,0,0,1-.5,1.3.6.6,0,0,1-.4.1A1,1,0,0,1,528.55,336.11Z"/><path d="M534.25,333.81a13.43,13.43,0,0,0-4.6-3.7,1,1,0,0,1,.8-1.8,16.35,16.35,0,0,1,5.4,4.4,1.08,1.08,0,0,1-.2,1.4,1.42,1.42,0,0,1-.6.2A.82.82,0,0,1,534.25,333.81Z"/><path d="M399.35,276.31l-11.6-37.9a1.34,1.34,0,0,1,.1-.9.84.84,0,0,1,.7-.4l23.1-2.1a.92.92,0,0,1,1.1.7l6.4,23.1,15.4-16.1a27.55,27.55,0,0,1,19.7-8.4h6.4a1,1,0,0,1,0,2h-6.4a25.17,25.17,0,0,0-18.3,7.8l-16.6,17.4a1,1,0,0,1-1,.3,1.21,1.21,0,0,1-.7-.7l-6.6-24L390,239l11.2,36.8a1.09,1.09,0,0,1-.7,1.2h-.3C399.65,277,399.25,276.71,399.35,276.31Z"/><path d="M443.85,334.41c-15.5,0-26.1-6.9-33.8-15.7l-19.8-22.6s-47,45.9-47.2,45.9-26.5-31-26.5-31l54.1-39.5a24.31,24.31,0,0,1,25.7-.3c24.5,14.9,75.2,45.7,76.5,46.6C472.85,317.81,459.45,334.51,443.85,334.41Z" fill="#0E7490"/><path d="M342.15,342.21a1.09,1.09,0,0,1,.4-.9c1.4-1.2,31.4-30.4,47.1-45.8a1,1,0,0,1,1.4,0l19.8,22.6c9.1,10.4,19.9,15.4,33.1,15.4a1,1,0,1,1,0,2c-13.8,0-25.1-5.3-34.6-16.1l-19.1-21.8c-46.5,45.3-46.5,45.3-47,45.4h-.1A1,1,0,0,1,342.15,342.21Z"/><path d="M416.75,286.71a1,1,0,0,1,.3-1.4c13.5-8.1,27-30.5,27.1-30.7a1,1,0,1,1,1.7,1.1c-.5.9-13.9,23-27.8,31.4a.75.75,0,0,1-.5.1A.89.89,0,0,1,416.75,286.71Z"/><path d="M473.15,323.61a1,1,0,0,1-.2-1.4c6-7.6,9.4-33.7,9.4-34a1,1,0,1,1,2,.2c-.2,1.1-3.5,27-9.8,35a.91.91,0,0,1-.8.4A1.07,1.07,0,0,1,473.15,323.61Z"/><path d="M389.55,296.81l-4.2-4.9a1,1,0,0,1,1.5-1.3l4.2,4.9a1,1,0,0,1-.1,1.4,1.07,1.07,0,0,1-.6.2A1.14,1.14,0,0,1,389.55,296.81Z"/><path d="M392.75,328l-19.8-2.9a1,1,0,1,1,.3-1.9l19.8,2.9a.94.94,0,0,1,.8,1.1,1.06,1.06,0,0,1-1,.9A.1.1,0,0,1,392.75,328Z"/><path d="M407.35,236.41c-1.1-4-5.6-6.9-5.6-6.9s.1,0,4.2,1.2,4.2-1.4,4.2-1.4.5-2.8-4.2-3.9c1.9-.4,4.1-.7,4.2-2.5.1-2.4-4.2-2.7-4.2-2.7s3.3.1,3.4-2.4c0-2-4.5-2.9-4.5-2.9s3.3,0,2.9-3.2c-.6-3.6-12.2-4.1-17.6-2.2-.3.1-.5.2-.8.3-5,2.3-3.3,12.7,0,17.3a23.2,23.2,0,0,1,3.7,10.6S404.75,236.61,407.35,236.41Z" fill="#fff"/><path d="M392.15,238.61a.91.91,0,0,1-.3-.7,21.88,21.88,0,0,0-3.5-10.1c-2.4-3.3-4.1-9.8-2.9-14.4a6,6,0,0,1,3.3-4.3,3.55,3.55,0,0,1,.9-.4c4.7-1.6,13.4-1.6,17.1.6a3.57,3.57,0,0,1,1.8,2.4,3.5,3.5,0,0,1-.8,3,.35.35,0,0,1-.1.2c1.3.6,2.6,1.5,2.6,3a3.73,3.73,0,0,1-1,2.3h0a3,3,0,0,1,1.8,2.9,2.79,2.79,0,0,1-2,2.6,4.29,4.29,0,0,1,2.1,3.8,2.5,2.5,0,0,1-1.1,2q-1.5,1.05-4.2.3a12.64,12.64,0,0,1,2.5,4.4.75.75,0,0,1-.1.8.84.84,0,0,1-.7.4l-14.5,1.3h0A7.75,7.75,0,0,0,392.15,238.61Zm9.2-8.3a1,1,0,0,1-.4-1.3,1.08,1.08,0,0,1,1.2-.5l4.2,1.2a3.35,3.35,0,0,0,2.6.1.65.65,0,0,0,.3-.5v-.1c.1-.1.2-2-3.4-2.8a1,1,0,0,1,0-2l.3-.1c1.7-.3,2.9-.6,3-1.5.1-1.2-2.5-1.7-3.2-1.7a1,1,0,0,1-.9-1,.92.92,0,0,1,1-.9,3.29,3.29,0,0,0,2-.6,1,1,0,0,0,.3-.8c0-.7-2-1.6-3.7-1.9a1.08,1.08,0,0,1-.8-1.1,1.06,1.06,0,0,1,1-.9,2.38,2.38,0,0,0,1.6-.6,1.57,1.57,0,0,0,.3-1.4,1.76,1.76,0,0,0-.9-1c-2.9-1.7-10.9-1.9-15.4-.4-.2.1-.5.2-.7.3a4.46,4.46,0,0,0-2.2,3c-1.1,3.9.5,9.8,2.6,12.7a23.21,23.21,0,0,1,3.8,10.1l12.2-1.1A15,15,0,0,0,401.35,230.31Z"/><path d="M396.35,215.21a1,1,0,0,1,.7-1.2c1.2-.3,6.3-.1,7.9,0a1,1,0,0,1-.1,1.9,55.67,55.67,0,0,0-7.3,0h-.3A1,1,0,0,1,396.35,215.21Z"/><path d="M406.05,221.21c-.1,0-6.5-.5-8.2-.4a1,1,0,1,1-.2-2c2-.1,8.2.4,8.5.4a1.09,1.09,0,0,1,.9,1.1,1,1,0,0,1-1,.9Z"/><path d="M406,226.31c-1.7-.4-6.5-1.4-8.3-.9a1,1,0,1,1-.5-1.9c2.5-.7,8.5.7,9.2.9a1,1,0,0,1,.7,1.2,1,1,0,0,1-1,.8C406,226.41,405.85,226.41,406,226.31Z"/><path d="M445.24,200.35l27.54,3.78.8,10.48s3-1.23,4.22.84a6.63,6.63,0,0,1,.87,4.34c-.56,4.37-5.26,1.76-5.26,1.76l-.62,8.89s29.06-18.6,5-30.11c-.11-4.75-6.79-15.67-24-12C440.48,191.78,445.24,200.35,445.24,200.35Z" fill="#0E7490"/><path d="M451.82,230.41a10.14,10.14,0,0,1-6.11-2.69c-3.31-3.34-3-8.65-2.88-11.45.06-.49,0-.9.05-1.2,0-2.42-1.43-3.1-1.53-3.12s-6.26-2.3-5.74-6.37,7-4.06,7.17-4.13a1,1,0,0,1,1,1c0,.61-.42,1-1,1,0,0-4.94,0-5.24,2.36-.26,2.08,3.25,3.84,4.5,4.3.1,0,2.78,1.16,2.8,5,0,.3,0,.8-.07,1.3-.14,2.7-.42,7.31,2.37,10,1.7,1.72,4.33,2.46,8,2.21,5.68-.29,9.88-.86,10-.85a1,1,0,0,1,.26,1.95s-4.4.55-10.1.94C453.93,230.48,452.82,230.54,451.82,230.41Z"/><circle cx="450.32" cy="206.43" r="1.3" transform="translate(189.06 627.32) rotate(-82.8)"/><circle cx="455.76" cy="207.22" r="1.3" transform="matrix(0.13, -0.99, 0.99, 0.13, 193.04, 633.41)"/><path d="M465.51,237.78a8.13,8.13,0,0,1-5.3-2.78,1,1,0,0,1-.21-.73l.68-5.36a1,1,0,0,1,2,.25l-.63,5c.8.81,3.74,3.09,9.39.68.52-4.16,1.07-13.27,1.08-13.37a1.11,1.11,0,0,1,.51-.84,1.19,1.19,0,0,1,1,0c.47.26,2,.95,2.85.56.64-.32.87-1.3.87-2.11a4.75,4.75,0,0,0-1.35-3.7,2.69,2.69,0,0,0-2.42,0,1,1,0,1,1-.87-1.82c2.13-.94,3.58-.46,4.41.15,1.49,1,2.34,3,2.24,5.42-.14,1.9-.8,3.13-2,3.78a4.61,4.61,0,0,1-3.44.07c-.16,2.91-.69,9.49-1.08,12.57a.89.89,0,0,1-.6.73A12.35,12.35,0,0,1,465.51,237.78Z"/><path d="M477.69,201.22a.89.89,0,0,1-.66-.38,1,1,0,0,1,.18-1.39c.11-.09,3.43-2.49,6.47-1a1,1,0,0,1-.93,1.8c-2-1-4.44.85-4.44.85A.83.83,0,0,1,477.69,201.22Z"/><polygon points="359.77 112.88 268.47 110.68 273.47 166.38 359.77 156.38 359.77 119.48 359.77 112.88" fill="#fff"/><path d="M367.67,206.88a39.43,39.43,0,0,1-25.3-9.5c-9.2-8.1-14.3-20.6-15.2-37.3a1.09,1.09,0,0,1,.9-1.1,1.17,1.17,0,0,1,1.1.9c.9,16.1,5.7,28.1,14.5,35.9,11.2,9.9,25,9,25.2,9a1,1,0,0,1,.2,2A4.18,4.18,0,0,1,367.67,206.88Z"/><path d="M273.47,167.38a1.07,1.07,0,0,1-.6-.2,1.61,1.61,0,0,1-.4-.7l-5-55.7a1.14,1.14,0,0,1,.3-.8,1,1,0,0,1,.8-.3l91.3,2.2a1,1,0,0,1,1,1,.94.94,0,0,1-1,1l-90.2-2.1,4.8,53.6,84.4-9.8v-36a1,1,0,1,1,2,0v36.9a1.06,1.06,0,0,1-.9,1l-86.3,10A.31.31,0,0,0,273.47,167.38Z"/><path d="M302.31,145.21a.93.93,0,0,1-.63-.42,1,1,0,0,1,.26-1.38l15.52-10.63a1,1,0,0,1,1.37.26l4.08,6,10.73-7.35a1,1,0,0,1,1.38.26,1,1,0,0,1-.26,1.37l-11.55,7.91a1,1,0,0,1-1.37-.25l-4.08-6L303.06,145A.94.94,0,0,1,302.31,145.21Z"/><path d="M332.94,139.75a1,1,0,0,1-.8-1.17l1-5.31-5.3-1a1,1,0,0,1,.36-2l6.3,1.18a.94.94,0,0,1,.79,1.17L334.11,139A1.08,1.08,0,0,1,332.94,139.75Z"/></g></svg>