<svg xmlns="http://www.w3.org/2000/svg" viewBox="0 0 841.9 595.3"><g id="Layer_30" data-name="Layer 30"><polygon points="310.66 198.92 310.66 239.02 324.86 239.02 336.46 239.02 350.66 239.02 350.66 198.92 310.66 198.92" fill="#fff"/><path d="M350.66,240h-40.1a.94.94,0,0,1-1-1v-40.1a.94.94,0,0,1,1-1h40.1a.94.94,0,0,1,1,1V239A1,1,0,0,1,350.66,240Zm-39-2h38.1v-38.1h-38.1Z"/><path d="M365,158.72a7.8,7.8,0,1,1,13.7-5.1,8.52,8.52,0,0,1-.3,2.3v2.8H391v-40.1h-40.1v40.1H365" fill="#fff"/><path d="M390.76,159.72h-12.6a.94.94,0,0,1-1-1v-3.1a6.45,6.45,0,0,0,.3-2,6.8,6.8,0,1,0-13.6,0,7,7,0,0,0,1.7,4.5,1.09,1.09,0,0,1,.2,1.1,1,1,0,0,1-.9.6h-14.2a.94.94,0,0,1-1-1v-40.1a.94.94,0,0,1,1-1h40.1a.94.94,0,0,1,1,1v40.1A.92.92,0,0,1,390.76,159.72Zm-11.6-2h10.6v-38.1h-38.1v38.1H363a8.57,8.57,0,0,1-1-4.1,8.8,8.8,0,0,1,17.6,0,9.86,9.86,0,0,1-.3,2.4v1.7Z"/><path d="M355.86,171.12a7.46,7.46,0,0,0-5.1,1.9v-14.2h-14.2a7.8,7.8,0,1,0-13.7-5.1,7.46,7.46,0,0,0,1.9,5.1h-14.2v40.1h14.2a7.8,7.8,0,1,0,13.7,5.1,7.46,7.46,0,0,0-1.9-5.1h14.2v-14.2a7.8,7.8,0,0,0,12.9-5.9A7.73,7.73,0,0,0,355.86,171.12Z" fill="#fff"/><path d="M330.66,212.82a8.81,8.81,0,0,1-8.8-8.8,9.19,9.19,0,0,1,1-4.1h-12.3a.94.94,0,0,1-1-1v-40.1a.94.94,0,0,1,1-1h12.3a8.57,8.57,0,0,1-1-4.1,8.8,8.8,0,1,1,17.6,0,9.19,9.19,0,0,1-1,4.1h12.3a.94.94,0,0,1,1,1v12.3a8.57,8.57,0,0,1,4.1-1,8.8,8.8,0,1,1,0,17.6,9.19,9.19,0,0,1-4.1-1V199a.94.94,0,0,1-1,1h-12.3a8.57,8.57,0,0,1,1,4.1A8.79,8.79,0,0,1,330.66,212.82Zm-19-14.9h13.2a1,1,0,0,1,.9.6.91.91,0,0,1-.2,1.1,6.62,6.62,0,0,0-1.7,4.5,6.8,6.8,0,1,0,13.6,0,7,7,0,0,0-1.7-4.5,1.09,1.09,0,0,1-.2-1.1,1,1,0,0,1,.9-.6h13.2v-13.2a1,1,0,0,1,.6-.9.91.91,0,0,1,1.1.2,6.62,6.62,0,0,0,4.5,1.7,6.8,6.8,0,1,0,0-13.6,7,7,0,0,0-4.5,1.7,1.09,1.09,0,0,1-1.1.2,1,1,0,0,1-.6-.9v-13.2h-13.2a1,1,0,0,1-.9-.6.91.91,0,0,1,.2-1.1,6.62,6.62,0,0,0,1.7-4.5,6.8,6.8,0,1,0-13.6,0,7,7,0,0,0,1.7,4.5,1.09,1.09,0,0,1,.2,1.1,1,1,0,0,1-.9.6h-13.2Z"/><path d="M376.56,198.92a7.8,7.8,0,1,1-13.7,5.1,7.46,7.46,0,0,1,1.9-5.1h-14.2v14.2a7.8,7.8,0,1,0-5.1,13.7,7.46,7.46,0,0,0,5.1-1.9v14.2h40.1V199h-14.1Z" fill="#fff"/><path d="M390.76,240h-40.1a.94.94,0,0,1-1-1v-12.3a8.57,8.57,0,0,1-4.1,1,8.8,8.8,0,0,1,0-17.6,9.19,9.19,0,0,1,4.1,1v-12.3a.94.94,0,0,1,1-1h14.2a1,1,0,0,1,.9.6.91.91,0,0,1-.2,1.1,6.62,6.62,0,0,0-1.7,4.5,6.8,6.8,0,1,0,13.6,0,7,7,0,0,0-1.7-4.5,1.09,1.09,0,0,1-.2-1.1,1,1,0,0,1,.9-.6h14.2a.94.94,0,0,1,1,1v40.1A.9.9,0,0,1,390.76,240Zm-39.1-2h38.1v-38.1h-11.3a8.57,8.57,0,0,1,1,4.1,8.8,8.8,0,1,1-17.6,0,9.19,9.19,0,0,1,1-4.1h-11.3v13.2a1,1,0,0,1-.6.9.91.91,0,0,1-1.1-.2,6.62,6.62,0,0,0-4.5-1.7,6.8,6.8,0,0,0,0,13.6,7,7,0,0,0,4.5-1.7,1.09,1.09,0,0,1,1.1-.2,1,1,0,0,1,.6.9V238Z"/><path d="M324.86,158.72a7.8,7.8,0,1,1,13.7-5.1,7.46,7.46,0,0,1-1.9,5.1h14.2v-14.2a7.8,7.8,0,1,0,5.1-13.7,7.46,7.46,0,0,0-5.1,1.9v-14.2h-40.1v40.1h14.1Z" fill="#fff"/><path d="M350.66,159.72h-14.2a1,1,0,0,1-.9-.6.91.91,0,0,1,.2-1.1,6.62,6.62,0,0,0,1.7-4.5,6.8,6.8,0,1,0-13.6,0,7,7,0,0,0,1.7,4.5,1.09,1.09,0,0,1,.2,1.1,1,1,0,0,1-.9.6h-14.2a.94.94,0,0,1-1-1v-40.1a.94.94,0,0,1,1-1h40.1a.94.94,0,0,1,1,1v12.3a8.57,8.57,0,0,1,4.1-1,8.8,8.8,0,0,1,0,17.6,9.19,9.19,0,0,1-4.1-1v12.3A1.09,1.09,0,0,1,350.66,159.72Zm-12.3-2h11.3v-13.2a1,1,0,0,1,.6-.9.91.91,0,0,1,1.1.2,6.62,6.62,0,0,0,4.5,1.7,6.8,6.8,0,0,0,0-13.6,7,7,0,0,0-4.5,1.7,1.09,1.09,0,0,1-1.1.2,1,1,0,0,1-.6-.9v-13.2h-38.1v38.1h11.3a8.57,8.57,0,0,1-1-4.1,8.8,8.8,0,1,1,17.6,0A8.31,8.31,0,0,1,338.36,157.72Z"/><path d="M495.51,470.55s.7,7.9,1.1,11.5c-6.6-.4-40.4,5.8-41.2,9.1a3,3,0,0,0,2.4,3.8h66.7l-1.9-25.7Z" fill="#fff"/><path d="M457.71,496.15a4,4,0,0,1-2.7-1.7,4.08,4.08,0,0,1-.5-3.3c.2-.8.7-2.9,19.2-6.7,8.9-1.8,17.8-3.1,21.9-3.2-.4-3.9-1-10.4-1-10.4a.78.78,0,0,1,.2-.8.91.91,0,0,1,.7-.3l27.1-1.4a.92.92,0,0,1,1,.9l1.9,25.7a1.14,1.14,0,0,1-.3.8.91.91,0,0,1-.7.3h-66.7C457.71,496.05,457.71,496.05,457.71,496.15Zm64-25.7-25,1.3c.2,2.2.7,7.6,1,10.4a1,1,0,0,1-1.1,1.1c-7-.4-38.5,5.7-40.2,8.3a2.31,2.31,0,0,0,.2,1.7,1.89,1.89,0,0,0,1.3.8h65.5Z"/><path d="M520.11,470.55s.7,7.9,1.1,11.5c-6.6-.4-40.5,5.8-41.2,9.1a3,3,0,0,0,2.4,3.8h66.7l-1.9-25.7Z" fill="#fff"/><path d="M482.31,496.15a4,4,0,0,1-2.7-1.7,4.08,4.08,0,0,1-.5-3.3c.2-.8.7-2.9,19.2-6.7,8.9-1.8,17.8-3.1,21.9-3.2-.4-3.9-1-10.4-1-10.4a.78.78,0,0,1,.2-.8.91.91,0,0,1,.7-.3l27.1-1.4a.92.92,0,0,1,1,.9l1.9,25.7a1.14,1.14,0,0,1-.3.8.91.91,0,0,1-.7.3h-66.7C482.31,496.05,482.31,496.05,482.31,496.15Zm64-25.7-25,1.3c.2,2.2.7,7.6,1,10.4a1,1,0,0,1-1.1,1.1c-7-.4-38.5,5.7-40.2,8.3a2.31,2.31,0,0,0,.2,1.7,1.89,1.89,0,0,0,1.3.8H548Z"/><polygon points="477.81 281.05 522.01 281.05 535.01 474.35 484.81 474.35 477.81 281.05" fill="#0E7490"/><polygon points="502.91 281.05 547.21 281.05 560.21 474.35 509.91 474.35 502.91 281.05" fill="#0E7490"/><path d="M504.71,371.55l-.4-9a1,1,0,0,1,2,0l.4,9a1,1,0,0,1-1,1h0A1,1,0,0,1,504.71,371.55Z"/><path d="M508.91,474.35l-4-93.3a1,1,0,0,1,2,0l4,93.3a1,1,0,0,1-1,1h0A.94.94,0,0,1,508.91,474.35Z"/><path d="M422.49,175.68s-1.5-8.1-1.1-10.3,2.2-2.5,4.2-1.1c6.1,4.4,2,16.7,1.2,22s3.1,9.5,3.1,9.5l-14.6,8.9a23.54,23.54,0,0,0-7.6-8c-5-3.1-8.8-5.7-11-9.5,0,0-3.3-11.3,7.4-17S422.49,175.68,422.49,175.68Z" fill="#fff"/><path d="M413.89,179.48l13-5.8-16.3-36.6-13,5.8a8.06,8.06,0,0,0-.3-5.5,7.81,7.81,0,1,0-10.4,10.2l-13,5.8,5.8,13a7.79,7.79,0,1,1,10.2,10.4,7.5,7.5,0,0,1-5.5.3l5.8,13,13-5.8h0a8.06,8.06,0,0,0,.3,5.5,7.81,7.81,0,0,0,14.3-6.3A8.42,8.42,0,0,0,413.89,179.48Z" fill="#cbcbca"/><path d="M417.69,184.38h0a1.09,1.09,0,0,1-1-1.1,11.65,11.65,0,0,1,5.2-8.5,1,1,0,1,1,1,1.8,9.53,9.53,0,0,0-4.3,7C418.69,184,418.19,184.38,417.69,184.38Z"/><path d="M429.79,195.78s-3.9-4.2-3.1-9.5,5-17.6-1.2-22c-2-1.4-3.8-1.2-4.2,1.1s1.1,10.3,1.1,10.3" fill="#fff"/><path d="M429.79,196.78a.91.91,0,0,1-.7-.3c-.2-.2-4.2-4.6-3.4-10.3a30.81,30.81,0,0,1,.7-3.5c1.2-5.7,3-14.3-1.4-17.5-.9-.7-1.6-.8-2-.6s-.5.7-.6,1.1c-.3,1.7.7,7.8,1.1,10a1,1,0,1,1-2,.4c-.2-.8-1.5-8.3-1.1-10.7a3.21,3.21,0,0,1,1.8-2.6c1.1-.5,2.5-.1,3.9.9,5.5,4,3.5,13.4,2.2,19.6-.3,1.3-.5,2.5-.7,3.4-.7,4.8,2.8,8.6,2.8,8.6a.9.9,0,0,1-.1,1.4A2,2,0,0,1,429.79,196.78Z"/><path d="M515.49,196.27s-.7,10.7-1.2,13.6c-3.7,2.6-10.9,1.6-10.9,1.6l-1.5-6.8-.9.2c-12.6,2-15-5-16.2-9.5-1.3-4.9.3-9.6-3.4-10.6-7.4-1.9-6.6-4.8-6.6-4.8,0-4,6.6-4,6.6-4l1.4-4,35.4.4Z" fill="#fff"/><path d="M514.69,206.57s12.7.5,19.4,10.2,43,72.4,43,72.4l-26.7,17.6-9.3-24-64.2-2.4,4.9-27.1.5-2.6-11,4a19.61,19.61,0,0,1-21-5L411,207.47l25.7-15.7,28.3,36.9s12.3-9.7,21.5-14.4a64.54,64.54,0,0,1,16.1-6.1Z" fill="#fff"/><path d="M521.59,168.27s.4-11.9,11.2-9.2c3.3.8,5,4.9,5.4,8.7,1.3,10.4-1.6,28.3,7.1,31.9-5.4.8-19.2-3.7-21.6-14.1A70.46,70.46,0,0,1,521.59,168.27Z" fill="#0E7490"/><path d="M486.59,170.77h0a1,1,0,0,1-1-1.1l.4-6.6c0-.1,1.2-10.9,18.3-10.9a1,1,0,0,1,0,2c-15.3,0-16.3,9-16.3,9.1l-.4,6.6A.92.92,0,0,1,486.59,170.77Z"/><path d="M496.89,206.07a14.87,14.87,0,0,1-7.3-1.7c-3.6-2.1-5-5.7-5.8-8.9a33.22,33.22,0,0,1-.7-5c-.2-3-.4-4.5-2.1-5q-5.4-1.35-6.9-3.9a2.79,2.79,0,0,1-.4-2,3.78,3.78,0,0,1,1.2-2.8c2.1-2.1,6.2-2.1,6.4-2.1a1,1,0,0,1,0,2c-1,0-3.8.3-5,1.5a2,2,0,0,0-.6,1.4v.3c-.1.5.8,2.3,5.9,3.6,3.2.9,3.3,3.8,3.5,6.8a26.42,26.42,0,0,0,.6,4.6c.8,2.9,1.9,5.9,4.9,7.6,3.3,1.9,8.2,1.9,14.8.1a1,1,0,1,1,.5,1.9A28.55,28.55,0,0,1,496.89,206.07Z"/><path d="M506.79,212.57a34,34,0,0,1-3.5-.2,1.09,1.09,0,0,1-.8-.8l-1.5-6.8a1,1,0,1,1,2-.4l1.4,6.1c1.7.2,6.4.4,9.2-1.2.4-3.3,1.1-12.9,1.1-13a1,1,0,0,1,2,.2c0,.4-.8,10.8-1.2,13.6a1,1,0,0,1-.4.7C512.69,212.17,509.29,212.57,506.79,212.57Z"/><circle cx="492.19" cy="180.77" r="1.5"/><circle cx="498.39" cy="181.47" r="1.5"/><path d="M481.59,173.07l34.3,1,.8,13.2h4.7s4.5-21.4-5.5-26.7c-8.1-4.3-16.8-4.2-23.1-1.3C484.69,162.87,481.59,173.07,481.59,173.07Z" fill="#0E7490"/><path d="M522.09,184.27a1,1,0,0,1-1-1l-.5-20.1c0-.3-1.1-9-16.3-9a1,1,0,0,1,0-2c17.1,0,18.3,10.8,18.3,10.9l.5,20.2a1,1,0,0,1-1,1Z"/><path d="M527.59,188c0,5.3-1.5,9.6-5.9,9.6s-7.9-.8-7.9-9.6,3.5-9.6,7.9-9.6S527.59,182.67,527.59,188Z" fill="#fff"/><path d="M521.79,198.57c-5.5,0-8.9-1.8-8.9-10.6s3.4-10.6,8.9-10.6c2.6,0,6.9,1.4,6.9,10.6S524.29,198.57,521.79,198.57Zm0-19.2c-4,0-6.9.6-6.9,8.6s2.8,8.6,6.9,8.6,4.9-4.7,4.9-8.6S525.79,179.37,521.79,179.37Z"/><path d="M520.79,198.47h-.3c-.6-.2-3.8-1.6-3.8-10.8,0-9.5,3.3-10,4-10.1a1,1,0,0,1,1,1,1,1,0,0,1-.9,1c-.1,0-2.1.9-2.1,8.1,0,7.8,2.3,8.9,2.4,8.9a1.09,1.09,0,0,1,.7,1.2A1.2,1.2,0,0,1,520.79,198.47Z"/><path d="M464.69,256.87a20.68,20.68,0,0,1-15-6.5l-39.3-42.2a1.14,1.14,0,0,1-.3-.8.75.75,0,0,1,.5-.7l25.7-15.7a1,1,0,0,1,1.3.2l27.6,36.1c2.9-2.2,13.1-9.9,20.9-13.9a67.4,67.4,0,0,1,16.4-6.2,1,1,0,0,1,.4,2,60.88,60.88,0,0,0-15.8,6c-9,4.7-21.2,14.2-21.4,14.3a1,1,0,0,1-.7.2,1,1,0,0,1-.7-.4l-27.7-36.2-23.9,14.6,38.5,41.3a18.53,18.53,0,0,0,19.9,4.8l11-4a1,1,0,0,1,.7,1.9l-11,4A22.05,22.05,0,0,1,464.69,256.87Z"/><path d="M477,281.47h-.2a1,1,0,0,1-.8-1.2l6.5-35.5a1,1,0,0,1,2,.4l-6.5,35.5A1.19,1.19,0,0,1,477,281.47Z"/><path d="M484.49,240.37h-.2a1,1,0,0,1-.8-1.2l1.6-8.7a1,1,0,0,1,2,.4l-1.6,8.7A1.05,1.05,0,0,1,484.49,240.37Z"/><path d="M550.49,307.87h-.3a.9.9,0,0,1-.6-.6l-22.9-58.9a1,1,0,0,1,1.9-.7l22.4,57.7,24.9-16.4c-4.3-7.4-36.3-62.5-42.5-71.5-6.3-9.2-18.5-9.8-18.7-9.8a1,1,0,0,1,0-2c.5,0,13.3.6,20.2,10.7,6.6,9.7,42.7,71.8,43.1,72.5a1,1,0,0,1-.3,1.3L551,307.77A.75.75,0,0,1,550.49,307.87Z"/><path d="M555.19,302.84s5.28,12,5.55,17.92c.3,6.29,4,6.15,4,6.15s2.53,0,2.82-3.22c.41-4.34.84-8.56.84-8.56S588,340.63,594,333.91c0,0,2.13-1.94-.92-5,0,0,3.71,2.07,5.43.49s.55-4.81-1.11-6.14c0,0,3.88.15,4.12-2.28.18-1.79-2.49-3.72-2.49-3.72l-10.85-7.92s7.69,3.33,9.15-.18c.44-1.69-.27-3.07-3-4s-18-9.24-21.05-14C571.55,292.27,555.19,302.84,555.19,302.84Z" fill="#fff"/><path d="M562.22,326.86l-.21-.17c-1.33-1.18-2-3.12-2.15-5.83-.23-5.67-5.44-17.5-5.45-17.62a1,1,0,0,1,.32-1.11l18-11.63a.89.89,0,0,1,.68-.14,1.57,1.57,0,0,1,.61.38c2.82,4.43,18,12.72,20.57,13.57,3.74,1.18,4,3.43,3.59,5.05l-.06.07a3.06,3.06,0,0,1-1.77,1.77,7.69,7.69,0,0,1-3.56.33l6.86,4.94c.27.22,3,2.33,2.83,4.56-.18,1.79-1.69,2.53-3.23,2.88a6.55,6.55,0,0,1,1,3.12,3.6,3.6,0,0,1-1.14,3,4.12,4.12,0,0,1-3.77.73,4.08,4.08,0,0,1,.28,1.49,3.57,3.57,0,0,1-.95,2.31,4.17,4.17,0,0,1-3.39,1.38c-6.73-.28-18.24-13.64-22.18-18.52-.2,1.67-.39,4-.63,6.46a3.91,3.91,0,0,1-3.67,4A4.46,4.46,0,0,1,562.22,326.86Zm-5.92-23.7c1.11,2.72,5.06,12.29,5.26,17.58s2.91,5.31,3,5.29c.32,0,1.75-.19,1.89-2.35.36-4.28.84-8.57.9-8.64a1,1,0,0,1,.61-.76,1,1,0,0,1,.92.28c4.12,5.37,16.19,19.3,22.16,19.54a2.33,2.33,0,0,0,2.06-.86l.06-.07a1.57,1.57,0,0,0,.44-1.12,4,4,0,0,0-1.42-2.63.94.94,0,0,1-.07-1.19.86.86,0,0,1,1.11-.25c.81.42,3.33,1.54,4.36.54a2,2,0,0,0,.59-1.58,4.59,4.59,0,0,0-1.62-3.24.88.88,0,0,1-.23-1,.94.94,0,0,1,.82-.59s3,.05,3.2-1.43c.08-.95-1.4-2.37-2.09-2.93l-10.85-7.93a.8.8,0,0,1-.25-1.11.82.82,0,0,1,1.1-.37c1.33.61,5.2,1.9,7.08,1.13a1.54,1.54,0,0,0,.8-.72c.18-.66.42-1.95-2.39-2.84s-16.93-8.6-21-13.59Z"/><path d="M593.11,328.88s-11.66-7.21-15.23-13.27" fill="#fff"/><path d="M584.8,324c-3-2.4-6.08-5.35-7.7-8a.9.9,0,0,1,1.55-.92c3.47,5.75,14.81,12.93,14.88,13a.84.84,0,0,1,.26,1.23.88.88,0,0,1-1.24.26C592.34,329.41,588.62,327.09,584.8,324Z"/><path d="M597.41,323.1s-11.1-6.19-14.44-10.7" fill="#fff"/><path d="M586,316.69a22.73,22.73,0,0,1-3.75-3.71.87.87,0,1,1,1.4-1c3.18,4.27,14,10.36,14.22,10.4a.91.91,0,1,1-.84,1.61A89.67,89.67,0,0,1,586,316.69Z"/><path d="M627.26,497.26H249a1,1,0,0,1,0-2h378.4a.94.94,0,0,1,1,1A1,1,0,0,1,627.26,497.26Z"/><circle cx="328.48" cy="331.61" r="26.65" fill="#cbcbca"/><path d="M299.86,340.66c-9.58-1.37-17.2-3.86-17.35-7.67-.11-2.71,3.42-5.1,10.29-7.1a1,1,0,1,1,.53,1.87c-6.66,1.93-8.95,4-8.92,5.2.12,2.61,10.32,6.57,33,7.13a1,1,0,1,1-.08,2A149.91,149.91,0,0,1,299.86,340.66Z"/><path d="M340.36,341.29a1,1,0,0,1-.87-.92,1,1,0,0,1,.85-1.07,153.71,153.71,0,0,0,18.55-2.73,1,1,0,0,1,.41,2,138.94,138.94,0,0,1-18.75,2.79Z"/><path d="M364.69,337.11a1,1,0,0,1-.12-1.91c5.85-1.86,7.92-3.75,7.88-4.86,0-1.3-2.72-3.28-10.27-4.86a1,1,0,1,1,.47-1.93c7.75,1.61,11.71,3.88,11.79,6.78,0,2.5-3,4.86-9.26,6.85C365,337.05,364.89,337.14,364.69,337.11Z"/><path d="M327.55,332.57a5.59,5.59,0,0,1-4.81-5.38,5.45,5.45,0,0,1,5.4-5.7,5.68,5.68,0,0,1,5.81,5.42A1.09,1.09,0,0,1,333,328a1.07,1.07,0,0,1-1.06-1,3.65,3.65,0,0,0-3.69-3.52,3.76,3.76,0,0,0-2.55,1.13,3.26,3.26,0,0,0-1,2.55,3.64,3.64,0,0,0,3.68,3.52,1,1,0,0,1,.11,2Z"/><path d="M327.82,341.79a5.78,5.78,0,0,1-3-1.43,5.57,5.57,0,0,1-1.72-3.94,1,1,0,1,1,2-.11,3.8,3.8,0,0,0,1.12,2.56,3.28,3.28,0,0,0,2.56,1,3.6,3.6,0,1,0-.16-7.2,1,1,0,1,1-.11-2,5.66,5.66,0,0,1,5.8,5.42,5.56,5.56,0,0,1-1.47,4,5.36,5.36,0,0,1-3.94,1.73A2.63,2.63,0,0,1,327.82,341.79Z"/><path d="M328.71,345.31a1,1,0,0,1-.86-.93l-.1-3.5a1,1,0,1,1,2-.11l.1,3.5a1.08,1.08,0,0,1-.95,1.06Z"/><path d="M328.07,323.37a1,1,0,0,1-.86-.92l-.1-3.5a1,1,0,1,1,2-.11l.1,3.5a1.09,1.09,0,0,1-1,1.06Z"/><circle cx="432.55" cy="406.99" r="19.94" fill="#cbcbca"/><path d="M432.55,408h-.2a4.73,4.73,0,0,1-2.76-2,4.46,4.46,0,0,1,4.84-6.62,4.7,4.7,0,0,1,2.76,2,4.37,4.37,0,0,1,.49,3.35,1,1,0,1,1-1.87-.49,2.15,2.15,0,0,0-.3-1.88,2.27,2.27,0,0,0-1.48-1.08,2.15,2.15,0,0,0-1.87.29,2.07,2.07,0,0,0-1.09,1.48,2.14,2.14,0,0,0,.3,1.88,2.26,2.26,0,0,0,1.48,1.09.93.93,0,0,1,.69,1.18A1.14,1.14,0,0,1,432.55,408Z"/><path d="M431.66,414.79a4,4,0,0,1-1.08-.1,4.64,4.64,0,0,1-2.77-2,4.4,4.4,0,0,1-.49-3.36,1,1,0,1,1,1.87.5,2.19,2.19,0,0,0,.3,1.87,2.09,2.09,0,0,0,1.48,1.09,2.15,2.15,0,0,0,1.88-.3,2.27,2.27,0,0,0,1.08-1.48,2.15,2.15,0,0,0-.29-1.87,2.28,2.28,0,0,0-1.48-1.09,1,1,0,0,1,.49-1.88,4.7,4.7,0,0,1,2.76,2,4.38,4.38,0,0,1,.5,3.35,4.69,4.69,0,0,1-2,2.77A6,6,0,0,1,431.66,414.79Z"/><path d="M430.28,417.16h-.2a.93.93,0,0,1-.69-1.18l.59-2.57a.94.94,0,0,1,1.19-.69.93.93,0,0,1,.69,1.18l-.59,2.57A1.18,1.18,0,0,1,430.28,417.16Z"/><path d="M434.13,401.27h-.2a.94.94,0,0,1-.69-1.19l.59-2.56a1,1,0,0,1,1.88.49l-.59,2.57A1,1,0,0,1,434.13,401.27Z"/><path d="M532.26,299.74a.91.91,0,0,1-.7-.3,1,1,0,0,1,0-1.4s3.8-4,.5-15.3c-1.5-5-5.3-10.8-9.1-16.4-5.3-8-10.3-15.6-9.4-21.6.7-4.9,2.7-8,4.6-11,2-3.2,4.1-6.4,4.9-12.1,1.5-11-2.3-21.6-2.3-21.7a1,1,0,1,1,1.9-.7,53.11,53.11,0,0,1,2.4,22.6c-.8,6.2-3,9.6-5.2,13a23.86,23.86,0,0,0-4.3,10.2c-.8,5.3,4.3,12.9,9.1,20.2,3.8,5.7,7.7,11.7,9.3,17,3.7,12.5-.8,17.1-1,17.3A1.85,1.85,0,0,1,532.26,299.74Z"/><path d="M539.44,308.54a.6.6,0,0,1-.4-.1c-9.9-4.5-9.7-15.4-9.7-15.6a1,1,0,0,1,2,0c0,.4-.1,9.8,8.6,13.7a1,1,0,0,1,.5,1.3A1.2,1.2,0,0,1,539.44,308.54Z"/></g></svg>