<svg xmlns="http://www.w3.org/2000/svg" viewBox="0 0 841.9 595.3"><g id="Layer_15" data-name="Layer 15"><path d="M414.56,300.51l-31.2,9-11.3-42.2a21.88,21.88,0,0,1,.2-11.9l11.6-38.3a25.08,25.08,0,0,1,20.2-17.5l17.2-2.6,11.5-.2,13.2,6a18.23,18.23,0,0,1,10.7,15.5l2.5,32.3,29.7-3.7,1.3,29-42.1-3.3.2,1.9c1,7.7,2.4,14.7,4,19Z" fill="#fff"/><path d="M447.76,482.61a29.4,29.4,0,1,0,58.8,0Z" fill="#cbcbca"/><path d="M477.16,495.61a13,13,0,0,1-13-13,.94.94,0,0,1,1-1h24.1a.94.94,0,0,1,1,1A13.12,13.12,0,0,1,477.16,495.61Zm-10.9-12a11,11,0,0,0,22,0Z"/><path d="M333.76,482.61a29.4,29.4,0,1,0,58.8,0Z" fill="#cbcbca"/><path d="M506.66,482.61a29.4,29.4,0,0,0-58.8,0Z" fill="#fff"/><path d="M506.66,483.61h-58.9a.94.94,0,0,1-1-1,30.4,30.4,0,1,1,60.8,0A.92.92,0,0,1,506.66,483.61Zm-57.9-2h56.8a28.42,28.42,0,0,0-56.8,0Z"/><path d="M406.86,456.81l-1.9,25.7h66.7a3,3,0,0,0,2.4-3.8c-.8-3.3-34.6-9.5-41.2-9.1.4-3.6,1.1-11.5,1.1-11.5Z" fill="#fff"/><path d="M471.66,483.61H405a.91.91,0,0,1-.7-.3,1.14,1.14,0,0,1-.3-.8l1.9-25.7a.92.92,0,0,1,1-.9l27.1,1.4a.91.91,0,0,1,.7.3.78.78,0,0,1,.2.8s-.6,6.5-1,10.4c4.1.1,13,1.4,21.9,3.2,18.5,3.8,19,5.9,19.2,6.7a4.08,4.08,0,0,1-.5,3.3,4,4,0,0,1-2.7,1.7C471.76,483.61,471.76,483.61,471.66,483.61Zm-65.6-2h65.5a1.89,1.89,0,0,0,1.3-.8,2.31,2.31,0,0,0,.2-1.7c-1.7-2.6-33.2-8.7-40.2-8.3a1,1,0,0,1-1.1-1.1c.3-2.8.8-8.2,1-10.4l-25-1.3Z"/><path d="M382.26,456.81l-1.9,25.7h66.7a3,3,0,0,0,2.4-3.8c-.7-3.3-34.6-9.5-41.2-9.1.4-3.6,1.1-11.5,1.1-11.5Z" fill="#fff"/><path d="M447.06,483.61h-66.7a.91.91,0,0,1-.7-.3,1.14,1.14,0,0,1-.3-.8l1.9-25.7a.92.92,0,0,1,1-.9l27.1,1.4a.91.91,0,0,1,.7.3.78.78,0,0,1,.2.8s-.6,6.5-1,10.4c4.1.1,13,1.4,21.9,3.2,18.5,3.8,19,5.9,19.2,6.7a4.08,4.08,0,0,1-.5,3.3,4,4,0,0,1-2.7,1.7C447.16,483.61,447.16,483.61,447.06,483.61Zm-65.6-2H447a1.89,1.89,0,0,0,1.3-.8,2.31,2.31,0,0,0,.2-1.7c-1.7-2.6-33.2-8.7-40.2-8.3a1,1,0,0,1-1.1-1.1c.3-2.8.8-8.2,1-10.4l-25-1.3Z"/><path d="M500.76,232.21a.94.94,0,0,1-1-1V222a1,1,0,0,1,2,0v9.2A1,1,0,0,1,500.76,232.21Z"/><polygon points="496.56 237.21 521.66 237.21 517.76 274.51 501.46 274.51 496.56 237.21" fill="#cbcbca"/><polygon points="521.16 231.21 497.06 231.21 496.26 237.21 521.96 237.21 521.16 231.21" fill="#cbcbca"/><path d="M524.26,238.21H494a1,1,0,0,1,0-2h30.3a1,1,0,0,1,0,2Z"/><polygon points="444.66 461.91 394.46 461.91 407.46 288.61 451.66 288.61 444.66 461.91" fill="#0E7490"/><polygon points="419.56 461.91 369.26 461.91 382.26 288.61 426.56 288.61 419.56 461.91" fill="#0E7490"/><path d="M519.86,262.81s-7.2,1.3-9.4,2.9-1.8,4.4.7,4.8,9.8-1.3,11-2.6C523.16,266.81,523,262.31,519.86,262.81Z" fill="#fff"/><path d="M512.06,271.51a2.79,2.79,0,0,1-1-.1,3.45,3.45,0,0,1-2.9-2.5,3.9,3.9,0,0,1,1.7-4c2.4-1.7,9.1-2.9,9.8-3.1h0a3.16,3.16,0,0,1,3.5,1.7c.8,1.6.7,4.1-.2,5.1C521.56,270,515.26,271.51,512.06,271.51Zm8-7.7c-1.9.3-7.3,1.5-9,2.7a2.21,2.21,0,0,0-1,2,1.43,1.43,0,0,0,1.3,1c2.3.4,9.2-1.3,10.2-2.3a3.87,3.87,0,0,0-.1-2.8A1.34,1.34,0,0,0,520.06,263.81Z"/><path d="M522.36,258.41s-7.3,0-9.8,1.1-2.6,4-.1,4.8,9.8.5,11.3-.5C524.86,263,525.46,258.51,522.36,258.41Z" fill="#fff"/><path d="M516.86,265.91a19,19,0,0,1-4.8-.5,3.53,3.53,0,0,1-2.4-3,3.84,3.84,0,0,1,2.4-3.6c2.6-1.2,9.5-1.2,10.2-1.2h0a3.21,3.21,0,0,1,3.1,2.3c.5,1.7,0,4.1-1.1,4.9S519.86,265.91,516.86,265.91Zm5.3-6.5c-2.1,0-7.4.2-9.2,1a2.14,2.14,0,0,0-1.3,1.7c0,.6.4,1,1.1,1.2,2.2.8,9.3.4,10.4-.4a3.68,3.68,0,0,0,.4-2.8,1.1,1.1,0,0,0-1.2-.8C522.26,259.41,522.26,259.41,522.16,259.41Z"/><rect x="354.26" y="269.11" width="82.2" height="56.8" transform="translate(-62.6 110.18) rotate(-14.71)" fill="#fff"/><path d="M362.76,336.41a1.2,1.2,0,0,1-1-.7l-14.4-54.9a1,1,0,0,1,.7-1.2l79.5-20.9a1.13,1.13,0,0,1,.8.1,1.47,1.47,0,0,1,.5.6l14.4,54.9a1.13,1.13,0,0,1-.1.8,1.47,1.47,0,0,1-.6.5l-79.5,20.9A.37.37,0,0,0,362.76,336.41Zm-13.2-55.2,13.9,53,77.6-20.4-13.9-53Z"/><path d="M421.26,196.91l-17.2,2.6a25.1,25.1,0,0,0-20.2,17.5l-11.6,38.3a21.88,21.88,0,0,0-.2,11.9l11.3,42.2,31.2-9-16.3-45.2,2.8-11.5" fill="#fff"/><path d="M383.26,310.51a.9.9,0,0,1-.5-.1,1.47,1.47,0,0,1-.5-.6L371,267.61a22.71,22.71,0,0,1,.2-12.4l11.6-38.3a26.19,26.19,0,0,1,21-18.2l17.2-2.6a1,1,0,0,1,.3,1.9l-17.2,2.6a24.27,24.27,0,0,0-19.4,16.8l-11.6,38.3a20.67,20.67,0,0,0-.2,11.3l11,41.2,29.2-8.4-16-44.2a.64.64,0,0,1,0-.6l2.8-11.5a1,1,0,0,1,1.9.5l-2.7,11.2,16.2,44.9a1.1,1.1,0,0,1,0,.8,1,1,0,0,1-.6.5l-31.2,9C383.46,310.51,383.36,310.51,383.26,310.51Z"/><path d="M407.76,302.51l2.6,6.6s6.4,1,8.9,3.6-.8,3.8-.8,3.8a9,9,0,0,1-4.5-.7c1.5,2.1,3.9,5.5,5,5.7-.8,1.5-2.5,3.9-5.5,2.7-.7,1.5-3.1,3.6-5.7,2.6-.8,1.5-4.1,2.6-6,1.1-1.3.4-4.1,1.2-6.3-.4-2.1-1.4-6.6-5.6-6.6-11s1.4-6.7.7-8.8C391.56,307.11,407.76,302.51,407.76,302.51Z" fill="#fff"/><path d="M404,329.61a4,4,0,0,1-2.4-.7c-1.5.4-4.3,1-6.7-.6-1.2-.8-7-5.2-7.1-11.8a32.34,32.34,0,0,1,.6-5.9,3.91,3.91,0,0,0,.1-2.6.78.78,0,0,1,.1-.8,1,1,0,0,1,.6-.5l18.2-5.3a1,1,0,0,1,1.2.6l2.4,6.1c1.7.3,6.6,1.4,8.9,3.8a3.65,3.65,0,0,1,1.2,3.2,3.34,3.34,0,0,1-2.4,2.2h-.2a12.85,12.85,0,0,1-2.1,0,13.09,13.09,0,0,0,2.7,3.1,1.34,1.34,0,0,1,.7.6,1,1,0,0,1-.1.9c-1.9,3.5-4.3,3.8-5.9,3.4a5.71,5.71,0,0,1-5.8,2.5,5.7,5.7,0,0,1-3,1.5C404.76,329.61,404.36,329.61,404,329.61Zm-2.2-2.7a1.07,1.07,0,0,1,.6.2,2.73,2.73,0,0,0,2.4.4,3.13,3.13,0,0,0,2.1-1.2,1,1,0,0,1,1.3-.5c2,.8,3.9-1,4.4-2a1,1,0,0,1,1.3-.5c1,.4,2.4.6,3.8-1.5a29.76,29.76,0,0,1-4.1-5l-.3-.4a.91.91,0,0,1,0-1.2.83.83,0,0,1,1.2-.2,8.72,8.72,0,0,0,3.8.6c.3-.1.9-.4.9-.8s-.2-.8-.7-1.3c-1.9-2-6.6-3.1-8.3-3.3a1,1,0,0,1-.8-.6l-2.3-5.8-16.5,4.7a7.72,7.72,0,0,1-.3,2.6,22,22,0,0,0-.6,5.5c0,5.7,5.6,9.8,6.2,10.2,1.8,1.3,4.2.6,5.4.2A1.34,1.34,0,0,1,401.76,326.91Z"/><path d="M490.16,276.81h0l-42.2-3.3a1,1,0,1,1,.2-2l41,3.2-1.3-26.8-28.6,3.6a1.2,1.2,0,0,1-.8-.2,1.61,1.61,0,0,1-.4-.7l-2.5-32.3a17.3,17.3,0,0,0-10.1-14.7l-13.2-6a1,1,0,0,1,.8-1.8l13.2,6a19.24,19.24,0,0,1,11.3,16.4l2.4,31.2,28.6-3.6a1.08,1.08,0,0,1,.8.2,1.61,1.61,0,0,1,.4.7l1.3,29a1.14,1.14,0,0,1-.3.8A.71.71,0,0,1,490.16,276.81Z"/><path d="M523.86,252.21s-8.3.1-11.1,1.4-2.8,4.4-.1,5.3,11.2.4,12.9-.8C526.86,257.21,527.46,252.11,523.86,252.21Z" fill="#fff"/><path d="M517.16,260.41a19,19,0,0,1-4.8-.5,3.59,3.59,0,0,1-2.7-3.2,4.35,4.35,0,0,1,2.6-4c2.9-1.4,10.7-1.5,11.5-1.5h0a3.34,3.34,0,0,1,3.4,2.5c.6,1.9,0,4.4-1.2,5.3S520.76,260.41,517.16,260.41Zm6.7-7.2c-2.3,0-8.6.3-10.7,1.3-1,.5-1.6,1.3-1.5,2a1.57,1.57,0,0,0,1.3,1.4c2.6.9,10.7.2,12-.7a3.68,3.68,0,0,0,.4-3,1.35,1.35,0,0,0-1.5-1Z"/><path d="M523.56,245.91s-9.4.1-12.6,1.4-3.2,4.4-.1,5.3,12.7.4,14.6-.8C527,250.91,527.66,245.91,523.56,245.91Z" fill="#fff"/><path d="M516.06,254.11a24,24,0,0,1-5.4-.5,3.69,3.69,0,0,1-3-3.3c-.1-1.6,1-3.1,3-4,3.3-1.4,12.6-1.5,13-1.5h0a3.71,3.71,0,0,1,3.8,2.7c.5,1.9-.1,4.3-1.4,5.1C524.56,253.61,520.06,254.11,516.06,254.11Zm7.6-7.2c-2.6,0-9.7.3-12.2,1.4-1.1.5-1.8,1.3-1.7,2s.6,1.2,1.6,1.5c3,.9,12.2.3,13.7-.7a3.1,3.1,0,0,0,.6-2.8,1.93,1.93,0,0,0-2-1.4Z"/><path d="M500.86,270.31s-8.5-2.3-11.1-2.3c-.1-3.2-.8-18-.8-18s3.9.3,5.7-2.1,3.2-4.3,6.7-4,10.7.4,10.4,2.2-1.9,3.9-6.3,4.1l-4.4.2s2.2,5.4-1.5,8.7" fill="#fff"/><path d="M500.86,271.31h-.3c-2.3-.6-8.8-2.3-10.8-2.3h0a1,1,0,0,1-1-1c-.1-3.2-.8-18-.8-18a1,1,0,0,1,1.1-1.1s3.3.3,4.8-1.7l.2-.2c1.8-2.4,3.5-4.6,7.4-4.1.8.1,1.7.1,2.7.2,4.5.3,7.3.6,8.3,1.8a1.52,1.52,0,0,1,.3,1.3c-.2,1.4-1.4,4.6-7.2,4.9l-3.2.2c.5,2,.9,5.8-2.1,8.5a1,1,0,0,1-1.3-1.5c3.1-2.8,1.3-7.4,1.2-7.6a1,1,0,0,1,.1-.9,1.37,1.37,0,0,1,.8-.5l4.4-.2c4-.2,5-1.9,5.3-3.1-.9-.6-4.8-.9-6.8-1-1-.1-2-.1-2.7-.2-2.8-.3-3.9,1.1-5.6,3.4l-.2.2c-1.5,2-4,2.4-5.5,2.5.1,3.1.6,12.4.7,16.1a101.9,101.9,0,0,1,10.4,2.3,1,1,0,0,1,.7,1.2A.82.82,0,0,1,500.86,271.31Z"/><path d="M452.26,294.41a.86.86,0,0,1-.9-.7c-3.9-10.5-6.3-36.5-6.5-51.3a1,1,0,1,1,2,0c.2,14.6,2.6,40.3,6.4,50.6a1,1,0,0,1-.6,1.3C452.46,294.31,452.36,294.41,452.26,294.41Z"/><path d="M445.76,237.61a1,1,0,0,1-1-1c0-6.5.1-8.9.1-9a1,1,0,0,1,2,0s-.1,2.5-.1,8.9a1,1,0,0,1-1,1.1Z"/><path d="M423.76,360.11h0a1,1,0,0,1-1-1l.4-9a1,1,0,0,1,2,0l-.4,9A1,1,0,0,1,423.76,360.11Z"/><path d="M419.56,462.91h0a1,1,0,0,1-1-1l4-93.3a1,1,0,0,1,2,0l-4,93.3A.94.94,0,0,1,419.56,462.91Z"/><path d="M506.66,483.61H333.76a1,1,0,0,1,0-2h172.9a.94.94,0,0,1,1,1A1,1,0,0,1,506.66,483.61Z"/><path d="M392.66,482.61a29.4,29.4,0,0,0-58.8,0Z" fill="#fff"/><path d="M392.66,483.61h-58.9a.94.94,0,0,1-1-1,30.4,30.4,0,1,1,60.8,0A.86.86,0,0,1,392.66,483.61Zm-57.9-2h56.8a28.42,28.42,0,0,0-56.8,0Z"/><path d="M363.26,495.61a13,13,0,0,1-13-13,.94.94,0,0,1,1-1h24.1a.94.94,0,0,1,1,1A13.26,13.26,0,0,1,363.26,495.61Zm-11-12a11,11,0,0,0,22,0Z"/><path d="M321.56,483.61H299a1,1,0,1,1,0-2h22.6a.94.94,0,0,1,1,1A1,1,0,0,1,321.56,483.61Z"/><path d="M293.16,483.61h-6.6a1,1,0,0,1,0-2h6.6a.94.94,0,0,1,1,1A1,1,0,0,1,293.16,483.61Z"/><path d="M377.06,435.51h-30.3a1,1,0,0,1,0-2h30.3a.94.94,0,0,1,1,1A1,1,0,0,1,377.06,435.51Z"/><path d="M377.06,421.21h-14.3a1,1,0,0,1,0-2h14.3a.94.94,0,0,1,1,1A1,1,0,0,1,377.06,421.21Z"/><path d="M454.92,152.45s9.9-.4,9.9,4.8c0,3.5-7,5.5-9.3,7.2s-1.1,14.7-7.1,21c-3,3.1-9.2,5.2-15.3,4l-.5-.1-1.4,7.2s-6.1,3.1-10.7.9c-.4-4.9-1.3-20.8-1.3-20.8s-6.5,2.6-8-3.3,4.3-9.1,8.7-6.2l-1.7-16.5,34.7-.6Z" fill="#fff"/><path d="M420,167.35l.6-15.9,32.5-1.3s12.1-15-5.9-19.1c-5.4-1-7.7,5.4-7.7,5.4s-8.9-9.8-21-5.2-10.1,16.8-10.1,16.8-8.8,2.6-7.9,10,5.9,10.2,5.9,10.2-8.9,6-3.5,13.2,16.8,1.3,16.8,1.3l-.3-5.9s-3.7,1.3-5.6,0a6.26,6.26,0,0,1-2.4-4,5.9,5.9,0,0,1,1.8-5.6C416.32,164.85,420,167.35,420,167.35Z" fill="#0E7490"/><path d="M436.62,191a20.06,20.06,0,0,1-7.5-1.5,1,1,0,1,1,.8-1.8c6.7,2.9,14.4.8,17.7-2.7,3.5-3.7,4.4-9.9,5.1-14.5.5-3.5.9-5.8,2.1-6.7a16,16,0,0,1,3-1.7c2.4-1.2,5.8-2.9,5.8-4.7a2.56,2.56,0,0,0-.8-1.9c-1.9-1.8-6.4-2-8-1.9a1,1,0,0,1-1-1,.94.94,0,0,1,1-1c.3,0,6.6-.3,9.5,2.5a4.18,4.18,0,0,1,1.4,3.3c0,3.1-3.8,5-6.9,6.5a20.21,20.21,0,0,0-2.7,1.5c-.6.4-1,3.2-1.3,5.4-.7,4.8-1.8,11.4-5.7,15.5C446.52,189.05,441.72,191,436.62,191Z"/><circle cx="439.42" cy="157.15" r="1.5"/><circle cx="445.72" cy="156.65" r="1.5"/><path d="M424.42,199.45a11.06,11.06,0,0,1-4.3-.9,1,1,0,0,1-.5-.8c-.3-4-1-15.7-1.2-19.5a7.7,7.7,0,0,1-5.1-.4,5.58,5.58,0,0,1-2.9-4c-.7-3,.1-5.7,2.4-7.3a6.93,6.93,0,0,1,7.9.1,1,1,0,1,1-1.1,1.7,5,5,0,0,0-5.6-.1,4.82,4.82,0,0,0-1.6,5.2,3.7,3.7,0,0,0,1.9,2.7c2,1,4.7-.1,4.8-.1a1,1,0,0,1,.9.1,1.37,1.37,0,0,1,.5.8c0,.2.8,14.8,1.2,20.2,3.3,1.3,7.5-.3,8.8-.9l1.3-6.7a1,1,0,1,1,2,.4l-1.4,7.2a1.28,1.28,0,0,1-.5.7C431.52,197.75,428.12,199.45,424.42,199.45Z"/><path d="M599.09,513.21H220.79a1,1,0,0,1,0-2h378.4a.94.94,0,0,1,1,1A1,1,0,0,1,599.09,513.21Z"/><circle cx="506" cy="372.75" r="9.28" fill="#0E7490"/><polygon points="346.83 160.89 350.98 173.03 363.32 176.69 352.95 184.29 353.35 197.22 342.89 189.72 330.74 194.06 334.69 181.82 326.7 171.65 339.63 171.55 346.83 160.89" fill="#0E7490"/></g></svg>