<svg xmlns="http://www.w3.org/2000/svg" viewBox="0 0 841.9 595.3"><g id="Layer_27" data-name="Layer 27"><path d="M530.47,359.61s-9.73-65.26-15-76.61-6.25-21.35-22.25-23.35-19.49-34.34-19.49-34.34l-30.59,1.41s.85,6.67-5,6.8-7.89,2.13.11,7.13,3.72,15.91,8.36,19a52.59,52.59,0,0,0,10.15,5s-9.13,3.73-11.82,8.91-7.07,14.66-6.88,19.42S440.75,319.3,447,319s7.19-1.41,7.19-1.41l-7.83,30.32S505.69,369.57,530.47,359.61Z" fill="#fff"/><polygon points="367.34 246.25 364.25 220.94 403.19 218.89 399.97 249.08 367.72 249.34 367.34 246.25" fill="#fff"/><path d="M527.56,404.16a8.56,8.56,0,0,1-8.48,8.48H469.35a8.48,8.48,0,0,1,0-17h49.73A8.47,8.47,0,0,1,527.56,404.16Z" fill="#fff"/><path d="M519.08,395.68H469.35a8.48,8.48,0,0,0,0,17h49.73a8.56,8.56,0,0,0,8.48-8.48A8.47,8.47,0,0,0,519.08,395.68Zm0,14.52H469.35a5.91,5.91,0,0,1,0-11.82h49.73a5.91,5.91,0,0,1,0,11.82Z"/><path d="M454.58,492.42h-.26a1.22,1.22,0,0,1-.9-1.54l20.17-79.79a1.22,1.22,0,0,1,1.55-.89,1.21,1.21,0,0,1,.89,1.54l-20.17,79.78A1.53,1.53,0,0,1,454.58,492.42Z"/><path d="M533.85,492.42a1.34,1.34,0,0,1-1.28-1l-20.18-79.66a1.27,1.27,0,0,1,2.45-.65L535,490.88a1.32,1.32,0,0,1-.9,1.54Z"/><path d="M494.15,492.42a1.21,1.21,0,0,1-1.28-1.28V411.35a1.29,1.29,0,0,1,2.57,0v79.79A1.22,1.22,0,0,1,494.15,492.42Z"/><path d="M410.25,443.34l-10.41,28.53L347,455.29s-4.75-1.54-2.7-4.75,34.82-1,34.82-1l8.09-14.13Z" fill="#fff"/><path d="M399.84,473.15h-.38l-52.81-16.57c-.38-.13-3.08-1.16-4-3.34a3.75,3.75,0,0,1,.51-3.34c2.06-3.22,22.62-2.44,35.21-1.67l7.71-13.49a1.18,1.18,0,0,1,1.54-.52l23,8a1.33,1.33,0,0,1,.77.64,1.4,1.4,0,0,1,0,1L401,472.38A1.13,1.13,0,0,1,399.84,473.15Zm-40.85-23c-7.2,0-12.72.39-13.75,1.16-.26.51-.26.9-.13,1a3.79,3.79,0,0,0,2.31,1.67l51.65,16.19,9.51-26.09-20.68-7.19-7.58,13.23a1.55,1.55,0,0,1-1.16.65C372.35,450.41,365,450.15,359,450.15Z"/><path d="M469.61,459.28l2.18,32h-55s-5.39-.26-3.85-3.6c1.93-4.37,32.51-11.18,32.51-11.18l-.13-17.86Z" fill="#fff"/><path d="M471.79,492.42h-55c-.64,0-3.85-.25-5-2.18a3.37,3.37,0,0,1-.12-3.21c1.92-4.37,24.15-9.77,32.37-11.69V458.63a1.17,1.17,0,0,1,.39-.9,1.4,1.4,0,0,1,.9-.38l24.28.64a1.37,1.37,0,0,1,1.29,1.16l2.18,32a1.72,1.72,0,0,1-.39,1A1.81,1.81,0,0,1,471.79,492.42Zm-25.18-32.5v16.44a1.25,1.25,0,0,1-1,1.29c-14.39,3.21-30.57,8.09-31.6,10.41a1.22,1.22,0,0,0-.13.89c.38.52,1.93.9,2.83,1h53.57l-1.92-29.42Z"/><polygon points="430.55 469.04 481.17 466.47 468.33 397.48 511.5 395.68 512.91 365.36 433.38 365.36 430.55 469.04" fill="#0E7490"/><path d="M575,329.38H295.65a1.29,1.29,0,1,1,0-2.57H575a1.21,1.21,0,0,1,1.28,1.29A1.28,1.28,0,0,1,575,329.38Z"/><path d="M299.63,492.42h-.13a1.5,1.5,0,0,1-1.16-1.41L321,327.84a1.29,1.29,0,1,1,2.57.26L300.91,491.4A1.24,1.24,0,0,1,299.63,492.42Z"/><path d="M571,492.42a1.36,1.36,0,0,1-1.28-1.15L547.08,328.1a1.29,1.29,0,1,1,2.57-.26L572.27,491a1.21,1.21,0,0,1-1.16,1.41Z"/><rect x="309.01" y="320.26" width="97" height="7.84" fill="#fff"/><path d="M406,329.38H309a1.22,1.22,0,0,1-1.29-1.28v-7.84A1.22,1.22,0,0,1,309,319h97a1.22,1.22,0,0,1,1.29,1.29v7.84A1.29,1.29,0,0,1,406,329.38Zm-95.72-2.57h94.44v-5.27H310.29v5.27Z"/><polygon points="283.31 265.4 353.08 265.4 378.77 320.26 309.01 320.26 283.31 265.4" fill="#fff"/><path d="M378.77,321.54H309a1.23,1.23,0,0,1-1.16-.77l-25.69-54.86a1.53,1.53,0,0,1,.12-1.28,1.32,1.32,0,0,1,1-.65h69.77a1.23,1.23,0,0,1,1.15.77l25.7,54.87a1.49,1.49,0,0,1-.13,1.28A1.13,1.13,0,0,1,378.77,321.54ZM309.91,319h66.81l-24.41-52.29H285.5Z"/><polygon points="322.11 299.57 331.11 286.21 340.1 299.57 322.11 299.57" fill="#0E7490"/><path d="M456.76,266.17a13.17,13.17,0,0,1-6.55-1.67,14.08,14.08,0,0,1-6.55-8.35c-2.06-7.84-3.86-12.6-4.63-13.24-.38-.25-1-.51-1.8-.9-2.44-1.15-5.52-2.57-5.91-5a4.2,4.2,0,0,1,1-3.6c2.31-2.69,7.58-2.69,8.22-2.69a1.29,1.29,0,1,1,0,2.57c-1.15,0-5,.38-6.29,1.8a1.58,1.58,0,0,0-.39,1.54c.13,1.15,2.83,2.31,4.5,3.08.9.39,1.54.77,2.18,1s2.32,1.54,5.79,14.77a10.63,10.63,0,0,0,5.26,6.68,11.26,11.26,0,0,0,9.38.65,1.34,1.34,0,0,1,.77,2.57A17.08,17.08,0,0,1,456.76,266.17Z"/><circle cx="449.7" cy="237.9" r="1.67"/><circle cx="456.76" cy="239.06" r="1.67"/><path d="M440.32,229.81h32.12l5.14,50.49,37.26-16.06s-12-42.53-32.12-40.09c-2.19-6.68-5.27-15.54-22.62-15.29C440.32,209.12,440.32,229.81,440.32,229.81Z" fill="#0E7490"/><path d="M482.84,225.31a1.16,1.16,0,0,1-.64-.13,1.3,1.3,0,0,1-.51-1.8c.13-.13,2.18-3.85,5.78-3.85a1.29,1.29,0,0,1,0,2.57c-2.18,0-3.47,2.44-3.6,2.57A1,1,0,0,1,482.84,225.31Z"/><path d="M472.57,266.94s-5.53-5-6.94-7.07-3.73-3.08-5.14-.9a6.09,6.09,0,0,0,.38,5.53C462,265.78,469.48,268.48,472.57,266.94Z" fill="#fff"/><path d="M470.12,268.74c-4,0-9.12-2.06-10.27-3.47-1.29-1.8-1.55-5.4-.39-7.07a3.63,3.63,0,0,1,3.08-1.8h0a5.1,5.1,0,0,1,4.12,2.7c1.15,1.67,5.26,5.53,6.68,6.94a1.31,1.31,0,0,1,.38,1.16,2,2,0,0,1-.77,1A7.84,7.84,0,0,1,470.12,268.74ZM462.54,259c-.12,0-.51,0-.9.65a5.3,5.3,0,0,0,.39,4.11c.64.77,4.75,2.31,7.84,2.44a50.36,50.36,0,0,1-5.27-5.53c-.64-1-1.41-1.67-2.06-1.67Z"/><path d="M457,280.43a10.07,10.07,0,0,0,5.14-1.16,73,73,0,0,0,2,7.71l14.65-10.79s-2.7-8-7.45-9.77-13.62-3.08-20.17,0c-2.19,1.29-3,4.12,0,5-1.8,1.28-3.86,4.62.38,6-1.8,1.42-1.67,3.09-.51,4.37,3.08,3.47,9.64,1.67,11.95,1.67" fill="#fff"/><path d="M464.21,288.27h-.38a1.13,1.13,0,0,1-.77-.9c0-.13-.39-1.16-.77-2.57-.26,0-.52.13-.9.13-3.09.38-8.35,1-11.18-2.32a4.07,4.07,0,0,1-.64-4.88,3.52,3.52,0,0,1-1.67-2.44,5.17,5.17,0,0,1,1.15-3.73,2.67,2.67,0,0,1-1-2.05,4.67,4.67,0,0,1,2.57-4.37c6.68-3.21,15.67-2.31,21.32-.13,5.27,2.06,8.1,10.28,8.23,10.54a1.22,1.22,0,0,1-.52,1.41L465,287.75A.94.94,0,0,1,464.21,288.27Zm.13-5.14c.13.64.39,1.15.52,1.67l12.46-9.12c-1-2.45-3.34-6.94-6.3-8.1-4.24-1.67-12.84-3.08-19.14,0-.77.51-1.28,1.29-1.16,1.8s.65.64,1,.77a1.24,1.24,0,0,1,.9,1,1.22,1.22,0,0,1-.51,1.28A3.31,3.31,0,0,0,450.6,275c.12.65.89,1,1.67,1.29a1.45,1.45,0,0,1,.89,1,1.3,1.3,0,0,1-.51,1.28,1.88,1.88,0,0,0-.9,1.29,2,2,0,0,0,.52,1.28c1.92,2.31,6.16,1.8,8.86,1.41h.51a4.84,4.84,0,0,1-.25-1.28,13.52,13.52,0,0,1-4.11.51,1.29,1.29,0,1,1,0-2.57,7.81,7.81,0,0,0,4.36-.9,1.31,1.31,0,0,1,1.16-.13,1.37,1.37,0,0,1,.77.9,18.32,18.32,0,0,0,.77,4Z"/><path d="M451.24,272.72a1.36,1.36,0,0,1-1.16-.64,1.3,1.3,0,0,1,.52-1.8,13.46,13.46,0,0,1,6.29-1.8,1.29,1.29,0,1,1,0,2.57,10,10,0,0,0-4.88,1.54A2.24,2.24,0,0,1,451.24,272.72Z"/><path d="M451.62,278.76a1.34,1.34,0,0,1-1.15-.64,1.3,1.3,0,0,1,.51-1.8,16.89,16.89,0,0,1,6.3-1.93,1.28,1.28,0,0,1,1.28,1.29,1.21,1.21,0,0,1-1.28,1.28,14.1,14.1,0,0,0-5.14,1.54A.68.68,0,0,1,451.62,278.76Z"/><path d="M504.81,300.73l-19.4-29.17-24.66,17.86,38.54,35.21a13.57,13.57,0,0,0,9,3.47h0a13.34,13.34,0,0,0,13.11-15.81c-3.34-17.86-6.81-40.85-13.49-45.61" fill="#fff"/><path d="M508.41,329.38a14.93,14.93,0,0,1-9.89-3.85L460,290.32a1.47,1.47,0,0,1-.38-1,1.59,1.59,0,0,1,.51-1l24.67-17.86a1.38,1.38,0,0,1,1-.26,1.34,1.34,0,0,1,.9.51l19.4,29.17a1.3,1.3,0,0,1-2.19,1.41l-18.62-28-22.23,16.19,37.39,34.05a12.07,12.07,0,0,0,17.34-1.28,12.13,12.13,0,0,0,2.57-9.9c-.38-2.05-.77-4.24-1.16-6.42-2.82-15.29-6.29-34.43-11.69-38.42a1.28,1.28,0,0,1,1.54-2.05c6.17,4.49,9.51,22.61,12.72,40,.39,2.19.77,4.37,1.16,6.43a14.91,14.91,0,0,1-14.52,17.6Z"/><path d="M447.9,314.09l13-24.54-26.34-8.48-8.6,31.61a12.25,12.25,0,0,0,11.82,15.54h0a13,13,0,0,0,8.22-3.08l7.32-6.55" fill="#fff"/><path d="M437.75,329.38a13.66,13.66,0,0,1-13.11-17.22l8.61-31.47c.13-.39.26-.65.64-.77a1.36,1.36,0,0,1,1-.13l26.34,8.48a1.14,1.14,0,0,1,.77.77,1.4,1.4,0,0,1,0,1l-13,24.54a1.32,1.32,0,0,1-2.31-1.29L459,290.07l-23.64-7.59-8.23,30.33a10.88,10.88,0,0,0,1.93,9.63A10.91,10.91,0,0,0,445.07,324l7.32-6.55a1.26,1.26,0,0,1,1.8.13,1.24,1.24,0,0,1-.13,1.8l-7.32,6.55A13.52,13.52,0,0,1,437.75,329.38Z"/><path d="M446.61,346.6s8.35-33.41,9.64-40" fill="#fff"/><path d="M446.61,347.88h-.25a1.21,1.21,0,0,1-.9-1.54c.12-.39,8.35-33.41,9.63-40a1.31,1.31,0,1,1,2.57.52c-1.28,6.68-9.25,38.67-9.63,40.08A1.59,1.59,0,0,1,446.61,347.88Z"/><path d="M440.57,283s2.44-10.41,8.74-13.23" fill="#fff"/><path d="M440.7,284.28h-.26a1.21,1.21,0,0,1-.89-1.54c.12-.38,2.69-11.05,9.37-14a1.26,1.26,0,1,1,1,2.31c-5.52,2.44-8,12.21-8,12.33A1.54,1.54,0,0,1,440.7,284.28Z"/><path d="M455.35,287.62s2.57-3.59,3.85-3.72" fill="#fff"/><path d="M455.35,288.91a1.76,1.76,0,0,1-.77-.26,1.16,1.16,0,0,1-.26-1.8c1-1.54,3.08-4.11,4.75-4.24a1.22,1.22,0,0,1,1.42,1.16,1.28,1.28,0,0,1-1.16,1.41,15.27,15.27,0,0,0-2.95,3.21A1.18,1.18,0,0,1,455.35,288.91Z"/><path d="M519.2,301s7.46,32.25,11.18,52.16" fill="#fff"/><path d="M530.38,354.43a1.24,1.24,0,0,1-1.28-1c-3.73-19.79-11.05-51.78-11.18-52.17a1.31,1.31,0,0,1,2.57-.51c.13.38,7.45,32.5,11.18,52.29a1.41,1.41,0,0,1-1,1.54A.4.4,0,0,0,530.38,354.43Z"/><path d="M512.52,358.8,442.63,346A23.73,23.73,0,0,0,418,357.13l-46.89,78.25L421.43,455l17-70.16L507,395.42a21.1,21.1,0,0,0,24.28-22.1l-.9-15.16Z" fill="#0E7490"/><path d="M421.43,456.32h-.26a1.23,1.23,0,0,1-.9-1.54l17-70.15a1.4,1.4,0,0,1,1.42-1l68.61,10.54a1.26,1.26,0,0,1,1,1.41,1.28,1.28,0,0,1-1.41,1l-67.45-10.41-16.71,69A1.34,1.34,0,0,1,421.43,456.32Z"/><path d="M438.39,386.17h-.26l-6.29-1a1.31,1.31,0,0,1,.51-2.57l6.3,1a1.33,1.33,0,0,1,1,1.54A1.25,1.25,0,0,1,438.39,386.17Z"/><path d="M365,266.81h-1.55a1.15,1.15,0,0,1-1.15-1.41,1.21,1.21,0,0,1,1.41-1.16c.13,0,17.73,1.29,21.07-10.92a1.26,1.26,0,1,1,2.44.64C383.91,265.78,369.78,266.81,365,266.81Z"/><path d="M400,250.36H371.45a1.29,1.29,0,0,1,0-2.57h27.37l2.95-27.49-36.1,1.93,2.95,23.89a1.27,1.27,0,0,1-1.15,1.42,1.29,1.29,0,0,1-1.42-1.16L363,221.07a1.39,1.39,0,0,1,.26-1,2.09,2.09,0,0,1,.9-.51l38.93-2.06a1.43,1.43,0,0,1,1,.39,1.45,1.45,0,0,1,.39,1l-3.21,30.19A1.37,1.37,0,0,1,400,250.36Z"/><path d="M374.41,234.69a1.85,1.85,0,0,1-.78-.26,1.26,1.26,0,0,1-.38-1.8c.13-.25,4-5.91,10.41-5.91a1.29,1.29,0,0,1,0,2.57c-5,0-8.23,4.76-8.23,4.76A1.31,1.31,0,0,1,374.41,234.69Z"/><path d="M377.87,237.9a1.85,1.85,0,0,1-.77-.26,1.25,1.25,0,0,1-.38-1.79c.13-.13,2.7-3.86,6.81-3.86a1.29,1.29,0,0,1,0,2.57c-2.83,0-4.76,2.7-4.76,2.7A1,1,0,0,1,377.87,237.9Z"/><path d="M381.09,241.24a1.88,1.88,0,0,1-.77-.25,1.26,1.26,0,0,1-.39-1.8,4.46,4.46,0,0,1,3.6-2.06,1.29,1.29,0,0,1,0,2.57,2.19,2.19,0,0,0-1.54.9A.83.83,0,0,1,381.09,241.24Z"/><path d="M392.91,234.69a1.62,1.62,0,0,1-1-.51c0-.13-3.21-4.76-8.22-4.76a1.29,1.29,0,1,1,0-2.57c6.29,0,10.15,5.66,10.27,5.91a1.26,1.26,0,0,1-.38,1.8A5.85,5.85,0,0,1,392.91,234.69Z"/><path d="M389.44,237.9a1.62,1.62,0,0,1-1-.51s-1.93-2.7-4.75-2.7a1.29,1.29,0,1,1,0-2.57,8.7,8.7,0,0,1,6.81,3.85,1.27,1.27,0,0,1-.39,1.8A5.85,5.85,0,0,1,389.44,237.9Z"/><path d="M386.23,241.24a1.55,1.55,0,0,1-1-.51,2.19,2.19,0,0,0-1.54-.9,1.29,1.29,0,1,1,0-2.57,4.43,4.43,0,0,1,3.59,2.06,1.25,1.25,0,0,1-.38,1.79A1,1,0,0,1,386.23,241.24Z"/><path d="M610.22,492.76H231.92a1,1,0,1,1,0-2h378.4a.94.94,0,0,1,1,1A1,1,0,0,1,610.22,492.76Z"/></g></svg>