<svg xmlns="http://www.w3.org/2000/svg" viewBox="0 0 841.9 595.3"><g id="Layer_8" data-name="Layer 8"><path d="M296.14,166.9s6.8,1,7.8,4-6.4,6.4-7.8,7.6c-3.6,3.2,2.5,27.3-20.5,24.4l-.6-.1-1,8s-8.8,4.9-15.9-.6c-.4-3.7-1.9-15.3-1.9-15.3s-7,2.8-7.6-3.3,5.2-5.7,6.5-4.9l-1.4-16.1,6.7-.9Z" fill="#fff"/><path d="M257.74,206.3s-13.9-2.5-25.2,7.6c-7.3,6.5-22.5,24.9-32.4,37.2a24.74,24.74,0,0,0-3.5,25.2l1.9,4.4-.3,2.4c-1.6,5.4-6.2,20.9-7.4,27.4l82.4-2.8c-1.1-4.8,2.1-18.5,5-32.7l.6,1.5,13,21.4,27.7-11.8-21.8-29.2s-.7-26.4-4.2-35.7-19.1-13.8-19.1-13.8Z" fill="#fff"/><path d="M410.24,454.2a.94.94,0,0,1-1-1V314.5a1,1,0,0,1,2,0V453.2A1,1,0,0,1,410.24,454.2Z"/><rect x="456.94" y="313.2" width="16" height="213.2" fill="#cbcbca"/><rect x="528.04" y="313.2" width="16" height="213.2" fill="#cbcbca"/><rect x="393.24" y="295.1" width="214.7" height="24.2" fill="#cbcbca"/><rect x="393.24" y="178.3" width="214.7" height="116.8" fill="#fff"/><path d="M607.84,296.1H393.24a.94.94,0,0,1-1-1V178.3a.94.94,0,0,1,1-1h214.7a.94.94,0,0,1,1,1V295.1A1.09,1.09,0,0,1,607.84,296.1Zm-213.6-2h212.7V179.3H394.24Z"/><path d="M617,296.1H383.94a1,1,0,1,1,0-2H617a1,1,0,0,1,0,2Z"/><path d="M617,320.4H383.94a1,1,0,1,1,0-2H617a1,1,0,0,1,0,2Z"/><path d="M587,313.2a5.91,5.91,0,0,1-5.9-5.9,6,6,0,0,1,5.9-5.9,5.9,5.9,0,1,1,0,11.8Zm0-9.9a3.9,3.9,0,0,0-3.9,3.9,4,4,0,0,0,3.9,3.9,3.9,3.9,0,1,0,0-7.8Z"/><rect x="372.84" y="178.3" width="20.4" height="82.1" fill="#fff"/><path d="M393.24,261.4h-20.4a.94.94,0,0,1-1-1V178.3a.94.94,0,0,1,1-1h20.4a.94.94,0,0,1,1,1v82.1A1,1,0,0,1,393.24,261.4Zm-19.4-2h18.4V179.3h-18.4Z"/><path d="M383,200.4a5.2,5.2,0,1,1,5.2-5.2A5.23,5.23,0,0,1,383,200.4Zm0-8.5a3.2,3.2,0,1,0,3.2,3.2A3.29,3.29,0,0,0,383,191.9Z"/><path d="M383,244.9a.94.94,0,0,1-1-1V211.6a1,1,0,1,1,2,0v32.3A1.08,1.08,0,0,1,383,244.9Z"/><rect x="607.84" y="178.3" width="20.4" height="82.1" fill="#fff"/><path d="M628.24,261.4h-20.4a.94.94,0,0,1-1-1V178.3a.94.94,0,0,1,1-1h20.4a.94.94,0,0,1,1,1v82.1A.94.94,0,0,1,628.24,261.4Zm-19.4-2h18.4V179.3h-18.4Z"/><path d="M618,200.4a5.2,5.2,0,1,1,5.2-5.2A5.16,5.16,0,0,1,618,200.4Zm0-8.5a3.2,3.2,0,1,0,3.2,3.2A3.22,3.22,0,0,0,618,191.9Z"/><path d="M618,244.9a.94.94,0,0,1-1-1V211.6a1,1,0,0,1,2,0v32.3A1,1,0,0,1,618,244.9Z"/><path d="M515,165.6H486a12.72,12.72,0,0,0-12.7,12.7h54.4A12.72,12.72,0,0,0,515,165.6Z" fill="#fff"/><path d="M527.74,179.3h-54.5a.94.94,0,0,1-1-1,13.72,13.72,0,0,1,13.7-13.7h29a13.72,13.72,0,0,1,13.7,13.7A.83.83,0,0,1,527.74,179.3Zm-53.4-2h52.4A11.75,11.75,0,0,0,515,166.6H486A11.68,11.68,0,0,0,474.34,177.3Z"/><path d="M506.44,172.9h-11.8a1,1,0,0,1,0-2h11.8a.94.94,0,0,1,1,1A1,1,0,0,1,506.44,172.9Z"/><path d="M363.24,379.4H162a6.59,6.59,0,0,1-6.6-6.6h0a6.59,6.59,0,0,1,6.6-6.6h201.2a6.59,6.59,0,0,1,6.6,6.6h0A6.53,6.53,0,0,1,363.24,379.4Z" fill="#fff"/><path d="M363.24,380.4H162a7.6,7.6,0,0,1,0-15.2h201.2a7.6,7.6,0,0,1,0,15.2ZM162,367.1a5.6,5.6,0,0,0,0,11.2h201.2a5.6,5.6,0,0,0,0-11.2Z"/><path d="M363.24,509.2H162a6.59,6.59,0,0,1-6.6-6.6h0A6.59,6.59,0,0,1,162,496h201.2a6.59,6.59,0,0,1,6.6,6.6h0A6.53,6.53,0,0,1,363.24,509.2Z" fill="#fff"/><path d="M363.24,510.2H162a7.6,7.6,0,1,1,0-15.2h201.2a7.6,7.6,0,0,1,0,15.2ZM162,496.9a5.6,5.6,0,1,0,0,11.2h201.2a5.6,5.6,0,0,0,0-11.2Z"/><path d="M162,527.3a.9.9,0,0,1-.5-.1,1,1,0,0,1-.4-1.4l9.2-17.1a1,1,0,0,1,1.8,1l-9.2,17.1A1.05,1.05,0,0,1,162,527.3Z"/><path d="M363.24,527.3a1.05,1.05,0,0,1-.9-.5l-9.2-17.1a1,1,0,1,1,1.8-1l9.2,17.1a1,1,0,0,1-.4,1.4C363.54,527.2,363.44,527.3,363.24,527.3Z"/><path d="M262.64,527.4a.94.94,0,0,1-1-1V509.2a1,1,0,1,1,2,0v17.2A1,1,0,0,1,262.64,527.4Z"/><path d="M168.84,496.9a.94.94,0,0,1-1-1V379.4a1,1,0,0,1,2,0V495.9A1,1,0,0,1,168.84,496.9Z"/><path d="M356.54,496.9a.94.94,0,0,1-1-1V379.4a1,1,0,0,1,2,0V495.9A1,1,0,0,1,356.54,496.9Z"/><path d="M261.44,460.8l-7.7,35.1h84.7s8.8.6,6.5-5.1c-3-7.6-37.8-11.6-44.7-12.5.8-7.8,1.8-17.6,1.8-17.6h-40.6Z" fill="#fff"/><path d="M339.14,497h-85.4a.91.91,0,0,1-.8-.4.78.78,0,0,1-.2-.8l7.8-35.2a1,1,0,0,1,1-.8h40.6a.78.78,0,0,1,.7.3,1.14,1.14,0,0,1,.3.8c0,.1-1,9.1-1.7,16.6h.3c27.7,3.5,42.1,7.7,44.2,12.9a4.4,4.4,0,0,1-.2,4.2C344.14,496.7,340.74,497,339.14,497Zm-84.2-2.1h83.5c1.2.1,4.6,0,5.6-1.4.1-.2.6-.8,0-2.3-1.2-3-9.6-7.5-42.6-11.7l-1.3-.2a1.17,1.17,0,0,1-.9-1.1c.6-6.2,1.4-13.7,1.7-16.5h-38.6Z"/><path d="M212.74,460.8l-7.8,35.2h84.7s8.8.6,6.5-5.1c-3-7.6-37.8-11.6-44.7-12.5.8-7.8,1.8-17.6,1.8-17.6Z" fill="#fff"/><path d="M290.34,497h-85.4a.91.91,0,0,1-.8-.4.78.78,0,0,1-.2-.8l7.8-35.2a1,1,0,0,1,1-.8h40.6a.78.78,0,0,1,.7.3,1.14,1.14,0,0,1,.3.8c0,.1-1,9.1-1.7,16.6h.3c27.7,3.5,42.1,7.7,44.2,12.9a4.4,4.4,0,0,1-.2,4.2C295.34,496.7,291.94,497,290.34,497Zm-84.2-2.1h83.5c1.2.1,4.6,0,5.6-1.4.1-.2.6-.8,0-2.3-1.2-3-9.6-7.5-42.6-11.7l-1.3-.2a1.17,1.17,0,0,1-.9-1.1c.6-6.2,1.4-13.7,1.7-16.5h-38.6Z"/><path d="M228.44,299H273l28.8,73.9a62.87,62.87,0,0,1,4.3,20.2l3.8,73.2h-70.5l20.4-79.4L230,343a34.22,34.22,0,0,1-5.2-26.2Z" fill="#0E7490"/><path d="M193.74,299h44.6l29.6,75.9a42.62,42.62,0,0,1,2.9,20.3l-6.7,71.1h-70.4l31.4-79.4L195.34,343a34.22,34.22,0,0,1-5.2-26.2Z" fill="#0E7490"/><path d="M264.24,467.3h0a1.09,1.09,0,0,1-1-1.1l6.7-71.1a43.1,43.1,0,0,0-2.9-19.8l-5.7-14.7a1,1,0,1,1,1.9-.7l5.7,14.6a44.32,44.32,0,0,1,3,20.7l-6.7,71.1A1.07,1.07,0,0,1,264.24,467.3Z"/><path d="M291.54,326l-66.2,31.4a4.31,4.31,0,0,1-5.7-2l-.4-.8a4.31,4.31,0,0,1,2-5.7l66.2-31.4Z" fill="#fff"/><path d="M223.44,358.8a5.66,5.66,0,0,1-1.8-.3,5.31,5.31,0,0,1-3-2.7l-.4-.8a5.07,5.07,0,0,1-.2-4,5.31,5.31,0,0,1,2.7-3l66.2-31.4a1,1,0,0,1,1.3.5l4.1,8.6a1.1,1.1,0,0,1,0,.8,1,1,0,0,1-.5.6l-66.1,31.2A5.93,5.93,0,0,1,223.44,358.8Zm63.5-40-65.3,31a3.2,3.2,0,0,0-1.7,1.9,3.11,3.11,0,0,0,.1,2.5l.4.8a3.2,3.2,0,0,0,1.9,1.7,3.11,3.11,0,0,0,2.5-.1l65.3-31Z"/><ellipse cx="313.13" cy="310.49" rx="29.2" ry="23.3" transform="translate(-102.81 164.04) rotate(-25.36)" fill="#fff"/><path d="M308.24,336a32.66,32.66,0,0,1-7-.8c-7.2-1.7-12.7-5.9-15.5-11.8s-2.6-12.8.7-19.4a35.77,35.77,0,0,1,38.5-18.3c7.2,1.7,12.7,5.9,15.5,11.8s2.6,12.8-.7,19.4a34.87,34.87,0,0,1-16.2,15.5A35.33,35.33,0,0,1,308.24,336Zm9.8-49a32.68,32.68,0,0,0-14.4,3.4,31.55,31.55,0,0,0-15.3,14.6c-3,6.1-3.2,12.3-.7,17.7s7.5,9.1,14.1,10.7a32,32,0,0,0,20.9-2.6h0a31.55,31.55,0,0,0,15.3-14.6c3-6.1,3.2-12.3.7-17.7s-7.5-9.1-14.1-10.7A23.64,23.64,0,0,0,318,287Z"/><path d="M277.64,323.1a.37.37,0,0,1-.3-.1,1,1,0,0,1-.6-1.3c6.5-17.6,14.7-24.9,15-25.2A1,1,0,1,1,293,298c-.1.1-8.2,7.3-14.4,24.4A1.2,1.2,0,0,1,277.64,323.1Z"/><path d="M305.84,336.2c-4.8,0-13.2-.7-24.4-4.6a1,1,0,0,1,.7-1.9c17.2,6,27.9,4.3,28,4.2a1,1,0,0,1,.4,2A39.14,39.14,0,0,1,305.84,336.2Z"/><path d="M295.34,308.7a1,1,0,0,1-.9-.6,1,1,0,0,1,.5-1.3l26.9-12.8a1,1,0,1,1,.8,1.8l-26.9,12.8C295.54,308.6,295.44,308.7,295.34,308.7Z"/><path d="M299.64,317.9a1,1,0,0,1-.9-.6,1,1,0,0,1,.5-1.3l26.9-12.8a1,1,0,0,1,.8,1.8L300,317.8C299.94,317.8,299.84,317.9,299.64,317.9Z"/><path d="M304,327.1a1,1,0,0,1-.9-.6,1,1,0,0,1,.5-1.3l26.9-12.8a1,1,0,0,1,.8,1.8L304.44,327A.6.6,0,0,1,304,327.1Z"/><path d="M328.74,320.6a1,1,0,0,1-.9-.6L315,293.1a1,1,0,0,1,1.8-.8l12.8,26.9a1,1,0,0,1-.5,1.3A.6.6,0,0,1,328.74,320.6Z"/><path d="M319.54,325a1,1,0,0,1-.9-.6l-12.8-26.9a1,1,0,0,1,1.8-.8l12.8,26.9a1,1,0,0,1-.5,1.3C319.84,324.9,319.64,325,319.54,325Z"/><path d="M310.24,329.3a1,1,0,0,1-.9-.6l-12.8-26.9a1,1,0,0,1,1.8-.8l12.8,26.9a1,1,0,0,1-.5,1.3C310.54,329.3,310.44,329.3,310.24,329.3Z"/><path d="M296.14,164.7l-42.3,5.8,1.4,16.1s-3.9-1.9-5.9,1.3-.6,5.2,1,6.8,6,.1,6,.1l1.1,8.9s-12.4,1.3-17.6-14.6a25.64,25.64,0,0,1,5.4-26s-3.4-19.5,22.3-21.8C280,140.3,295.14,144.5,296.14,164.7Z" fill="#0E7490"/><path d="M279.24,204.1a38.8,38.8,0,0,1-8.4-1.1,1,1,0,0,1,.5-1.9c7.2,1.7,12.6,1.3,16.1-1.2,4.8-3.4,5.5-10.2,6.1-15.2.4-3.4.6-5.8,1.9-7a15.77,15.77,0,0,1,2-1.4c1.8-1.1,6.1-3.7,5.5-5.2-.6-1.7-4.7-2.9-7.1-3.3a1,1,0,1,1,.3-1.9c.8.1,7.4,1.2,8.6,4.6,1.1,3-3.2,5.6-6.4,7.6a7.56,7.56,0,0,0-1.7,1.2c-.7.6-1,3.2-1.3,5.7-.6,5.4-1.4,12.7-6.9,16.6C286.14,203.3,283,204.1,279.24,204.1Z"/><path d="M266,213.8a13.44,13.44,0,0,1-8.5-2.9,1,1,0,0,1-.4-.7c-.3-2.9-1.3-11.1-1.7-14.1-1.4.3-3.7.7-5.5-.4a5.18,5.18,0,0,1-2.3-4.1c-.3-3.2,1-4.8,2.1-5.6a6.24,6.24,0,0,1,5.9-.3,1,1,0,0,1-1,1.8,4.65,4.65,0,0,0-3.8.2c-1,.6-1.4,1.9-1.2,3.7A3.08,3.08,0,0,0,251,194c1.5.9,4.1.2,4.9-.1a1,1,0,0,1,.9.1,1.16,1.16,0,0,1,.5.7c0,.1,1.4,10.8,1.8,14.9,5.5,4,12.2,1.4,14,.5l.9-7.4a1,1,0,1,1,2,.2l-1,8a1,1,0,0,1-.5.8A19.52,19.52,0,0,1,266,213.8Z"/><polygon points="296.54 166.9 289.04 167.9 260.54 171.5 260.54 152.6 296.54 154.7 296.54 166.9" fill="#fff"/><path d="M260.54,172.5a1.08,1.08,0,0,1-.7-.3,1.14,1.14,0,0,1-.3-.8V152.5a.91.91,0,0,1,.3-.7,1.08,1.08,0,0,1,.7-.3l36,2a1,1,0,0,1,.9,1v12.4a1.06,1.06,0,0,1-.9,1l-36,4.6Zm1-18.8v16.7l34-4.3V155.7Zm35,13.2Z"/><path d="M260.54,164.1h-16.3a1,1,0,0,1,0-2h16.3a.94.94,0,0,1,1,1A1,1,0,0,1,260.54,164.1Z"/><path d="M269.14,170.4s-2.4-1.9-2.4-7.3v-4.4" fill="#fff"/><path d="M269.14,171.4a1.42,1.42,0,0,1-.6-.2c-.1-.1-2.7-2.2-2.7-8.1v-4.5a1,1,0,1,1,2,0v4.5c0,4.8,2,6.5,2,6.6a1,1,0,0,1,.1,1.4A1.6,1.6,0,0,1,269.14,171.4Z"/><path d="M257.74,206.3s-13.9-2.5-25.2,7.6c-7.3,6.5-22.5,24.9-32.4,37.2a24.74,24.74,0,0,0-3.5,25.2l23.8,55.6L251,316l-27.5-53.9,8.1-7.7" fill="#fff"/><path d="M220.54,332.8a.37.37,0,0,1-.3-.1,1,1,0,0,1-.6-.5l-23.9-55.6a25.41,25.41,0,0,1,3.6-26.2c10.8-13.5,25.3-30.9,32.5-37.3a32.94,32.94,0,0,1,26.1-7.8,1,1,0,0,1-.4,2c-.1,0-13.5-2.3-24.4,7.3-7.5,6.6-23.4,26.1-32.2,37a23.6,23.6,0,0,0-3.3,24.2L221,330.4l28.7-14.9-27-53a1.06,1.06,0,0,1,.2-1.2l8.1-7.7a1,1,0,0,1,1.4,1.4l-7.5,7.2L252,315.4a1,1,0,0,1-.4,1.3L221,332.6A.65.65,0,0,1,220.54,332.8Z"/><path d="M243.64,319.8s1.4,5.9,6.6,6.4,14-3.4,16.7,1c-3.4,1.7-5.6,2.6-5.6,2.6l4.6,14.8s.8,3.5-1.9,4.6a4.94,4.94,0,0,1-4.4,0s-.6,2.9-3,3.8a7.14,7.14,0,0,1-5.1-.7s-1.8,3-3.7,3a6.58,6.58,0,0,1-5.2-2.7c-1.5,3.9-6.2,1.1-6.2,1.1s-5.2-2.6-7.1-11.1-1.3-12-2.3-14.1C229.14,327.3,243.64,319.8,243.64,319.8Z" fill="#fff"/><path d="M247.74,356.2a7.57,7.57,0,0,1-5-2,4.11,4.11,0,0,1-1.7,1.2c-2.3.8-4.9-.7-5.2-.9-.1-.1-5.6-2.8-7.6-11.8a75.74,75.74,0,0,1-1.5-10,12.8,12.8,0,0,0-.7-3.8,1.05,1.05,0,0,1,.4-1.3L243,319a1,1,0,0,1,.9,0,1.06,1.06,0,0,1,.6.7h0c0,.2,1.3,5.2,5.8,5.6a26,26,0,0,0,6-.5c4.6-.7,9.3-1.4,11.4,2a1.06,1.06,0,0,1,.1.8,1,1,0,0,1-.5.6c-2.2,1.1-3.9,1.9-4.8,2.3l4.3,13.9c.4,1.6.3,4.7-2.5,5.8a7.22,7.22,0,0,1-4.2.4,6,6,0,0,1-3.3,3.4,7,7,0,0,1-5.1-.4c-.7.9-2.2,2.6-4,2.6Zm-5.2-4.7a1.14,1.14,0,0,1,.8.3,5.55,5.55,0,0,0,4.4,2.3h0c.9,0,2.2-1.5,2.8-2.5a1,1,0,0,1,1.4-.3,6,6,0,0,0,4.3.6c1.9-.6,2.4-3,2.4-3a1.06,1.06,0,0,1,.6-.7.94.94,0,0,1,.9.1,4,4,0,0,0,3.5-.1c1.9-.8,1.4-3.5,1.4-3.5l-4.6-14.7a1,1,0,0,1,.5-1.2l4.3-2c-1.8-1.3-5.3-.7-8.6-.2a30.29,30.29,0,0,1-6.5.5c-4.4-.4-6.4-4-7.1-5.9l-14.8,7.7a15.53,15.53,0,0,1,.5,3.6,71.65,71.65,0,0,0,1.5,9.8c1.8,8,6.5,10.4,6.6,10.5.6.4,2.4,1.2,3.6.8a1.76,1.76,0,0,0,1.2-1.3.87.87,0,0,1,.8-.6A.35.35,0,0,1,242.54,351.5Z"/><path d="M190.84,311.5h-.2a1,1,0,0,1-.8-1.2c1.5-7.9,7.7-28.5,8-29.4a1,1,0,1,1,1.9.5c-.1.2-6.5,21.4-7.9,29.2A1,1,0,0,1,190.84,311.5Z"/><path d="M319.54,287a.91.91,0,0,1-.8-.4l-21.8-29.2a1.42,1.42,0,0,1-.2-.6c0-.3-.8-26.3-4.2-35.3-3.3-8.7-18.2-13.1-18.4-13.2a1,1,0,0,1,.5-1.9c.7.2,16.1,4.8,19.7,14.4,3.3,8.9,4.2,32.5,4.3,35.7l21.6,28.9a1.08,1.08,0,0,1-.2,1.4C319.94,287,319.74,287,319.54,287Z"/><path d="M273.24,308.7a1,1,0,0,1-1-.8c-1-4.4,1.3-15.4,4-28,1.6-7.5,3.2-15.3,4.3-22.3a1,1,0,0,1,1.9.3c-1.1,7-2.7,14.8-4.3,22.4-2.5,11.9-4.9,23.2-4,27.2a1,1,0,0,1-.7,1.2C273.44,308.6,273.34,308.7,273.24,308.7Z"/><path d="M282.84,250.5h-.2a1,1,0,0,1-.8-1.1c1.3-8,2.3-13.6,2.3-13.7a1,1,0,0,1,2,.4c0,.1-1,5.7-2.3,13.6A1.08,1.08,0,0,1,282.84,250.5Z"/><path d="M291.84,298.9a1.19,1.19,0,0,1-.9-.5l-13-21.4a1,1,0,0,1,1.7-1.1l13,21.4a1.08,1.08,0,0,1-.3,1.4A.76.76,0,0,1,291.84,298.9Z"/><rect x="383.94" y="448.7" width="52.5" height="30.8" fill="#0E7490"/><path d="M410.24,471.6a7.4,7.4,0,1,1,7.4-7.4A7.38,7.38,0,0,1,410.24,471.6Zm0-12.9a5.4,5.4,0,1,0,5.4,5.4A5.38,5.38,0,0,0,410.24,458.7Z"/><path d="M410.24,503.6h-40.3a1,1,0,1,1,0-2h39.3V464.1a1,1,0,0,1,2,0v38.5A1.08,1.08,0,0,1,410.24,503.6Z"/><path d="M646,527.65H431.34a1,1,0,0,1,0-2H646a1,1,0,0,1,0,2Z"/><path d="M510.34,527.4h-416a1,1,0,0,1,0-2h416a1,1,0,1,1,0,2Z"/><path d="M582.13,503.9H405.33a1,1,0,0,1,0-2h176.8a1,1,0,0,1,0,2Z"/><rect x="582.13" y="399.9" width="46.5" height="126.8" fill="#0E7490"/><rect x="628.63" y="399.9" width="46.5" height="126.8" fill="#0E7490"/><path d="M628.63,527.7a.94.94,0,0,1-1-1V399.9a1,1,0,0,1,2,0V526.7A1.08,1.08,0,0,1,628.63,527.7Z"/><path d="M616.93,428.3h-23.1a1,1,0,0,1,0-2h23.1a.94.94,0,0,1,1,1A1,1,0,0,1,616.93,428.3Z"/><path d="M616.93,439.4h-23.1a1,1,0,0,1,0-2h23.1a.94.94,0,0,1,1,1A1,1,0,0,1,616.93,439.4Z"/><path d="M616.93,450.6h-23.1a1,1,0,0,1,0-2h23.1a.94.94,0,0,1,1,1A1,1,0,0,1,616.93,450.6Z"/><path d="M663.33,428.3h-23.1a1,1,0,0,1,0-2h23.1a1,1,0,0,1,0,2Z"/><path d="M663.33,439.4h-23.1a1,1,0,0,1,0-2h23.1a1,1,0,0,1,0,2Z"/><path d="M663.33,450.6h-23.1a1,1,0,0,1,0-2h23.1a1,1,0,0,1,0,2Z"/><rect x="604.53" y="385.3" width="48.2" height="14.7" fill="#fff"/><path d="M652.63,400.9h-48.2a.94.94,0,0,1-1-1V385.2a.94.94,0,0,1,1-1h48.2a.94.94,0,0,1,1,1v14.7A.94.94,0,0,1,652.63,400.9Zm-47.1-2h46.2V386.2h-46.2Z"/><path d="M637.73,386.3a.9.9,0,0,1-.5-.1,1.11,1.11,0,0,1-.4-1.4l15-25.7a1,1,0,0,1,1.8,1l-15,25.7A1.38,1.38,0,0,1,637.73,386.3Z"/><path d="M619.53,386.3a1.19,1.19,0,0,1-.9-.5l-15-25.7a1,1,0,0,1,1.8-1l15,25.7a1,1,0,0,1-.4,1.4A4.33,4.33,0,0,0,619.53,386.3Z"/><path d="M736.13,527.7H521.43a1,1,0,0,1,0-2h214.7a1,1,0,0,1,0,2Z"/></g></svg>