<svg xmlns="http://www.w3.org/2000/svg" viewBox="0 0 841.9 595.3"><g id="Layer_10" data-name="Layer 10"><path d="M488.83,314.2s12.3-77.1,39.2-123.1H416.33s-29.4,47-40,126.7C387.63,317.2,488.83,314.2,488.83,314.2Z" fill="#fff"/><polygon points="372.43 446.2 549.63 446.2 417.13 374.1 372.43 388.5 372.43 446.2" fill="#fff"/><path d="M177.43,172.65h167s-.4-41.8-25.2-41.8c-16,0-20.2,12.3-20.2,12.3s-.7-33.3-32.1-33.3c-16,0-30.8,14.3-35.1,35.7C205.23,124.55,178.83,144.35,177.43,172.65Z" fill="#d7d7d7"/><path d="M705.13,367.5H512.43c0-30.6,25.3-60.1,64.7-34.4,22.7-53.4,113.1-48.2,126.4,16.3Z" fill="#d7d7d7"/><path d="M371.93,178.3l34.6-3.1s1.9,11.3,8.6,9.7c.4,4,1.8,16.1,1.8,16.1s14.7,0,12.6-16.1c-1.2-9.1-7.4-18.8-13.9-17.9-2.5-7-9.9-14.7-22.3-12.3s-19.4,10.7-27.8,6.3C362.63,164.4,359.93,177.9,371.93,178.3Z" fill="#0E7490"/><path d="M415,184.9c-6.6,1.4-8.6-9.7-8.6-9.7l-36.5,3.2c-2.8.8-7.7,2.9-8.2,5.2-.8,3.6,1.1,6.1,7.2,7.3s8.2,10.5,8.2,10.5,4.2,17.8,22.6,8.2h0l1.8,7.5s7.5,4.6,16-3c-.6-5.9-1.5-19-1.5-19s7.8,2,7.4-4.8S418.83,183.5,415,184.9Z" fill="#fff"/><path d="M319,283.2l46.2-5.6a300.35,300.35,0,0,1,10.5-40.5c7-20.4,25.4-22.3,25.4-22.3l16.3-3.8s21.1-4.9,33.1,11.9c2.8,4,11.6,14.1,19,31.2a22.06,22.06,0,0,1-1.4,20.5l.7,3.2s9.1,38,9.4,42.2H319Z" fill="#fff"/><path d="M218.63,341.9,203,344.3s-20-39.4-33.7-45.8c-4.7-1.9-5.8,6.6-3.8,11.4s20.7,61.4,21.1,70.3l37.4-8.1Z" fill="#fff"/><path d="M186.63,381.1a1.42,1.42,0,0,1-.6-.2,1.27,1.27,0,0,1-.4-.7c-.4-8.8-19.2-65.6-21-69.9-1.5-3.7-1.5-9.6.9-12a3.6,3.6,0,0,1,4.2-.7c13,6.2,31.1,40.3,33.9,45.7l14.9-2.2a1,1,0,0,1,1.1.8l5.4,30a1.06,1.06,0,0,1-.8,1.2c-.3.1-32.3,7.1-37.4,8.1A.31.31,0,0,0,186.63,381.1Zm-18.6-82a1.63,1.63,0,0,0-1.1.5c-1.6,1.6-1.9,6.6-.5,9.8,1.8,4.2,19.4,57.3,21,69.5,6.7-1.4,30.3-6.6,35.3-7.7l-5-28.1-14.6,2.2a1,1,0,0,1-1-.5c-.2-.4-20-39.1-33.2-45.4A1.61,1.61,0,0,0,168,299.1Z"/><path d="M383.23,317.8s72.3-2,91.6-3.5c1,8.2-23.6,35.9-23.6,35.9l-115.9,6.5-114.7,34.4-11.7-61.4,109.5-11.9Z" fill="#0E7490"/><path d="M332,427.4H178.63s-.2-48.8,52-59.8c24.2-4.2,45.7.9,53.4,4.7,5.9-7.5,29.1-43.3,69.1-16.8" fill="#fff"/><path d="M332,428.4H178.63a.94.94,0,0,1-1-1,65.69,65.69,0,0,1,6.5-26.2c6-12.6,18.9-28.8,46.3-34.6,23.4-4.1,44.6.4,53.3,4.4.2-.3.5-.6.7-.9,7.6-10.1,30.8-40.9,69.3-15.5a1,1,0,0,1-1.1,1.7c-36.9-24.4-59.2,5.3-66.6,15-.5.6-.9,1.2-1.2,1.6a1,1,0,0,1-1.2.3c-7.9-4-29.2-8.8-52.7-4.6-46.7,9.9-50.8,50.9-51.1,57.8h152.4a.94.94,0,0,1,1,1C333.23,428,332.53,428.4,332,428.4Z"/><path d="M347.73,486.2l2,17.7s-39.9,33.9-43.3,51.7c-1.2,7.8,1.4,7.8,7.2,5.6s65.5-44.3,65.5-44.3V484.5Z" fill="#fff"/><path d="M308.73,563.3a3.23,3.23,0,0,1-2.2-.7c-1.4-1.1-1.7-3.3-1.1-7.3,3.3-17.2,38.8-48.1,43.2-52l-1.9-17.1a2.35,2.35,0,0,1,.2-.8,1.61,1.61,0,0,1,.7-.4l31.4-1.9a.91.91,0,0,1,.7.3,1.08,1.08,0,0,1,.3.7v32.4a1.23,1.23,0,0,1-.4.8c-2.4,1.7-59.9,42.3-65.7,44.5A12.66,12.66,0,0,1,308.73,563.3Zm40.1-76.2,1.8,16.6a1.4,1.4,0,0,1-.3.9c-.4.3-39.6,33.9-42.9,51.1-.6,3.7-.1,5,.4,5.4.9.7,3.4-.1,5.5-.9,4.4-1.7,44.1-29.3,64.9-43.9V485.4Z"/><path d="M407.33,219.5A14.23,14.23,0,0,1,401,218a1.47,1.47,0,0,1-.5-.6l-1.8-7.5a1,1,0,1,1,1.9-.5l1.7,7.1c1.5.7,7.4,3,14.1-2.7-.6-6.1-1.4-18.4-1.4-18.5a.91.91,0,0,1,.4-.8,1,1,0,0,1,.9-.2c.9.2,3.7.6,5.1-.6.8-.6,1.1-1.7,1-3.2-.1-2.4-.8-4-2-4.8-1.5-1-3.6-.5-5.2.1a1,1,0,0,1-.9-.1.91.91,0,0,1-.4-.8c-.1-1.5-.3-3.6-.3-3.6a1,1,0,1,1,2-.2c0,.1.2,1.2.3,2.5,2.3-.6,4.2-.5,5.7.5,1.7,1.1,2.7,3.2,2.9,6.3a5.65,5.65,0,0,1-1.8,4.9,7.2,7.2,0,0,1-5.5,1.2c.2,3.4.9,12.9,1.4,17.7a1.14,1.14,0,0,1-.3.8A16.51,16.51,0,0,1,407.33,219.5Z"/><path d="M389.93,213.5a14.35,14.35,0,0,1-4.6-.8c-7.1-2.6-9-10.7-9.1-11,0-.1-2-8.6-7.4-9.7-3.8-.7-6.2-2-7.3-3.8a6.19,6.19,0,0,1-.7-4.7c.9-4.2,9.9-5.9,10.9-6.1a1,1,0,1,1,.4,2c-3.6.7-8.8,2.5-9.3,4.6a3.78,3.78,0,0,0,.4,3.2c.9,1.3,2.9,2.3,6.1,2.9,6.7,1.3,8.9,10.8,9,11.2,0,.1,1.8,7.4,7.9,9.6,4.9,1.8,11.3-.1,19-5.7a1,1,0,1,1,1.2,1.6C400.13,211.2,394.63,213.5,389.93,213.5Z"/><circle cx="381.83" cy="186.1" r="1.5"/><circle cx="388.13" cy="186.4" r="1.5"/><path d="M415.53,168a.9.9,0,0,1-.5-.1,1.11,1.11,0,0,1-.4-1.4c1.3-2.3,4.9-6.1,9.2-4.3a1,1,0,1,1-.7,1.9c-3.9-1.5-6.7,3.4-6.8,3.5C416.23,167.9,415.93,168,415.53,168Z"/><path d="M384.83,294.2a1.07,1.07,0,0,1-.6-.2,1.61,1.61,0,0,1-.4-.7l-2.2-32a1.17,1.17,0,0,1,.9-1.1l55.6-4.3a1.17,1.17,0,0,1,1.1.9c.1.5-.4,1-.9,1.1l-54.6,4.2,2,30,65.5-7.6a21.49,21.49,0,0,0,17.2-29.9,131.13,131.13,0,0,0-17.1-28.6q-1.05-1.5-1.8-2.4c-11.5-16.1-31.8-11.6-32-11.5a1,1,0,1,1-.5-1.9c.2-.1,21.9-4.9,34.1,12.3q.6.9,1.8,2.4a132,132,0,0,1,17.4,29,23.5,23.5,0,0,1-18.8,32.7l-66.6,7.7A.1.1,0,0,0,384.83,294.2Z"/><path d="M319,284.2a1.06,1.06,0,0,1-1-.9,1,1,0,0,1,.9-1.1l45.4-5.5a305.42,305.42,0,0,1,10.4-39.9c7.1-20.8,26.1-22.9,26.3-22.9a.94.94,0,0,1,1.1.9,1,1,0,0,1-.9,1.1c-.7.1-17.9,2.1-24.6,21.6a290,290,0,0,0-10.4,40.3,1,1,0,0,1-.9.8l-46.2,5.6Z"/><path d="M369.33,313h-.2a1,1,0,0,1-.8-1.1l11.1-68.9a1,1,0,1,1,1.9.3l-11.1,68.9A.88.88,0,0,1,369.33,313Z"/><rect x="266.83" y="312" width="116.3" height="5.7" fill="#fff"/><path d="M383.23,318.8H266.83a.94.94,0,0,1-1-1v-5.7a.94.94,0,0,1,1-1h116.3a.94.94,0,0,1,1,1v5.7A.92.92,0,0,1,383.23,318.8Zm-115.4-2h114.3v-3.7H267.83Z"/><polygon points="304.03 264.5 228.83 264.5 266.83 312 342.13 312 304.03 264.5" fill="#fff"/><path d="M342.13,313h-75.3a.91.91,0,0,1-.8-.4l-38.1-47.5a1.07,1.07,0,0,1-.1-1.1,1,1,0,0,1,.9-.6H304a.91.91,0,0,1,.8.4l38.1,47.6a1.07,1.07,0,0,1,.1,1.1A.87.87,0,0,1,342.13,313Zm-74.8-2H340l-36.5-45.5h-72.7Z"/><path d="M478.13,321.3a1,1,0,0,1-1-.9c-.2-3.3-6.7-31.1-10-45.3a1,1,0,0,1,1.9-.5c.4,1.7,9.8,41.3,10.1,45.6a1.16,1.16,0,0,1-1,1.1Z"/><path d="M353.83,271.4s-12.3,5.5-12.5,10.6c0,2.9,3.4,3.3,5.2,2.2S357.53,276.6,353.83,271.4Z" fill="#fff"/><path d="M344.43,285.8a4.38,4.38,0,0,1-2.3-.6,3.41,3.41,0,0,1-1.7-3.2c.2-5.6,11.8-11,13.1-11.5a.93.93,0,0,1,1.2.3,5.91,5.91,0,0,1,.9,4.5c-1.1,5.2-8.4,9.7-8.5,9.8A5.44,5.44,0,0,1,344.43,285.8Zm9-13.1c-4.5,2.2-11,6.3-11.1,9.4a1.51,1.51,0,0,0,.7,1.4,3.52,3.52,0,0,0,3-.1c1.4-.8,6.8-4.7,7.6-8.5A4.07,4.07,0,0,0,353.43,272.7Z"/><path d="M382.73,261.2s-19.7,1.7-28.1,9.6c-6.9,6.4-11.5,18.3-6.1,24.5,1.6,1.9,5.5,2.2,5.6-2,2.5,2.2,4.9,4.7,7.4-.4,1.8,1.6,4.5,5.3,7.8,0,1.4,1.8,4.3,3.4,6,1.1s-1.6-10.5-1.6-10.5,3.2,3.4,10.7,2.9C384,281,382.73,261.2,382.73,261.2Z" fill="#fff"/><path d="M351.23,297.6a4.75,4.75,0,0,1-3.6-1.7c-5.7-6.5-1.4-18.9,6.2-25.9,8.6-8,27.9-9.8,28.7-9.8a1.45,1.45,0,0,1,.7.2.91.91,0,0,1,.3.7l1.7,25.1a1.45,1.45,0,0,1-.2.7.91.91,0,0,1-.7.3,17.33,17.33,0,0,1-8.8-1.4c.9,2.8,1.8,6.9.4,8.6a3.69,3.69,0,0,1-3,1.5h0a5.68,5.68,0,0,1-3.7-1.6,4.73,4.73,0,0,1-3.3,2.1c-1.8.2-3.3-1-4.4-2.1a4.61,4.61,0,0,1-2.8,2.3c-1.5.3-2.9-.6-4.1-1.6a3.24,3.24,0,0,1-2.2,2.2A1.59,1.59,0,0,1,351.23,297.6Zm30.5-35.3c-4.1.5-19.5,2.7-26.5,9.2-6.8,6.3-10.9,17.6-6,23.1a2.7,2.7,0,0,0,2.7.9c.9-.3,1.1-1.4,1.2-2.3a1,1,0,0,1,.6-.9.91.91,0,0,1,1.1.2l.4.3c1.2,1.1,2.5,2.2,3.4,2,.7-.1,1.4-1,2.1-2.4a.75.75,0,0,1,.7-.5,1,1,0,0,1,.9.2l.6.6c.9.9,2,2,3.1,1.9.8-.1,1.7-.8,2.6-2.2a1.37,1.37,0,0,1,.8-.5.91.91,0,0,1,.8.4,4.43,4.43,0,0,0,3.1,1.8,1.87,1.87,0,0,0,1.4-.8c1-1.3-.5-6.4-1.8-9.5a1,1,0,0,1,1.7-1s2.7,2.7,8.9,2.6Z"/><path d="M354,293.2s-1.9-6.3-.3-9.8" fill="#fff"/><path d="M354,294.2a1.2,1.2,0,0,1-1-.7c-.1-.3-2-6.7-.2-10.5a1,1,0,0,1,1.8.8c-1.2,2.6-.2,7.5.3,9.1a.89.89,0,0,1-.7,1.2C354.23,294.2,354.13,294.2,354,294.2Z"/><path d="M361.43,292.8s-2.2-6.7-1.3-10.1" fill="#fff"/><path d="M361.43,293.8a1,1,0,0,1-.9-.7c-.1-.3-2.3-7-1.3-10.7a1,1,0,0,1,1.9.5c-.7,2.6.7,7.8,1.3,9.6a1,1,0,0,1-.6,1.3Z"/><path d="M369.33,292.8s-3.6-6.8-1.2-11.4" fill="#fff"/><path d="M369.33,293.8a1.05,1.05,0,0,1-.9-.5c-.2-.3-3.8-7.3-1.2-12.4a1,1,0,1,1,1.8,1c-2.2,4.1,1.1,10.4,1.2,10.5a1,1,0,0,1-.4,1.4Z"/><path d="M474.83,314.3,473,338.8a34.24,34.24,0,0,1-22.5,29.7l-62.9,22.9,5,103.2-70-1.9,9.7-103.8a47.69,47.69,0,0,1,20.5-32.7l50.4-33.9C403.33,322.2,464.33,321.4,474.83,314.3Z" fill="#0E7490"/><path d="M325.23,465.4h0a1.09,1.09,0,0,1-1-1.1l7.1-75.4a48.69,48.69,0,0,1,21-33.5l36-24.2a1,1,0,1,1,1.1,1.7l-36,24.2a46.33,46.33,0,0,0-20.1,32.1l-7.1,75.3A1,1,0,0,1,325.23,465.4Z"/><path d="M377.73,396a1,1,0,0,1-.9-.7,1,1,0,0,1,.6-1.3l25.6-9.3a1,1,0,1,1,.7,1.9l-25.6,9.3A.76.76,0,0,1,377.73,396Z"/><circle cx="284.73" cy="289" r="6.5" fill="#0E7490"/><path d="M501.93,447.2H393.43a1,1,0,0,1,0-2h108.5a1,1,0,0,1,0,2Z"/><path d="M415.53,382.7s6.2-63,65-67.9c0,0,52.5-9.4,62.3,44.4,47.6-37,70.7,20.1,69.3,39.2,9.2-8.9,22.2-13.9,40.1-9.4,15.5,3.9,35.2,26.4,35.2,57.1H534.83" fill="#fff"/><path d="M687.43,447.2H534.83a1,1,0,0,1,0-2h151.6c-.4-30.4-20.2-51.5-34.5-55.1-15.7-3.9-28.8-.9-39.2,9.1a.91.91,0,0,1-1.1.2,1.1,1.1,0,0,1-.6-1c.8-10.9-7.2-37.3-25-46.9-12.4-6.7-26.8-3.8-42.7,8.5a.9.9,0,0,1-1,.1.87.87,0,0,1-.6-.8c-4-21.9-15.5-35.9-34.1-41.6a64.68,64.68,0,0,0-27.1-2c-24.1,2-42.2,13.8-53.8,35.2a97.22,97.22,0,0,0-10.4,31.8,1.09,1.09,0,0,1-1.1.9,1,1,0,0,1-.9-1.1,96.2,96.2,0,0,1,10.6-32.5c8.2-15.1,24.5-33.7,55.3-36.3a65.18,65.18,0,0,1,27.8,2.1c13.1,4,29.7,14.5,35.2,41.5,20-14.9,34.7-12.5,43.6-7.7,17.5,9.4,25.8,33.7,26.1,46.4,10.6-9.2,23.8-11.9,39.3-8,15.1,3.8,36,26.1,36,58.1A.8.8,0,0,1,687.43,447.2Z"/><path d="M488.83,315.2h-.2a1,1,0,0,1-.8-1.1c.1-.8,12.4-76.2,38.5-122h-90a1,1,0,0,1,0-2H528a1.05,1.05,0,0,1,.9.5.91.91,0,0,1,0,1c-26.5,45.3-39,122-39.1,122.8A1,1,0,0,1,488.83,315.2Z"/><path d="M601.13,229.2a.94.94,0,0,1-1-1,10.71,10.71,0,0,0-10.7-10.7,10.84,10.84,0,0,0-9.3,5.4,1,1,0,1,1-1.8-1,12.9,12.9,0,0,1,11-6.4A12.72,12.72,0,0,1,602,228.2.87.87,0,0,1,601.13,229.2Z"/><path d="M601.13,229.2a.94.94,0,0,1-1-1,12.68,12.68,0,0,1,23.7-6.3,1,1,0,0,1-1.8,1,10.84,10.84,0,0,0-9.3-5.4A10.71,10.71,0,0,0,602,228.2.87.87,0,0,1,601.13,229.2Z"/><path d="M238.53,492.5a.94.94,0,0,1-1-1,10.71,10.71,0,0,0-10.7-10.7,10.84,10.84,0,0,0-9.3,5.4,1,1,0,0,1-1.8-1,12.9,12.9,0,0,1,11-6.4,12.72,12.72,0,0,1,12.7,12.7A.86.86,0,0,1,238.53,492.5Z"/><path d="M238.53,492.5a.94.94,0,0,1-1-1,12.68,12.68,0,0,1,23.7-6.3,1,1,0,1,1-1.8,1,10.84,10.84,0,0,0-9.3-5.4,10.71,10.71,0,0,0-10.7,10.7A.86.86,0,0,1,238.53,492.5Z"/><path d="M600.43,486.6c-27,0-43.9-11.9-58.8-22.4-12.4-8.8-24.1-17-39.7-17a1,1,0,0,1,0-2c16.2,0,28.2,8.4,40.9,17.4,14.7,10.3,31.3,22.1,57.6,22.1a.94.94,0,0,1,1,1C601.43,486.3,601,486.6,600.43,486.6Z"/><circle cx="549.33" cy="140.7" r="35.9" fill="#0E7490"/><path d="M218.53,265.8a14.6,14.6,0,0,1-10.5-4.2c-5.8-5.9-6.7-17.2-2.8-33.7a1,1,0,1,1,1.9.5c-3.7,15.6-2.9,26.6,2.3,31.9,4.6,4.7,11.4,3.4,11.4,3.4a1,1,0,0,1,.4,2C221.23,265.5,220.13,265.8,218.53,265.8Z"/><polyline points="171.13 225.6 267.83 231.3 265.93 160.1 163.03 167.5 164.33 224.8" fill="#fff"/><path d="M267.83,232.3h0l-96.7-5.7a1,1,0,0,1,.2-2l95.6,5.7-1.8-69.1L164,168.4l1.3,56.4a.94.94,0,0,1-1,1,1,1,0,0,1-1-1L162,167.5a1,1,0,0,1,.9-1l102.9-7.3a1,1,0,0,1,1,1l1.9,71.2a.78.78,0,0,1-.3.7A.85.85,0,0,1,267.83,232.3Z"/><path d="M196.73,204.4a1.42,1.42,0,0,1-.6-.2l-10.7-7.7a.91.91,0,0,1-.4-.8,1.23,1.23,0,0,1,.4-.8l10.7-7.7a1,1,0,1,1,1.2,1.6l-9.5,6.8,9.5,6.8a1,1,0,0,1,.2,1.4C197.43,204.3,197.13,204.4,196.73,204.4Z"/><path d="M234.13,204.4a.91.91,0,0,1-.8-.4,1.08,1.08,0,0,1,.2-1.4l9.5-6.8-9.5-6.8a1,1,0,0,1,1.2-1.6l10.7,7.7a.91.91,0,0,1,.4.8,1.23,1.23,0,0,1-.4.8l-10.7,7.7C234.53,204.3,234.33,204.4,234.13,204.4Z"/><path d="M202.83,212.4a1.42,1.42,0,0,1-.6-.2,1.08,1.08,0,0,1-.2-1.4l25.2-31.3a1,1,0,1,1,1.6,1.2L203.63,212A.91.91,0,0,1,202.83,212.4Z"/><path d="M722.33,447.2h-24a1,1,0,0,1,0-2h24a.94.94,0,0,1,1,1A1,1,0,0,1,722.33,447.2Z"/></g></svg>