<svg xmlns="http://www.w3.org/2000/svg" viewBox="0 0 841.9 595.3"><g id="Layer_16" data-name="Layer 16"><path d="M376.69,516.89h-19.1C359.59,516.89,366.59,517.29,376.69,516.89Z" fill="#fff"/><path d="M367.69,518.09c-3.5,0-6.2-.1-8.1-.1h-2.1a1,1,0,0,1,0-2h19.1a1,1,0,0,1,0,2C373.39,518.09,370.39,518.09,367.69,518.09Z"/><path d="M653.69,294.59h53.6l-118.1-98.9-118.1,98.9h53.7c-.4,22.5-.9,49.5-.9,73.8,0,130.2-103.2,147-147.3,148.7,32,0,74.6-.1,91.4-.1,192,0,185.6-120,185.6-145.6C653.69,356.79,653.69,322.09,653.69,294.59Z" fill="#fff"/><path d="M376.59,518a1,1,0,1,1,0-2c54.7-2.1,146.4-24.1,146.4-147.7,0-23.9.5-51,.9-72.8h-52.7a1,1,0,0,1-.9-.7,1.13,1.13,0,0,1,.3-1.1l118.1-98.9a1.05,1.05,0,0,1,1.3,0l118.1,98.9a1.13,1.13,0,0,1,.3,1.1,1,1,0,0,1-.9.7h-52.6v78.1c.1,16.9.4,61.9-34.5,97.1-31.1,31.3-82.3,47.2-152.1,47.2h-32.2C417.29,518,395.19,518,376.59,518Zm97.3-224.4h51a.91.91,0,0,1,.7.3,1.08,1.08,0,0,1,.3.7v.8c-.4,21.8-.9,49-.9,72.9,0,56.6-19.4,98.1-57.5,123.3-22,14.5-46.8,21.3-68.1,24.3h68.8c69.3,0,120-15.7,150.7-46.6,34.3-34.6,34.1-78.9,34-95.6v-79.1a.94.94,0,0,1,1-1h50.6L589.19,197Z"/><path d="M290.13,321.26c.4-8.6,11-45.5,11-45.5l.2-.3a22.83,22.83,0,0,1,1-10c3.7-11.2,10.7-27,13.2-32.4l.9-1.9c14-28.1,43.6-32.3,43.6-32.3l18.8,1.1s17.4,5.8,24,16.2l25.5,33.5,59.1,16-10.1,30.6-51.7-14.4a42.29,42.29,0,0,1-21-13.6l-4.5-5.5-.6-.7,2.5,48.8Z" fill="#fff"/><path d="M395.63,168.16s3.2.5,5.6.7c4.2.4,6.9,6.8-3.5,9-6.2,1-3.3,11.4-5.9,16.4-1.6,3.1-4,8-15.3,5.3l-.6-.2-.7,7.3s-7.8,2.7-14.6-1.3c-.3-3.5-1-12-1.2-13.4,0,0-8.3,3.7-7.5-4.5.4-3.8,2.9-5.6,7.3-3.7l-1.1-14.9Z" fill="#fff"/><path d="M491.63,495.86s19.7-.1,19.7-8.5-12.7-8.1-17.4-8.1c-25.8,0-31.9,16.7-54.1,16.7C451.93,495.86,491.63,495.86,491.63,495.86Z" fill="#fff"/><path d="M491.63,496.86h-51.9a1,1,0,0,1,0-2c10.4,0,17.2-3.8,24.4-7.7,7.9-4.4,16.1-8.9,29.7-8.9h.5c3.9,0,12,0,15.8,3.8a7.24,7.24,0,0,1,2.1,5.3C512.33,496.66,492.53,496.86,491.63,496.86Zm-39.1-2h39.1c5.2,0,18.7-1.4,18.7-7.5a5.28,5.28,0,0,0-1.5-3.9c-3.2-3.2-10.8-3.2-14.4-3.2h-.5c-13.1,0-21.1,4.4-28.8,8.7A76.42,76.42,0,0,1,452.53,494.86Z"/><path d="M384.33,470l-12.7,25.9h80.9s9.5.1,8.4-4.4c-1.2-4.7-31.4-11.2-45.2-10.6,1.1-6.6,1.3-9.5,1.3-9.5Z" fill="#fff"/><path d="M452.53,496.86h-81a.89.89,0,0,1-.8-.5.91.91,0,0,1,0-1l12.7-25.9a1,1,0,0,1,.9-.6l32.6,1.4a.91.91,0,0,1,.7.3.66.66,0,0,1,.2.7c0,.1-.2,2.6-1.1,8.4h.3c13.1,0,43.3,5.7,44.7,11.4a3.2,3.2,0,0,1-.6,3C459.23,496.76,453.43,496.86,452.53,496.86Zm-79.3-2h79.3c2.2,0,6.1-.5,7.2-1.9a1.23,1.23,0,0,0,.2-1.3c-.9-3.6-29.3-10.5-44.2-9.9a1.14,1.14,0,0,1-.8-.3.78.78,0,0,1-.2-.8c.7-4.3,1-7,1.2-8.4L385,471Z"/><path d="M319.63,470l-12.7,25.9h80.9s9.5.1,8.4-4.4c-1.2-4.7-31.4-11.2-45.2-10.6,1.1-6.6,1.3-9.5,1.3-9.5Z" fill="#fff"/><path d="M387.83,496.86h-81a.89.89,0,0,1-.8-.5.91.91,0,0,1,0-1l12.7-25.9a1,1,0,0,1,.9-.6l32.6,1.4a.91.91,0,0,1,.7.3.66.66,0,0,1,.2.7c0,.1-.2,2.6-1.1,8.4h.3c13.1,0,43.3,5.7,44.7,11.4a3.2,3.2,0,0,1-.6,3C394.53,496.76,388.73,496.86,387.83,496.86Zm-79.3-2h79.3c2.2,0,6.1-.5,7.2-1.9a1.23,1.23,0,0,0,.2-1.3c-.9-3.6-29.3-10.5-44.2-9.9a1.14,1.14,0,0,1-.8-.3.78.78,0,0,1-.2-.8c.7-4.3,1-7,1.2-8.4l-30.9-1.3Z"/><path d="M339.73,311.46h60l41.7,56.1a31.45,31.45,0,0,1,6,21.6l-8.3,85.4h-80.5l29.9-92.9-45-30.5a42.11,42.11,0,0,1-5.4-27.1Z" fill="#0E7490"/><path d="M352.23,169.06l8.2-.2-1.4,14.9.5,12.3s-12.4,2.5-14.1-8.5S352.23,169.06,352.23,169.06Z" fill="#0E7490"/><path d="M375.93,199.36l-.7,7.3s-7.8,2.7-14.6-1.3c-.3-3.5-1-12-1.2-13.4,0,0-8.3,3.7-7.5-4.5.4-3.8,2.9-5.6,7.3-3.7" fill="#fff"/><path d="M369.13,208.56a17.48,17.48,0,0,1-9-2.3,1,1,0,0,1-.5-.8v-.6c-.2-2.9-.7-8.9-1-11.6-1.5.5-4.1.9-5.9-.4-1.4-1-2-2.9-1.8-5.5.2-2.2,1.1-3.9,2.6-4.7,1.1-.6,3-1.1,6.1.2a1,1,0,0,1-.8,1.8c-1.8-.8-3.3-.9-4.3-.3a4.18,4.18,0,0,0-1.6,3.2c-.2,1.9.1,3.1,1,3.7,1.4,1,4.2.2,5.2-.3a1.39,1.39,0,0,1,.9,0,.75.75,0,0,1,.5.7c.2,1.2.7,7,1.2,13h0c5.2,2.8,10.9,1.6,12.7,1.1l.6-6.7a1.09,1.09,0,0,1,1.1-.9,1,1,0,0,1,.9,1.1l-.7,7.3a1.07,1.07,0,0,1-.7.9A17,17,0,0,1,369.13,208.56Z"/><path d="M352.23,169.06l43.4-.9s2.5-22-19.7-21.6S352.23,169.06,352.23,169.06Z" fill="#fff"/><path d="M352.23,170.06a.91.91,0,0,1-.7-.3,1.14,1.14,0,0,1-.3-.8c0-.2,1.7-22.9,24.6-23.4,6.9-.1,12.2,1.8,15.8,5.7,6.1,6.6,5,16.5,5,17a1.06,1.06,0,0,1-1,.9l-43.4.9Zm24.4-22.5h-.7c-18.5.4-21.9,16.1-22.5,20.4l41.3-.9c.1-2.5-.1-9.6-4.5-14.5C387.13,149.26,382.53,147.56,376.63,147.56Z"/><path d="M382.53,201.26a33.19,33.19,0,0,1-10.5-2.1,1,1,0,1,1,.7-1.9c13.9,4.8,16.4.1,18.2-3.4l.1-.2c.9-1.7,1.1-4.3,1.3-6.7.3-4.4.7-9.4,5.3-10.1,4.9-1,6.5-3,6.4-4.5a3.09,3.09,0,0,0-2.8-2.6c-2.4-.2-5.6-.7-5.7-.7a1,1,0,1,1,.3-1.9s3.2.5,5.6.7a5,5,0,0,1,4.6,4.4c.1,1.4-.5,5-8,6.6-2.9.5-3.4,3.5-3.7,8.3-.2,2.7-.4,5.4-1.5,7.5l-.1.2C391.33,197.46,389.33,201.26,382.53,201.26Z"/><path d="M373.63,214.46a1.7,1.7,0,0,1-.7-.1c-10.2-1.7-10.7-41.1-10.7-45.6a.94.94,0,0,1,1-1h0a.94.94,0,0,1,1,1c.1,16.3,2.6,42.5,9.1,43.6,2.6.4,5.6-4.5,7.4-12.3a1,1,0,0,1,1.9.5C381.63,204.76,378.73,214.46,373.63,214.46Z"/><circle cx="381.63" cy="175.66" r="1.4"/><circle cx="387.63" cy="175.36" r="1.4"/><path d="M316.43,232.16a.6.6,0,0,1-.4-.1.88.88,0,0,1-.4-1.3c14.1-28.2,44.1-32.8,44.4-32.8a1,1,0,0,1,.3,1.9c-.3,0-29.3,4.5-42.8,31.7A1.54,1.54,0,0,1,316.43,232.16Z"/><path d="M477.23,297.36h-.3L425.23,283a42.63,42.63,0,0,1-21.5-14l-4.5-5.5a1,1,0,1,1,1.5-1.3l4.5,5.5a39.75,39.75,0,0,0,20.5,13.3l50.8,14.2,9.5-28.7-58.1-15.7a1,1,0,0,1-.5-.4l-25.5-33.5c-6.4-10.1-23.3-15.8-23.5-15.8a1,1,0,0,1,.7-1.9c.7.2,17.8,6,24.5,16.6l25.2,33.2,58.8,15.9c.3.1.5.2.6.5a1.06,1.06,0,0,1,.1.8l-10.1,30.6A1.17,1.17,0,0,1,477.23,297.36Z"/><path d="M477.23,296.36s13.1,6.8,17.5,11.8c4.7,5.3,7.8,2.6,7.8,2.6s2.2-1.8.2-4.8c-2.7-4.1-5.3-8.1-5.3-8.1s35.2,8.5,35.7-1.6c0,0,.5-3.2-4.3-3.7,0,0,4.7-.8,5.1-3.4s-2.9-4.6-5.3-4.6c0,0,3.5-2.6,2-4.9-1.1-1.7-4.8-1.5-4.8-1.5l-15.1.7s9.1-2.5,7.9-6.6c-.8-1.8-2.4-2.5-5.4-1.4s-22.3,4.6-28.3,2.6C484.13,275.56,477.23,296.36,477.23,296.36Z" fill="#fff"/><path d="M500.33,312.46H500q-3-.15-6-3.6c-4.2-4.8-17.1-11.5-17.2-11.6a1.08,1.08,0,0,1-.5-1.2l7.6-22.9a1,1,0,0,1,.5-.6,2,2,0,0,1,.8-.1c5.6,1.9,24.7-1.5,27.6-2.6,4.1-1.6,5.9.2,6.7,1.9v.1a3.47,3.47,0,0,1-.3,2.8,8.67,8.67,0,0,1-2.9,2.8l9.5-.5c.4,0,4.3-.1,5.7,2,1.1,1.7.3,3.4-.8,4.8a7.24,7.24,0,0,1,3.1,2,4,4,0,0,1,1.1,3.4,4.66,4.66,0,0,1-2.8,3.3,4.73,4.73,0,0,1,1.3,1.1,4.1,4.1,0,0,1,.8,2.7,4.75,4.75,0,0,1-2,3.6c-6.1,4.5-25.6.9-32.5-.6,1,1.6,2.5,3.8,4,6.1,2,2.9.6,5.3-.4,6.1A5,5,0,0,1,500.33,312.46Zm-21.9-16.6c2.9,1.6,13.1,7.2,17,11.7s6.3,2.6,6.4,2.5c.3-.2,1.4-1.4,0-3.4-2.7-4-5.3-8.1-5.3-8.2a1.08,1.08,0,0,1,0-1.1,1,1,0,0,1,1-.4c7.4,1.8,27.8,5.5,33.2,1.5a2.63,2.63,0,0,0,1.2-2.2v-.1a1.8,1.8,0,0,0-.4-1.3c-.5-.7-1.6-1.1-3.1-1.3a1.06,1.06,0,0,1-.9-1,1,1,0,0,1,.8-1c1-.2,4-1,4.2-2.6a2.2,2.2,0,0,0-.6-1.8,5.16,5.16,0,0,0-3.7-1.7,1,1,0,0,1-.9-.7,1.07,1.07,0,0,1,.3-1.1s2.7-2.1,1.8-3.5c-.6-.9-2.9-1.1-3.9-1.1l-15.1.7a.91.91,0,0,1-1-.8.92.92,0,0,1,.7-1.1c1.6-.4,5.9-2,7-4a1.72,1.72,0,0,0,.2-1.2c-.3-.7-1-2-4.1-.8s-20.9,4.4-28,2.9Z"/><path d="M528.83,292.46s-15.3,1.9-22.7-.9" fill="#fff"/><path d="M518.13,294.06c-4.3,0-9.1-.4-12.4-1.6a1,1,0,0,1,.7-1.9c7.1,2.6,22.1.9,22.2.9a.94.94,0,0,1,1.1.9,1,1,0,0,1-.9,1.1C528.53,293.46,523.63,294.06,518.13,294.06Z"/><path d="M528.53,284.36s-14.1,2.4-20.2.8" fill="#fff"/><path d="M514,286.76a25.52,25.52,0,0,1-5.9-.6,1,1,0,0,1,.5-1.9c5.8,1.5,19.6-.8,19.8-.9a1,1,0,1,1,.4,2A101,101,0,0,1,514,286.76Z"/><path d="M401.63,305.16a1,1,0,0,1-1-.9l-3.1-60.8a.92.92,0,0,1,.9-1,1,1,0,0,1,1,.9l3.1,60.8a.86.86,0,0,1-.9,1Z"/><path d="M290.33,322.26h0a1,1,0,0,1-1-1c.4-8.6,10.6-44.3,11-45.8a1,1,0,0,1,1.9.5c-.1.4-10.6,37-10.9,45.3A1.08,1.08,0,0,1,290.33,322.26Z"/><path d="M298.23,311.46h60l38.8,52.3a31.07,31.07,0,0,1,4.3,29.3l-29.5,81.5h-80.5l55.7-92.9-38.7-26.1a26.42,26.42,0,0,1-10.9-15.5,43,43,0,0,1-.9-16Z" fill="#0E7490"/><path d="M371.83,475.56a.37.37,0,0,1-.3-.1,1,1,0,0,1-.6-1.3l29.5-81.5a30.14,30.14,0,0,0-4.2-28.4L377,338.46a1,1,0,1,1,1.6-1.2l19.2,25.8a32,32,0,0,1,4.4,30.2l-29.5,81.5A1,1,0,0,1,371.83,475.56Z"/><path d="M359.73,390.86a.76.76,0,0,1-.5-.2l-23.5-15.5a1,1,0,1,1,1.1-1.7l23.5,15.5a1,1,0,0,1,.3,1.4A.87.87,0,0,1,359.73,390.86Z"/><path d="M482.53,496.86H268.83a1,1,0,0,1,0-2h213.7a.94.94,0,0,1,1,1A1,1,0,0,1,482.53,496.86Z"/><path d="M316.43,231.16s-9.5,20.6-14,34.2a22.88,22.88,0,0,0,10.7,27.1c22,12,57.7,30.4,57.7,30.4l13.3-29.7-49.2-20.7" fill="#fff"/><path d="M370.83,323.86a.9.9,0,0,1-.5-.1c-.4-.2-35.9-18.5-57.7-30.4a24,24,0,0,1-11.2-28.3c4.4-13.5,14-34.1,14.1-34.3a1,1,0,0,1,1.8.8c-.1.2-9.6,20.7-14,34.1a21.71,21.71,0,0,0,10.2,25.9c19.8,10.8,50.9,26.9,56.7,29.9l12.4-27.8-48.3-20.3a1,1,0,0,1,.8-1.8l49.2,20.7a1,1,0,0,1,.5.6,1.1,1.1,0,0,1,0,.8l-13.3,29.7c-.1.3-.3.4-.6.5Z"/><path d="M381.63,298.56s16.4,6.3,22.4,5.7,9.2.2,9.5,2.4c.4,3.2-3.9,5.5-10,4.5a64.1,64.1,0,0,0,25.3,9.1c2.6.2,6.4.6,6.7,2.8.3,2.6-1.4,4.5-6.2,3.8,0,0,4.2,2.4,3.5,5.6-.4,1.9-3.2,3.1-6.2,2.2,2,1.4,3,3,1.5,5.1-1.8,2.5-6.4.7-6.4.7s-15.9-5.5-20.1-8.7a48.26,48.26,0,0,0,9.4,7.3c2.3,1.3,3.2,2.7,2,4.9s-3.3,1.3-5.5.2c-3.3-1.7-35.3-24.3-35.3-24.3Z" fill="#fff"/><path d="M410.93,346.26A9.47,9.47,0,0,1,407,345c-3.3-1.7-34.1-23.5-35.4-24.4a1,1,0,0,1-.3-1.2l9.4-21.2a1,1,0,0,1,1.3-.5c.2.1,16.2,6.2,21.9,5.6,6.7-.7,10.2.4,10.6,3.3a4.19,4.19,0,0,1-1.4,3.7,9.15,9.15,0,0,1-5.5,2.1,65.07,65.07,0,0,0,21.4,6.9c2.6.2,7.1.6,7.5,3.7a4.27,4.27,0,0,1-1.1,3.7,5.31,5.31,0,0,1-3.2,1.4,5.3,5.3,0,0,1,1.6,4.7,3.9,3.9,0,0,1-1.9,2.5,7.73,7.73,0,0,1-2.7.8,3.8,3.8,0,0,1-.4,4.4c-2.2,3.1-7.3,1.1-7.6,1s-6.3-2.2-11.8-4.5c.7.4,1.3.8,1.9,1.2,1.9,1.1,4.2,2.9,2.4,6.2A2.91,2.91,0,0,1,410.93,346.26Zm-37.5-26.9c4.6,3.3,31.6,22.3,34.5,23.8s3.6,1.3,4.2.2c.7-1.3.7-2.2-1.6-3.6a49.71,49.71,0,0,1-9.6-7.4,1,1,0,0,1,1.4-1.5c4,3.1,19.6,8.5,19.8,8.6s4,1.5,5.2-.3c.9-1.2.9-2.2-1.2-3.8a1.06,1.06,0,0,1-.3-1.3,1,1,0,0,1,1.2-.5,5.38,5.38,0,0,0,4-.2,2,2,0,0,0,1-1.2c.5-2.4-3-4.5-3.1-4.5a.93.93,0,0,1-.4-1.2,1.08,1.08,0,0,1,1.1-.7c2.1.3,3.7.1,4.5-.7a2,2,0,0,0,.5-2c-.2-1.5-4-1.8-5.8-2a66.61,66.61,0,0,1-25.8-9.3,1.15,1.15,0,0,1-.4-1.2,1,1,0,0,1,1.1-.6c3.3.6,6.5,0,8-1.4a2.37,2.37,0,0,0,.8-2c-.1-1.2-2.4-2.2-8.4-1.5-5.5.6-18.4-4.1-22-5.4Z"/><path d="M429.43,327.86h-.2c-.5-.1-12.7-2-19.9-5.2a1,1,0,0,1,.8-1.8c7,3,19.3,5,19.5,5a1,1,0,0,1,.8,1.1A1.06,1.06,0,0,1,429.43,327.86Z"/><path d="M426.73,335.56h-.3c-.7-.2-16.4-5.2-21.2-8.1a1,1,0,1,1,1.1-1.7c4.7,2.8,20.6,7.9,20.8,7.9a1.15,1.15,0,0,1,.7,1.3A1.38,1.38,0,0,1,426.73,335.56Z"/><path d="M262.93,495.86s-19.7-.1-19.7-8.5,12.7-8.1,17.4-8.1c25.8,0,31.9,16.7,54.1,16.7C302.73,495.86,262.93,495.86,262.93,495.86Z" fill="#fff"/><path d="M314.83,496.86h-51.9c-.8,0-20.7-.2-20.7-9.5a7.24,7.24,0,0,1,2.1-5.3c3.8-3.8,11.9-3.8,15.8-3.8h.5c13.6,0,21.8,4.5,29.7,8.9,7.2,4,14,7.7,24.4,7.7a.94.94,0,0,1,1,1A.92.92,0,0,1,314.83,496.86Zm-51.9-2H302a70.36,70.36,0,0,1-12.7-6c-7.7-4.3-15.6-8.7-28.8-8.7H260c-3.6,0-11.1,0-14.4,3.2a5.28,5.28,0,0,0-1.5,3.9c.1,6.2,13.6,7.6,18.8,7.6Z"/><circle cx="332.53" cy="508.46" r="7.9" fill="#fff"/><path d="M332.53,517.36a8.9,8.9,0,1,1,8.9-8.9A8.92,8.92,0,0,1,332.53,517.36Zm0-15.8a6.9,6.9,0,1,0,6.9,6.9A6.91,6.91,0,0,0,332.53,501.56Z"/><circle cx="433.33" cy="508.46" r="7.9" fill="#fff"/><path d="M433.33,517.36a8.9,8.9,0,1,1,8.9-8.9A8.92,8.92,0,0,1,433.33,517.36Zm0-15.8a6.9,6.9,0,1,0,6.9,6.9A6.91,6.91,0,0,0,433.33,501.56Z"/><path d="M295,297.36h-17.6a1,1,0,1,1,0-2H295a1,1,0,0,1,0,2Z"/><path d="M259.43,312.46h-10.3a1,1,0,1,1,0-2h10.3a1,1,0,0,1,0,2Z"/><path d="M312.53,312.46h-46.8a1,1,0,0,1,0-2h46.8a1,1,0,0,1,0,2Z"/><path d="M505.34,518.15H197a1,1,0,1,1,0-2h308.4a.94.94,0,0,1,1,1A1,1,0,0,1,505.34,518.15Z"/><polygon points="482.99 172.25 482.54 181.13 489.77 187.08 480.88 189.55 477.55 198.24 472.43 190.41 462.97 189.84 469 182.73 466.74 173.78 475.65 176.96 482.99 172.25" fill="#fff"/><circle cx="254.44" cy="248.05" r="9.28" transform="translate(-40.5 446.23) rotate(-78.17)" fill="#0E7490"/><circle cx="481.44" cy="373.05" r="6.27" transform="translate(17.62 767.78) rotate(-78.17)" fill="#0E7490"/><path d="M477.21,199.38a.94.94,0,0,1-.62-.44l-4.75-7.65-9-.37a.93.93,0,0,1-.88-.59,1.35,1.35,0,0,1,.12-1.08l5.78-6.86-2.42-8.68a1.09,1.09,0,0,1,.32-1,.94.94,0,0,1,1-.19l8.38,3.37,7.5-5a.77.77,0,0,1,1,0,.94.94,0,0,1,.52.91l-.66,8.94,7,5.6a1.14,1.14,0,0,1,.4,1,1,1,0,0,1-.76.75l-8.74,2.21-3.17,8.41a1,1,0,0,1-.84.63C477.4,199.42,477.31,199.4,477.21,199.38Zm-4.58-9.94a.91.91,0,0,1,.62.43l4,6.39,2.67-7a.86.86,0,0,1,.73-.55l7.33-1.79-5.88-4.66a.79.79,0,0,1-.32-.88l.57-7.54L476.05,178a1.4,1.4,0,0,1-.93.11l-7-2.77,2,7.27a.94.94,0,0,1-.18.87l-4.84,5.75,7.49.36C472.44,189.4,472.54,189.42,472.63,189.44Z"/></g></svg>