<svg xmlns="http://www.w3.org/2000/svg" viewBox="0 0 841.9 595.3"><g id="Layer_28" data-name="Layer 28"><path d="M570.65,408.22H402.26a5.69,5.69,0,0,1-5.7-5.71h0a5.68,5.68,0,0,1,5.7-5.7H570.65a5.69,5.69,0,0,1,5.71,5.7h0A5.75,5.75,0,0,1,570.65,408.22Z" fill="#fff"/><path d="M570.65,409.11H402.26a6.6,6.6,0,0,1,0-13.19H570.65a6.6,6.6,0,1,1,0,13.19ZM402.26,397.79a4.82,4.82,0,0,0,0,9.63H570.65a4.82,4.82,0,1,0,0-9.63Z"/><path d="M474.74,504.58H403.69a.82.82,0,0,1-.71-.35.92.92,0,0,1-.18-.81L428.92,408a.89.89,0,0,1,.89-.62h71.05a.83.83,0,0,1,.71.35.92.92,0,0,1,.18.81L475.63,504A1.09,1.09,0,0,1,474.74,504.58Zm-69.89-1.78H474l25.68-93.69H430.52Z"/><path d="M495.77,427.65H424.82a.89.89,0,1,1,0-1.78h70.95a.85.85,0,0,1,.9.89A.89.89,0,0,1,495.77,427.65Z"/><path d="M490.43,447.09h-71a.9.9,0,0,1,0-1.79h71a.9.9,0,0,1,0,1.79Z"/><path d="M485.17,466.52h-71a.89.89,0,1,1,0-1.78h71a.84.84,0,0,1,.89.89A.9.9,0,0,1,485.17,466.52Z"/><path d="M479.82,486h-71a.89.89,0,0,1,0-1.78h71a.84.84,0,0,1,.89.89A.9.9,0,0,1,479.82,486Z"/><path d="M569.23,504.58H498.18a1,1,0,0,1-.89-.62l-11.68-42.79a.88.88,0,0,1,1.7-.45l11.5,42.17H568l-25.85-94.31a.87.87,0,0,1,1.69-.45l26.12,95.47a.89.89,0,0,1-.18.8C569.58,504.67,569.49,504.58,569.23,504.58Z"/><path d="M506.77,379.72l18.3-12.3s7.12,17.7,22.12,20.7,14.35,9.19,7.18,9.6-27.51-.65-27.51-.65L516,392.62Z" fill="#fff"/><path d="M468.17,281.22s12.7.5,19.4,10.2,43,72.4,43,72.4l-26.7,17.6-9.3-24-64.2-2.4,4.9-27.1.5-2.6-12.58,21.8c-11,8-17,6-24-5l-21-37,22-8,14,22s16.58-25.5,25.78-30.2a64.54,64.54,0,0,1,16.1-6.1Z" fill="#fff"/><path d="M440.07,232.42h0a1,1,0,0,1-1-1.1l.4-6.6c0-.1,1.2-10.9,18.3-10.9a1,1,0,0,1,0,2c-15.3,0-16.3,9-16.3,9.1l-.4,6.6A.92.92,0,0,1,440.07,232.42Z"/><path d="M376.57,479.32l-3.7,9.7s-36.7,3.7-39.5,8.8,1.7,6.5,7.5,6.5h65.5l.5-26Z" fill="#fff"/><path d="M406.37,505.32h-65.5c-4.8,0-7.7-.9-8.8-2.8-.8-1.4-.7-3.1.4-5.1,2.7-5.2,32.2-8.5,39.6-9.3l3.5-9.1a.87.87,0,0,1,.9-.6l30.3-1a.91.91,0,0,1,.7.3,1.08,1.08,0,0,1,.3.7l-.5,26C407.37,504.92,406.87,505.32,406.37,505.32Zm-29.1-25-3.5,9.1a.84.84,0,0,1-.8.6c-14,1.4-36.9,4.9-38.7,8.3-.7,1.4-.9,2.4-.5,3.2s1.9,1.8,7.1,1.8h64.5l.5-24Zm-4.4,8.7Z"/><path d="M432.35,238.45s-9.9-.4-9.9,4.8c0,3.5,7,5.5,9.3,7.2s1.1,14.7,7.1,21c3,3.1,9.2,5.2,15.3,4l.5-.1,1.4,7.2s6.1,3.1,10.7.9c.4-4.9,1.3-20.8,1.3-20.8s6.5,2.6,8-3.3-4.3-9.1-8.7-6.2l1.7-16.5-34.7-.6Z" fill="#fff"/><path d="M467.25,253.35l-.6-15.9-32.5-1.3s-12.1-15,5.9-19.1c5.4-1,7.7,5.4,7.7,5.4s8.9-9.8,21-5.2,10.1,16.8,10.1,16.8,8.8,2.6,7.9,10-5.9,10.2-5.9,10.2,8.9,6,3.5,13.2-16.8,1.3-16.8,1.3l.3-5.9s3.7,1.3,5.6,0a6.26,6.26,0,0,0,2.4-4,5.9,5.9,0,0,0-1.8-5.6C471,250.85,467.25,253.35,467.25,253.35Z" fill="#0E7490"/><path d="M450.65,277a20.06,20.06,0,0,0,7.5-1.5,1,1,0,0,0-.8-1.8c-6.7,2.9-14.4.8-17.7-2.7-3.5-3.7-4.4-9.9-5.1-14.5-.5-3.5-.9-5.8-2.1-6.7a16,16,0,0,0-3-1.7c-2.4-1.2-5.8-2.9-5.8-4.7a2.56,2.56,0,0,1,.8-1.9c1.9-1.8,6.4-2,8-1.9a1,1,0,0,0,1-1,.94.94,0,0,0-1-1c-.3,0-6.6-.3-9.5,2.5a4.18,4.18,0,0,0-1.4,3.3c0,3.1,3.8,5,6.9,6.5a20.21,20.21,0,0,1,2.7,1.5c.6.4,1,3.2,1.3,5.4.7,4.8,1.8,11.4,5.7,15.5C440.75,275.05,445.55,277,450.65,277Z"/><circle cx="447.85" cy="243.15" r="1.5"/><circle cx="441.55" cy="242.65" r="1.5"/><path d="M462.85,285.45a11.06,11.06,0,0,0,4.3-.9,1,1,0,0,0,.5-.8c.3-4,1-15.7,1.2-19.5a7.7,7.7,0,0,0,5.1-.4,5.58,5.58,0,0,0,2.9-4c.7-3-.1-5.7-2.4-7.3a6.93,6.93,0,0,0-7.9.1,1,1,0,1,0,1.1,1.7,5,5,0,0,1,5.6-.1,4.82,4.82,0,0,1,1.6,5.2,3.7,3.7,0,0,1-1.9,2.7c-2,1-4.7-.1-4.8-.1a1,1,0,0,0-.9.1,1.37,1.37,0,0,0-.5.8c0,.2-.8,14.8-1.2,20.2-3.3,1.3-7.5-.3-8.8-.9l-1.3-6.7a1,1,0,1,0-2,.4l1.4,7.2a1.28,1.28,0,0,0,.5.7C455.75,283.75,459.15,285.45,462.85,285.45Z"/><path d="M412.17,479.32l.2,9.7s-40.7,3.7-43.4,8.8,1.7,6.5,7.5,6.5h73.3l-7.3-26Z" fill="#fff"/><path d="M449.77,505.32h-73.3c-4.8,0-7.7-.9-8.8-2.8-.8-1.4-.7-3.1.4-5.1,2.7-5.1,34.7-8.5,43.3-9.3l-.2-8.8a1,1,0,0,1,1-1l30.3-1a1,1,0,0,1,1,.7l7.3,26a1,1,0,0,1-.2.9A.91.91,0,0,1,449.77,505.32Zm-36.6-25,.2,8.7a1,1,0,0,1-.9,1c-16.7,1.5-40.9,5.1-42.6,8.3-.7,1.4-.9,2.4-.5,3.2s1.9,1.8,7.1,1.8h72l-6.8-24Z"/><path d="M554.37,397.72h-7.2a.91.91,0,0,1-.8-.4.78.78,0,0,1-.2-.8l1.4-7.3a1,1,0,0,1,.9-.8c1.1-.1,10.5-.5,11.8,4.1a4,4,0,0,1-.4,3.6C558.77,397.52,556.57,397.72,554.37,397.72Zm-6-2h6c.8,0,3.3,0,3.9-.8.3-.3.3-1,0-1.8-.6-2.4-6.2-2.7-9-2.7Z"/><path d="M475.57,248.92a1,1,0,0,1-1-1l-.5-23.1c0-.3-1.1-9-16.3-9a1,1,0,0,1,0-2c17.1,0,18.3,10.8,18.3,10.9l.5,23.2a1,1,0,0,1-1,1Z"/><path d="M481.07,254.62c0,5.3-1.5,9.6-5.9,9.6s-7.9-.8-7.9-9.6,3.5-9.6,7.9-9.6S481.07,249.32,481.07,254.62Z" fill="#fff"/><path d="M475.27,265.22c-5.5,0-8.9-1.8-8.9-10.6s3.4-10.6,8.9-10.6c2.6,0,6.9,1.4,6.9,10.6S477.77,265.22,475.27,265.22Zm0-19.2c-4,0-6.9.6-6.9,8.6s2.8,8.6,6.9,8.6,4.9-4.7,4.9-8.6S479.27,246,475.27,246Z"/><path d="M474.27,265.12H474c-.6-.2-3.8-1.6-3.8-10.8,0-9.5,3.3-10,4-10.1a1,1,0,0,1,1,1,1,1,0,0,1-.9,1c-.1,0-2.1.9-2.1,8.1,0,7.8,2.3,8.9,2.4,8.9a1.09,1.09,0,0,1,.7,1.2A1.2,1.2,0,0,1,474.27,265.12Z"/><path d="M430.47,356.12h-.2a1,1,0,0,1-.8-1.2l6.5-35.5a1,1,0,0,1,2,.4l-6.5,35.5A1.19,1.19,0,0,1,430.47,356.12Z"/><path d="M438,315h-.2a1,1,0,0,1-.8-1.2l1.6-8.7a1,1,0,0,1,2,.4l-1.6,8.7A1.05,1.05,0,0,1,438,315Z"/><path d="M543,396.72h6.1s4.6-.5,4.6-3.9c0,0,.7-3.6-5.6-3.8s-14.4-3.4-14.4-3.4" fill="#fff"/><path d="M549.07,397.72H543a1,1,0,0,1,0-2h6c.5-.1,3.7-.6,3.7-2.9v-.2a1.6,1.6,0,0,0-.4-1.2c-.5-.6-1.6-1.3-4.3-1.3-6.5-.2-14.4-3.3-14.7-3.5a1,1,0,0,1,.7-1.9c.1,0,7.9,3.1,14,3.3,2.8.1,4.8.8,5.8,2.1a3.88,3.88,0,0,1,.8,2.7c-.1,3.4-3.6,4.6-5.5,4.9Z"/><path d="M544.67,389.72a.9.9,0,0,1-.5-.1c-12.2-6.9-18.8-21.5-19.1-22.2a1,1,0,0,1,1.8-.8c.1.1,6.6,14.6,18.2,21.2a1.11,1.11,0,0,1,.4,1.4A1,1,0,0,1,544.67,389.72Z"/><path d="M506.77,379.72l1.7,3.9a9.71,9.71,0,0,1-.9,9.2c-3,4.6-5.7,9.6-2.9,10.9,2.5,1.1,8.5-4.9,9.4-6.7a12.32,12.32,0,0,0,1.3-4s2.9,3.7,7.3,3.7h20.2a2.54,2.54,0,0,0,2.3-2.9c-.2-2.7-3.4-2.9-7.7-3.3s-7.7-.4-11.1-3.6" fill="#fff"/><path d="M505.37,404.82a4.25,4.25,0,0,1-1.1-.2,3.2,3.2,0,0,1-1.7-1.9c-.7-2.5,1.5-6.5,4.1-10.5a8.23,8.23,0,0,0,.8-8.2l-1.8-3.9a1,1,0,0,1,1.8-.8l1.7,3.9a10.64,10.64,0,0,1-1,10.2c-1.1,1.7-4.4,6.9-3.9,8.9a.74.74,0,0,0,.6.6c1.5.7,7-4.2,8.2-6.2a10.84,10.84,0,0,0,1.2-3.7,1,1,0,0,1,.7-.8.82.82,0,0,1,1,.4s2.6,3.3,6.5,3.3h20.2c.4,0,1.4-.3,1.3-1.9s-1.9-1.9-6.4-2.3l-1.5-.1c-3.9-.3-7.2-.6-10.6-3.7a1,1,0,1,1,1.3-1.5c2.9,2.7,5.6,2.9,9.4,3.2l1.5.1c4.3.4,8,.7,8.2,4.2a3.6,3.6,0,0,1-3.3,4h-20.3a10.67,10.67,0,0,1-6.8-2.7,8.72,8.72,0,0,1-1,2.5C514.27,398.92,509,404.82,505.37,404.82Z"/><path d="M416.77,364.22l-15.1-1.6a21.88,21.88,0,0,0-22.9,14.6l-20.3,103.4,42.1,4Z" fill="#0E7490"/><path d="M494.57,357.52l-71-3a19.82,19.82,0,0,0-20.5,17.6l-2.6,112.5,56-1.6L442,396.72h34.5A21.51,21.51,0,0,0,498,375v-8.7Z" fill="#0E7490"/><path d="M400.67,485.62h0a1,1,0,0,1-1-1.1l2.6-112.5a20.46,20.46,0,0,1,7.6-13.9,1,1,0,1,1,1.3,1.5,18.28,18.28,0,0,0-6.8,12.6l-2.6,112.5A1.27,1.27,0,0,1,400.67,485.62Z"/><path d="M504,382.52h-.3a.9.9,0,0,1-.6-.6L480.17,323a1,1,0,0,1,1.9-.7l22.4,57.7,24.9-16.4c-4.3-7.4-36.3-62.5-42.5-71.5-6.3-9.2-18.5-9.8-18.7-9.8a1,1,0,0,1,0-2c.5,0,13.3.6,20.2,10.7,6.6,9.7,42.7,71.8,43.1,72.5a1,1,0,0,1-.3,1.3l-26.7,17.6A.75.75,0,0,1,504,382.52Z"/><path d="M483.07,397.72h-48.4a1,1,0,0,1,0-2h48.4a.94.94,0,0,1,1,1A1,1,0,0,1,483.07,397.72Z"/><path d="M486.87,372.32a.91.91,0,0,1-.7-.3,1,1,0,0,1,0-1.4s3.8-4,.5-15.3c-1.5-5-5.3-10.8-9.1-16.4-5.3-8-10.3-15.6-9.4-21.6.7-4.9,2.7-8,4.6-11,2-3.2,4.1-6.4,4.9-12.1,1.5-11-2.3-29.6-2.3-29.7a1,1,0,1,1,1.9-.7c.2.4,3.9,19.1,2.4,30.6-.8,6.2-3,9.6-5.2,13a23.86,23.86,0,0,0-4.3,10.2c-.8,5.3,4.3,12.9,9.1,20.2,3.8,5.7,7.7,11.7,9.3,17,3.7,12.5-.8,17.1-1,17.3A1.85,1.85,0,0,1,486.87,372.32Z"/><path d="M492.17,377.42a.6.6,0,0,1-.4-.1c-9.9-4.5-9.7-15.4-9.7-15.6a1,1,0,0,1,2,0c0,.4-.1,9.8,8.6,13.7a1,1,0,0,1,.5,1.3A1.2,1.2,0,0,1,492.17,377.42Z"/><path d="M374.9,275.89c2-1.93-1.83-11.61-2.28-13.11s-3.15-3.29-4.63-1.24.08,16,.08,16C369.91,278.62,373,278,374.9,275.89Z" fill="#fff"/><path d="M367.5,278.6a1.87,1.87,0,0,1-.55-.91c-.3-3.36-1.46-14.55.21-16.76a3.08,3.08,0,0,1,3.25-1.31,4.44,4.44,0,0,1,3.41,2.89,7,7,0,0,0,.4,1.28c2.29,6.58,3.36,11.27,1.58,13a8.83,8.83,0,0,1-4,2.16A6.56,6.56,0,0,1,367.5,278.6ZM369,262.35c-.67,1.07-.4,8.33.22,14.6a5.6,5.6,0,0,0,5-1.59c.47-.45.7-2.45-2.09-10.75-.15-.65-.38-1.17-.43-1.39a2.72,2.72,0,0,0-1.68-1.33.61.61,0,0,0-.46,0A1,1,0,0,0,369,262.35Z"/><polygon points="364.24 251.06 390.7 245.06 406.11 287.82 379.65 293.82 364.24 251.06" fill="#d7d7d7"/><circle cx="385.98" cy="252.54" r="1.45" transform="translate(-46.26 91.53) rotate(-12.77)"/><path d="M397.43,343.48l-22-38.41a1.44,1.44,0,0,1-.12-1,1,1,0,0,1,.67-.61l24.63-8A1,1,0,0,1,402,296l12.67,23.57,12.8-21.33a30.78,30.78,0,0,1,19.38-14l7-1.58a1.12,1.12,0,0,1,.49,2.18l-7,1.58a28.11,28.11,0,0,0-18,13l-13.78,23a1.17,1.17,0,0,1-1,.58,1.36,1.36,0,0,1-.93-.59L400.5,297.91,378,305.18l21.28,37.31a1.22,1.22,0,0,1-.47,1.48l-.33.08C397.93,344.17,397.42,343.94,397.43,343.48Z"/><path d="M396.3,298.06c-2.19-4.08-7.8-6.13-7.8-6.13s.11,0,4.87.27,4.22-2.56,4.22-2.56-.14-3.17-5.53-3.21c2-.91,4.29-1.78,4-3.76-.49-2.64-5.24-1.9-5.24-1.9s3.61-.71,3.11-3.46c-.5-2.17-5.62-2-5.62-2s3.59-.82,2.37-4.2c-1.54-3.78-14.3-1.46-19.71,1.94-.3.18-.49.34-.8.53-4.87,3.73-.46,14.64,4.27,18.83A26,26,0,0,1,381.05,303S393.51,298.92,396.3,298.06Z" fill="#fff"/><path d="M380.29,304.21a1,1,0,0,1-.5-.69c0-.11-1.87-6.22-6.3-10.14-3.43-3-6.89-9.66-6.72-15a6.7,6.7,0,0,1,2.54-5.5,4.13,4.13,0,0,1,.88-.66c4.72-2.9,14.2-5,18.77-3.56a4,4,0,0,1,2.55,2.17,3.9,3.9,0,0,1-.13,3.46.41.41,0,0,1-.06.24c1.56.34,3.2,1,3.57,2.63a4.22,4.22,0,0,1-.52,2.75h0a3.31,3.31,0,0,1,2.67,2.71c.35,1.53-.46,2.51-1.53,3.33a4.78,4.78,0,0,1,3.22,3.62,2.78,2.78,0,0,1-.7,2.45q-1.38,1.51-4.5,1.36a14.26,14.26,0,0,1,3.81,4.18.83.83,0,0,1,.08.89.91.91,0,0,1-.66.61l-15.47,5h0A7.71,7.71,0,0,0,380.29,304.21Zm8-11.31a1.1,1.1,0,0,1-.76-1.32,1.23,1.23,0,0,1,1.19-.84l4.86.27a3.74,3.74,0,0,0,2.86-.53.71.71,0,0,0,.2-.62l0-.11c.08-.13-.28-2.23-4.39-2.21a1.15,1.15,0,0,1-.5-2.18l.3-.18c1.78-.75,3-1.37,2.9-2.37-.19-1.33-3.14-1.24-3.9-1.06a1.11,1.11,0,0,1-1.23-.87,1,1,0,0,1,.87-1.23,3.69,3.69,0,0,0,2-1.15,1.07,1.07,0,0,0,.13-.94c-.18-.76-2.58-1.25-4.5-1.16a1.19,1.19,0,0,1-1.14-1,1.17,1.17,0,0,1,.86-1.22,2.67,2.67,0,0,0,1.6-1.05,1.76,1.76,0,0,0,0-1.6,2,2,0,0,0-1.23-.87c-3.58-1.13-12.34.62-16.87,3.37-.19.15-.49.34-.68.5a5,5,0,0,0-1.66,3.81c-.24,4.51,3,10.54,6,13.18a25.91,25.91,0,0,1,6.63,10.06l13-4.2C392.5,294.46,388.26,292.9,388.26,292.9Z"/><path d="M379.09,277.69a1.15,1.15,0,0,1,.46-1.48c1.24-.62,6.84-1.66,8.61-1.95a1.06,1.06,0,0,1,.36,2.09c-3.29.64-7.35,1.44-7.95,1.81l-.33.07A1.07,1.07,0,0,1,379.09,277.69Z"/><path d="M391.13,281.83c-.11,0-7.2,1.06-9,1.59a1.12,1.12,0,1,1-.71-2.13c2.16-.6,9-1.59,9.36-1.66a1.21,1.21,0,0,1,1.25,1,1.1,1.1,0,0,1-.87,1.23Z"/><path d="M392.28,287.41c-1.95,0-7.42.08-9.26,1.07a1.1,1.1,0,0,1-1-2c2.55-1.38,9.43-1.33,10.24-1.29a1.16,1.16,0,0,1,1.06,1.13,1.09,1.09,0,0,1-.9,1.12C392.31,287.52,392.2,287.54,392.28,287.41Z"/><rect x="258" y="322.23" width="88.2" height="51.1" fill="#fff"/><path d="M346.2,374.33H258a.94.94,0,0,1-1-1v-51.1a.94.94,0,0,1,1-1h88.2a.94.94,0,0,1,1,1v51.1A1,1,0,0,1,346.2,374.33Zm-87.2-2h86.2v-49.1H259v49.1Z"/><rect x="258" y="271.13" width="88.2" height="51.1" fill="#cbcbca"/><path d="M352.6,323.23h-101a1,1,0,0,1,0-2h101a.94.94,0,0,1,1,1A1,1,0,0,1,352.6,323.23Z"/><path d="M331.1,310.33H273.2a1,1,0,0,1,0-2h57.9a.94.94,0,0,1,1,1A1,1,0,0,1,331.1,310.33Z"/><path d="M331.1,285H273.2a1,1,0,0,1,0-2h57.9a.94.94,0,0,1,1,1A1,1,0,0,1,331.1,285Z"/><path d="M273.2,304a.76.76,0,0,1-.4-.1,1,1,0,0,1-.6-1.3c.1-.3,2.5-6.2,8.3-6.2a10.36,10.36,0,0,1,6.9,3,4.41,4.41,0,0,0,5.9,0l.9-.9c1.6-1.7,3.8-3.9,6.7-3.9a10.52,10.52,0,0,1,4.8,1.3,6.52,6.52,0,0,0,2.9.9c1.1,0,2.2-1.6,3.2-3.2,1.3-2.1,2.7-4.2,5-4.2,2.1,0,2.8,1.9,3.5,3.4.8,2,1.4,3.2,3.2,3.2,7.7,0,8.5,4.6,8.5,6.5a1,1,0,0,1-2,0c0-3-2.3-4.5-6.5-4.5-3.2,0-4.2-2.5-5-4.4-.6-1.5-1-2.2-1.6-2.2-1.2,0-2.2,1.7-3.3,3.3-1.3,2-2.7,4.1-4.9,4.1a9.29,9.29,0,0,1-3.8-1,8.17,8.17,0,0,0-4-1.1c-2.1,0-3.9,1.8-5.3,3.3a7.64,7.64,0,0,1-.9.9,6.27,6.27,0,0,1-8.5,0c-1.1-.9-3-2.5-5.6-2.5-4.5,0-6.5,4.8-6.5,4.9A1.07,1.07,0,0,1,273.2,304Z"/><circle cx="278.2" cy="343.43" r="12.4" fill="#0E7490"/><path d="M275,349.53a.9.9,0,0,1-.5-.1,1.05,1.05,0,0,1-.5-.9v-10.3a1.05,1.05,0,0,1,.5-.9.91.91,0,0,1,1,0l8.6,5.2a1.06,1.06,0,0,1,0,1.8l-8.6,5.2Zm1-9.5v6.8l5.6-3.4Z"/><path d="M337.7,341.73H297.6a1,1,0,0,1,0-2h40.1a.94.94,0,0,1,1,1A1,1,0,0,1,337.7,341.73Z"/><path d="M300.5,355.93h-.6a3.33,3.33,0,0,1-3.3-3.3V349a3.33,3.33,0,0,1,3.3-3.3h.6a3.33,3.33,0,0,1,3.3,3.3v3.6A3.33,3.33,0,0,1,300.5,355.93Zm-.6-8.3a1.32,1.32,0,0,0-1.3,1.3v3.6a1.32,1.32,0,0,0,1.3,1.3h.6a1.32,1.32,0,0,0,1.3-1.3v-3.6a1.32,1.32,0,0,0-1.3-1.3Z"/><path d="M309.4,355.93h-.6a3.33,3.33,0,0,1-3.3-3.3V349a3.33,3.33,0,0,1,3.3-3.3h.6a3.33,3.33,0,0,1,3.3,3.3v3.6A3.33,3.33,0,0,1,309.4,355.93Zm-.6-8.3a1.32,1.32,0,0,0-1.3,1.3v3.6a1.32,1.32,0,0,0,1.3,1.3h.6a1.32,1.32,0,0,0,1.3-1.3v-3.6a1.32,1.32,0,0,0-1.3-1.3Z"/><path d="M326.5,355.93h-.6a3.33,3.33,0,0,1-3.3-3.3V349a3.33,3.33,0,0,1,3.3-3.3h.6a3.33,3.33,0,0,1,3.3,3.3v3.6A3.33,3.33,0,0,1,326.5,355.93Zm-.6-8.3a1.32,1.32,0,0,0-1.3,1.3v3.6a1.32,1.32,0,0,0,1.3,1.3h.6a1.32,1.32,0,0,0,1.3-1.3v-3.6a1.32,1.32,0,0,0-1.3-1.3Z"/><path d="M335.3,355.93h-.6a3.33,3.33,0,0,1-3.3-3.3V349a3.33,3.33,0,0,1,3.3-3.3h.6a3.33,3.33,0,0,1,3.3,3.3v3.6A3.2,3.2,0,0,1,335.3,355.93Zm-.6-8.3a1.32,1.32,0,0,0-1.3,1.3v3.6a1.32,1.32,0,0,0,1.3,1.3h.6a1.32,1.32,0,0,0,1.3-1.3v-3.6a1.32,1.32,0,0,0-1.3-1.3Z"/><path d="M317.6,350a.6.6,0,0,1-.4-.1c-.1-.1-.2-.1-.3-.2a.1.1,0,0,1-.1-.1.35.35,0,0,1-.1-.2V349a.91.91,0,0,1,.3-.7c.1-.1.2-.2.3-.2a1.1,1.1,0,0,1,.8,0c.1,0,.2.1.3.2a.91.91,0,0,1,.3.7v.2c0,.1,0,.1-.1.2s-.1.1-.1.2a.1.1,0,0,1-.1.1c-.1.1-.2.2-.3.2A.9.9,0,0,1,317.6,350Z"/><path d="M317.6,353.63a1,1,0,0,1-1-1,.6.6,0,0,1,.1-.4c.1-.1.1-.2.2-.3a.1.1,0,0,1,.1-.1.35.35,0,0,1,.2-.1c.1,0,.1,0,.2-.1h.4c.1,0,.1,0,.2.1s.1.1.2.1a.1.1,0,0,1,.1.1c.1.1.2.2.2.3s.1.3.1.4a1,1,0,0,1-1,1Z"/><path d="M324.2,220.93a.94.94,0,0,1-1-1v-14.6a1.19,1.19,0,0,1,.5-.9.91.91,0,0,1,1,0c.1,0,5.8,2.9,11.7,0a1.17,1.17,0,0,1,1,0,.89.89,0,0,1,.5.8v7.6a1,1,0,1,1-2,0v-6.1a16.27,16.27,0,0,1-10.6,0v13.1A1.27,1.27,0,0,1,324.2,220.93Z"/><circle cx="320.9" cy="219.93" r="3.2" fill="#fff"/><path d="M320.9,224.13a4.2,4.2,0,1,1,4.2-4.2A4.16,4.16,0,0,1,320.9,224.13Zm0-6.5a2.2,2.2,0,1,0,2.2,2.2A2.1,2.1,0,0,0,320.9,217.63Z"/><path d="M393.8,217.23a1.06,1.06,0,0,1-1-.9l-2.1-14.4a.87.87,0,0,1,.4-.9,1.16,1.16,0,0,1,1-.2,14.38,14.38,0,0,0,11.6-1.7,1,1,0,1,1,1.1,1.7,15.39,15.39,0,0,1-11.9,2.3l1.9,12.9a.94.94,0,0,1-.8,1.1C393.9,217.23,393.9,217.23,393.8,217.23Z"/><circle cx="390.6" cy="216.63" r="3.2" fill="#fff"/><path d="M390.6,220.93a4.21,4.21,0,0,1-4.2-3.6,3.88,3.88,0,0,1,.8-3.1,4.59,4.59,0,0,1,2.8-1.7,4.27,4.27,0,0,1,4.8,3.6h0a4.27,4.27,0,0,1-3.6,4.8Zm0-6.5h-.3a2.22,2.22,0,1,0,2.5,1.9h0a2.37,2.37,0,0,0-.9-1.5A2.5,2.5,0,0,0,390.6,214.43Z"/><path d="M584.48,506.13H206.18a1,1,0,1,1,0-2h378.4a.94.94,0,0,1,1,1A1,1,0,0,1,584.48,506.13Z"/></g></svg>