<svg xmlns="http://www.w3.org/2000/svg" viewBox="0 0 841.9 595.3"><g id="Layer_24" data-name="Layer 24"><polyline points="355.35 262.25 310.95 262.25 302.65 331.75 365.45 334.85 360.85 262.25" fill="#fff"/><rect x="342.65" y="239.95" width="48.3" height="58.6" fill="#0E7490"/><path d="M506.23,210.61c15.13-4.19,36.34-19,64.42-44.63a1,1,0,0,0-1.33-1.4c-37.64,34.52-62.75,49.15-76.57,44.58-12.67-4.17-17.74-19-24.11-37.94-5-14.79-10.73-31.58-21.4-48.75-13.51-21.78-28.67-26.3-39-26.23-13.78.08-27.77,8.74-35.73,21.94C352.22,150,335.3,158.9,335.13,159a1,1,0,0,0,.92,1.83c.72-.41,17.48-9.21,38.08-41.59,7.68-12.71,21-21,34-21,9.85,0,24.23,4.29,37.3,25.25,10.53,17,16.19,33.7,21.2,48.4,6.63,19.43,11.83,34.81,25.41,39.24Q498,212.89,506.23,210.61Z"/><path d="M365.45,335.85a.91.91,0,0,0,.7-.3,1.14,1.14,0,0,0,.3-.8l-4.6-72.6a1,1,0,1,0-2,.2l4.5,71.5-60.6-3,8.1-67.6h43.6a1,1,0,1,0,0-2h-44.4a1.06,1.06,0,0,0-1,.9l-8.3,69.5a1.08,1.08,0,0,0,.2.8,1.61,1.61,0,0,0,.7.4l62.8,3Z"/><path d="M425.23,474.31h-58.8a29.4,29.4,0,0,0,58.8,0Z" fill="#cbcbca"/><path d="M382.73,474.31a.94.94,0,0,1,1-1h24.1a.94.94,0,0,1,1,1,13,13,0,0,1-13,13A13.12,13.12,0,0,1,382.73,474.31Zm2,1a11,11,0,0,0,22,0Z"/><path d="M539.23,474.31h-58.8a29.4,29.4,0,0,0,58.8,0Z" fill="#cbcbca"/><path d="M425.13,474.31a29.4,29.4,0,1,0-58.8,0Z" fill="#fff"/><path d="M365.43,474.31a30.4,30.4,0,0,1,60.8,0,.94.94,0,0,1-1,1h-58.9A.92.92,0,0,1,365.43,474.31Zm30.4-28.4a28.45,28.45,0,0,0-28.4,27.4h56.8A28.38,28.38,0,0,0,395.83,445.91Z"/><path d="M439,449.81s.7,7.9,1.1,11.5c-6.6-.4-40.4,5.8-41.2,9.1a3,3,0,0,0,2.4,3.8H468l-1.9-25.7Z" fill="#fff"/><path d="M401.23,475.41a4,4,0,0,1-2.7-1.7,4.08,4.08,0,0,1-.5-3.3c.2-.8.7-2.9,19.2-6.7,8.9-1.8,17.8-3.1,21.9-3.2-.4-3.9-1-10.4-1-10.4a.78.78,0,0,1,.2-.8.91.91,0,0,1,.7-.3l27.1-1.4a.92.92,0,0,1,1,.9l1.9,25.7a1.14,1.14,0,0,1-.3.8.91.91,0,0,1-.7.3h-66.7C401.23,475.31,401.23,475.31,401.23,475.41Zm64-25.7-25,1.3c.2,2.2.7,7.6,1,10.4a1,1,0,0,1-1.1,1.1c-7-.4-38.5,5.7-40.2,8.3a2.31,2.31,0,0,0,.2,1.7,1.89,1.89,0,0,0,1.3.8h65.5Z"/><path d="M463.63,449.81s.7,7.9,1.1,11.5c-6.6-.4-40.5,5.8-41.2,9.1a3,3,0,0,0,2.4,3.8h66.7l-1.9-25.7Z" fill="#fff"/><path d="M425.83,475.41a4,4,0,0,1-2.7-1.7,4.08,4.08,0,0,1-.5-3.3c.2-.8.7-2.9,19.2-6.7,8.9-1.8,17.8-3.1,21.9-3.2-.4-3.9-1-10.4-1-10.4a.78.78,0,0,1,.2-.8.91.91,0,0,1,.7-.3l27.1-1.4a.92.92,0,0,1,1,.9l1.9,25.7a1.14,1.14,0,0,1-.3.8.91.91,0,0,1-.7.3h-66.7C425.83,475.31,425.83,475.31,425.83,475.41Zm64-25.7-25,1.3c.2,2.2.7,7.6,1,10.4a1,1,0,0,1-1.1,1.1c-7-.4-38.5,5.7-40.2,8.3a2.31,2.31,0,0,0,.2,1.7,1.89,1.89,0,0,0,1.3.8h65.5Z"/><polygon points="421.33 260.31 465.53 260.31 478.53 453.61 428.33 453.61 421.33 260.31" fill="#0E7490"/><polygon points="446.43 260.31 490.73 260.31 503.73 453.61 453.43 453.61 446.43 260.31" fill="#0E7490"/><path d="M448.23,350.81l-.4-9a1,1,0,0,1,2,0l.4,9a1,1,0,0,1-1,1h0A1,1,0,0,1,448.23,350.81Z"/><path d="M452.43,453.61l-4-93.3a1,1,0,0,1,2,0l4,93.3a1,1,0,0,1-1,1h0A.94.94,0,0,1,452.43,453.61Z"/><line x1="366.33" y1="474.31" x2="539.23" y2="474.31" fill="none"/><path d="M365.33,474.31a.94.94,0,0,1,1-1h172.9a1,1,0,0,1,0,2H366.33A1,1,0,0,1,365.33,474.31Z"/><path d="M539.13,474.31a29.4,29.4,0,1,0-58.8,0Z" fill="#fff"/><path d="M479.43,474.31a30.4,30.4,0,0,1,60.8,0,.94.94,0,0,1-1,1h-58.9A.86.86,0,0,1,479.43,474.31Zm30.4-28.4a28.45,28.45,0,0,0-28.4,27.4h56.8A28.38,28.38,0,0,0,509.83,445.91Z"/><path d="M496.63,474.31a.94.94,0,0,1,1-1h24.1a.94.94,0,0,1,1,1,13,13,0,0,1-13,13A13.26,13.26,0,0,1,496.63,474.31Zm2.1,1a11.05,11.05,0,0,0,22,0Z"/><path d="M550.43,474.31a.94.94,0,0,1,1-1H574a1,1,0,0,1,0,2h-22.6A1,1,0,0,1,550.43,474.31Z"/><path d="M578.83,474.31a.94.94,0,0,1,1-1h6.6a1,1,0,0,1,0,2h-6.6A1,1,0,0,1,578.83,474.31Z"/><path d="M494.93,426.21a.94.94,0,0,1,1-1h30.3a1,1,0,0,1,0,2h-30.3A1,1,0,0,1,494.93,426.21Z"/><path d="M494.93,411.91a.94.94,0,0,1,1-1h14.3a1,1,0,0,1,0,2h-14.3A1,1,0,0,1,494.93,411.91Z"/><path d="M459,175.53s-.7,10.7-1.2,13.6c-3.7,2.6-10.9,1.6-10.9,1.6l-1.5-6.8-.9.2c-12.6,2-15-5-16.2-9.5-1.3-4.9.3-9.6-3.4-10.6-7.4-1.9-6.6-4.8-6.6-4.8,0-4,6.6-4,6.6-4l1.4-4,35.4.4Z" fill="#fff"/><path d="M458.21,185.83s12.7.5,19.4,10.2,43,72.4,43,72.4L493.91,286l-9.3-24-64.2-2.4,4.9-27.1.5-2.6-11,4a19.61,19.61,0,0,1-21-5l-39.3-42.2,25.7-15.7,28.3,36.9s12.3-9.7,21.5-14.4a64.54,64.54,0,0,1,16.1-6.1Z" fill="#fff"/><path d="M465.11,147.53s.4-11.9,11.2-9.2c3.3.8,5,4.9,5.4,8.7,1.3,10.4-1.6,28.3,7.1,31.9-5.4.8-19.2-3.7-21.6-14.1A70.46,70.46,0,0,1,465.11,147.53Z" fill="#0E7490"/><path d="M430.11,150h0a1,1,0,0,1-1-1.1l.4-6.6c0-.1,1.2-10.9,18.3-10.9a1,1,0,0,1,0,2c-15.3,0-16.3,9-16.3,9.1l-.4,6.6A.92.92,0,0,1,430.11,150Z"/><path d="M440.41,185.33a14.87,14.87,0,0,1-7.3-1.7c-3.6-2.1-5-5.7-5.8-8.9a33.22,33.22,0,0,1-.7-5c-.2-3-.4-4.5-2.1-5q-5.4-1.35-6.9-3.9a2.79,2.79,0,0,1-.4-2,3.78,3.78,0,0,1,1.2-2.8c2.1-2.1,6.2-2.1,6.4-2.1a1,1,0,0,1,0,2c-1,0-3.8.3-5,1.5a2,2,0,0,0-.6,1.4v.3c-.1.5.8,2.3,5.9,3.6,3.2.9,3.3,3.8,3.5,6.8a26.42,26.42,0,0,0,.6,4.6c.8,2.9,1.9,5.9,4.9,7.6,3.3,1.9,8.2,1.9,14.8.1a1,1,0,0,1,.5,1.9A28.55,28.55,0,0,1,440.41,185.33Z"/><path d="M450.31,191.83a34,34,0,0,1-3.5-.2,1.09,1.09,0,0,1-.8-.8l-1.5-6.8a1,1,0,0,1,2-.4l1.4,6.1c1.7.2,6.4.4,9.2-1.2.4-3.3,1.1-12.9,1.1-13a1,1,0,0,1,2,.2c0,.4-.8,10.8-1.2,13.6a1,1,0,0,1-.4.7C456.21,191.43,452.81,191.83,450.31,191.83Z"/><circle cx="435.71" cy="160.03" r="1.5"/><circle cx="441.91" cy="160.73" r="1.5"/><path d="M425.11,152.33l34.3,1,.8,13.2h4.7s4.5-21.4-5.5-26.7c-8.1-4.3-16.8-4.2-23.1-1.3C428.21,142.13,425.11,152.33,425.11,152.33Z" fill="#0E7490"/><path d="M465.61,163.53a1,1,0,0,1-1-1l-.5-20.1c0-.3-1.1-9-16.3-9a1,1,0,0,1,0-2c17.1,0,18.3,10.8,18.3,10.9l.5,20.2a1,1,0,0,1-1,1Z"/><path d="M471.11,167.23c0,5.3-1.5,9.6-5.9,9.6s-7.9-.8-7.9-9.6,3.5-9.6,7.9-9.6S471.11,161.93,471.11,167.23Z" fill="#fff"/><path d="M465.31,177.83c-5.5,0-8.9-1.8-8.9-10.6s3.4-10.6,8.9-10.6c2.6,0,6.9,1.4,6.9,10.6S467.81,177.83,465.31,177.83Zm0-19.2c-4,0-6.9.6-6.9,8.6s2.8,8.6,6.9,8.6,4.9-4.7,4.9-8.6S469.31,158.63,465.31,158.63Z"/><path d="M464.31,177.73H464c-.6-.2-3.8-1.6-3.8-10.8,0-9.5,3.3-10,4-10.1a1,1,0,0,1,1,1,1,1,0,0,1-.9,1c-.1,0-2.1.9-2.1,8.1,0,7.8,2.3,8.9,2.4,8.9a1.09,1.09,0,0,1,.7,1.2A1.2,1.2,0,0,1,464.31,177.73Z"/><path d="M408.21,236.13a20.68,20.68,0,0,1-15-6.5l-39.3-42.2a1.14,1.14,0,0,1-.3-.8.75.75,0,0,1,.5-.7l25.7-15.7a1,1,0,0,1,1.3.2l27.6,36.1c2.9-2.2,13.1-9.9,20.9-13.9a67.4,67.4,0,0,1,16.4-6.2,1,1,0,1,1,.4,2,60.88,60.88,0,0,0-15.8,6c-9,4.7-21.2,14.2-21.4,14.3a1,1,0,0,1-.7.2,1,1,0,0,1-.7-.4l-27.7-36.2-23.9,14.6,38.5,41.3a18.53,18.53,0,0,0,19.9,4.8l11-4a1,1,0,0,1,.7,1.9l-11,4A22.05,22.05,0,0,1,408.21,236.13Z"/><path d="M420.51,260.73h-.2a1,1,0,0,1-.8-1.2L426,224a1,1,0,1,1,2,.4l-6.5,35.5A1.19,1.19,0,0,1,420.51,260.73Z"/><path d="M428,219.63h-.2a1,1,0,0,1-.8-1.2l1.6-8.7a1,1,0,1,1,2,.4l-1.6,8.7A1.05,1.05,0,0,1,428,219.63Z"/><path d="M494,287.13h-.3a.9.9,0,0,1-.6-.6l-22.9-58.9a1,1,0,1,1,1.9-.7l22.4,57.7,24.9-16.4c-4.3-7.4-36.3-62.5-42.5-71.5-6.3-9.2-18.5-9.8-18.7-9.8a1,1,0,0,1,0-2c.5,0,13.3.6,20.2,10.7,6.6,9.7,42.7,71.8,43.1,72.5a1,1,0,0,1-.3,1.3L494.51,287A.75.75,0,0,1,494,287.13Z"/><path d="M354.21,177.83,369.5,166.6s-5.83-11.58-16.58-5.52C340.55,168.18,354.21,177.83,354.21,177.83Z" fill="#fff"/><path d="M346.32,168.43s-1.29.28-1.32,2.43,1.82,8.63,4.19,8.68,1.69-3.43,1.61-4.47-1.31-6.46-1.31-6.46S347.05,167.83,346.32,168.43Z" fill="#fff"/><path d="M350.37,180.37a5,5,0,0,1-1.1.21c-3.58-.12-5.16-7.87-5.21-9.67,0-2.16,1.06-3.09,1.81-3.38,1.14-.65,3.19,0,4,.17a1.09,1.09,0,0,1,.69.7c.12.59,1.17,5.55,1.25,6.59v.32c.12,1.13.4,3.27-.65,4.42A1.51,1.51,0,0,1,350.37,180.37Zm-3.78-11c-.19.07-.46.5-.51,1.48,0,2.34,1.86,7.64,3.26,7.64.31,0,.41-.05.46-.18.46-.49.22-2.22.19-2.86l-.05-.41c0-.63-.63-3.61-1.14-5.77a5.79,5.79,0,0,0-1.91-.23C346.77,169.33,346.68,169.36,346.59,169.4Z"/><path d="M347.39,162s-3.06.11-4,1.54,1.25,4.66,2.22,5.79,4.07,3.9,5.33,2.45S350.16,162.24,347.39,162Z" fill="#fff"/><path d="M350.77,173a2.3,2.3,0,0,1-.78.2c-2.25,0-5.05-3.1-5.18-3.16s-4-4.57-2.24-7c1.31-1.89,4.5-1.94,4.82-2l.09,0c1.34.13,2.53,1.28,3.48,3.48,1,2.4,1.84,6.47.67,7.89A3.26,3.26,0,0,1,350.77,173Zm-5.59-9.53a2.15,2.15,0,0,0-1,.71c-.51.63.83,3,2.16,4.53.94,1,2.81,2.56,3.66,2.56l.1,0c.32-.55.11-3.9-1.18-6.41-.59-1.27-1.18-1.68-1.53-1.76A6.76,6.76,0,0,0,345.18,163.51Z"/><circle cx="328.34" cy="161.84" r="10.51" fill="#0E7490"/><path d="M352.3,157.78a6.53,6.53,0,0,0-3.85-1.09c-1.95.21-1.61,5-.3,8.15s2.91,5.63,5,4.61,1.74-3.56,1.59-4.78S352.3,157.78,352.3,157.78Z" fill="#fff"/><path d="M353.31,170.46a3.18,3.18,0,0,1-2.15,0c-1.52-.6-2.83-2.34-3.94-5.24-1-2.7-1.53-6.48-.53-8.36a2.24,2.24,0,0,1,1.59-1.15,7.65,7.65,0,0,1,4.55,1.25c.17.15.29.21.37.4.53,1.4,2.38,5.94,2.48,7.29v.32c.09,1.36.22,4.2-2.19,5.45Zm-4.65-12.67a.29.29,0,0,0-.15.16c-.56,1.07-.32,4.19.61,6.62,1.26,3.27,2.4,4,2.79,4.18a.6.6,0,0,0,.72-.06c1.18-.56,1.14-2.05,1.11-3.54l0-.31a48.61,48.61,0,0,0-2.18-6.23,3.54,3.54,0,0,0-2.88-.82Z"/><path d="M358.15,154.89s.73,5,1.15,8-1.14,4.83-3.26,4.89-3.18-5.2-3.55-9.24,2.27-7.19,5.71-7.44c1.36-.09,3.64,1.39,4.32,3.7" fill="#fff"/><path d="M357.63,168.59a4.17,4.17,0,0,1-1.51.26c-3.25.17-4.24-6.3-4.54-10.15a8.28,8.28,0,0,1,1.85-6.07,7,7,0,0,1,4.73-2.46c1.86-.18,4.51,1.7,5.46,4.44a1,1,0,1,1-1.94.53c-.63-1.9-2.58-3.08-3.3-3a5.05,5.05,0,0,0-3.41,1.73,6.43,6.43,0,0,0-1.44,4.62c.5,5.49,1.71,8.35,2.53,8.25a2.8,2.8,0,0,0,1.83-.81,3.47,3.47,0,0,0,.5-2.87c-.42-3.06-1.15-8-1.15-8l2-.35s.73,5,1.15,8a5.26,5.26,0,0,1-1,4.45A3.66,3.66,0,0,1,357.63,168.59Z"/><path d="M372.39,158.21l-42,5.4a2.27,2.27,0,0,1-2.55-1.92h0a2.27,2.27,0,0,1,1.91-2.55l41.95-5.4a2.27,2.27,0,0,1,2.56,1.91h0A2.21,2.21,0,0,1,372.39,158.21Z" fill="#fff"/><path d="M373.25,159.05a2.3,2.3,0,0,1-.78.2h0l-42,5.4a3.27,3.27,0,0,1-3.67-2.88,3,3,0,0,1,.68-2.4,3.08,3.08,0,0,1,2.19-1.27l42-5.4a3.3,3.3,0,0,1,1.59,6.35Zm-1-1.76a1.71,1.71,0,0,0,.9-.45,1.49,1.49,0,0,0,.27-1,1.75,1.75,0,0,0-.45-.9,1.28,1.28,0,0,0-1-.27l-41.95,5.4a1.68,1.68,0,0,0-.9.45,1.6,1.6,0,0,0-.28,1,1.22,1.22,0,0,0,1.38,1.08l42-5.31Z"/><path d="M350.93,175.13a45.13,45.13,0,0,1,4.82,4.46c1.24,1.56,4.45,4.61,6.36,3.45s14.52-9.32,14.52-9.32-3.75-5.85-4.71-9.76-.7-6.27-4.39-6.67-8.51-3.48-10-2.06.9,6.52,4.9,6.91c-1.43,2.69-1.84,4.67-1.53,6.05" fill="#fff"/><path d="M362.09,184.12c-3,1.15-7-3.74-7.17-3.89a50.28,50.28,0,0,0-4.66-4.32,1,1,0,0,1,1.33-1.57,58.94,58.94,0,0,1,5,4.61c1.65,2.05,4.13,3.78,5,3.23l13.76-8.82a43.14,43.14,0,0,1-4.37-9.14c-.2-.78-.35-1.47-.47-2.07-.54-2.79-.86-3.63-3-3.88a19.14,19.14,0,0,1-4.94-1.43c-1.51-.59-3.86-1.4-4.22-1-.15.17-.25.74.07,1.58a5.81,5.81,0,0,0,4.28,3.61.9.9,0,0,1,.76.57,1.26,1.26,0,0,1,0,.95c-1.55,3-1.61,4.47-1.38,5.34a1,1,0,1,1-1.93.53q-.54-2.21,1.07-5.55a7.46,7.46,0,0,1-4.54-4.58,3.53,3.53,0,0,1,.41-3.69c1.3-1.35,3.64-.54,6.38.44a17.81,17.81,0,0,0,4.46,1.29c3.69.4,4.14,2.7,4.73,5.36.12.6.28,1.28.44,2,1,3.69,4.57,9.39,4.6,9.48a1,1,0,0,1-.31,1.41l-14.52,9.33A3,3,0,0,0,362.09,184.12Z"/><path d="M496.9,284.51s6,13.51,6.24,20.16c.35,7.08,4.45,6.91,4.45,6.91s2.85,0,3.17-3.61c.46-4.89.94-9.63.94-9.63s22.11,28.68,28.83,21.12c0,0,2.39-2.18-1-5.58,0,0,4.16,2.32,6.1.55s.62-5.4-1.25-6.91c0,0,4.36.17,4.63-2.56.21-2-2.8-4.18-2.8-4.18L534,291.86s8.66,3.76,10.3-.19c.5-1.9-.31-3.45-3.33-4.48s-20.27-10.38-23.69-15.7C515.31,272.62,496.9,284.51,496.9,284.51Z" fill="#fff"/><path d="M504.81,311.53l-.23-.19c-1.5-1.33-2.3-3.52-2.42-6.56C501.9,298.4,496,285.1,496,285a1.08,1.08,0,0,1,.36-1.25l20.27-13.08a1,1,0,0,1,.77-.16,2,2,0,0,1,.68.43c3.18,5,20.19,14.3,23.14,15.26,4.2,1.33,4.47,3.86,4,5.68l-.06.08a3.5,3.5,0,0,1-2,2,8.66,8.66,0,0,1-4,.36l7.71,5.56c.31.25,3.42,2.62,3.19,5.13-.21,2-1.9,2.84-3.63,3.24a7.32,7.32,0,0,1,1.16,3.5,4,4,0,0,1-1.27,3.34c-1.16,1.13-2.8,1.09-4.25.82a4.69,4.69,0,0,1,.32,1.67,4.12,4.12,0,0,1-1.07,2.61,4.75,4.75,0,0,1-3.81,1.55c-7.57-.31-20.51-15.34-25-20.83-.22,1.87-.43,4.53-.71,7.26-.26,3.51-2.85,4.5-4.13,4.5A5,5,0,0,1,504.81,311.53Zm-6.66-26.66c1.26,3.06,5.7,13.82,5.92,19.77s3.28,6,3.42,6c.36,0,2-.21,2.13-2.65.4-4.81.94-9.63,1-9.71a1.07,1.07,0,0,1,.69-.86,1,1,0,0,1,1,.32c4.63,6,18.21,21.7,24.93,22a2.63,2.63,0,0,0,2.31-1l.07-.08a1.81,1.81,0,0,0,.5-1.26c.05-.86-.56-1.86-1.6-3a1.06,1.06,0,0,1-.08-1.34,1,1,0,0,1,1.25-.28c.91.47,3.75,1.73,4.9.6a2.14,2.14,0,0,0,.66-1.77,5.14,5.14,0,0,0-1.81-3.65,1,1,0,0,1-.27-1.11,1.1,1.1,0,0,1,.93-.67s3.42.06,3.59-1.6c.1-1.07-1.57-2.67-2.35-3.3l-12.2-8.91a1,1,0,0,1,1-1.67c1.5.69,5.85,2.14,8,1.27a1.74,1.74,0,0,0,.91-.81c.21-.74.48-2.19-2.69-3.2s-19-9.66-23.64-15.28Z"/><path d="M539.56,313.8s-13.12-8.1-17.13-14.92" fill="#fff"/><path d="M530.22,308.35c-3.35-2.7-6.84-6-8.66-9a1,1,0,1,1,1.73-1C527.2,304.76,540,312.84,540,312.9a.94.94,0,0,1,.29,1.39,1,1,0,0,1-1.39.29C538.7,314.39,534.5,311.79,530.22,308.35Z"/><path d="M544.4,307.3s-12.49-7-16.24-12" fill="#fff"/><path d="M531.6,300.09a25.38,25.38,0,0,1-4.23-4.17,1,1,0,0,1,1.58-1.17c3.58,4.81,15.78,11.66,16,11.71a1.1,1.1,0,0,1,.43,1.38,1.08,1.08,0,0,1-1.37.43A100.73,100.73,0,0,1,531.6,300.09Z"/><path d="M615.48,504.91H237.18a1,1,0,0,1,0-2h378.4a.94.94,0,0,1,1,1A1,1,0,0,1,615.48,504.91Z"/></g></svg>