<svg xmlns="http://www.w3.org/2000/svg" viewBox="0 0 841.9 595.3"><g id="Layer_19" data-name="Layer 19"><polygon points="348.48 209.11 766.99 209.11 638.92 485 220.42 485 348.48 209.11" fill="#fff"/><path d="M638.92,485.91H220.42a.81.81,0,0,1-.73-.45,1.47,1.47,0,0,1-.09-.92l128.06-276a.87.87,0,0,1,.82-.55H767a.81.81,0,0,1,.73.46,1.51,1.51,0,0,1,.09.91l-128.07,276A.87.87,0,0,1,638.92,485.91Zm-417-1.83h416.4L765.52,209.93H349.12Z"/><path d="M641.48,429.84H500.33a.92.92,0,0,1,0-1.83h140.6l91.93-198H405a.92.92,0,1,1,0-1.83H734.24a.82.82,0,0,1,.73.45,1.55,1.55,0,0,1,.09.92L642.3,429.29A.79.79,0,0,1,641.48,429.84Z"/><path d="M608.18,515.74h-553V485H638.92A30.75,30.75,0,0,1,608.18,515.74Z" fill="#fff"/><path d="M608.18,516.65h-553a.86.86,0,0,1-.91-.91V485a.86.86,0,0,1,.91-.92H638.92a.86.86,0,0,1,.91.92A31.66,31.66,0,0,1,608.18,516.65Zm-552-1.83H608.18A29.88,29.88,0,0,0,638,485.91H56.13Z"/><polygon points="675.97 264.09 608.82 264.09 614.95 251.83 682.1 251.83 675.97 264.09" fill="#cbcbca"/><path d="M635.26,346.78H568.12a1.09,1.09,0,0,1-.83-.46.83.83,0,0,1,0-.91L608,263.63a1,1,0,0,1,.82-.55H676a1.07,1.07,0,0,1,.82.46.83.83,0,0,1,0,.91l-40.71,81.78A.86.86,0,0,1,635.26,346.78ZM569.58,345h65.13L674.5,265H609.37Z"/><path d="M679.81,265H605.07a.92.92,0,0,1,0-1.83h74.74a.86.86,0,0,1,.91.92A.91.91,0,0,1,679.81,265Z"/><polygon points="616.14 300.49 609.37 300.49 598.67 321.99 605.44 321.99 616.14 300.49" fill="#0E7490"/><polygon points="633.89 287.96 627.12 287.96 610.2 321.99 616.97 321.99 633.89 287.96" fill="#0E7490"/><polygon points="641.57 295.64 634.8 295.64 621.72 321.99 628.49 321.99 641.57 295.64" fill="#0E7490"/><path d="M632.61,322.9H594.55a.91.91,0,1,1,0-1.82h38.06a.86.86,0,0,1,.91.91A.91.91,0,0,1,632.61,322.9Z"/><ellipse cx="557.33" cy="268.05" rx="20.76" ry="12.62" transform="translate(-46.86 400.06) rotate(-38.01)" fill="#fff"/><path d="M549.27,285.13c-4.3,0-7.68-1.65-9.51-4.58-2.1-3.38-1.83-8.05.55-13,4.57-9.24,15.82-16.74,25.06-16.74,4.3,0,7.69,1.65,9.52,4.58,2.1,3.38,1.83,8-.55,13C569.76,277.62,558.51,285.13,549.27,285.13Zm16.1-32.39c-8.6,0-19.12,7.05-23.41,15.74-2.11,4.3-2.38,8.41-.65,11.16,1.47,2.38,4.3,3.66,8,3.66,8.6,0,19.12-7.05,23.42-15.74,2.1-4.3,2.38-8.41.64-11.16C571.87,254,569,252.74,565.37,252.74Z"/><path d="M557.32,268.93H541.13a.92.92,0,0,1,0-1.83h15.64l7.78-15.73a.81.81,0,0,1,1.19-.37.92.92,0,0,1,.46,1.19l-8.05,16.2A.89.89,0,0,1,557.32,268.93Z"/><path d="M557.32,268.93a.88.88,0,0,1-.82-.54L550.74,257a.88.88,0,1,1,1.55-.82l5.76,11.43a1,1,0,0,1-.36,1.19C557.6,268.93,557.51,268.93,557.32,268.93Z"/><path d="M559.52,295.28H528.87a.92.92,0,0,1,0-1.83h30.65a.92.92,0,0,1,0,1.83Z"/><path d="M542.87,305.71H523.66a.92.92,0,0,1,0-1.83h19.21a.92.92,0,0,1,0,1.83Z"/><path d="M537.66,316.23H518.45a.92.92,0,1,1,0-1.83h19.21a.92.92,0,0,1,0,1.83Z"/><path d="M606,405.6H538.84a.92.92,0,0,1,0-1.83h66.6l21.13-42.45a.9.9,0,0,1,1.65.74l-21.41,43A.87.87,0,0,1,606,405.6Z"/><path d="M560.62,394.53a1.12,1.12,0,0,1-.74-.37.9.9,0,0,1,.28-1.28L583.94,377a.66.66,0,0,1,.73-.09.91.91,0,0,1,.55.45l3,5.95L605.07,372a.93.93,0,0,1,1,1.55l-17.66,11.8a.66.66,0,0,1-.73.09,1,1,0,0,1-.55-.45L584,379.07l-22.86,15.28A1.37,1.37,0,0,1,560.62,394.53Z"/><path d="M601.78,381.36a.58.58,0,0,1-.37-.09.91.91,0,0,1-.45-1.19l3.2-6.31h-6.22a.92.92,0,1,1,0-1.83h7.68a1.11,1.11,0,0,1,.83.45.85.85,0,0,1,0,.92L602.6,381A1.38,1.38,0,0,1,601.78,381.36Z"/><polygon points="407.23 219.09 368.17 176.92 329.11 219.09 340.09 219.09 340.09 484.07 396.17 484.07 396.17 219.09 407.23 219.09" fill="#0E7490"/><polygon points="497.23 299.09 458.17 256.92 419.11 299.09 430.09 299.09 430.09 484.07 486.17 484.07 486.17 299.09 497.23 299.09" fill="#cbcbca"/><rect x="137.57" y="227.39" width="169.23" height="256.68" fill="#fff"/><path d="M306.71,485H137.57a.86.86,0,0,1-.92-.91V227.39a.87.87,0,0,1,.92-.92H306.8a.86.86,0,0,1,.91.92V484.07A1.06,1.06,0,0,1,306.71,485Zm-168.23-1.83h167.4V228.3H138.48Z"/><path d="M222.09,353.76h-.18c-32.2-8.05-30.19-49.21-29.55-64.76.09-1.92.19-3.48.19-4.67a.84.84,0,0,1,.36-.73,1,1,0,0,1,.83-.18c23,6.67,27.44-7.6,27.53-7.69a.9.9,0,1,1,1.74.46c-.09.18-4.94,15.64-28.63,9.24,0,1-.1,2.19-.19,3.57-.73,16.55-2.56,55.25,28.09,62.93a.88.88,0,0,1,.64,1.1A.75.75,0,0,1,222.09,353.76Z"/><path d="M222.18,353.76a1,1,0,0,1-.91-.73.94.94,0,0,1,.64-1.1c30.74-7.68,28.91-46.38,28.08-62.93-.09-1.38-.09-2.56-.18-3.57-23.69,6.4-28.54-9.15-28.63-9.24a.9.9,0,0,1,1.74-.46c.18.55,4.57,14.36,27.53,7.69a.91.91,0,0,1,.82.18.82.82,0,0,1,.37.73c0,1.1.09,2.75.18,4.67.73,15.55,2.66,56.71-29.54,64.76Z"/><path d="M222.09,311.59a7.59,7.59,0,1,1,7.6-7.59A7.57,7.57,0,0,1,222.09,311.59Zm0-13.26a5.76,5.76,0,1,0,5.77,5.76A5.74,5.74,0,0,0,222.09,298.33Z"/><path d="M226,333.73h-3.85a.87.87,0,0,1-.91-.92V310.68a.92.92,0,1,1,1.83,0V331.9H226a.86.86,0,0,1,.91.91A.92.92,0,0,1,226,333.73Z"/><path d="M226,325.77h-3.85a.92.92,0,0,1,0-1.83H226a.86.86,0,0,1,.91.91A.92.92,0,0,1,226,325.77Z"/><path d="M226,322.11h-3.85a.92.92,0,0,1,0-1.83H226a.86.86,0,0,1,.91.92A.92.92,0,0,1,226,322.11Z"/><path d="M216.28,409.67h-6.4a.86.86,0,0,1-.91-.92v-2.56a10.86,10.86,0,0,1-3-1.28l-1.83,1.83a.89.89,0,0,1-1.28,0l-4.49-4.48a.89.89,0,0,1,0-1.28l1.83-1.83a14.69,14.69,0,0,1-1.28-3h-2.56a.86.86,0,0,1-.91-.92v-6.4a.86.86,0,0,1,.91-.91h2.56a11.17,11.17,0,0,1,1.28-3l-1.83-1.83a.89.89,0,0,1,0-1.28l4.49-4.49a.82.82,0,0,1,.64-.27h0a.85.85,0,0,1,.64.27l1.83,1.83a14.24,14.24,0,0,1,3-1.28v-2.56a.86.86,0,0,1,.91-.91h6.4a.86.86,0,0,1,.92.91v2.56a11.31,11.31,0,0,1,3,1.28l1.83-1.83a.89.89,0,0,1,1.28,0l4.48,4.49a.88.88,0,0,1,0,1.28L226,384.88a13.75,13.75,0,0,1,1.28,3h2.56a.86.86,0,0,1,.92.91v6.4a.87.87,0,0,1-.92.92h-2.56a11,11,0,0,1-1.28,3l1.83,1.83a.82.82,0,0,1,.27.64.85.85,0,0,1-.27.64l-4.48,4.48a.85.85,0,0,1-.64.27h0a.82.82,0,0,1-.64-.27l-1.83-1.83a14.16,14.16,0,0,1-3,1.28v2.56A.87.87,0,0,1,216.28,409.67Zm-5.39-1.83h4.57v-2.29a.88.88,0,0,1,.73-.91,11.91,11.91,0,0,0,3.84-1.56,1,1,0,0,1,1.1.09l1.65,1.65,3.2-3.2L224.33,400a.84.84,0,0,1-.09-1.1A11.91,11.91,0,0,0,225.8,395a.88.88,0,0,1,.91-.73H229v-4.58h-2.29a.88.88,0,0,1-.91-.73,11.91,11.91,0,0,0-1.56-3.84,1,1,0,0,1,.09-1.1l1.65-1.64-3.2-3.21-1.65,1.65a.82.82,0,0,1-1.1.09,11.67,11.67,0,0,0-3.84-1.55.89.89,0,0,1-.73-.92v-2.28h-4.57v2.28a.9.9,0,0,1-.74.92,11.67,11.67,0,0,0-3.84,1.55.94.94,0,0,1-1.1-.09l-1.64-1.65-3.2,3.21,1.64,1.64a.82.82,0,0,1,.09,1.1,11.67,11.67,0,0,0-1.55,3.84.89.89,0,0,1-.92.73h-2.28v4.58h2.28a.89.89,0,0,1,.92.73,11.67,11.67,0,0,0,1.55,3.84A.94.94,0,0,1,202,400l-1.64,1.65,3.2,3.2,1.64-1.65a.85.85,0,0,1,1.1-.09,11.91,11.91,0,0,0,3.84,1.56.89.89,0,0,1,.74.91Z"/><path d="M213.17,399.42a7.41,7.41,0,1,1,0-14.82.92.92,0,1,1,0,1.83,5.58,5.58,0,1,0,5.58,5.58,5.34,5.34,0,0,0-1.37-3.66.91.91,0,0,1,1.37-1.19,7.2,7.2,0,0,1,1.74,4.85A7.3,7.3,0,0,1,213.17,399.42Z"/><path d="M234.28,436.67h-6.4a.86.86,0,0,1-.91-.92v-2.56a10.86,10.86,0,0,1-3-1.28l-1.83,1.83a.89.89,0,0,1-1.28,0l-4.49-4.48a.89.89,0,0,1,0-1.28l1.83-1.83a14.69,14.69,0,0,1-1.28-3h-2.56a.86.86,0,0,1-.91-.92v-6.4a.86.86,0,0,1,.91-.91h2.56a11.17,11.17,0,0,1,1.28-3l-1.83-1.83a.89.89,0,0,1,0-1.28l4.49-4.49a.82.82,0,0,1,.64-.27h0a.85.85,0,0,1,.64.27l1.83,1.83a14.24,14.24,0,0,1,3-1.28v-2.56a.86.86,0,0,1,.91-.91h6.4a.86.86,0,0,1,.92.91v2.56a11.31,11.31,0,0,1,3,1.28l1.83-1.83a.89.89,0,0,1,1.28,0l4.48,4.49a.88.88,0,0,1,0,1.28L244,411.88a13.75,13.75,0,0,1,1.28,3h2.56a.86.86,0,0,1,.92.91v6.4a.87.87,0,0,1-.92.92h-2.56a11,11,0,0,1-1.28,3l1.83,1.83a.82.82,0,0,1,.27.64.85.85,0,0,1-.27.64l-4.48,4.48a.85.85,0,0,1-.64.27h0a.82.82,0,0,1-.64-.27l-1.83-1.83a14.16,14.16,0,0,1-3,1.28v2.56A.87.87,0,0,1,234.28,436.67Zm-5.39-1.83h4.57v-2.29a.88.88,0,0,1,.73-.91,11.91,11.91,0,0,0,3.84-1.56,1,1,0,0,1,1.1.09l1.65,1.65,3.2-3.2L242.33,427a.84.84,0,0,1-.09-1.1A11.91,11.91,0,0,0,243.8,422a.88.88,0,0,1,.91-.73H247v-4.58h-2.29a.88.88,0,0,1-.91-.73,11.91,11.91,0,0,0-1.56-3.84,1,1,0,0,1,.09-1.1l1.65-1.64-3.2-3.21-1.65,1.65a.82.82,0,0,1-1.1.09,11.67,11.67,0,0,0-3.84-1.55.89.89,0,0,1-.73-.92v-2.28h-4.57v2.28a.9.9,0,0,1-.74.92,11.67,11.67,0,0,0-3.84,1.55.94.94,0,0,1-1.1-.09l-1.64-1.65-3.2,3.21,1.64,1.64a.82.82,0,0,1,.09,1.1,11.67,11.67,0,0,0-1.55,3.84.89.89,0,0,1-.92.73h-2.28v4.58h2.28a.89.89,0,0,1,.92.73,11.67,11.67,0,0,0,1.55,3.84A.94.94,0,0,1,220,427l-1.64,1.65,3.2,3.2,1.64-1.65a.85.85,0,0,1,1.1-.09,11.91,11.91,0,0,0,3.84,1.56.89.89,0,0,1,.74.91Z"/><path d="M231.17,426.42a7.41,7.41,0,0,1,0-14.82.92.92,0,1,1,0,1.83,5.58,5.58,0,1,0,5.58,5.58,5.34,5.34,0,0,0-1.37-3.66.91.91,0,0,1,1.37-1.19,7.2,7.2,0,0,1,1.74,4.85A7.3,7.3,0,0,1,231.17,426.42Z"/><path d="M288,495.48H201.7a11.29,11.29,0,0,1-11.3-11.3.94.94,0,0,1,1-1h107a.94.94,0,0,1,1,1A11.51,11.51,0,0,1,288,495.48Zm-95.6-10.4a9.33,9.33,0,0,0,9.3,8.3H288a9.41,9.41,0,0,0,9.3-8.3Z"/><line x1="44.38" y1="515.82" x2="764.1" y2="515.82" fill="none" stroke="#000" stroke-linecap="round" stroke-linejoin="round" stroke-width="2"/></g></svg>