<svg xmlns="http://www.w3.org/2000/svg" viewBox="0 0 841.9 595.3"><g id="Layer_22" data-name="Layer 22"><path d="M686.21,495.71H307.91a1,1,0,0,1,0-2h378.4a.94.94,0,0,1,1,1A1,1,0,0,1,686.21,495.71Z"/><path d="M256.77,362.88s9.73-65.26,15-76.61S278,264.92,294,262.92s36.49,4.91,36.49,4.91,9.13,3.73,11.82,8.91,7.07,14.66,6.88,19.42-2.68,26.41-8.94,26.08-7.19-1.41-7.19-1.41l7.84,30.32S281.56,372.85,256.77,362.88Z" fill="#fff"/><path d="M259.68,407.43a8.56,8.56,0,0,0,8.48,8.48h49.73a8.48,8.48,0,0,0,0-17H268.16A8.47,8.47,0,0,0,259.68,407.43Z" fill="#fff"/><path d="M259.68,407.43a8.56,8.56,0,0,0,8.48,8.48h49.73a8.48,8.48,0,0,0,0-17H268.16A8.47,8.47,0,0,0,259.68,407.43Zm2.57.13a6,6,0,0,1,5.91-5.91h49.73a5.91,5.91,0,1,1,0,11.82H268.16A6,6,0,0,1,262.25,407.56Z"/><path d="M332.66,495.69h.26a1.21,1.21,0,0,0,.9-1.54l-20.17-79.78a1.26,1.26,0,1,0-2.44.64l20.17,79.79A1.55,1.55,0,0,0,332.66,495.69Z"/><path d="M253.39,495.69a1.36,1.36,0,0,0,1.29-1L274.85,415a1.26,1.26,0,1,0-2.44-.64l-20.18,79.78a1.32,1.32,0,0,0,.9,1.54Z"/><path d="M293.09,495.69a1.22,1.22,0,0,0,1.29-1.28V414.62a1.29,1.29,0,0,0-2.57,0v79.79A1.21,1.21,0,0,0,293.09,495.69Z"/><path d="M212.28,332.65H491.6a1.29,1.29,0,0,0,0-2.57H212.28a1.22,1.22,0,0,0-1.29,1.29A1.28,1.28,0,0,0,212.28,332.65Z"/><path d="M487.61,495.69h.13a1.5,1.5,0,0,0,1.16-1.41L466.28,331.11a1.29,1.29,0,1,0-2.56.26l22.61,163.3A1.24,1.24,0,0,0,487.61,495.69Z"/><path d="M216.26,495.69a1.35,1.35,0,0,0,1.28-1.15l22.62-163.17a1.29,1.29,0,1,0-2.57-.26L215,494.28a1.22,1.22,0,0,0,1.16,1.41Z"/><path d="M314.68,270.21s5.52-5,6.93-7.07,3.73-3.08,5.14-.9a6.06,6.06,0,0,1-.38,5.53C325.21,269.05,317.76,271.75,314.68,270.21Z" fill="#fff"/><path d="M314.29,271.49a2,2,0,0,1-.77-1,1.29,1.29,0,0,1,.39-1.16c1.41-1.41,5.52-5.27,6.68-6.94a5.09,5.09,0,0,1,4.11-2.7h0a3.63,3.63,0,0,1,3.08,1.8c1.16,1.67.9,5.27-.38,7.07-1.16,1.41-6.3,3.47-10.28,3.47A7.84,7.84,0,0,1,314.29,271.49Zm10.41-9.25c-.64,0-1.42.65-2.06,1.67a50.36,50.36,0,0,1-5.27,5.53c3.09-.13,7.2-1.67,7.84-2.44a5.3,5.3,0,0,0,.39-4.11c-.39-.65-.77-.65-.9-.65Z"/><path d="M330.22,283.7a10.09,10.09,0,0,1-5.14-1.16,73,73,0,0,1-2.05,7.71l-14.65-10.79s2.7-8,7.45-9.76,13.62-3.09,20.17,0c2.19,1.28,3,4.11,0,5,1.8,1.28,3.86,4.62-.38,6,1.8,1.42,1.67,3.09.51,4.37-3.08,3.47-9.63,1.67-11.95,1.67" fill="#fff"/><path d="M322.26,291l-14.65-10.79a1.22,1.22,0,0,1-.51-1.41c.12-.26,2.95-8.48,8.22-10.54,5.65-2.18,14.65-3.08,21.33.13a4.67,4.67,0,0,1,2.57,4.37,2.68,2.68,0,0,1-1,2.05,5.22,5.22,0,0,1,1.16,3.73,3.54,3.54,0,0,1-1.68,2.44,4.07,4.07,0,0,1-.64,4.88c-2.82,3.34-8.09,2.7-11.18,2.32-.38,0-.64-.13-.89-.13-.39,1.41-.78,2.44-.78,2.57a1.11,1.11,0,0,1-.77.9H323A.92.92,0,0,1,322.26,291Zm.64-4.62a18.36,18.36,0,0,0,.77-4,1.35,1.35,0,0,1,.77-.9,1.27,1.27,0,0,1,1.16.12,7.85,7.85,0,0,0,4.37.9,1.29,1.29,0,0,1,0,2.57,13.55,13.55,0,0,1-4.12-.51,4.47,4.47,0,0,1-.25,1.28h.51c2.7.39,6.94.9,8.87-1.41a2,2,0,0,0,.51-1.28,1.85,1.85,0,0,0-.9-1.29,1.31,1.31,0,0,1-.51-1.28,1.46,1.46,0,0,1,.9-1c.77-.26,1.54-.64,1.67-1.29a3.34,3.34,0,0,0-1.54-2.57,1.21,1.21,0,0,1-.52-1.28,1.26,1.26,0,0,1,.9-1c.39-.13,1-.26,1-.77s-.39-1.28-1.16-1.8c-6.29-3.08-14.9-1.67-19.14,0-3,1.16-5.27,5.65-6.3,8.1l12.47,9.12c.12-.52.38-1,.51-1.67Z"/><path d="M336,276a1.36,1.36,0,0,0,1.16-.64,1.3,1.3,0,0,0-.51-1.8,13.56,13.56,0,0,0-6.3-1.8,1.29,1.29,0,0,0,0,2.57,10,10,0,0,1,4.88,1.54A2.27,2.27,0,0,0,336,276Z"/><path d="M335.62,282a1.37,1.37,0,0,0,1.16-.64,1.31,1.31,0,0,0-.52-1.8,16.89,16.89,0,0,0-6.29-1.93,1.29,1.29,0,0,0-1.29,1.29,1.22,1.22,0,0,0,1.29,1.28,14.17,14.17,0,0,1,5.14,1.54A.64.64,0,0,0,335.62,282Z"/><path d="M282.43,304l19.4-29.17,24.67,17.86L288,327.9a13.57,13.57,0,0,1-9,3.47h0a13.34,13.34,0,0,1-13.11-15.81c3.34-17.86,6.81-40.85,13.49-45.61" fill="#fff"/><path d="M278.83,332.65a14.91,14.91,0,0,0,9.89-3.85l38.55-35.21a1.46,1.46,0,0,0,.38-1,1.55,1.55,0,0,0-.51-1l-24.67-17.86a1.38,1.38,0,0,0-1-.26,1.32,1.32,0,0,0-.9.52l-19.4,29.16a1.3,1.3,0,1,0,2.19,1.41l18.63-28,22.22,16.19L286.8,326.74a12.08,12.08,0,0,1-17.35-1.28,12.13,12.13,0,0,1-2.57-9.9c.39-2.05.77-4.24,1.16-6.42,2.82-15.29,6.29-34.43,11.69-38.42a1.28,1.28,0,1,0-1.54-2.05c-6.17,4.49-9.51,22.61-12.72,40-.39,2.18-.77,4.36-1.16,6.42a14.92,14.92,0,0,0,14.52,17.6Z"/><path d="M339.35,317.36l-13-24.54,26.34-8.48L361.32,316A12.27,12.27,0,0,1,349.5,331.5h0a13.06,13.06,0,0,1-8.23-3.09L334,321.86" fill="#fff"/><path d="M349.5,332.65a13.65,13.65,0,0,0,13.1-17.22L354,284c-.13-.39-.25-.65-.64-.77a1.36,1.36,0,0,0-1-.13L326,291.54a1.16,1.16,0,0,0-.77.77,1.4,1.4,0,0,0,0,1l13,24.54a1.32,1.32,0,1,0,2.31-1.29l-12.2-23.25,23.64-7.58,8.22,30.32a10.85,10.85,0,0,1-1.93,9.63,11,11,0,0,1-8.73,4.37,11.17,11.17,0,0,1-7.33-2.82l-7.32-6.56a1.28,1.28,0,0,0-1.67,1.93l7.32,6.55A13.53,13.53,0,0,0,349.5,332.65Z"/><path d="M340.63,349.87s-8.35-33.41-9.64-40" fill="#fff"/><path d="M340.63,351.15h.26a1.23,1.23,0,0,0,.9-1.54c-.13-.38-8.35-33.4-9.64-40a1.31,1.31,0,0,0-2.57.52c1.29,6.68,9.25,38.67,9.64,40.08A1.56,1.56,0,0,0,340.63,351.15Z"/><path d="M346.67,286.27s-2.44-10.41-8.74-13.23" fill="#fff"/><path d="M346.54,287.55h.26a1.22,1.22,0,0,0,.9-1.54c-.13-.38-2.7-11.05-9.38-14a1.26,1.26,0,0,0-1,2.31c5.52,2.44,8,12.21,8,12.33A1.53,1.53,0,0,0,346.54,287.55Z"/><path d="M331.89,290.89s-2.57-3.59-3.85-3.72" fill="#fff"/><path d="M331.89,292.18a1.76,1.76,0,0,0,.77-.26,1.15,1.15,0,0,0,.26-1.8c-1-1.54-3.08-4.11-4.75-4.24a1.23,1.23,0,0,0-1.42,1.16,1.28,1.28,0,0,0,1.16,1.41,15.1,15.1,0,0,1,3,3.22A1.16,1.16,0,0,0,331.89,292.18Z"/><path d="M268,304.26s-7.45,32.25-11.18,52.16" fill="#fff"/><path d="M257.28,357.79a1.26,1.26,0,0,0,1.27-1.05c3.42-19.84,10.25-51.94,10.38-52.33a1.31,1.31,0,0,0-2.58-.47c-.12.38-7,32.61-10.38,52.45a1.41,1.41,0,0,0,1,1.53A.4.4,0,0,1,257.28,357.79Z"/><line x1="573.32" y1="495.03" x2="195.02" y2="495.03" fill="none"/><path d="M195,496h378.3a1,1,0,0,0,0-2H194.92a.94.94,0,0,0-1,1A1,1,0,0,0,195,496Z"/><path d="M498.79,343.21H159.89a6.38,6.38,0,0,1-6.4-6.4h0a6.38,6.38,0,0,1,6.4-6.4h338.9a6.38,6.38,0,0,1,6.4,6.4h0A6.44,6.44,0,0,1,498.79,343.21Z" fill="#fff"/><path d="M498.79,344.21H159.89a7.4,7.4,0,0,1,0-14.8h338.9a7.4,7.4,0,0,1,0,14.8Zm-338.9-12.7a5.4,5.4,0,1,0,0,10.8h338.9a5.4,5.4,0,0,0,0-10.8Z"/><path d="M375.2,468.86l3.7,9.7s36.7,3.7,39.5,8.8-1.7,6.5-7.5,6.5H345.4l-.5-26Z" fill="#fff"/><path d="M344.5,494l-.5-26a1.08,1.08,0,0,1,.3-.7.91.91,0,0,1,.7-.3l30.3,1a.87.87,0,0,1,.9.6l3.5,9.1c7.4.8,36.9,4.1,39.6,9.3,1.1,2,1.2,3.7.4,5.1-1.1,1.9-4,2.8-8.8,2.8H345.4C344.9,494.86,344.4,494.46,344.5,494Zm1.4-25.1.5,24h64.5c5.2,0,6.7-1.1,7.1-1.8s.2-1.8-.5-3.2c-1.8-3.4-24.7-6.9-38.7-8.3a.84.84,0,0,1-.8-.6l-3.5-9.1Zm33,9.7Z"/><path d="M339.6,468.86l-.2,9.7s40.7,3.7,43.4,8.8-1.7,6.5-7.5,6.5H302l7.3-26Z" fill="#fff"/><path d="M301.2,494.46a1,1,0,0,1-.2-.9l7.3-26a1,1,0,0,1,1-.7l30.3,1a1,1,0,0,1,1,1l-.2,8.8c8.6.8,40.6,4.2,43.3,9.3,1.1,2,1.2,3.7.4,5.1-1.1,1.9-4,2.8-8.8,2.8H302A.91.91,0,0,1,301.2,494.46Zm8.9-25.6-6.8,24h72c5.2,0,6.7-1.1,7.1-1.8s.2-1.8-.5-3.2c-1.7-3.2-25.9-6.8-42.6-8.3a1,1,0,0,1-.9-1l.2-8.7Z"/><path d="M335,363.76l15.1-1.6a21.88,21.88,0,0,1,22.9,14.6l20.3,93.4-42.1,4Z" fill="#0E7490"/><path d="M257.2,357.06l71-3a19.82,19.82,0,0,1,20.5,17.6l2.6,102.5-56-1.6,14.5-76.3H275.3a21.51,21.51,0,0,1-21.5-21.7v-8.7Z" fill="#0E7490"/><path d="M351.1,475.16h0a1,1,0,0,0,1-1.1l-2.6-102.5a20.46,20.46,0,0,0-7.6-13.9,1,1,0,1,0-1.3,1.5,18.28,18.28,0,0,1,6.8,12.6l2.6,102.5A1.27,1.27,0,0,0,351.1,475.16Z"/><path d="M268.7,397.26h48.4a1,1,0,0,0,0-2H268.7a.94.94,0,0,0-1,1A1,1,0,0,0,268.7,397.26Z"/><path d="M331,218.52s10.26-.42,10.26,5c0,3.63-7.26,5.7-9.64,7.47s-1.14,15.24-7.36,21.77c-3.11,3.21-9.54,5.39-15.86,4.15l-.52-.11-1.45,7.47s-6.33,3.21-11.1.93c-.41-5.08-1.34-21.56-1.34-21.56s-6.74,2.69-8.3-3.43,4.46-9.43,9-6.42l-1.76-17.11,36-.62Z" fill="#fff"/><path d="M294.76,234l.63-16.48,33.69-1.35s12.55-15.55-6.11-19.8c-5.6-1-8,5.6-8,5.6s-9.23-10.16-21.77-5.39S282.74,214,282.74,214s-9.13,2.7-8.19,10.37,6.11,10.58,6.11,10.58-9.22,6.22-3.62,13.68,17.41,1.35,17.41,1.35l-.31-6.12s-3.83,1.35-5.8,0a6.43,6.43,0,0,1-2.49-4.14,6.14,6.14,0,0,1,1.86-5.81C290.93,231.37,294.76,234,294.76,234Z" fill="#0E7490"/><path d="M312,258.43a20.91,20.91,0,0,1-7.78-1.55A1,1,0,0,1,305,255c7,3,14.93.83,18.35-2.8,3.63-3.83,4.56-10.26,5.29-15,.52-3.63.93-6,2.17-7a16.85,16.85,0,0,1,3.11-1.76c2.49-1.24,6-3,6-4.87a2.63,2.63,0,0,0-.83-2c-2-1.87-6.64-2.08-8.3-2a1,1,0,0,1-1-1,1,1,0,0,1,1-1c.32,0,6.85-.31,9.85,2.6a4.32,4.32,0,0,1,1.46,3.42c0,3.21-3.94,5.18-7.16,6.74a20.52,20.52,0,0,0-2.8,1.55c-.62.42-1,3.32-1.35,5.6-.72,5-1.86,11.82-5.91,16.07C322.24,256.46,317.26,258.43,312,258.43Z"/><circle cx="314.88" cy="223.39" r="1.56"/><circle cx="321.41" cy="222.87" r="1.56"/><path d="M299.33,267.24a11.51,11.51,0,0,1-4.46-.93,1.07,1.07,0,0,1-.52-.83c-.31-4.15-1-16.28-1.24-20.22a8,8,0,0,1-5.29-.41,5.79,5.79,0,0,1-3-4.15c-.72-3.11.11-5.91,2.49-7.57a7.2,7.2,0,0,1,8.19.11,1,1,0,1,1-1.14,1.76,5.18,5.18,0,0,0-5.81-.1,5,5,0,0,0-1.65,5.39,3.83,3.83,0,0,0,2,2.8c2.07,1,4.87-.11,5-.11a1,1,0,0,1,.93.11,1.38,1.38,0,0,1,.52.83c0,.2.83,15.34,1.25,20.94,3.42,1.35,7.77-.31,9.12-.93L307,257a1.06,1.06,0,1,1,2.07.42l-1.45,7.46a1.33,1.33,0,0,1-.52.73C306.69,265.48,303.16,267.24,299.33,267.24Z"/><path d="M606.46,311l-3.84-30.11s10.6-4.82,6.74-20.24-11.65-38.22-22.16-43.36-13-3.77-23.37-6.22l-1-12.3s10.79-.47,7.46-4-4.66-5.69-8.33-4.6l-2.61-12.8L524.81,177s-6.41,4.61-10.07,5.1,3.37,8.55,7.08,9.82,2.58,15,9.49,18.62,19.47-.72,19.47-.72l-1,4.85a20.55,20.55,0,0,0-21.26,12.18c-6.85,14.52-17.35,30.89-18.42,40.54-.72,6.57.76,10.94,11.46,14.14l-6.46,27S528.41,317,606.46,311Z" fill="#fff"/><path d="M644.83,339.62H570.91a7.7,7.7,0,0,1-7.66-7.67h0a7.69,7.69,0,0,1,7.66-7.67h73.92A7.7,7.7,0,0,1,652.5,332h0A7.7,7.7,0,0,1,644.83,339.62Z" fill="#fff"/><path d="M644.83,340.87H570.91a8.93,8.93,0,0,1,0-17.85h73.92a8.93,8.93,0,1,1,0,17.85Zm-73.92-15.21a6.41,6.41,0,1,0,0,12.82h73.92a6.41,6.41,0,0,0,0-12.82Z"/><path d="M557.34,494.49h-.25a1.31,1.31,0,0,1-1-1.51l25.77-153.74a1.28,1.28,0,0,1,2.52.5L558.6,493.48A1.23,1.23,0,0,1,557.34,494.49Z"/><path d="M658.41,494.49a1.23,1.23,0,0,1-1.26-1L631.38,339.74a1.28,1.28,0,0,1,2.52-.5L659.67,493a1.39,1.39,0,0,1-1,1.51Z"/><path d="M607.87,494.49a1.18,1.18,0,0,1-1.25-1.26V339.62a1.26,1.26,0,1,1,2.51,0V493.36A1.16,1.16,0,0,1,607.87,494.49Z"/><path d="M649.36,440.69h-83a1.26,1.26,0,0,1,0-2.52h83a1.26,1.26,0,0,1,0,2.52Z"/><path d="M547.53,461.55l-9.93,31.68H477.76s-6,.25-2.89-4.77,33.19-10.81,33.19-10.81l5.66-17Z" fill="#fff"/><path d="M477.64,494.49c-.76,0-3.4-.13-4.53-2-.75-1.26-.5-2.89.63-4.65,3.14-4.9,26.9-9.93,33.31-11.19l5.41-16.34a1.25,1.25,0,0,1,1.26-.88l33.81.75a1.56,1.56,0,0,1,1,.5,1.23,1.23,0,0,1,.12,1.14l-9.93,31.67a1.23,1.23,0,0,1-1.25.88H477.76A.12.12,0,0,1,477.64,494.49Zm37-32.43-5.28,16.09a1.46,1.46,0,0,1-1,.88c-11.44,2.14-30.29,6.91-32.43,10.18-.63,1-.88,1.76-.63,2.14s1.63.75,2.39.75h59l9.17-29.29Z"/><path d="M565.13,308.82h-45L493,331.44a27.89,27.89,0,0,0-5.9,36.08l39.34,63.61,34-44.75-31.68-25.27,20-18.85Z" fill="#0E7490"/><path d="M605,308.82H561.36L493.1,464.57l66.75,7.8,43.5-140.93A48.13,48.13,0,0,0,605,319.5Z" fill="#0E7490"/><path d="M512,422.84a.76.76,0,0,1-.51-.13,1.24,1.24,0,0,1-.62-1.63l36.83-84a1.24,1.24,0,1,1,2.26,1l-36.83,84A1.44,1.44,0,0,1,512,422.84Z"/><path d="M522.77,368.4a1.13,1.13,0,0,1-.88-.37,1.2,1.2,0,0,1,0-1.76l22.63-22a1.2,1.2,0,0,1,1.76,0,1.22,1.22,0,0,1,0,1.76l-22.63,22A1.15,1.15,0,0,1,522.77,368.4Z"/><path d="M536,368a1.35,1.35,0,0,1-.76-.26L528.42,362a1.25,1.25,0,0,1,1.64-1.88l6.79,5.78a1.22,1.22,0,0,1,.12,1.76A1.67,1.67,0,0,1,536,368Z"/><path d="M524.81,177l34.55.38,2.61,12.8s3.48-2,5.34.37a8.26,8.26,0,0,1,1.74,5.22c0,5.47-6.21,3-6.21,3l.62,11.06S596.4,182.34,565,171.9c-.87-5.84-10.81-18.27-31.44-11.06C517.6,167.18,524.81,177,524.81,177Z" fill="#0E7490"/><path d="M537.61,213a12.67,12.67,0,0,1-8-2.36c-4.6-3.61-5.09-10.19-5.34-13.67,0-.63-.13-1.12-.13-1.5-.37-3-2.23-3.6-2.36-3.6s-8.08-1.86-8.08-7,8-6.09,8.21-6.21a1.22,1.22,0,0,1,1.36,1.11,1.17,1.17,0,0,1-1.11,1.37s-6.1.75-6.1,3.73c0,2.61,4.6,4.23,6.22,4.6.12,0,3.6,1,4.23,5.72,0,.37.12,1,.12,1.61.25,3.36.62,9.07,4.47,11.93,2.37,1.87,5.72,2.36,10.2,1.49,7-1.24,12-2.61,12.18-2.61a1.22,1.22,0,0,1,.62,2.37s-5.35,1.36-12.31,2.73C540.22,212.79,538.85,213,537.61,213Z"/><circle cx="532.01" cy="183.71" r="1.62"/><circle cx="538.85" cy="183.83" r="1.62"/><path d="M555.63,220a10.13,10.13,0,0,1-7-2.61,1.13,1.13,0,0,1-.37-.87v-6.71a1.24,1.24,0,1,1,2.48,0V216c1.12.87,5.1,3.23,11.69-.62,0-5.22-.75-16.53-.75-16.65a1.33,1.33,0,0,1,.5-1.12,1.48,1.48,0,0,1,1.24-.13c.62.25,2.61.87,3.6.25.75-.5.87-1.74.75-2.73-.25-2-1.12-3.73-2.24-4.35a3.28,3.28,0,0,0-3,.37,1.26,1.26,0,0,1-1.37-2.11c2.49-1.49,4.35-1.12,5.47-.5,2,1,3.36,3.36,3.61,6.34.12,2.36-.5,4-1.87,5a5.76,5.76,0,0,1-4.22.62c.24,3.61.62,11.81.62,15.66a1.12,1.12,0,0,1-.62,1A15.51,15.51,0,0,1,555.63,220Z"/><path d="M565,173a1.14,1.14,0,0,1-.87-.38,1.2,1.2,0,0,1,0-1.74c.13-.12,3.85-3.6,7.83-2.23A1.26,1.26,0,1,1,571,171c-2.61-.87-5.34,1.74-5.34,1.74A1.1,1.1,0,0,1,565,173Z"/><path d="M597.14,281.9a15.89,15.89,0,0,1-2.36-.25l-61.27-10.82a1.28,1.28,0,0,1-1-1.49l4.72-27.59c0-.37.25-.62.63-.87a1,1,0,0,1,1-.12l55.06,15.78a1.22,1.22,0,0,1-.62,2.36L539.6,243.49l-4.35,25,60,10.69a11.26,11.26,0,0,0,12.8-13.92L600.62,237a30,30,0,0,0-25.73-22.25l-11.31-1.24a1.46,1.46,0,0,1-1.11-1.37,1.35,1.35,0,0,1,1.36-1.12l11.31,1.24A32.53,32.53,0,0,1,603,236.41l7.46,28.21a13.47,13.47,0,0,1-3.23,12.8A13.77,13.77,0,0,1,597.14,281.9Z"/><path d="M525.92,283.64a16.8,16.8,0,0,1-15.16-23.87l15.54-33.93a22,22,0,0,1,15-12.05l7.95-1.62a1.27,1.27,0,0,1,.5,2.49l-8,1.61a19.14,19.14,0,0,0-13.3,10.57L513,260.77a14.31,14.31,0,0,0,2.23,15.41,14,14,0,0,0,15,4.23l26.11-8a1.22,1.22,0,0,1,.62,2.36l-26.1,8A13.61,13.61,0,0,1,525.92,283.64Z"/><path d="M535.62,259.15A1.15,1.15,0,0,1,535,259l-12.43-6.47a1.19,1.19,0,1,1,1.12-2.11l12.43,6.46a1.14,1.14,0,0,1,.49,1.62A1,1,0,0,1,535.62,259.15Z"/><path d="M524.93,253.56h-.25a1.18,1.18,0,0,1-.87-1.49,12.07,12.07,0,0,1,5.47-7.34,10.89,10.89,0,0,1,9.07-.37,1.25,1.25,0,0,1,.75,1.62,1.16,1.16,0,0,1-1.62.74c-2.73-.87-5.22-.87-7.08.25-3.23,1.74-4.23,5.72-4.23,5.72A1.49,1.49,0,0,1,524.93,253.56Z"/><path d="M583.1,256a1.22,1.22,0,0,1-1.25-1l-1.49-8.7-16.15,4.23a1.23,1.23,0,0,1-.63-2.37l17.4-4.6a1.32,1.32,0,0,1,1,.13,1.27,1.27,0,0,1,.5.87l1.74,10.07a1.38,1.38,0,0,1-1,1.49C583.22,256,583.22,256,583.1,256Z"/><path d="M592.05,258.65h0a1.35,1.35,0,0,1-1.25-1.36c.38-3.73-.37-6.34-2.11-8-2.61-2.23-6.71-1.49-6.71-1.49a1.25,1.25,0,0,1-1.49-1,1.19,1.19,0,0,1,1-1.49c.25,0,5.35-1.12,8.83,2.11q3.54,3.17,3,10.07A1.31,1.31,0,0,1,592.05,258.65Z"/><path d="M515.11,308.49h-.25a1.28,1.28,0,0,1-1-1.49l5.22-26a1.26,1.26,0,1,1,2.48.49l-5.22,26A1.2,1.2,0,0,1,515.11,308.49Z"/><path d="M607.71,312.1a1.34,1.34,0,0,1-1.25-1.12c-.74-7.83-5.59-30.82-5.71-31.07a1.26,1.26,0,1,1,2.48-.5c.25,1,5,23.37,5.72,31.32a1.24,1.24,0,0,1-1.12,1.37Z"/><rect x="413.51" y="199.04" width="61.4" height="66.54" transform="translate(-1.2 2.31) rotate(-0.3)" fill="#fff"/><path d="M475.32,266.48h0l-61.78.37a.9.9,0,0,1-1-1l-.36-66.64a.87.87,0,0,1,.23-.71.65.65,0,0,1,.68-.25l61.68-.36a.89.89,0,0,1,1,1l.37,66.63a.86.86,0,0,1-.24.72A.82.82,0,0,1,475.32,266.48Zm-60.75-1.6,59.8-.3-.3-64.66-59.81.3Z"/><path d="M475.12,216.28h0l-49,.29a.89.89,0,0,1-1-1,.93.93,0,0,1,1-1l48.91-.29a.89.89,0,0,1,1,1A1,1,0,0,1,475.12,216.28Z"/><path d="M419,216.57h0l-5.74.08a.89.89,0,0,1-1-1c.05-.6.41-1,1-1l5.64-.07a.89.89,0,0,1,1,1A.92.92,0,0,1,419,216.57Z"/><path d="M426.1,205.58h0a1,1,0,0,1-1.08-1l0-11.19a1,1,0,1,1,2,0l0,11.19A.91.91,0,0,1,426.1,205.58Z"/><path d="M444.22,205.56h0a1,1,0,0,1-1.07-1L443,193.28a1,1,0,0,1,2,0l0,11.19A.91.91,0,0,1,444.22,205.56Z"/><path d="M462.24,205.46h0a1,1,0,0,1-1.07-1l0-11.19a.94.94,0,0,1,1-1,.89.89,0,0,1,1,1l0,11.19A1,1,0,0,1,462.24,205.46Z"/><rect x="421.95" y="227.75" width="11.55" height="10.56" transform="translate(-1.21 2.23) rotate(-0.3)" fill="#0E7490"/><rect x="438.48" y="227.67" width="11.55" height="10.56" transform="translate(-1.21 2.32) rotate(-0.3)" fill="#0E7490"/><rect x="455.02" y="227.59" width="11.55" height="10.56" transform="translate(-1.21 2.4) rotate(-0.3)" fill="#0E7490"/><rect x="421.98" y="243.59" width="11.55" height="10.56" transform="translate(-1.29 2.23) rotate(-0.3)" fill="#0E7490"/><rect x="438.51" y="243.51" width="11.55" height="10.56" transform="translate(-1.29 2.32) rotate(-0.3)" fill="#0E7490"/><rect x="455.05" y="243.43" width="11.55" height="10.56" transform="translate(-1.29 2.41) rotate(-0.3)" fill="#0E7490"/><path d="M433.54,239.24a.9.9,0,0,1-.71-.24l-11.55-10.24a1,1,0,0,1,1.26-1.49l11.55,10.24a.94.94,0,0,1,.11,1.37A.88.88,0,0,1,433.54,239.24Z"/><path d="M422.05,239.3a.92.92,0,0,1-.82-.33,1,1,0,0,1,.09-1.4l11.5-10.66a1,1,0,0,1,1.31,1.48l-11.5,10.66A.76.76,0,0,1,422.05,239.3Z"/></g><g id="Layer_26" data-name="Layer 26"><path d="M362.31,214.83a15.14,15.14,0,0,0,8.4-2.2c4-2.5,6.3-7.1,6.7-13.7a1,1,0,1,0-2-.2c-.4,5.9-2.3,10-5.8,12.2-6.4,4-15.9.3-16,.2a1,1,0,0,0-.7,1.9A24.89,24.89,0,0,0,362.31,214.83Z"/><path d="M365.71,168.63c0-7.3,5.1-13.2,11.4-13.2s11.4,5.9,11.4,13.2c0,5.3-2.7,9.9-6.6,12h-9.6A13.63,13.63,0,0,1,365.71,168.63Z" fill="#d7d7d7"/><polygon points="381.91 180.53 381.91 193.23 372.21 193.23 372.21 180.53 372.31 180.53 381.91 180.53" fill="#fff"/><path d="M371.21,193.23v-12.6a.94.94,0,0,1,1-1h9.7a.94.94,0,0,1,1,1v12.6a.94.94,0,0,1-1,1h-9.7A1.08,1.08,0,0,1,371.21,193.23Zm9.7-11.6h-7.7v10.6h7.7Z"/><path d="M378.61,181.53a1.2,1.2,0,0,0,1-.7l3.3-11.1a1,1,0,0,0-.2-.9.91.91,0,0,0-.8-.4H377a1,1,0,0,0,0,2h3.5l-3,9.9a.89.89,0,0,0,.7,1.2Z"/><path d="M375.61,181.53h.3a1.09,1.09,0,0,0,.7-1.2l-3-9.9h3.5a1,1,0,0,0,0-2h-4.9a.91.91,0,0,0-.8.4,1.49,1.49,0,0,0-.2.9l3.4,11.2A1.1,1.1,0,0,0,375.61,181.53Z"/><path d="M377.11,151.33a.94.94,0,0,0,1-1v-5.5a1,1,0,0,0-2,0v5.5A.94.94,0,0,0,377.11,151.33Z"/><path d="M365.51,156.13a.91.91,0,0,0,.7-.3,1,1,0,0,0,0-1.4l-3.9-3.9a1,1,0,0,0-1.4,1.4l3.9,3.9A1.08,1.08,0,0,0,365.51,156.13Z"/><path d="M355.21,167.73h5.5a1,1,0,0,0,0-2h-5.5a1,1,0,0,0,0,2Z"/><path d="M393.41,167.73h5.5a1,1,0,0,0,0-2h-5.5a.94.94,0,0,0-1,1A1,1,0,0,0,393.41,167.73Z"/><path d="M388.61,156.13a.91.91,0,0,0,.7-.3l3.9-3.9a1,1,0,0,0-1.4-1.4l-3.9,3.9a1,1,0,0,0,0,1.4A1.08,1.08,0,0,0,388.61,156.13Z"/></g></svg>