<svg xmlns="http://www.w3.org/2000/svg" viewBox="0 0 841.9 595.3"><g id="Layer_12" data-name="Layer 12"><polygon points="233.87 288.45 233.42 297.33 240.65 303.29 231.76 305.76 228.43 314.44 223.31 306.61 213.85 306.04 219.88 298.93 217.61 289.99 226.53 293.17 233.87 288.45" fill="#fff"/><polygon points="596.23 123.99 592.5 136.01 580.37 140.03 590.45 147.28 590.64 159.83 600.87 152.39 612.96 156.34 609.1 144.43 616.22 134.02 603.28 134.14 596.23 123.99" fill="#fff"/><polygon points="364.55 104.09 384.05 137.62 385.35 139.11 392.56 145.15 407.61 136.4 406 127.19 405.38 125.35 385.9 91.72 364.55 104.09" fill="#fff"/><circle cx="538.79" cy="428.12" r="25.57" fill="#fff"/><path d="M299.76,285.61s7.77-12.09,28.74-29.38c6.83-5.13,7.69-6.87,29.76-17.37,5.17-2.05,28.42-7.57,33-7.62,3.64-2,45.28-23.1,45.28-23.1s25.68-13.28,28.75-14.45c.89,2,10.52,22.48,10.52,22.48s-31.93,15.2-36.68,17.63-21,10.42-30.2,17.08c-3.24,2.44-9,6.38-10.3,8.23-.4,1.93-1.36,9.9-5.45,14l22.69.52-2.4,25.92-33.92-2.26-1.95,3.52-32.92-1.24Z" fill="#fff"/><path d="M395.52,270.46c53.28-31.9,98.4-41.72,98.4-41.72L509.75,249l24.33,31.22S502.66,343,434.92,395.82c-26,20.26-47.59,32.69-64.41,40.26-29.2,13.25-44.39,12.09-44.39,12.09h0l-38.87-49.9-2.87-3.63L280,389s2.63-15,22.59-39.95c3-3.81,6.5-7.92,10.43-12.24Z" fill="#fff"/><polygon points="548.79 227.32 493.92 228.74 513.96 254.42 533.98 280.2 548.79 227.32" fill="#cbcbca"/><polygon points="297.29 464.01 257.63 413.05 280.02 388.99 326.12 448.17 297.29 464.01" fill="#cbcbca"/><path d="M302.61,349h0l-40.9-9.37-19.64,15.25L280,389h0S282.65,374,302.61,349Z" fill="#cbcbca"/><path d="M370.39,436.16h0c-29.08,13.17-44.27,12-44.27,12h0l23.74,45.11L369.49,478Z" fill="#cbcbca"/><path d="M325.92,449.13a1,1,0,0,1-.78-1.07.93.93,0,0,1,1.09-.88c.19,0,15.34.9,43.86-12,20-9,41.54-22.57,64.2-40.21,66.77-52,98.54-114.62,98.88-115.25a1,1,0,0,1,1.73.87c-.33.63-32.29,63.63-99.42,115.94C412.7,414.26,391,427.87,370.83,437c-29.08,13.17-44.21,12.22-44.81,12.2Z"/><path d="M279.82,390a1,1,0,0,1-.77-1.17c.12-.58,2.95-15.52,22.79-40.42,3.27-4.05,6.75-8.16,10.53-12.21a1.09,1.09,0,0,1,1.43-.11,1.1,1.1,0,0,1,.1,1.44c-3.67,4.07-7.25,8.16-10.41,12.14C284,374.08,281.12,389,281.08,389.21a1.16,1.16,0,0,1-1.26.75Z"/><path d="M395.32,271.43a.91.91,0,0,1-.62-.43.89.89,0,0,1,.38-1.33c52.81-31.61,98.21-41.76,98.74-41.86a1,1,0,0,1,.4,1.9c-.42.12-45.61,10.22-98.09,41.69A3.31,3.31,0,0,1,395.32,271.43Z"/><path d="M441.09,351.92a1,1,0,0,1-.73-.86,1,1,0,0,1,.85-1.13,35.22,35.22,0,0,0,22.62-56.48,32.65,32.65,0,0,0-6.6-6.53,1,1,0,1,1,1.14-1.58,37.37,37.37,0,0,1,7,6.92A36.74,36.74,0,0,1,473,319.67a37.28,37.28,0,0,1-14.07,24.79,36.34,36.34,0,0,1-17.39,7.45A.81.81,0,0,1,441.09,351.92Z"/><path d="M428.26,351.55a37.08,37.08,0,0,1-28.1-46.43.89.89,0,0,1,1.25-.64.88.88,0,0,1,.64,1.24,35.45,35.45,0,0,0,6.09,31.13A34.82,34.82,0,0,0,432,350.21a1,1,0,0,1,.88,1.1,1.07,1.07,0,0,1-1.09.88C430.6,351.94,429.42,351.8,428.26,351.55Z"/><path d="M548.58,228.29A1.14,1.14,0,0,1,548,228a1,1,0,0,1,.19-1.38l33.15-25.83a1,1,0,0,1,1.37.18,1,1,0,0,1-.18,1.38l-33.15,25.83A1.11,1.11,0,0,1,548.58,228.29Z"/><path d="M380.6,390.79l-1.49,23.49s55.69-9.71,61.07-10.81,6.66-4.35.32-5.88-29.54-2.46-33-1.87c-.05-5.05-.6-11.12-.6-11.12Z" fill="#fff"/><path d="M378.91,415.25a.86.86,0,0,1-.46-.2,1.17,1.17,0,0,1-.35-.78l1.5-23.49a1.06,1.06,0,0,1,.8-.94l26.4-6.17a1.13,1.13,0,0,1,.78.17.62.62,0,0,1,.36.68c0,.09.49,5.34.6,10.11,5.91-.28,26.29.66,32.26,2,4.14,1,5,2.57,4.94,3.86-.07,1.8-2,3.32-5.36,3.92-5.37,1.1-60.54,10.72-61.06,10.81A.59.59,0,0,1,378.91,415.25Zm2.54-23.67-1.28,21.51c8.26-1.39,55-9.66,59.8-10.57,2.86-.61,3.77-1.63,3.76-2s-.94-1.31-3.45-1.84c-6.43-1.55-29.47-2.34-32.59-1.88a.72.72,0,0,1-.75-.26c-.27-.16-.31-.47-.34-.78-.05-3.64-.36-7.94-.45-9.87Z"/><path d="M493.51,186.4a27.49,27.49,0,0,1,5.74,1c2.17.75,6.27,2.82,5.16,6.22-.9,2.84-3.36,2.53-5.24,1.42s-2.73-2.38-4.43-2.44c-4.94,0-6-3.36-6-3.36Z" fill="#fff"/><path d="M500.72,196.78a6,6,0,0,1-2.05-.83,7.31,7.31,0,0,1-1.57-1.14,4.91,4.91,0,0,0-2.37-1.2c-5.64-.07-6.86-3.86-6.92-4.07a1.06,1.06,0,0,1,.44-1.12l4.75-2.94a4.1,4.1,0,0,1,.64-.17,31.75,31.75,0,0,1,6,1.07c3.57,1.25,6.95,3.87,5.8,7.46a4.21,4.21,0,0,1-2.39,2.73A3.86,3.86,0,0,1,500.72,196.78Zm-5.11-5a6.32,6.32,0,0,1,2.72,1.48c.44.29.87.68,1.4,1a3.07,3.07,0,0,0,2.61.54,1.85,1.85,0,0,0,1.12-1.48c.9-2.84-3.29-4.52-4.5-5a28.94,28.94,0,0,0-5.15-1l-3.69,2.25c.53.82,1.89,2,4.72,2C495,191.75,495.32,191.72,495.61,191.78Z"/><path d="M396.82,206.49s4.08-.26,8.05-.43,4.74,2.91,3.56,5.18-6.81,3.11-7.27,7.76c-1,11.18-2.39,15.73-9.27,18.73-2.34,1-5.49.67-8.08,0l-.19,0s-.58,2.3-1.05,5a10.06,10.06,0,0,1-11.48-2.51S374.5,236,375,228.44c-1.73.54-7.47,1.46-6.74-3.94.52-3.42,4.08-6,7.77-2.91l.34-13.64Z" fill="#fff"/><path d="M376.06,221.81l.35-13.75,25.21-1.88s9.27-19.24-16-17.37c-19.78,1.5-18.56,14-18.56,14s-7.39,1.58-9.45,11.43,8.07,19.25,16.23,20.75C374.73,231.51,374,232.57,376.06,221.81Z" fill="#0E7490"/><path d="M376.06,221.81c-3.67-3.19-7.16-.49-7.77,2.91-.73,5.39,5,4.48,6.74,3.93-.48,7.57-3.89,11.8-3.89,11.8a10.13,10.13,0,0,0,11.48,2.5c.47-2.72,1.05-5,1.05-5" fill="#fff"/><path d="M376.45,244.48a11.68,11.68,0,0,1-6-3.48.94.94,0,0,1,0-1.22,20.26,20.26,0,0,0,3.57-9.84,6.84,6.84,0,0,1-5.35-.92c-1.12-.94-1.51-2.43-1.32-4.31a6.12,6.12,0,0,1,3.74-4.87,5.65,5.65,0,0,1,5.66,1.39,1,1,0,1,1-1.33,1.54c-1.29-1.08-2.52-1.44-3.63-1a4.16,4.16,0,0,0-2.41,3.32,3,3,0,0,0,.58,2.55c1.21,1,3.71.57,4.89.21a.74.74,0,0,1,.87.19.77.77,0,0,1,.32.87,23.13,23.13,0,0,1-3.63,11.55,9,9,0,0,0,9.4,1.86c.43-2.53.93-4.44.95-4.54a1,1,0,0,1,1.93.41s-.58,2.29-1,4.92a1.48,1.48,0,0,1-.57.79A12,12,0,0,1,376.45,244.48Z"/><path d="M379.35,236.42s8.06,3.4,12.61,1.43c6.88-3,8.24-7.56,9.27-18.74.45-4.54,6.17-5.36,7.27-7.75s.42-5.36-3.55-5.19-8,.45-8,.45" fill="#fff"/><path d="M384.27,239a38.39,38.39,0,0,1-5.41-1.64,1,1,0,0,1,.79-1.85c.1,0,7.7,3.23,11.91,1.39,6.34-2.81,7.65-6.67,8.71-18,.28-3.27,2.92-4.83,4.91-6.13a7.83,7.83,0,0,0,2.42-1.92,2.69,2.69,0,0,0,0-2.82,3.28,3.28,0,0,0-2.72-1c-4,.18-8,.45-8,.45a1,1,0,0,1-.09-1.93s4.1-.35,8.07-.53a4.39,4.39,0,0,1,4.57,6.61c-.55,1.19-1.82,1.93-3.1,2.77-1.85,1.13-3.82,2.33-4,4.61-.95,10.8-2.3,16.27-9.86,19.62C390,239.75,387,239.52,384.27,239Z"/><circle cx="387.35" cy="213.18" r="1.48"/><circle cx="393.57" cy="212.36" r="1.48"/><path d="M366.73,203.72a.89.89,0,0,1-.61-.44c-.08-.11-1.34-1.79-5.16-1.38a1,1,0,0,1-1.13-.84,1,1,0,0,1,.84-1.14c5.25-.51,7,2.18,7.09,2.3a1,1,0,0,1-.29,1.35A.91.91,0,0,1,366.73,203.72Z"/><path d="M299,287a.63.63,0,0,1-.37-.17,1,1,0,0,1-.22-1.36c38.11-49,74.91-51.38,75.22-51.42a1,1,0,1,1,.1,1.94c-.4,0-36.3,2.38-73.74,50.62A.93.93,0,0,1,299,287Z"/><path d="M398.36,260.27a.86.86,0,0,1-.46-.2,1,1,0,0,1-.11-1.43c12.08-13.82,68.57-39.4,76.79-43-1.61-3.37-7.15-15.42-9.8-20.62-9.74,4.62-63.54,32.28-64.11,32.57a1.05,1.05,0,0,1-1.33-.38,1,1,0,0,1,.38-1.33c2.37-1.22,58.22-30,65.1-33a1.07,1.07,0,0,1,1.31.48c2.82,5.33,10.56,22.28,10.64,22.4a1.07,1.07,0,0,1,0,.81,1,1,0,0,1-.53.6c-.66.26-64.52,28.75-77,43A1.83,1.83,0,0,1,398.36,260.27Z"/><path d="M361,296.31A17.54,17.54,0,0,1,348.2,273l4.7-12.33a.95.95,0,1,1,1.77.67L350,273.63a15.59,15.59,0,0,0,1.35,13.8,15.16,15.16,0,0,0,11.92,7.14l49.29,4,2.28-24.34-42.94-.12a.79.79,0,0,1-.81-.47,1,1,0,0,1,0-.91l6.52-12.85a1,1,0,0,1,1.3-.44,1,1,0,0,1,.44,1.3l-5.74,11.51,42.34.09a.78.78,0,0,1,.73.36,1,1,0,0,1,.25.76l-2.41,26.42a1,1,0,0,1-1.09.88l-50.29-4.07A16.39,16.39,0,0,1,361,296.31Z"/><path d="M393.22,274.22a.36.36,0,0,1-.27-.16,1,1,0,0,1-.32-1.38c4.27-6.87,5.92-13.79,4.85-20.26a1,1,0,1,1,2-.29c1.16,7-.61,14.49-5.06,21.73A1.35,1.35,0,0,1,393.22,274.22Z"/><path d="M397.14,249.22a1.14,1.14,0,0,1-.76-.67,18.55,18.55,0,0,0-2.29-4.51,1,1,0,1,1,1.56-1.18,20.94,20.94,0,0,1,2.57,5.07,1,1,0,0,1-.57,1.29A.74.74,0,0,1,397.14,249.22Z"/><path d="M490.67,190.34s4.62-1.35,5.74,1.5-.49,9.08-2.41,11.5-8.39.57-8.39.57-1.73-5.71-.51-9.59S490.67,190.34,490.67,190.34Z" fill="#fff"/><path d="M486.37,205.07l-1.06-.22a.88.88,0,0,1-.67-.64c-.06-.22-1.77-6-.49-10.19s5.6-4.58,6.41-4.61c2-.58,5.7-.72,6.82,2.13,1.15,3.17-.46,9.89-2.61,12.47C492.91,206.14,488.5,205.52,486.37,205.07Zm-.07-2c2.12.45,5.76.9,6.83-.38,1.65-2.08,3.19-8,2.21-10.53-.72-1.87-4.44-.94-4.56-.86a.36.36,0,0,0-.22.06c-.19,0-3.75.12-4.71,3.25C485.05,197.43,486,201.57,486.3,203Zm4.37-12.7Z"/><path d="M489,201.19c-1.13-7.1,5.49-13.18,8.56-14.85,1.27-.75,6.81-3.62,8.49-5.39s-.33-4.2-2.91-3.93c-10.17,1.4-36.46,19.49-36.46,19.49l7.68,16.33s7.34,1.54,13.66-1.17c3.2-1.34,12.82-7.3,12.89-10.51,0-2.92-2.41-3.43-4.27-3.21-1.55.17-3.87,2.11-7.42,3.18Z" fill="#fff"/><path d="M474.27,213.73a.88.88,0,0,1-.69-.54l-7.67-16.34a.92.92,0,0,1,.36-1.23c1.07-.79,26.61-18.23,36.88-19.61a4.37,4.37,0,0,1,4.28,2.21,3,3,0,0,1-.61,3.4c-1.56,1.69-6.23,4.24-8.16,5.25l-.56.29c-2.75,1.54-8.37,6.71-8.21,12.7a35.86,35.86,0,0,0,3.67-1.65,9.79,9.79,0,0,1,3.09-1.27c1-.09,2.87-.21,4.14,1a3.83,3.83,0,0,1,1.24,3.18c-.07,4.22-11.26,10.45-13.48,11.4C481.91,215.33,474.56,213.8,474.27,213.73Zm-6.35-16.86L475,212c1.67.25,7.56,1,12.66-1.18,3.86-1.61,12.32-7.31,12.3-9.63a2.71,2.71,0,0,0-.54-1.73,3.48,3.48,0,0,0-2.61-.54,9.3,9.3,0,0,0-2.34,1,29.64,29.64,0,0,1-4.87,2.11l-.22.05a.81.81,0,0,1-.79-.06.92.92,0,0,1-.46-.71c-1.25-7.52,5.55-14,9.07-15.85l.56-.28c1.72-1,6.27-3.43,7.68-4.85a.9.9,0,0,0,.24-1.16,2.48,2.48,0,0,0-2.3-1.09C494.31,179.2,472.15,194,467.92,196.87Z"/><path d="M484.84,203.24a.88.88,0,0,1-.75-.76,1,1,0,0,1,.85-1.14c.52-.09,2.56-.67,3.84-1a1,1,0,0,1,.6,1.94,41.78,41.78,0,0,1-4.06,1.07Z"/><path d="M454.37,281.78s4.2.68,3.42,3.44S450,288.93,446.6,289s-9.62-.3-9.62-.3,9.93,2.68,14.2,3c1.49.12,3.31.6,3.16,2.28s-2,2.81-5.4,2.2-15.39-2.62-15.39-2.62-13.36,2.14-19.12-3.1c.15-2.19,1.59-17.22,1.59-17.22s6.29-.19,9.2-2.51,5.63-6.68,7.44-7.11,3.56.34,2.9,2.52a17.87,17.87,0,0,1-3.11,5.7c2.31-.42,16.27-3,19.9-4.5,2-.7,4.33-.91,5.26.9s-1.17,3.69-3.58,4.59a127.38,127.38,0,0,1-13.69,4.2c3.21.57,15.36-1.12,15.36-1.12s3.18-.24,3.58,2.16-1.86,3.14-5.3,3.63a126.07,126.07,0,0,1-14.2,1.36" fill="#fff"/><path d="M420.64,294.49a14.23,14.23,0,0,1-6.9-3.16,1.17,1.17,0,0,1-.34-.78L415,273.33a1,1,0,0,1,1-.9c.09,0,6-.25,8.55-2.34a25.46,25.46,0,0,0,3.48-3.61c1.71-1.86,2.94-3.42,4.32-3.74a4,4,0,0,1,3.57.75,3,3,0,0,1,.57,3.05,20.16,20.16,0,0,1-1.74,4c4.83-.9,14.51-2.81,17.27-3.95,3.15-1.05,5.47-.57,6.48,1.36a2.63,2.63,0,0,1,.09,2.44c-.5,1.41-2.08,2.69-4.18,3.56-1.1.48-3.49,1.29-6.08,2.06,2.8-.33,5.68-.63,7.23-.81s4.28.29,4.74,2.91a3.34,3.34,0,0,1-1.66,3.59,6.81,6.81,0,0,1-1,.39,2.81,2.81,0,0,1,.9,1,2.9,2.9,0,0,1,.29,2.48c-1.28,4.17-11.93,4.46-12.05,4.54h0c1.74.36,3.41.61,4.59.76.88.08,2.57.23,3.45,1.32a2.7,2.7,0,0,1,.58,2,3.07,3.07,0,0,1-1.4,2.33c-.83.63-2.37,1.22-5.19.73-3.21-.57-13.84-2.29-15.2-2.58A42.05,42.05,0,0,1,420.64,294.49Zm-5.22-4.43c5.51,4.49,17.81,2.62,17.92,2.55s.22-.06.31,0,12,2,15.39,2.62a5,5,0,0,0,3.61-.35,1.48,1.48,0,0,0,.6-1,.54.54,0,0,0-.09-.52,2.91,2.91,0,0,0-2.08-.64c-4.38-.31-14-2.93-14.4-3a.95.95,0,0,1,.29-1.86c.09,0,6.38.33,9.62.3,4.24,0,9.69-1.5,10.23-3.1a1.08,1.08,0,0,0-.11-.93,4.35,4.35,0,0,0-2.35-1.3c-.1,0-.21.06-.31,0a119.76,119.76,0,0,1-14.3,1.35,1,1,0,1,1,0-2,111.29,111.29,0,0,0,14-1.3c.1,0,.31,0,.41,0l.09,0a11.74,11.74,0,0,0,3.23-.94,1.26,1.26,0,0,0,.73-1.56c-.2-1.45-2.45-1.32-2.55-1.34-.42.11-12.37,1.75-15.65,1.06a1,1,0,0,1-.81-1,.91.91,0,0,1,.81-.94c3.49-.78,11.18-3.3,13.47-4.13a5.75,5.75,0,0,0,3.12-2.38.76.76,0,0,0,0-.81c-.72-1.36-2.84-.9-4-.44-4,1.68-19.91,4.5-20.12,4.56a1.09,1.09,0,0,1-1.1-.53.9.9,0,0,1,.24-1.16,14.62,14.62,0,0,0,2.8-5.17c.08-.38.18-.87-.07-1.12a2,2,0,0,0-1.66-.25c-.74.15-2.09,1.78-3.26,3a36,36,0,0,1-3.74,3.86c-2.43,2-7,2.57-8.83,2.69Z"/><path d="M304.39,287.08l40.26,12.47,59.12,2.3a16.14,16.14,0,0,1,15.66,13.86l3.09,71-52.06,12.1,9.83-62.8-57.54,3.58a25.68,25.68,0,0,1-26-36.4Z" fill="#0E7490"/><path d="M375.4,304.88a.36.36,0,0,1-.27-.16,1,1,0,0,1-.32-1.38l4.07-6.91a1,1,0,1,1,1.7,1.06l-4.07,6.92A1,1,0,0,1,375.4,304.88Z"/><path d="M350.25,338.75a1.22,1.22,0,0,1-.82-.88,1,1,0,0,1,.92-1l44.46-2.79a1,1,0,0,1,1,.92,1,1,0,0,1-.92,1l-44.45,2.79Z"/><path d="M188,494.77a.39.39,0,0,1-.27-.15,1,1,0,0,1-.31-1.38c6.09-9.82,15.71-9.52,25.14-9.26a89,89,0,0,0,9.39-.05c2.48-.29,4.13-.95,4.92-2.3,1.73-3-.6-8.7-2.56-13.34-.68-1.56-1.26-3.09-1.77-4.51a10.92,10.92,0,0,1,2.4-11c2.33-2.44,8.13-6.07,20-2.67s21-5.58,21.18-5.75a1,1,0,0,1,1.41,0,1,1,0,0,1,0,1.42c-.39.42-10,10-23.1,6.25-10.85-3.08-15.93,0-18,2.18a8.77,8.77,0,0,0-2,9c.43,1.3,1,2.74,1.72,4.29,2.22,5.31,4.7,11.28,2.38,15.13-1.1,1.88-3.24,2.95-6.44,3.29a79,79,0,0,1-9.6.1c-9.22-.31-17.85-.51-23.33,8.33A1.24,1.24,0,0,1,188,494.77Z"/><path d="M533.33,454.21a26.68,26.68,0,0,1-20.63-31.56A26.27,26.27,0,0,1,521,408.34a26.65,26.65,0,1,1,12.38,45.87Zm10.5-50.15A24.63,24.63,0,1,0,563,433.18,24.6,24.6,0,0,0,543.83,404.06Z"/><path d="M529.76,416.85c-5.7-1.2-9.77-5.88-10-6.14a1.07,1.07,0,0,1,.09-1.39,1.08,1.08,0,0,1,1.4.09c.07.12,6.26,7.16,13.38,5.43,3.19-.75,4.86-3.42,6.51-6,1.94-3,4.18-6.49,9-4.88a1,1,0,0,1-.6,1.89c-3.21-1.07-4.46.58-6.6,4.07-1.79,2.75-3.75,5.87-7.69,6.86A11.74,11.74,0,0,1,529.76,416.85Z"/><path d="M542.12,447.37c-2.61-.54-4.57-2.26-6.55-3.89s-3.84-3.32-6.5-4.08a7.16,7.16,0,0,0-7.05,1.85,1,1,0,0,1-1.42-1.41,9.39,9.39,0,0,1,9-2.36,18.27,18.27,0,0,1,7.33,4.46c2.06,1.75,3.85,3.33,6.32,3.55,2.87.29,4.35-1,5.93-2.29a6.81,6.81,0,0,1,3.87-2.12,7.89,7.89,0,0,1,6.58,2.29,1,1,0,0,1-1.4,1.42,6.16,6.16,0,0,0-4.89-1.73,6.74,6.74,0,0,0-2.88,1.72c-1.6,1.38-3.69,3.16-7.44,2.78Z"/><path d="M561.43,438.51c-1.93-.41-3.26-1.29-3.81-2.51a4.83,4.83,0,0,1-.22-3.28c-2.49.29-5.62-.17-7-3.18-2.15-4.69,1.07-7,4.79-9.89l.58-.38c4.08-3.08.45-8.38.3-8.61a1,1,0,1,1,1.63-1.07c1.7,2.47,3.69,7.93-.76,11.34l-.58.38c-3.94,2.91-5.56,4.38-4.2,7.49,1.52,3.35,6.49,1.76,6.49,1.76a.9.9,0,0,1,1.05.32,1.12,1.12,0,0,1,.06,1.13c-.31.54-1,2.1-.47,3.23q.63,1.33,3.3,1.59a1,1,0,0,1,.88,1.1,1.18,1.18,0,0,1-1.1.88A3,3,0,0,0,561.43,438.51Z"/><circle cx="575.32" cy="342.25" r="9.28" transform="translate(122.39 835.19) rotate(-78.17)" fill="#0E7490"/><path d="M228.09,315.58a.93.93,0,0,1-.62-.43l-4.75-7.65-9-.37a1,1,0,0,1-.88-.59,1.37,1.37,0,0,1,.12-1.09l5.78-6.86-2.42-8.67a1.08,1.08,0,0,1,.32-1,.92.92,0,0,1,1-.19l8.38,3.37,7.5-5a.78.78,0,0,1,1,0,1,1,0,0,1,.52.92l-.67,8.94,7,5.6a1.13,1.13,0,0,1,.4,1,1,1,0,0,1-.76.75l-8.74,2.2-3.17,8.41a1,1,0,0,1-.84.64C228.28,315.62,228.19,315.6,228.09,315.58Zm-4.58-9.93a.88.88,0,0,1,.62.43l4,6.39,2.67-7a.83.83,0,0,1,.73-.55l7.33-1.8L233,298.45a.77.77,0,0,1-.32-.87l.57-7.55-6.31,4.13a1.4,1.4,0,0,1-.93.11l-7-2.78,2,7.28a1,1,0,0,1-.18.87L216,305.39l7.49.35C223.32,305.61,223.42,305.63,223.51,305.65Z"/><polygon points="294.23 200.55 295.8 213.29 307.13 219.39 295.43 224.71 293.16 237.44 284.46 227.96 271.68 229.72 278.06 218.55 272.31 206.95 284.99 209.51 294.23 200.55" fill="#0E7490"/><path d="M590.36,161.18l-.29-.06a.94.94,0,0,1-.52-.91l.08-12.39-10.22-7.08a.86.86,0,0,1-.4-1,1,1,0,0,1,.67-.77l11.78-3.79,3.6-11.85a.84.84,0,0,1,.74-.65c.41,0,.79.06.92.39l7.27,10.1,12.35-.24a.89.89,0,0,1,.91.49.91.91,0,0,1-.11,1l-7.33,10L613.93,156a1.08,1.08,0,0,1-.22,1.06,1.23,1.23,0,0,1-1.07.28l-11.8-3.88L591,161C591,161.21,590.65,161.25,590.36,161.18Zm-8.14-20.86,9,6.22a1,1,0,0,1,.43.79l-.06,10.88,8.64-6.56a.94.94,0,0,1,.93-.11l10.39,3.39L608,144.6a1,1,0,0,1,.09-.89l6.49-8.83-10.94.23a1,1,0,0,1-.83-.38l-6.43-8.81-3.09,10.45a1,1,0,0,1-.65.67ZM592.31,136Z"/><path d="M383.47,139.92a.93.93,0,0,1-.62-.43L362.4,104.24a1.08,1.08,0,0,1-.15-.74.89.89,0,0,1,.43-.61l23.07-13.33a1,1,0,0,1,1.33.38l20.45,35.25a1,1,0,0,1,.15.74.93.93,0,0,1-.43.62l-23.06,13.32A.85.85,0,0,1,383.47,139.92Zm-18.92-35.83,19.5,33.53,21.35-12.37L385.9,91.71Z"/><path d="M392.21,147.3a.86.86,0,0,1-.46-.2L383,139.82a.88.88,0,0,1-.33-.87,1.64,1.64,0,0,1,.48-.81l23.06-13.33a1,1,0,0,1,.91,0,1.06,1.06,0,0,1,.56.72l2,11.21a.8.8,0,0,1-.51,1l-16.29,9.4A.6.6,0,0,1,392.21,147.3Zm-6.86-8.19,7.13,5.93,15-8.75-1.6-9.21Z"/><polygon points="317.02 174.52 369.48 136.89 357.98 117.13 299.33 143.88 317.02 174.52" fill="#cbcbca"/><path d="M308,160.13a.93.93,0,0,1-.62-.43,1,1,0,0,1,.38-1.34l68.88-39.93a1,1,0,1,1,1,1.71l-68.88,39.94A1,1,0,0,1,308,160.13Z"/><path d="M333.91,163.23a.91.91,0,0,1-.62-.43l-15.8-27.12a1,1,0,1,1,1.71-1l15.71,27.09a1,1,0,0,1-.38,1.34A1.52,1.52,0,0,1,333.91,163.23Z"/><path d="M351.35,150.74a.88.88,0,0,1-.62-.43L337.18,126.9a1,1,0,1,1,1.71-1l13.55,23.42a1,1,0,0,1-.38,1.33A1.73,1.73,0,0,1,351.35,150.74Z"/><polygon points="452.82 54.9 400.45 92.54 411.85 112.28 470.62 85.46 452.82 54.9" fill="#cbcbca"/><path d="M392.64,111.08a.91.91,0,0,1-.62-.43,1,1,0,0,1,.38-1.33l68.88-39.94a1,1,0,1,1,1,1.71L393.35,111A.94.94,0,0,1,392.64,111.08Z"/><path d="M451.35,95.14a.91.91,0,0,1-.62-.44L435,67.61a1,1,0,0,1,1.71-1l15.71,27.09a1,1,0,0,1-.38,1.33A1.81,1.81,0,0,1,451.35,95.14Z"/><path d="M431.73,104a.89.89,0,0,1-.61-.43L417.56,80.19a1,1,0,0,1,1.72-1l13.55,23.41a1,1,0,0,1-.38,1.34A1.52,1.52,0,0,1,431.73,104Z"/><line x1="351.08" y1="462.88" x2="327.94" y2="478.5" fill="none" stroke="#000" stroke-linecap="round" stroke-linejoin="round" stroke-width="2"/><circle cx="657.95" cy="257.13" r="19.94" transform="translate(275.56 851.09) rotate(-78.57)" fill="#cbcbca"/><path d="M657.76,258.1l-.2,0a4.7,4.7,0,0,1-2.31-2.48,4.36,4.36,0,0,1,.18-3.39,4.41,4.41,0,0,1,5.87-2.14,4.74,4.74,0,0,1,2.32,2.49,4.42,4.42,0,0,1-.18,3.38,1,1,0,0,1-1.75-.85,2.14,2.14,0,0,0,.09-1.9,2.3,2.3,0,0,0-1.24-1.36,2.17,2.17,0,0,0-1.9-.08,2.08,2.08,0,0,0-1.36,1.24,2.15,2.15,0,0,0-.08,1.89,2.27,2.27,0,0,0,1.24,1.36,1,1,0,0,1,.44,1.3A1.13,1.13,0,0,1,657.76,258.1Z"/><path d="M655.54,264.6a4.36,4.36,0,0,1-1-.31,4.74,4.74,0,0,1-2.32-2.49,4.38,4.38,0,0,1,.19-3.38.93.93,0,0,1,1.29-.45.94.94,0,0,1,.45,1.3,2.17,2.17,0,0,0-.08,1.9,2.07,2.07,0,0,0,1.23,1.36,2.17,2.17,0,0,0,1.9.08,2.3,2.3,0,0,0,1.36-1.24,2.15,2.15,0,0,0,.08-1.89,2.27,2.27,0,0,0-1.24-1.36,1,1,0,0,1-.44-1.3.93.93,0,0,1,1.3-.44,4.69,4.69,0,0,1,2.32,2.48,4.41,4.41,0,0,1-.19,3.39,4.69,4.69,0,0,1-2.48,2.32A5.84,5.84,0,0,1,655.54,264.6Z"/><path d="M653.71,266.65l-.19,0a.94.94,0,0,1-.44-1.3l1.09-2.4a1,1,0,0,1,1.74.86l-1.09,2.4A1.21,1.21,0,0,1,653.71,266.65Z"/><path d="M660.64,251.83l-.2,0a.94.94,0,0,1-.44-1.3l1.09-2.39a1,1,0,1,1,1.74.85l-1.09,2.4A1,1,0,0,1,660.64,251.83Z"/><rect x="617.25" y="239.43" width="6.71" height="49.46" transform="translate(316.43 866.16) rotate(-86.25)" fill="#fff"/><path d="M595.54,267a1.39,1.39,0,0,1-.55-.31,1.63,1.63,0,0,1-.25-.75l.46-6.76a.94.94,0,0,1,1.09-.89l49.4,3.24a.86.86,0,0,1,.64.33,1.67,1.67,0,0,1,.25.76l-.46,6.75a.93.93,0,0,1-1.09.89L595.63,267Zm1.56-6.73-.36,4.76,47.41,3.14.35-4.76Z"/><rect x="618.48" y="246.32" width="6.71" height="49.46" transform="translate(310.7 873.83) rotate(-86.25)" fill="#fff"/><path d="M596.78,273.77a1.35,1.35,0,0,1-.54-.31,1.56,1.56,0,0,1-.25-.76l.46-6.75a.93.93,0,0,1,1.08-.89l49.4,3.24a.92.92,0,0,1,.89,1.08l-.46,6.76c-.06.29-.09.48-.33.64a1.63,1.63,0,0,1-.75.25l-49.4-3.24Zm1.54-6.64L598,271.9,645.37,275l.36-4.76Z"/><rect x="612.17" y="252.6" width="6.71" height="49.46" transform="matrix(0.07, -1, 1, 0.07, 298.53, 873.39)" fill="#fff"/><path d="M590.45,280.15a1.57,1.57,0,0,1-.54-.31,1.71,1.71,0,0,1-.25-.76l.46-6.76a.93.93,0,0,1,1.09-.88l49.4,3.23a.84.84,0,0,1,.64.34,1.63,1.63,0,0,1,.25.75l-.46,6.76a.93.93,0,0,1-1.09.88l-49.4-3.23Zm1.55-6.64-.36,4.76,47.41,3.14.36-4.76Z"/><rect x="615.88" y="259.7" width="6.71" height="49.46" transform="matrix(0.07, -1, 1, 0.07, 294.92, 883.74)" fill="#fff"/><path d="M594.18,287.14a1.29,1.29,0,0,1-.54-.31,1.43,1.43,0,0,1-.25-.75l.45-6.76a1,1,0,0,1,1.09-.89l49.4,3.24c.29.06.49.1.64.33a1.67,1.67,0,0,1,.25.76l-.46,6.75a.93.93,0,0,1-1.09.89l-49.4-3.24Zm1.54-6.63-.36,4.76,47.41,3.14.36-4.77Z"/></g></svg>