<svg xmlns="http://www.w3.org/2000/svg" viewBox="0 0 841.9 595.3"><g id="Layer_25" data-name="Layer 25"><polyline points="645.51 514.58 645.51 543.38 482.41 543.38 524.71 340.28 578.71 340.28 645.51 340.28 645.51 507.58" fill="#fff"/><path d="M645.51,544.38H482.41a.91.91,0,0,1-.8-.4.78.78,0,0,1-.2-.8L523.61,340a1,1,0,0,1,1-.8h120.9a.94.94,0,0,1,1,1v167.4a1,1,0,0,1-2,0V341.28h-119l-41.8,201.2h160.8v-27.9a1,1,0,0,1,2,0v28.8A.94.94,0,0,1,645.51,544.38Z"/><rect x="281.81" y="475.68" width="224.8" height="67.7" fill="#fff"/><path d="M506.61,544.38H281.81a.94.94,0,0,1-1-1v-67.7a.94.94,0,0,1,1-1h224.8a.94.94,0,0,1,1,1v67.7A1,1,0,0,1,506.61,544.38Zm-223.8-2h222.8v-65.7H282.81Z"/><path d="M281.81,476.68h-11.2a1,1,0,0,1,0-2h11.2a1,1,0,0,1,0,2Z"/><rect x="317.91" y="407.98" width="224.8" height="67.7" fill="#fff"/><path d="M542.71,476.68H317.91a.94.94,0,0,1-1-1V408a.94.94,0,0,1,1-1h224.8a.94.94,0,0,1,1,1v67.7A1,1,0,0,1,542.71,476.68Zm-223.8-2h222.8V409H318.91Z"/><path d="M317.91,409h-11.2a1,1,0,0,1,0-2h11.2a.94.94,0,0,1,1,1A1,1,0,0,1,317.91,409Z"/><polyline points="419.41 340.28 353.91 340.28 353.91 407.98 578.71 407.98 578.71 340.28 500.51 340.28" fill="#fff"/><path d="M578.71,409H353.91a.94.94,0,0,1-1-1v-67.7a.94.94,0,0,1,1-1h65.5a1,1,0,1,1,0,2h-64.5V407h222.8v-65.7h-77.3a1,1,0,0,1,0-2h78.3a.94.94,0,0,1,1,1V408A.94.94,0,0,1,578.71,409Z"/><path d="M353.91,341.28h-11.2a1,1,0,0,1,0-2h11.2a1,1,0,1,1,0,2Z"/><path d="M596.29,491.78c1-3.9,8.4-23.6,33.6-24.3,1.4,5.6-7.5,16.5-19.7,20.1-13.9,4.1-15.2,12.8-15.2,12.8A54.82,54.82,0,0,1,596.29,491.78Z" fill="#cbcbca"/><polygon points="612.39 542.77 577.59 542.77 569.69 500.38 620.19 500.38 612.39 542.77" fill="#cbcbca"/><path d="M621.19,515.78h-52.5a1,1,0,0,1,0-2h52.5a.94.94,0,0,1,1,1A1,1,0,0,1,621.19,515.78Z"/><path d="M578.19,471.88a.6.6,0,0,1-.4-.1,23.61,23.61,0,0,0-10.1-1.5,1,1,0,0,1-.2-2,24.76,24.76,0,0,1,11,1.7.92.92,0,0,1,.5,1.3A.84.84,0,0,1,578.19,471.88Z"/><path d="M595,501.38a1,1,0,0,1-1-1c0-.2-1.1-18.6-12.4-26.5a1,1,0,1,1,1.2-1.6c12.1,8.5,13.2,27.3,13.2,28.1a1,1,0,0,1-1,1Z"/><polygon points="215.28 519.95 215.26 530.85 215.24 542.55 265.74 542.63 265.78 520.03 215.28 519.95" fill="#fff"/><path d="M265.74,543.63l-50.4-.08a.94.94,0,0,1-1-1l0-22.6a.94.94,0,0,1,1-1l50.4.08a1,1,0,0,1,1,1l0,22.6A1.06,1.06,0,0,1,265.74,543.63Zm-49.5-2.08,48.4.08,0-20.6-48.4-.08,0,20.6Z"/><path d="M215.26,532.25h-5.7a1,1,0,1,1,0-2h5.7a1,1,0,0,1,0,2Z"/><rect x="202.96" y="527.53" width="5.8" height="7.4" transform="translate(-325.7 736.22) rotate(-89.91)" fill="#0E7490"/><polygon points="310.23 492.31 299.32 492.29 287.63 492.27 287.54 542.67 310.14 542.71 310.23 492.31" fill="#fff"/><path d="M310.14,543.71l-22.6,0a.94.94,0,0,1-1-1l.08-50.4a1,1,0,0,1,1-1l22.6,0a.93.93,0,0,1,1,1l-.08,50.4A1.08,1.08,0,0,1,310.14,543.71Zm-21.6-2,20.6,0,.08-48.4-20.6,0Z"/><path d="M298.92,493.29a.94.94,0,0,1-1-1v-5.7a1,1,0,0,1,1-1,.93.93,0,0,1,1,1v5.7A1.08,1.08,0,0,1,298.92,493.29Z"/><rect x="295.24" y="479.89" width="7.4" height="5.8" transform="translate(-184.34 780.94) rotate(-89.91)" fill="#0E7490"/><path d="M305.31,500.5a.94.94,0,0,1-1-1v-7.2a1,1,0,0,1,1-1,.93.93,0,0,1,1,1v7.2A1,1,0,0,1,305.31,500.5Z"/><path d="M305.3,509.9a.94.94,0,0,1-1-1v-3.3a1,1,0,0,1,2,0v3.2A1.1,1.1,0,0,1,305.3,509.9Z"/><polygon points="282.13 492.26 271.23 492.24 259.52 492.22 259.44 542.62 282.04 542.66 282.13 492.26" fill="#fff"/><path d="M282,543.66l-22.6,0a.94.94,0,0,1-1-1l.08-50.4a1,1,0,0,1,1-1l22.6,0a.93.93,0,0,1,1,1l-.08,50.4A1.08,1.08,0,0,1,282,543.66Zm-21.6-2,20.6,0,.08-48.4-20.6,0Z"/><path d="M270.82,493.24a.94.94,0,0,1-1-1v-5.7a1,1,0,0,1,1-1,.93.93,0,0,1,1,1v5.7A1.08,1.08,0,0,1,270.82,493.24Z"/><rect x="267.14" y="479.84" width="7.4" height="5.8" transform="translate(-212.35 752.79) rotate(-89.91)" fill="#0E7490"/><path d="M268.22,492.24l-8.7,0,0,15.2a4.3,4.3,0,1,0,8.6,0V501a2.48,2.48,0,0,0,2.5,2.5h0a2.47,2.47,0,0,0,2.5-2.49v-8.8Z" fill="#cbcbca"/><path d="M527.49,544.41H179.19a1,1,0,1,1,0-2h348.4a.94.94,0,0,1,1,1A1,1,0,0,1,527.49,544.41Z"/><path d="M454.26,310.6h-6.4a26.24,26.24,0,0,0-19,8.1l-16.6,17.4-6.9-24.8-23.1,2.1,11.6,37.9,73.6,46.8c6.2-7.9,9.6-34.5,9.6-34.5l.3,2.2,4.8,30.9,29.3-4.6-21.7-63.2a25.5,25.5,0,0,0-19.8-17l-3.9-.7Z" fill="#fff"/><path d="M525.81,400.46c5.7-.1,4.9-2.1,4.9-2.1s-.1-1.8-3.9-2-13.8,3.3-13.8,3.3C517,402.86,525.81,400.56,525.81,400.46Z" fill="#fff"/><path d="M512.51,400.46a1,1,0,0,1-.4-1,1.14,1.14,0,0,1,.7-.8c.4-.1,10.2-3.5,14.1-3.3s4.7,2.2,4.8,2.8a2,2,0,0,1-.3,1.6c-.7,1.1-2.5,1.7-5.5,1.8a26.24,26.24,0,0,1-6.5.8C516.91,402.36,514.21,402,512.51,400.46Zm17.2-1.8s-.3-1.1-3-1.2c-2.4-.1-7.7,1.4-11.2,2.5,4,1.2,9.9-.3,10-.3h.2c3.2-.1,3.9-.8,4-.9Z"/><path d="M387.21,287.76c2.1-1.3.7-10.5.6-11.9s-2.1-3.5-3.8-2-3.1,14-3.1,14C382.31,289.16,385.11,289.26,387.21,287.76Z" fill="#fff"/><path d="M380.21,288.66a1.61,1.61,0,0,1-.3-.9c.4-3,1.6-13,3.5-14.6a2.75,2.75,0,0,1,3.1-.5,4,4,0,0,1,2.4,3.2,6.25,6.25,0,0,0,.1,1.2c.7,6.2.7,10.5-1.2,11.7a7.94,7.94,0,0,1-3.9,1.1A5.86,5.86,0,0,1,380.21,288.66Zm4.5-13.9c-.8.8-2,7.2-2.7,12.8a5,5,0,0,0,4.7-.4c.5-.3,1.1-2,.3-9.8,0-.6-.1-1.1-.1-1.3a2.48,2.48,0,0,0-1.2-1.5.6.6,0,0,0-.4-.1A.86.86,0,0,0,384.71,274.76Z"/><polygon points="382.81 263.96 407.11 263.96 412.11 304.36 387.81 304.36 382.81 263.96" fill="#d7d7d7"/><circle cx="401.51" cy="269.56" r="1.3"/><path d="M344.41,448l-2.5,10.9s-32.7,8-33.6,11.7,4.1,3.8,4.1,3.8h56.5l.2-25.6Z" fill="#fff"/><path d="M307.71,473.36a3.59,3.59,0,0,1-.5-3.1c.9-3.7,23.4-9.7,33.7-12.2l2.3-10.3a1,1,0,0,1,1-.8l24.8.8a1,1,0,0,1,1,1l-.2,25.6a1,1,0,0,1-1,1h-56.5C312,475.36,309.11,475.26,307.71,473.36Zm60.3-23.7-23-.7-2.3,10.1a.85.85,0,0,1-.7.8c-15.4,3.8-31.9,9-32.9,11a1.47,1.47,0,0,0,.2,1.4,4.32,4.32,0,0,0,3,1.1h55.5Z"/><polygon points="411.01 366.66 346.61 373.46 332.51 451.06 379.81 456.56 375.01 400.26 426.61 408.06 411.01 366.66" fill="#0E7490"/><path d="M319.51,390.76l-9.7,5.6s-27.9-18.7-31.3-16.9,0,5.6,0,5.6l38.1,41.7,19.1-17.1Z" fill="#fff"/><path d="M315.81,427.36l-38.1-41.7c-.2-.2-2.1-2.4-1.7-4.6a3.72,3.72,0,0,1,2-2.5c3.4-1.9,23,10.7,31.8,16.6l9.2-5.3a.93.93,0,0,1,1.3.2l16.2,18.9a1.07,1.07,0,0,1-.1,1.4l-19,17.1a1.08,1.08,0,0,1-.7.3A1.22,1.22,0,0,1,315.81,427.36Zm3.5-35.4-9,5.2a1.08,1.08,0,0,1-1.1,0c-13.2-8.9-28.1-17.6-30.3-16.9-.8.4-.9.9-.9,1.1a4.37,4.37,0,0,0,1.2,3l37.5,41,17.6-15.8Z"/><path d="M482.11,397.36a1,1,0,0,1-.4-.7l-7.2-46.9a1,1,0,1,1,1.9-.3l7.1,45.9,27.1-4.2-21.3-62.1a24.85,24.85,0,0,0-19.1-16.3l-3.9-.7a1,1,0,0,1,.4-2l3.9.7a26.52,26.52,0,0,1,20.6,17.6l21.7,63.2a.8.8,0,0,1-.1.8c-.2.3-.4.5-.7.5l-29.3,4.6h-.2A4.33,4.33,0,0,1,482.11,397.36Z"/><path d="M505.81,392.66a26.52,26.52,0,0,0,7.2,6.9c12.2-1.6,18.2,3.7,18.2,3.7s2.7,2.1,2.4,3.6c-.5,2.3-2.9,2.3-4.3,1.4a3.16,3.16,0,0,1-1.7,4.9c-2.3.5-3.9-2.5-3.9-2.5s1.5,4.5-1.5,4.9-3.5-2.6-3.5-2.6a8.53,8.53,0,0,0-3.7-4.7c-2.9-1.7-15.4-1.2-15.4-1.2,1.7,2.5,10.4,6.8,7.1,9.1-2.6,1.7-8.7-2.1-8.7-2.1-4-1.8-6.2-8.3-6.2-8.3l-3.5-10.2S502.71,393.26,505.81,392.66Z" fill="#fff"/><path d="M497.61,414.86c-4.4-2-6.6-8.6-6.7-8.9l-3.5-10.2a.8.8,0,0,1,.1-.8c.2-.3.4-.5.7-.5l17.5-2.7a.88.88,0,0,1,1,.5c.8,1.6,4.1,4.7,6.5,6.3,12.3-1.5,18.4,3.7,18.6,3.9.5.4,3.2,2.6,2.7,4.6a3.14,3.14,0,0,1-1.9,2.4,3.81,3.81,0,0,1-1.8.3,4.4,4.4,0,0,1-.2,1.6,4,4,0,0,1-2.9,2.7,3.36,3.36,0,0,1-2.8-.5,4.28,4.28,0,0,1-.5,1.6,2.8,2.8,0,0,1-2.2,1.4,4.08,4.08,0,0,1-4.6-3.4,7.22,7.22,0,0,0-3.2-4.1c-1.7-.9-7.9-1.2-12.6-1.1.5.4,1.1.9,1.7,1.3,2.6,1.9,5,3.8,4.9,5.7a2.23,2.23,0,0,1-1.2,2,4.38,4.38,0,0,1-2.3.6C501.91,417.56,498.21,415.36,497.61,414.86Zm17.8-7.6a9.62,9.62,0,0,1,4.1,5.4,2.11,2.11,0,0,0,2.4,1.8.78.78,0,0,0,.8-.4,4.73,4.73,0,0,0-.1-3.1.88.88,0,0,1,.5-1.2,1,1,0,0,1,1.3.4c0,.1,1.3,2.3,2.8,2a1.84,1.84,0,0,0,1.4-1.3,1.8,1.8,0,0,0-.2-1.9,1.05,1.05,0,0,1,0-1.3,1,1,0,0,1,1.3-.2,3.12,3.12,0,0,0,2.1.2,1.37,1.37,0,0,0,.8-1c.1-.4-.8-1.7-2-2.6,0,0-5.8-4.9-17.4-3.4a.82.82,0,0,1-.7-.1,30.1,30.1,0,0,1-7.1-6.7l-15.7,2.5,3.1,9.1c0,.1,2,6.1,5.6,7.7a.1.1,0,0,0,.1.1c1.8,1.1,6.1,3.1,7.6,2.1.2-.2.3-.3.3-.4,0-.9-2.6-2.9-4.1-4.1a20,20,0,0,1-3.6-3.3.92.92,0,0,1-.1-1,1.05,1.05,0,0,1,.9-.5c.5,0,2-.1,4-.1C507.51,406,513.41,406.16,515.41,407.26Z"/><path d="M522.71,411.06c-.5-1.2-2.2-4.5-4.4-5.3a1,1,0,0,1,.7-1.9c3.4,1.3,5.4,6.2,5.5,6.4a.92.92,0,0,1-.5,1.3.6.6,0,0,1-.4.1A1,1,0,0,1,522.71,411.06Z"/><path d="M528.41,408.76a13.43,13.43,0,0,0-4.6-3.7,1,1,0,0,1,.8-1.8,16.35,16.35,0,0,1,5.4,4.4,1.08,1.08,0,0,1-.2,1.4,1.42,1.42,0,0,1-.6.2A.82.82,0,0,1,528.41,408.76Z"/><path d="M393.51,351.26l-11.6-37.9a1.34,1.34,0,0,1,.1-.9.84.84,0,0,1,.7-.4l23.1-2.1a.92.92,0,0,1,1.1.7l6.4,23.1,15.4-16.1a27.55,27.55,0,0,1,19.7-8.4h6.4a1,1,0,0,1,0,2h-6.4a25.17,25.17,0,0,0-18.3,7.8l-16.6,17.4a1,1,0,0,1-1,.3,1.21,1.21,0,0,1-.7-.7l-6.6-24-21.1,1.9,11.2,36.8a1.09,1.09,0,0,1-.7,1.2h-.3C393.81,352,393.41,351.66,393.51,351.26Z"/><path d="M438,409.36c-15.5,0-26.1-6.9-33.8-15.7l-19.8-22.6s-47,45.9-47.2,45.9-26.5-31-26.5-31l54.1-39.5a24.31,24.31,0,0,1,25.7-.3c24.5,14.9,75.2,45.7,76.5,46.6C467,392.76,453.61,409.46,438,409.36Z" fill="#0E7490"/><path d="M336.31,417.16a1.09,1.09,0,0,1,.4-.9c1.4-1.2,31.4-30.4,47.1-45.8a1,1,0,0,1,1.4,0l19.8,22.6c9.1,10.4,19.9,15.4,33.1,15.4a1,1,0,0,1,0,2c-13.8,0-25.1-5.3-34.6-16.1l-19.1-21.8c-46.5,45.3-46.5,45.3-47,45.4h-.1A1,1,0,0,1,336.31,417.16Z"/><path d="M410.91,361.66a1,1,0,0,1,.3-1.4c13.5-8.1,27-30.5,27.1-30.7a1,1,0,0,1,1.7,1.1c-.5.9-13.9,23-27.8,31.4a.75.75,0,0,1-.5.1A.89.89,0,0,1,410.91,361.66Z"/><path d="M467.31,398.56a1,1,0,0,1-.2-1.4c6-7.6,9.4-33.7,9.4-34a1,1,0,0,1,2,.2c-.2,1.1-3.5,27-9.8,35a.91.91,0,0,1-.8.4A1.07,1.07,0,0,1,467.31,398.56Z"/><path d="M383.71,371.76l-4.2-4.9a1,1,0,0,1,1.5-1.3l4.2,4.9a1,1,0,0,1-.1,1.4,1.07,1.07,0,0,1-.6.2A1.14,1.14,0,0,1,383.71,371.76Z"/><path d="M386.91,403l-19.8-2.9a1,1,0,1,1,.3-1.9l19.8,2.9a.94.94,0,0,1,.8,1.1,1.06,1.06,0,0,1-1,.9A.1.1,0,0,1,386.91,403Z"/><path d="M401.51,311.36c-1.1-4-5.6-6.9-5.6-6.9s.1,0,4.2,1.2,4.2-1.4,4.2-1.4.5-2.8-4.2-3.9c1.9-.4,4.1-.7,4.2-2.5.1-2.4-4.2-2.7-4.2-2.7s3.3.1,3.4-2.4c0-2-4.5-2.9-4.5-2.9s3.3,0,2.9-3.2c-.6-3.6-12.2-4.1-17.6-2.2-.3.1-.5.2-.8.3-5,2.3-3.3,12.7,0,17.3a23.2,23.2,0,0,1,3.7,10.6S398.91,311.56,401.51,311.36Z" fill="#fff"/><path d="M386.31,313.56a.91.91,0,0,1-.3-.7,21.88,21.88,0,0,0-3.5-10.1c-2.4-3.3-4.1-9.8-2.9-14.4a6,6,0,0,1,3.3-4.3,3.55,3.55,0,0,1,.9-.4c4.7-1.6,13.4-1.6,17.1.6a3.57,3.57,0,0,1,1.8,2.4,3.5,3.5,0,0,1-.8,3,.35.35,0,0,1-.1.2c1.3.6,2.6,1.5,2.6,3a3.73,3.73,0,0,1-1,2.3h0a3,3,0,0,1,1.8,2.9,2.79,2.79,0,0,1-2,2.6,4.29,4.29,0,0,1,2.1,3.8,2.5,2.5,0,0,1-1.1,2q-1.5,1.05-4.2.3a12.64,12.64,0,0,1,2.5,4.4.75.75,0,0,1-.1.8.84.84,0,0,1-.7.4l-14.5,1.3h0A7.75,7.75,0,0,0,386.31,313.56Zm9.2-8.3a1,1,0,0,1-.4-1.3,1.08,1.08,0,0,1,1.2-.5l4.2,1.2a3.35,3.35,0,0,0,2.6.1.65.65,0,0,0,.3-.5v-.1c.1-.1.2-2-3.4-2.8a1,1,0,0,1,0-2l.3-.1c1.7-.3,2.9-.6,3-1.5.1-1.2-2.5-1.7-3.2-1.7a1,1,0,0,1-.9-1,.92.92,0,0,1,1-.9,3.29,3.29,0,0,0,2-.6,1,1,0,0,0,.3-.8c0-.7-2-1.6-3.7-1.9a1.08,1.08,0,0,1-.8-1.1,1.06,1.06,0,0,1,1-.9,2.38,2.38,0,0,0,1.6-.6,1.57,1.57,0,0,0,.3-1.4,1.76,1.76,0,0,0-.9-1c-2.9-1.7-10.9-1.9-15.4-.4-.2.1-.5.2-.7.3a4.46,4.46,0,0,0-2.2,3c-1.1,3.9.5,9.8,2.6,12.7a23.21,23.21,0,0,1,3.8,10.1l12.2-1.1A15,15,0,0,0,395.51,305.26Z"/><path d="M390.51,290.16a1,1,0,0,1,.7-1.2c1.2-.3,6.3-.1,7.9,0a1,1,0,1,1-.1,1.9,55.67,55.67,0,0,0-7.3,0h-.3A1,1,0,0,1,390.51,290.16Z"/><path d="M400.21,296.16c-.1,0-6.5-.5-8.2-.4a1,1,0,0,1-.2-2c2-.1,8.2.4,8.5.4a1.09,1.09,0,0,1,.9,1.1,1,1,0,0,1-1,.9Z"/><path d="M400.11,301.26c-1.7-.4-6.5-1.4-8.3-.9a1,1,0,1,1-.5-1.9c2.5-.7,8.5.7,9.2.9a1,1,0,0,1,.7,1.2,1,1,0,0,1-1,.8C400.11,301.36,400,301.36,400.11,301.26Z"/><polygon points="556.73 198.59 558.09 213.83 592.25 177.04 556.73 198.59" fill="#0E7490"/><polygon points="536.22 197.22 556.73 198.59 592.25 177.04 536.22 197.22" fill="#fff"/><path d="M556.82,199.59l-.2,0-20.5-1.28a.94.94,0,0,1-.88-.82,1,1,0,0,1,.61-1.06l56-20.18a1,1,0,0,1,1.25.49.88.88,0,0,1-.39,1.24l-35.42,21.45C557.11,199.46,557,199.57,556.82,199.59Zm-15.73-3,15.34.94,26.67-16.15Z"/><polygon points="592.25 177.04 574.52 208.95 556.73 198.59 592.25 177.04" fill="#fff"/><path d="M574.61,209.94a1.36,1.36,0,0,1-.61-.14l-17.81-10.46a1,1,0,0,1-.48-.86.78.78,0,0,1,.53-.85l35.52-21.55a1,1,0,0,1,1.42,1.28l-17.73,31.9a1,1,0,0,1-.66.47C574.71,209.93,574.71,209.93,574.61,209.94Zm-15.88-11.43,15.47,9.06,15.38-27.78Z"/><path d="M435.94,272.2s-8.55-.34-8.55,4.15c0,3,6.05,4.74,8,6.21s.95,12.69,6.13,18.13c2.59,2.67,7.94,4.49,13.21,3.45l.43-.09,1.21,6.22s5.26,2.67,9.23.78c.35-4.23,1.12-18,1.12-18s5.61,2.25,6.91-2.85-3.71-7.85-7.51-5.35l1.47-14.24-29.95-.52Z" fill="#fff"/><path d="M466.06,285.06l-.52-13.72-28.05-1.12s-10.44-13,5.1-16.49c4.66-.86,6.64,4.66,6.64,4.66s7.68-8.46,18.13-4.49,8.72,14.51,8.72,14.51,7.59,2.24,6.81,8.63-5.09,8.8-5.09,8.8,7.68,5.18,3,11.39-14.5,1.13-14.5,1.13l.26-5.1s3.19,1.13,4.83,0a5.37,5.37,0,0,0,2.08-3.45,5.09,5.09,0,0,0-1.56-4.83C469.26,282.91,466.06,285.06,466.06,285.06Z" fill="#0E7490"/><path d="M451.73,305.43a17.4,17.4,0,0,0,6.48-1.29.86.86,0,0,0,.43-1.12.85.85,0,0,0-1.12-.43c-5.79,2.5-12.43.69-15.28-2.33-3-3.2-3.8-8.55-4.4-12.52-.43-3-.78-5-1.81-5.78a14.18,14.18,0,0,0-2.59-1.47c-2.08-1-5-2.5-5-4.06a2.21,2.21,0,0,1,.69-1.64c1.64-1.55,5.52-1.72,6.91-1.64a.86.86,0,0,0,.86-.86.81.81,0,0,0-.86-.86c-.26,0-5.7-.26-8.2,2.15a3.6,3.6,0,0,0-1.21,2.85c0,2.68,3.28,4.32,5.95,5.61a17.25,17.25,0,0,1,2.33,1.3c.52.34.87,2.76,1.13,4.66.6,4.14,1.55,9.84,4.92,13.38C443.19,303.79,447.33,305.43,451.73,305.43Z"/><circle cx="449.32" cy="276.26" r="1.29"/><circle cx="443.88" cy="275.83" r="1.29"/><path d="M462.27,312.77A9.54,9.54,0,0,0,466,312a.87.87,0,0,0,.43-.69c.26-3.45.86-13.55,1-16.83a6.7,6.7,0,0,0,4.41-.34,4.85,4.85,0,0,0,2.5-3.45c.6-2.59-.09-4.92-2.07-6.31a6,6,0,0,0-6.82.09.88.88,0,1,0,1,1.47,4.29,4.29,0,0,1,4.83-.09,4.15,4.15,0,0,1,1.38,4.49,3.18,3.18,0,0,1-1.64,2.33c-1.72.86-4.05-.09-4.14-.09a.87.87,0,0,0-.78.09,1.18,1.18,0,0,0-.43.69c0,.17-.69,12.78-1,17.44-2.85,1.12-6.48-.26-7.6-.78l-1.12-5.78a.88.88,0,0,0-1.73.34l1.21,6.22a1.13,1.13,0,0,0,.43.6C456.14,311.3,459.07,312.77,462.27,312.77Z"/><path d="M370,269.26a1,1,0,0,1-.6-.2s-1.73-1.32-4.84-3.46A1,1,0,0,1,365.7,264c3.16,2.18,4.85,3.47,4.92,3.52a1,1,0,0,1-.61,1.79Z"/><path d="M482.26,435.82h0c-3.95,0-8-.08-11.95-.18a1,1,0,0,1-1-1,1,1,0,0,1,1-1c4,.1,8,.16,11.91.18a1,1,0,0,1,1,1A1,1,0,0,1,482.26,435.82Zm11.92-.06a1,1,0,0,1,0-2c4-.07,8-.18,11.89-.33a1,1,0,0,1,1,1,1,1,0,0,1-1,1c-3.89.16-7.91.27-11.94.34Zm-35.76-.54h0c-3.92-.18-7.94-.4-11.92-.66a1,1,0,1,1,.12-2c4,.25,8,.47,11.89.65a1,1,0,0,1-.05,2Zm59.59-.41a1,1,0,0,1-.06-2c4-.26,8-.57,11.86-.92a1,1,0,0,1,.18,2c-3.88.35-7.88.67-11.91.93Zm-83.38-1.12h-.08c-3.94-.32-7.95-.7-11.89-1.1a1,1,0,1,1,.2-2c3.94.4,7.92.77,11.85,1.1a1,1,0,0,1-.08,2Zm107.12-1.08a1,1,0,0,1-.12-2c4-.49,8-1.05,11.78-1.65a1,1,0,1,1,.31,2c-3.82.61-7.8,1.17-11.84,1.67Zm-130.84-1.34h-.12c-3.94-.48-7.93-1-11.84-1.55a1,1,0,0,1,.28-2c3.9.55,7.87,1.07,11.8,1.54a1,1,0,0,1-.12,2Zm154.39-2.42a1,1,0,0,1-.2-2c4-.81,7.9-1.7,11.58-2.64a1,1,0,0,1,.49,1.94c-3.7.95-7.63,1.84-11.67,2.66Zm-178-.9h-.16c-3.93-.63-7.89-1.3-11.77-2a1,1,0,1,1,.35-2c3.87.7,7.82,1.37,11.73,2a1,1,0,0,1-.15,2Zm-23.47-4.22-.2,0c-3.92-.79-7.85-1.62-11.68-2.48a1,1,0,0,1-.76-1.19,1,1,0,0,1,1.2-.76c3.81.85,7.73,1.68,11.64,2.47a1,1,0,0,1-.2,2Zm224.55-.83a1,1,0,0,1-1-.69,1,1,0,0,1,.64-1.27c3.94-1.28,7.67-2.67,11.08-4.12a1,1,0,1,1,.79,1.84c-3.47,1.47-7.25,2.88-11.25,4.19A1.18,1.18,0,0,1,588.38,422.9Zm-247.81-4.37a1.1,1.1,0,0,1-.25,0c-3.88-1-7.77-2-11.56-3a1,1,0,0,1,.53-1.93c3.77,1,7.64,2,11.51,3a1,1,0,0,1-.23,2Zm269.63-5.11a1,1,0,0,1-.86-.49,1,1,0,0,1,.36-1.37,58.6,58.6,0,0,0,9.48-6.83,1,1,0,0,1,1.34,1.48,59.4,59.4,0,0,1-9.81,7.07A.94.94,0,0,1,610.2,413.42Zm-292.64-1.13a.92.92,0,0,1-.28-.05c-3.85-1.14-7.68-2.34-11.41-3.56a1,1,0,1,1,.63-1.9c3.7,1.21,7.52,2.41,11.35,3.55a1,1,0,0,1-.29,2Zm-22.63-7.47a1,1,0,0,1-.35-.06c-3.74-1.38-7.49-2.83-11.14-4.33a1,1,0,0,1,.75-1.85c3.64,1.49,7.36,2.93,11.08,4.3a1,1,0,0,1-.34,1.94Zm332.32-7.58a1,1,0,0,1-.46-.11,1,1,0,0,1-.42-1.36,23.65,23.65,0,0,0,2.85-10.91,1,1,0,0,1,1-1h0a1,1,0,0,1,1,1,25.57,25.57,0,0,1-3.08,11.82A1,1,0,0,1,627.25,397.24Zm-354.38-1.45a1,1,0,0,1-.41-.09c-3.63-1.65-7.26-3.38-10.8-5.15a1,1,0,0,1,.9-1.79c3.52,1.76,7.12,3.48,10.72,5.11a1,1,0,0,1-.41,1.92Zm-21.3-10.69a1,1,0,0,1-.49-.13c-3.49-1.93-7-4-10.34-6a1,1,0,0,1-.34-1.37,1,1,0,0,1,1.38-.34c3.34,2,6.8,4,10.27,6a1,1,0,0,1-.48,1.88Zm376.32-10.83a1,1,0,0,1-.93-.63,47.06,47.06,0,0,0-3.86-7.46c-.58-.93-1.19-1.84-1.81-2.75a1,1,0,0,1,1.65-1.13c.64.93,1.27,1.88,1.86,2.82a48.93,48.93,0,0,1,4,7.78,1,1,0,0,1-.56,1.29A1,1,0,0,1,627.89,374.27ZM231.21,372.7a1,1,0,0,1-.56-.17c-3.32-2.22-6.61-4.54-9.78-6.88a1,1,0,1,1,1.19-1.61c3.14,2.33,6.41,4.62,9.71,6.83a1,1,0,0,1,.27,1.39A1,1,0,0,1,231.21,372.7Zm-19.16-14.16a1,1,0,0,1-.64-.23c-3.12-2.54-6.17-5.17-9.07-7.8a1,1,0,0,1,1.34-1.48c2.88,2.61,5.9,5.21,9,7.73a1,1,0,0,1-.63,1.78Zm402.69-4a1,1,0,0,1-.74-.33,109.77,109.77,0,0,0-8.37-8.33,1,1,0,0,1,1.34-1.49,113.75,113.75,0,0,1,8.52,8.48,1,1,0,0,1-.75,1.67Zm-420.34-12a1,1,0,0,1-.72-.3c-2.83-2.88-5.58-5.83-8.15-8.77a1,1,0,0,1,1.5-1.32c2.55,2.92,5.27,5.84,8.08,8.68a1,1,0,0,1,0,1.42A1,1,0,0,1,194.4,342.53Zm402.68-4a1,1,0,0,1-.6-.2c-3-2.25-6.28-4.54-9.72-6.78a1,1,0,0,1,1.09-1.68c3.48,2.27,6.79,4.58,9.83,6.86a1,1,0,0,1,.2,1.41A1,1,0,0,1,597.08,338.57Zm-19.94-13.06a1,1,0,0,1-.5-.14c-3.21-1.87-6.61-3.76-10.4-5.79a1,1,0,0,1,1-1.76c3.8,2,7.22,3.94,10.45,5.82a1,1,0,0,1-.5,1.87Zm-398.4-.94a1,1,0,0,1-.8-.4c-2.46-3.23-4.78-6.53-6.9-9.8a1,1,0,1,1,1.68-1.09c2.09,3.23,4.38,6.49,6.81,9.68a1,1,0,0,1-.19,1.4A1,1,0,0,1,178.74,324.57Zm377.39-10.38a1.06,1.06,0,0,1-.45-.11c-2.93-1.5-5.84-3-8.7-4.4l-2-1a1,1,0,0,1,.9-1.78l2,1q4.29,2.14,8.71,4.4a1,1,0,0,1-.46,1.89Zm-390.29-9.64A1,1,0,0,1,165,304a115,115,0,0,1-5.06-10.91,1,1,0,0,1,1.86-.74,113.49,113.49,0,0,0,5,10.72,1,1,0,0,1-.42,1.35A1,1,0,0,1,165.84,304.55Zm369-1.16a1,1,0,0,1-.46-.11c-4.07-2.12-7.5-4-10.52-5.72a1,1,0,0,1,1-1.74c3,1.72,6.4,3.58,10.44,5.69a1,1,0,0,1-.46,1.88Zm-20.57-12.05a1,1,0,0,1-.58-.18,62.87,62.87,0,0,1-9.26-7.77,1,1,0,1,1,1.45-1.38,60.06,60.06,0,0,0,9,7.51,1,1,0,0,1,.24,1.39A1,1,0,0,1,514.28,291.34Zm-357.15-8.92a1,1,0,0,1-1-.75,72.38,72.38,0,0,1-2-11.9,1,1,0,0,1,.92-1.08,1,1,0,0,1,1.08.92,69.42,69.42,0,0,0,1.95,11.57,1,1,0,0,1-.72,1.21Zm341.59-8.58a1,1,0,0,1-.94-.66,21.07,21.07,0,0,1-1.27-7.19,23.26,23.26,0,0,1,.57-5,1,1,0,1,1,1.95.44,21.7,21.7,0,0,0-.52,4.6,19.08,19.08,0,0,0,1.15,6.51,1,1,0,0,1-.6,1.28A1,1,0,0,1,498.72,273.84ZM355.14,259.28a1,1,0,0,1-.52-.15c-3.31-2-6.76-4.07-10.24-6a1,1,0,0,1,1-1.74c3.51,2,7,4,10.31,6.08a1,1,0,0,1-.53,1.85Zm-199.69-.47h-.14a1,1,0,0,1-.85-1.13,44.21,44.21,0,0,1,3.28-11.7,1,1,0,0,1,1.32-.52,1,1,0,0,1,.51,1.32,42.43,42.43,0,0,0-3.13,11.17A1,1,0,0,1,155.45,258.81Zm347.33-7.51a1,1,0,0,1-.53-.15,1,1,0,0,1-.31-1.38,72,72,0,0,1,7.35-9.58,1,1,0,0,1,1.49,1.34,70.27,70.27,0,0,0-7.15,9.3A1,1,0,0,1,502.78,251.3Zm-168.42-3.72a1,1,0,0,1-.46-.11c-3.51-1.8-7.1-3.55-10.68-5.2a1,1,0,0,1,.84-1.82c3.6,1.67,7.22,3.43,10.76,5.24a1,1,0,0,1-.46,1.89Zm-21.64-10a1,1,0,0,1-.38-.07c-3.67-1.52-7.4-3-11.07-4.32a1,1,0,1,1,.68-1.88c3.71,1.36,7.46,2.82,11.15,4.35a1,1,0,0,1-.38,1.92ZM165,237.36a1,1,0,0,1-.66-.25,1,1,0,0,1-.1-1.41,44.05,44.05,0,0,1,9.24-7.9,1,1,0,0,1,1.08,1.69,41.61,41.61,0,0,0-8.81,7.53A1,1,0,0,1,165,237.36Zm353.41-3.94a1,1,0,0,1-.68-1.74c2.74-2.51,5.79-5.14,9.08-7.81a1,1,0,0,1,1.41.15,1,1,0,0,1-.15,1.4c-3.25,2.65-6.28,5.25-9,7.74A1.05,1.05,0,0,1,518.44,233.42Zm-228.12-4a1,1,0,0,1-.3,0c-3.8-1.2-7.64-2.31-11.41-3.3a1,1,0,0,1-.71-1.22,1,1,0,0,1,1.22-.71c3.8,1,7.67,2.11,11.5,3.32a1,1,0,0,1-.3,2Zm-105.6-5a1,1,0,0,1-.34-1.94A74.84,74.84,0,0,1,196,219.29a1,1,0,0,1,.37,2,72.15,72.15,0,0,0-11.32,3.08A1.07,1.07,0,0,1,184.72,224.4Zm82.55-1.05a.76.76,0,0,1-.21,0c-3.9-.82-7.83-1.53-11.67-2.12a1,1,0,0,1,.3-2c3.88.6,7.85,1.32,11.78,2.15a1,1,0,0,1,.78,1.18A1,1,0,0,1,267.27,223.35Zm-23.55-3.62h-.1c-4-.38-7.93-.64-11.83-.77a1,1,0,0,1-1-1,1,1,0,0,1,1-1c3.94.14,8,.4,11.95.78a1,1,0,0,1-.09,2ZM208,219.67a1,1,0,0,1-1-.9,1,1,0,0,1,.89-1.09c3.93-.39,8-.64,12-.76a1,1,0,0,1,1,1,1,1,0,0,1-1,1c-4,.11-7.94.37-11.82.75Z"/><path d="M537.1,218.19a1,1,0,0,1-.8-.41,1,1,0,0,1,.2-1.4q2.36-1.74,4.87-3.54a1,1,0,0,1,1.16,1.62c-1.66,1.2-3.27,2.37-4.83,3.53A1,1,0,0,1,537.1,218.19Z"/></g></svg>